<?xml version="1.0" encoding="UTF-8" standalone="no"?>
<svg
   xmlns:dc="http://purl.org/dc/elements/1.1/"
   xmlns:cc="http://creativecommons.org/ns#"
   xmlns:rdf="http://www.w3.org/1999/02/22-rdf-syntax-ns#"
   xmlns:svg="http://www.w3.org/2000/svg"
   xmlns="http://www.w3.org/2000/svg"
   xmlns:sodipodi="http://sodipodi.sourceforge.net/DTD/sodipodi-0.dtd"
   xmlns:inkscape="http://www.inkscape.org/namespaces/inkscape"
   sodipodi:docname="8V.svg"
   height="64"
   width="64"
   inkscape:version="1.0 (4035a4fb49, 2020-05-01)"
   version="1.1"
   id="svg2">
  <metadata
     id="metadata8">
    <rdf:RDF>
      <cc:Work
         rdf:about="">
        <dc:format>image/svg+xml</dc:format>
        <dc:type
           rdf:resource="http://purl.org/dc/dcmitype/StillImage" />
        <dc:title></dc:title>
      </cc:Work>
    </rdf:RDF>
  </metadata>
  <defs
     id="defs6" />
  <sodipodi:namedview
     inkscape:document-rotation="0"
     inkscape:current-layer="text837"
     inkscape:window-maximized="1"
     inkscape:window-y="0"
     inkscape:window-x="0"
     inkscape:cy="26.850807"
     inkscape:cx="27.405859"
     inkscape:zoom="9.3465346"
     inkscape:snap-page="true"
     inkscape:snap-center="true"
     inkscape:snap-object-midpoints="true"
     inkscape:snap-midpoints="true"
     inkscape:snap-smooth-nodes="true"
     inkscape:snap-intersection-paths="true"
     inkscape:object-nodes="true"
     inkscape:object-paths="true"
     inkscape:snap-bbox-midpoints="true"
     inkscape:snap-bbox-edge-midpoints="true"
     inkscape:bbox-nodes="true"
     inkscape:bbox-paths="true"
     inkscape:snap-bbox="true"
     showgrid="false"
     id="namedview4"
     inkscape:window-height="1024"
     inkscape:window-width="1920"
     inkscape:pageshadow="2"
     inkscape:pageopacity="0"
     guidetolerance="10"
     gridtolerance="10"
     objecttolerance="10"
     borderopacity="1"
     bordercolor="#666666"
     pagecolor="#ffffff" />
  <g
     transform="translate(-107.73191,-4.8418837)"
     id="g3769">
    <rect
       style="fill:#000000;fill-opacity:1;fill-rule:nonzero;stroke:none;stroke-width:0.636824"
       id="rect2987"
       width="64"
       height="64"
       x="107.73191"
       y="4.8418837" />
    <rect
       style="fill:none;stroke:#ffffff;stroke-width:3.93508;stroke-miterlimit:4;stroke-dasharray:none;stroke-opacity:1"
       id="rect2989"
       width="58.064919"
       height="58.064922"
       x="110.69945"
       y="7.8094244" />
    <g
       style="font-style:normal;font-variant:normal;font-weight:normal;font-stretch:normal;font-size:32px;line-height:1.25;font-family:Roboto;font-variant-ligatures:normal;font-variant-caps:normal;font-variant-numeric:normal;font-feature-settings:normal;text-align:start;letter-spacing:0px;word-spacing:0px;writing-mode:lr-tb;text-anchor:start;fill:#ffffff;fill-opacity:1;stroke:none;stroke-width:4"
       id="text837"
       aria-label="TT">
      <g
         style="font-style:normal;font-variant:normal;font-weight:normal;font-stretch:normal;font-size:24.3447px;line-height:1.25;font-family:Roboto;font-variant-ligatures:normal;font-variant-caps:normal;font-variant-numeric:normal;font-feature-settings:normal;text-align:start;letter-spacing:0px;word-spacing:0px;writing-mode:lr-tb;text-anchor:start;fill:#ffffff;fill-opacity:1;stroke:none;stroke-width:12.1724"
         id="text839"
         aria-label="8V">
        <path
           id="path887"
           style="font-style:normal;font-variant:normal;font-weight:normal;font-stretch:normal;font-family:PoliceSNCF;fill:#ffffff;stroke-width:12.1724"
           d="m 138.09188,31.730447 q 0,-1.331351 -0.57058,-2.638928 -0.59435,-1.260028 -1.56909,-2.282315 -1.02229,-0.998513 -2.30609,-1.569092 -1.28381,-0.570579 -2.61516,-0.570579 -1.33135,0 -2.61515,0.570579 -1.2838,0.594353 -2.28232,1.569092 -0.99851,1.022287 -1.59286,2.282315 -0.59435,1.283803 -0.57058,2.638928 0,0.832094 0.26152,1.664188 0.23774,0.855869 0.61812,1.521544 0.35661,0.713224 0.71323,1.141158 0.35661,0.451708 0.57057,0.546804 -0.99851,0.927191 -1.71173,2.234768 -0.71323,1.331351 -0.68945,2.876669 0,1.33135 0.59435,2.638927 0.61813,1.307577 1.68796,2.377412 1.04607,1.069835 2.35364,1.664188 1.30758,0.618128 2.6627,0.618128 1.33135,0 2.63893,-0.618128 1.30758,-0.618127 2.40119,-1.664188 1.04606,-1.046061 1.64041,-2.377412 0.61813,-1.307577 0.61813,-2.638927 0,-1.545318 -0.71322,-2.876669 -0.71323,-1.307577 -1.68797,-2.234768 0.1902,-0.07132 0.54681,-0.546804 0.35661,-0.427934 0.737,-1.141158 0.35661,-0.68945 0.61812,-1.521544 0.26152,-0.832094 0.26152,-1.664188 z m -4.39821,0 q 0,1.093609 -0.76078,1.878155 -0.80832,0.80832 -1.90193,0.80832 -1.09361,0 -1.87815,-0.80832 -0.80832,-0.784546 -0.80832,-1.878155 0,-1.09361 0.80832,-1.90193 0.78454,-0.784546 1.87815,-0.784546 1.09361,0 1.90193,0.784546 0.76078,0.80832 0.76078,1.90193 z m -5.58692,9.985131 q 0,-0.546805 0.23774,-1.069836 0.23774,-0.523031 0.68945,-0.950965 0.40416,-0.40416 0.95096,-0.665675 0.52303,-0.237741 1.04606,-0.237741 0.54681,0 1.06984,0.237741 0.52303,0.237741 0.95096,0.665675 0.40416,0.427934 0.64191,0.950965 0.23774,0.546805 0.26151,1.069836 0,0.546804 -0.26151,1.046061 -0.23775,0.546805 -0.64191,0.950965 -0.42793,0.427934 -0.95096,0.665675 -0.54681,0.237741 -1.06984,0.261515 -0.5468,0 -1.04606,-0.261515 -0.5468,-0.237741 -0.95096,-0.665675 -0.42794,-0.40416 -0.68945,-0.950965 -0.23774,-0.499257 -0.23774,-1.046061 z" />
        <path
           id="path889"
           style="font-style:normal;font-variant:normal;font-weight:normal;font-stretch:normal;font-family:PoliceSNCF;fill:#ffffff;stroke-width:12.1724"
           d="M 148.40985,37.673977 145.5094,24.669533 h -4.39821 l 5.11144,24.3447 h 4.39821 l 5.11143,-24.3447 h -4.13669 z" />
      </g>
    </g>
  </g>
</svg>
