<?xml version="1.0" encoding="UTF-8" standalone="no"?>
<svg
   xmlns:dc="http://purl.org/dc/elements/1.1/"
   xmlns:cc="http://creativecommons.org/ns#"
   xmlns:rdf="http://www.w3.org/1999/02/22-rdf-syntax-ns#"
   xmlns:svg="http://www.w3.org/2000/svg"
   xmlns="http://www.w3.org/2000/svg"
   xmlns:sodipodi="http://sodipodi.sourceforge.net/DTD/sodipodi-0.dtd"
   xmlns:inkscape="http://www.inkscape.org/namespaces/inkscape"
   inkscape:version="1.0 (4035a4fb49, 2020-05-01)"
   sodipodi:docname="ARRET VOY Z50-1.svg"
   height="64"
   width="64"
   version="1.1"
   id="svg2">
  <sodipodi:namedview
     inkscape:current-layer="svg2"
     inkscape:window-maximized="0"
     inkscape:window-y="25"
     inkscape:window-x="0"
     inkscape:cy="32"
     inkscape:cx="32"
     inkscape:zoom="13.390625"
     showgrid="false"
     id="namedview14"
     inkscape:window-height="1203"
     inkscape:window-width="1911"
     inkscape:pageshadow="2"
     inkscape:pageopacity="0"
     guidetolerance="10"
     gridtolerance="10"
     objecttolerance="10"
     borderopacity="1"
     bordercolor="#666666"
     pagecolor="#ffffff" />
  <metadata
     id="metadata8">
    <rdf:RDF>
      <cc:Work
         rdf:about="">
        <dc:format>image/svg+xml</dc:format>
        <dc:type
           rdf:resource="http://purl.org/dc/dcmitype/StillImage" />
        <dc:title />
      </cc:Work>
    </rdf:RDF>
  </metadata>
  <defs
     id="defs6" />
  <rect
     y="-4.0637207e-08"
     x="7.0556644e-07"
     height="64"
     width="64"
     id="rect2987"
     style="fill:#000000;fill-opacity:1;fill-rule:nonzero;stroke:none;stroke-width:0.636824" />
  <rect
     y="2.9675407"
     x="2.9675376"
     height="58.064922"
     width="58.064919"
     id="rect2989"
     style="fill:none;stroke:#ffffff;stroke-width:3.93508;stroke-miterlimit:4;stroke-dasharray:none;stroke-opacity:1" />
  <g
     transform="translate(8.180785,-8.770996)"
     id="g860">
    <path
       id="path864"
       style="font-style:normal;font-variant:normal;font-weight:normal;font-stretch:normal;font-size:16.458px;line-height:1.25;font-family:PoliceSNCF;font-variant-ligatures:normal;font-variant-caps:normal;font-variant-numeric:normal;font-feature-settings:normal;text-align:start;letter-spacing:0px;word-spacing:0px;writing-mode:lr-tb;text-anchor:start;fill:#ffffff;fill-opacity:1;stroke:none;stroke-width:2.05724"
       d="m 6.99959,37.271704 v 2.957297 h 9.88444 V 37.271704 H 10.37476 L 16.88403,26.728297 V 23.771001 H 6.99959 v 2.957296 h 6.50927 z" />
    <path
       id="path866"
       style="font-style:normal;font-variant:normal;font-weight:normal;font-stretch:normal;font-size:16.458px;line-height:1.25;font-family:PoliceSNCF;font-variant-ligatures:normal;font-variant-caps:normal;font-variant-numeric:normal;font-feature-settings:normal;text-align:start;letter-spacing:0px;word-spacing:0px;writing-mode:lr-tb;text-anchor:start;fill:#ffffff;fill-opacity:1;stroke:none;stroke-width:2.05724"
       d="m 23.69867,28.705186 q -0.56253,0 -0.77147,0.03214 -0.20894,0.03214 -0.38573,0.112506 v -2.12154 h 5.2717 v -2.957296 h -8.229 v 7.37717 l 2.9573,0.964335 q 0.0161,-0.14465 0.25715,-0.2893 0.24109,-0.144651 0.90005,-0.144651 0.36966,0 0.72325,0.160723 0.35359,0.160723 0.64289,0.433951 0.27323,0.289301 0.43395,0.642891 0.16073,0.369662 0.1768,0.723252 v 1.655443 q 0,0.369662 -0.1768,0.70718 -0.16072,0.369662 -0.43395,0.64289 -0.2893,0.289301 -0.64289,0.450024 -0.36966,0.160723 -0.72325,0.176795 -0.36966,0 -0.70718,-0.176795 Q 22.62183,36.934181 22.3486,36.64488 22.0593,36.371652 21.88251,36.00199 21.72178,35.6484 21.72178,35.29481 h -2.95729 q 0,0.900047 0.4018,1.784022 0.41788,0.883974 1.14113,1.607226 0.70718,0.723252 1.59116,1.125059 0.88397,0.417879 1.80009,0.417879 0.90005,0 1.78402,-0.417879 0.88398,-0.417879 1.6233,-1.125059 0.70718,-0.70718 1.10899,-1.607226 0.41788,-0.883975 0.41788,-1.784022 v -1.655443 q 0,-0.900047 -0.41788,-1.784022 -0.41788,-0.883974 -1.10899,-1.623299 -0.72325,-0.707179 -1.6233,-1.108986 -0.88397,-0.417879 -1.78402,-0.417879 z" />
    <path
       id="path868"
       style="font-style:normal;font-variant:normal;font-weight:normal;font-stretch:normal;font-size:16.458px;line-height:1.25;font-family:PoliceSNCF;font-variant-ligatures:normal;font-variant-caps:normal;font-variant-numeric:normal;font-feature-settings:normal;text-align:start;letter-spacing:0px;word-spacing:0px;writing-mode:lr-tb;text-anchor:start;fill:#ffffff;fill-opacity:1;stroke:none;stroke-width:2.05724"
       d="m 35.70465,40.229001 q 0.90005,0 1.78403,-0.417879 0.88397,-0.417879 1.62329,-1.125059 0.70718,-0.70718 1.10899,-1.607226 0.41788,-0.883975 0.41788,-1.784022 v -6.589629 q 0,-0.900047 -0.41788,-1.784021 -0.41788,-0.883975 -1.10899,-1.623299 -0.72325,-0.70718 -1.62329,-1.108987 -0.88398,-0.417878 -1.78403,-0.417878 -0.90004,0 -1.80009,0.417878 -0.88397,0.417879 -1.59115,1.108987 -0.72326,0.723252 -1.14113,1.623299 -0.41788,0.883974 -0.40181,1.784021 v 6.589629 q 0,0.900047 0.40181,1.784022 0.41787,0.883974 1.14113,1.607226 0.70718,0.723252 1.59115,1.125059 0.90005,0.417879 1.80009,0.417879 z m 0,-2.957297 q -0.36966,0 -0.70718,-0.176795 -0.36966,-0.160723 -0.64289,-0.450024 -0.2893,-0.273228 -0.46609,-0.64289 -0.16072,-0.35359 -0.16072,-0.70718 v -6.589629 q 0,-0.369662 0.16072,-0.723252 0.16072,-0.35359 0.46609,-0.64289 0.27323,-0.273229 0.64289,-0.433952 0.35359,-0.160722 0.70718,-0.176795 0.36967,0 0.72326,0.176795 0.35359,0.160723 0.64289,0.433952 0.27323,0.2893 0.43395,0.64289 0.16072,0.369662 0.17679,0.723252 v 6.589629 q 0,0.369662 -0.17679,0.70718 -0.16072,0.369662 -0.43395,0.64289 -0.2893,0.289301 -0.64289,0.450024 -0.35359,0.176795 -0.72326,0.176795 z" />
  </g>
  <path
     d="m 30.513315,53.458 h 2.97337 V 37 h -2.97337 z"
     style="font-style:normal;font-variant:normal;font-weight:normal;font-stretch:normal;font-size:16.458px;line-height:1.25;font-family:PoliceSNCF;font-variant-ligatures:normal;font-variant-caps:normal;font-variant-numeric:normal;font-feature-settings:normal;text-align:start;letter-spacing:0px;word-spacing:0px;writing-mode:lr-tb;text-anchor:start;fill:#ffffff;fill-opacity:1;stroke:none;stroke-width:2.05724"
     id="path872" />
</svg>
