<?xml version="1.0" encoding="UTF-8" standalone="no"?>
<svg
   xmlns:dc="http://purl.org/dc/elements/1.1/"
   xmlns:cc="http://creativecommons.org/ns#"
   xmlns:rdf="http://www.w3.org/1999/02/22-rdf-syntax-ns#"
   xmlns:svg="http://www.w3.org/2000/svg"
   xmlns="http://www.w3.org/2000/svg"
   xmlns:sodipodi="http://sodipodi.sourceforge.net/DTD/sodipodi-0.dtd"
   xmlns:inkscape="http://www.inkscape.org/namespaces/inkscape"
   id="svg2"
   version="1.1"
   inkscape:version="1.0 (4035a4fb49, 2020-05-01)"
   width="64"
   height="64"
   sodipodi:docname="2V.svg">
  <metadata
     id="metadata8">
    <rdf:RDF>
      <cc:Work
         rdf:about="">
        <dc:format>image/svg+xml</dc:format>
        <dc:type
           rdf:resource="http://purl.org/dc/dcmitype/StillImage" />
        <dc:title></dc:title>
      </cc:Work>
    </rdf:RDF>
  </metadata>
  <defs
     id="defs6" />
  <sodipodi:namedview
     pagecolor="#ffffff"
     bordercolor="#666666"
     borderopacity="1"
     objecttolerance="10"
     gridtolerance="10"
     guidetolerance="10"
     inkscape:pageopacity="0"
     inkscape:pageshadow="2"
     inkscape:window-width="1920"
     inkscape:window-height="1024"
     id="namedview4"
     showgrid="false"
     inkscape:snap-bbox="true"
     inkscape:bbox-paths="true"
     inkscape:bbox-nodes="true"
     inkscape:snap-bbox-edge-midpoints="true"
     inkscape:snap-bbox-midpoints="true"
     inkscape:object-paths="true"
     inkscape:object-nodes="true"
     inkscape:snap-intersection-paths="true"
     inkscape:snap-smooth-nodes="true"
     inkscape:snap-midpoints="true"
     inkscape:snap-object-midpoints="true"
     inkscape:snap-center="true"
     inkscape:snap-page="true"
     inkscape:zoom="9.3465346"
     inkscape:cx="27.405859"
     inkscape:cy="26.850807"
     inkscape:window-x="0"
     inkscape:window-y="0"
     inkscape:window-maximized="1"
     inkscape:current-layer="text837"
     inkscape:document-rotation="0" />
  <g
     id="g3769"
     transform="translate(-107.73191,-4.8418837)">
    <rect
       y="4.8418837"
       x="107.73191"
       height="64"
       width="64"
       id="rect2987"
       style="fill:#000000;fill-opacity:1;fill-rule:nonzero;stroke:none;stroke-width:0.636824" />
    <rect
       y="7.8094244"
       x="110.69945"
       height="58.064922"
       width="58.064919"
       id="rect2989"
       style="fill:none;stroke:#ffffff;stroke-width:3.93508;stroke-miterlimit:4;stroke-dasharray:none;stroke-opacity:1" />
    <g
       aria-label="TT"
       id="text837"
       style="font-style:normal;font-variant:normal;font-weight:normal;font-stretch:normal;font-size:32px;line-height:1.25;font-family:Roboto;font-variant-ligatures:normal;font-variant-caps:normal;font-variant-numeric:normal;font-feature-settings:normal;text-align:start;letter-spacing:0px;word-spacing:0px;writing-mode:lr-tb;text-anchor:start;fill:#ffffff;fill-opacity:1;stroke:none;stroke-width:4">
      <g
         style="font-style:normal;font-variant:normal;font-weight:normal;font-stretch:normal;font-size:24.3441px;line-height:1.25;font-family:Roboto;font-variant-ligatures:normal;font-variant-caps:normal;font-variant-numeric:normal;font-feature-settings:normal;text-align:start;letter-spacing:0px;word-spacing:0px;writing-mode:lr-tb;text-anchor:start;fill:#f9f9f9;fill-opacity:1;stroke:none;stroke-width:12.172"
         id="text838"
         aria-label="2V">
        <path
           id="path891"
           style="font-style:normal;font-variant:normal;font-weight:normal;font-stretch:normal;font-family:PoliceSNCF;fill:#f9f9f9;stroke-width:12.172"
           d="m 131.9584,35.629434 -8.22564,9.01017 v 4.374331 h 14.59695 v -4.374331 h -8.91508 l 4.32679,-4.873574 q 0.30905,-0.33283 0.99848,-1.06981 0.87963,-0.927167 1.40264,-1.521506 0.54679,-0.641885 1.04604,-1.426412 0.52302,-0.8083 0.83207,-1.783015 0.30906,-0.950942 0.30906,-1.996977 0,-1.331318 -0.61811,-2.638863 -0.61812,-1.307544 -1.64038,-2.401127 -1.06981,-1.046036 -2.40112,-1.640374 -1.30755,-0.618112 -2.63887,-0.618112 -1.33131,0 -2.66263,0.618112 -1.30755,0.618112 -2.35358,1.640374 -1.06981,1.069809 -1.68792,2.401127 -0.61812,1.307545 -0.59434,2.638863 h 4.37433 q 0,-0.546792 0.23773,-1.069809 0.23774,-0.523018 0.68944,-0.950942 0.40415,-0.40415 0.95094,-0.641885 0.52302,-0.237736 1.04603,-0.261509 0.54679,0 1.06981,0.261509 0.52302,0.237735 0.95094,0.641885 0.40415,0.427924 0.64189,0.950942 0.23773,0.546791 0.26151,1.069809 0,0.523018 -0.21396,1.046035 -0.21397,0.546792 -0.49925,0.998489 -0.30905,0.475471 -0.61811,0.855847 -0.3566,0.427924 -0.66566,0.760753 z" />
        <path
           id="path893"
           style="font-style:normal;font-variant:normal;font-weight:normal;font-stretch:normal;font-family:PoliceSNCF;fill:#f9f9f9;stroke-width:12.172"
           d="m 148.40969,37.673958 -2.90037,-13.004124 h -4.39811 l 5.11131,24.344101 h 4.39811 l 5.11131,-24.344101 h -4.1366 z" />
      </g>
    </g>
  </g>
</svg>
