<?xml version="1.0" encoding="UTF-8" standalone="no"?>
<svg
   xmlns:dc="http://purl.org/dc/elements/1.1/"
   xmlns:cc="http://creativecommons.org/ns#"
   xmlns:rdf="http://www.w3.org/1999/02/22-rdf-syntax-ns#"
   xmlns:svg="http://www.w3.org/2000/svg"
   xmlns="http://www.w3.org/2000/svg"
   xmlns:sodipodi="http://sodipodi.sourceforge.net/DTD/sodipodi-0.dtd"
   xmlns:inkscape="http://www.inkscape.org/namespaces/inkscape"
   id="svg2"
   version="1.1"
   width="64"
   height="64"
   sodipodi:docname="pan_bpfin.svg"
   inkscape:version="1.1-dev (ccb98c3c56, 2020-01-19)">
  <sodipodi:namedview
     pagecolor="#ffffff"
     bordercolor="#666666"
     inkscape:document-rotation="0"
     borderopacity="1"
     objecttolerance="10"
     gridtolerance="10"
     guidetolerance="10"
     inkscape:pageopacity="0"
     inkscape:pageshadow="2"
     inkscape:window-width="1920"
     inkscape:window-height="1024"
     id="namedview14"
     showgrid="true"
     inkscape:zoom="8"
     inkscape:cx="-0.038446806"
     inkscape:cy="36.85791"
     inkscape:window-x="0"
     inkscape:window-y="28"
     inkscape:window-maximized="1"
     inkscape:current-layer="svg2">
    <inkscape:grid
       type="xygrid"
       id="grid875"
       spacingx="0.64"
       spacingy="0.64" />
  </sodipodi:namedview>
  <metadata
     id="metadata8">
    <rdf:RDF>
      <cc:Work
         rdf:about="">
        <dc:format>image/svg+xml</dc:format>
        <dc:type
           rdf:resource="http://purl.org/dc/dcmitype/StillImage" />
        <dc:title />
      </cc:Work>
    </rdf:RDF>
  </metadata>
  <defs
     id="defs6" />
  <rect
     y="0"
     x="0"
     height="64"
     width="64"
     id="rect2987"
     style="fill:#000000;fill-opacity:1;fill-rule:nonzero;stroke:none;stroke-width:0.636824" />
  <rect
     y="2.9675407"
     x="2.9675407"
     height="58.064922"
     width="58.064919"
     id="rect2989"
     style="fill:none;stroke:#ffffff;stroke-width:3.93508;stroke-miterlimit:4;stroke-dasharray:none;stroke-opacity:1" />
  <g
     transform="rotate(90,31.2,31.199999)"
     id="g867">
    <path
       id="rect855"
       style="vector-effect:none;fill:#ffffff;stroke-width:9.71125;stroke-linecap:square;stroke-miterlimit:6;paint-order:markers stroke fill;stop-color:#000000"
       d="m 12.060629,20.479998 c -1.495916,0.256919 -5.8931326,8.34244 -4.9220068,8.34244 H 32.001556 56.861328 c 1.035868,0 -4.034142,-9.200676 -5.178066,-8.285538 -5.179329,4.143464 -12.430644,5.178065 -19.681706,5.178065 -7.251062,0 -14.502377,-1.034601 -19.681706,-5.178065 -0.0715,-0.0572 -0.159493,-0.07403 -0.259221,-0.0569 z"
       inkscape:connector-curvature="0" />
    <path
       inkscape:connector-curvature="0"
       d="M 12.060629,40.32 C 10.564713,40.063081 6.1674964,31.97756 7.1386222,31.97756 H 32.001556 56.861328 c 1.035868,0 -4.034142,9.200676 -5.178066,8.285538 -5.179329,-4.143464 -12.430644,-5.178065 -19.681706,-5.178065 -7.251062,0 -14.502377,1.034601 -19.681706,5.178065 -0.0715,0.0572 -0.159493,0.07403 -0.259221,0.0569 z"
       style="vector-effect:none;fill:#ffffff;stroke-width:9.71125;stroke-linecap:square;stroke-miterlimit:6;paint-order:markers stroke fill;stop-color:#000000"
       id="path863" />
  </g>
</svg>
