<?xml version="1.0" encoding="UTF-8"?>
<svg xmlns="http://www.w3.org/2000/svg" xmlns:xlink="http://www.w3.org/1999/xlink" width="128px" height="128px" viewBox="0 0 128 128" version="1.1">
<g id="surface1">
<rect y="0" x="0" height="128" width="128" id="rect842" style="fill:#ffffff;fill-opacity:0;stroke:none;" />
<path style="fill:none;stroke-width:1.028;stroke-linecap:round;stroke-linejoin:round;stroke:rgb(0%,0%,0%);stroke-opacity:1;stroke-miterlimit:4;" d="M 132.495806 114.904997 C 132.495806 117.10542 130.712419 118.888807 128.511996 118.888807 C 126.311573 118.888807 124.528186 117.10542 124.528186 114.904997 C 124.528186 112.704574 126.311573 110.921187 128.511996 110.921187 C 130.712419 110.921187 132.495806 112.704574 132.495806 114.904997 Z M 132.495806 114.904997 " transform="matrix(7.558915,0,0,7.558915,-907.41127,-774.557119)"/>
<path style="fill-rule:nonzero;fill:rgb(0%,0%,0%);fill-opacity:1;stroke-width:0.513;stroke-linecap:round;stroke-linejoin:round;stroke:rgb(100%,100%,100%);stroke-opacity:1;stroke-miterlimit:4;" d="M 132.489088 114.904997 C 132.489088 117.101286 130.708285 118.882089 128.511996 118.882089 C 126.315707 118.882089 124.534904 117.101286 124.534904 114.904997 C 124.534904 112.708708 126.315707 110.927905 128.511996 110.927905 C 130.708285 110.927905 132.489088 112.708708 132.489088 114.904997 Z M 132.489088 114.904997 " transform="matrix(7.558915,0,0,7.558915,-907.41127,-774.557119)"/>
<path style=" stroke:none;fill-rule:nonzero;fill:rgb(20%,20%,20%);fill-opacity:1;" d="M 80.003906 89.992188 C 77.242188 89.992188 75.003906 87.757812 75.003906 84.996094 C 75.003906 82.238281 77.242188 80 80.003906 80 C 82.761719 80 85 82.238281 85 84.996094 C 85 87.757812 82.761719 89.992188 80.003906 89.992188 Z M 80.003906 89.992188 "/>
<path style=" stroke:none;fill-rule:nonzero;fill:rgb(100%,0%,0%);fill-opacity:1;" d="M 80.003906 105.996094 C 77.242188 105.996094 75.003906 103.757812 75.003906 101 C 75.003906 98.238281 77.242188 96.003906 80.003906 96.003906 C 82.761719 96.003906 85 98.238281 85 101 C 85 103.757812 82.761719 105.996094 80.003906 105.996094 Z M 80.003906 105.996094 "/>
<path style=" stroke:none;fill-rule:nonzero;fill:rgb(20%,20%,20%);fill-opacity:1;" d="M 64 97.992188 C 61.242188 97.992188 59.003906 95.753906 59.003906 92.996094 C 59.003906 90.234375 61.242188 88 64 88 C 66.757812 88 68.996094 90.234375 68.996094 92.996094 C 68.996094 95.753906 66.757812 97.992188 64 97.992188 Z M 64 97.992188 "/>
<path style=" stroke:none;fill-rule:nonzero;fill:rgb(20%,20%,20%);fill-opacity:1;" d="M 64 117.992188 C 61.242188 117.992188 59.003906 115.753906 59.003906 112.996094 C 59.003906 110.234375 61.242188 108 64 108 C 66.757812 108 68.996094 110.234375 68.996094 112.996094 C 68.996094 115.753906 66.757812 117.992188 64 117.992188 Z M 64 117.992188 "/>
<path style=" stroke:none;fill-rule:nonzero;fill:rgb(20%,20%,20%);fill-opacity:1;" d="M 47.996094 89.992188 C 45.238281 89.992188 43 87.757812 43 84.996094 C 43 82.238281 45.238281 80 47.996094 80 C 50.757812 80 52.996094 82.238281 52.996094 84.996094 C 52.996094 87.757812 50.757812 89.992188 47.996094 89.992188 Z M 47.996094 89.992188 "/>
<path style=" stroke:none;fill-rule:nonzero;fill:rgb(100%,100%,0%);fill-opacity:1;" d="M 47.996094 105.996094 C 45.238281 105.996094 43 103.757812 43 101 C 43 98.238281 45.238281 96.003906 47.996094 96.003906 C 50.757812 96.003906 52.996094 98.238281 52.996094 101 C 52.996094 103.757812 50.757812 105.996094 47.996094 105.996094 Z M 47.996094 105.996094 "/>
</g>
</svg>
