<?xml version="1.0" encoding="UTF-8" standalone="no"?>
<svg
   xmlns:dc="http://purl.org/dc/elements/1.1/"
   xmlns:cc="http://creativecommons.org/ns#"
   xmlns:rdf="http://www.w3.org/1999/02/22-rdf-syntax-ns#"
   xmlns:svg="http://www.w3.org/2000/svg"
   xmlns="http://www.w3.org/2000/svg"
   xmlns:sodipodi="http://sodipodi.sourceforge.net/DTD/sodipodi-0.dtd"
   xmlns:inkscape="http://www.inkscape.org/namespaces/inkscape"
   id="svg2"
   version="1.1"
   width="64"
   height="64"
   sodipodi:docname="pan_limite_de_manoeuvres.svg"
   inkscape:version="1.1-dev (ccb98c3c56, 2020-01-19)">
  <sodipodi:namedview
     pagecolor="#ffffff"
     bordercolor="#666666"
     inkscape:document-rotation="0"
     borderopacity="1"
     objecttolerance="10"
     gridtolerance="10"
     guidetolerance="10"
     inkscape:pageopacity="0"
     inkscape:pageshadow="2"
     inkscape:window-width="1920"
     inkscape:window-height="1024"
     id="namedview9"
     showgrid="true"
     inkscape:zoom="6.6291261"
     inkscape:cx="20.984409"
     inkscape:cy="20.13416"
     inkscape:window-x="0"
     inkscape:window-y="28"
     inkscape:window-maximized="1"
     inkscape:current-layer="svg2">
    <inkscape:grid
       type="xygrid"
       id="grid833" />
  </sodipodi:namedview>
  <metadata
     id="metadata8">
    <rdf:RDF>
      <cc:Work
         rdf:about="">
        <dc:format>image/svg+xml</dc:format>
        <dc:type
           rdf:resource="http://purl.org/dc/dcmitype/StillImage" />
        <dc:title></dc:title>
      </cc:Work>
    </rdf:RDF>
  </metadata>
  <defs
     id="defs6" />
  <rect
     style="fill:#000000;fill-opacity:1;fill-rule:nonzero;stroke:none;stroke-width:0.636824"
     id="rect2987"
     width="64"
     height="64"
     x="0"
     y="0" />
  <rect
     style="fill:none;stroke:#ffffff;stroke-width:1.04969;stroke-miterlimit:4;stroke-dasharray:none;stroke-opacity:1"
     id="rect2989"
     width="60.95031"
     height="60.95031"
     x="1.5248455"
     y="1.5248455" />
  <g
     aria-label="CAB"
     id="text835"
     style="font-style:normal;font-variant:normal;font-weight:normal;font-stretch:normal;font-size:24px;line-height:1.25;font-family:Roboto;font-variant-ligatures:normal;font-variant-caps:normal;font-variant-numeric:normal;font-feature-settings:normal;text-align:start;letter-spacing:0px;word-spacing:0px;writing-mode:lr-tb;text-anchor:start;fill:#000000;fill-opacity:1;stroke:none;stroke-width:3" />
  <g
     style="font-style:normal;font-variant:normal;font-weight:normal;font-stretch:normal;font-size:9.11409px;line-height:1.55;font-family:Roboto;font-variant-ligatures:normal;font-variant-caps:normal;font-variant-numeric:normal;font-feature-settings:normal;text-align:start;letter-spacing:0px;word-spacing:0px;writing-mode:lr-tb;text-anchor:start;fill:#ffffff;fill-opacity:1;stroke:none;stroke-width:1.13926"
     id="text838"
     aria-label="LIMITE
DE
MANOEUVRE">
    <path
       id="path1058"
       style="font-style:normal;font-variant:normal;font-weight:normal;font-stretch:normal;font-size:13.3333px;font-family:PoliceSNCF;text-align:center;text-anchor:middle;fill:#ffffff;stroke-width:1.13926"
       d="M 15.130974,21.604362 H 9.53203 V 10.666889 H 7.1231819 v 13.3333 h 8.0077921 z" />
    <path
       id="path1060"
       style="font-style:normal;font-variant:normal;font-weight:normal;font-stretch:normal;font-size:13.3333px;font-family:PoliceSNCF;text-align:center;text-anchor:middle;fill:#ffffff;stroke-width:1.13926"
       d="m 16.914824,24.000189 h 2.408848 v -13.3333 h -2.408848 z" />
    <path
       id="path1062"
       style="font-style:normal;font-variant:normal;font-weight:normal;font-stretch:normal;font-size:13.3333px;font-family:PoliceSNCF;text-align:center;text-anchor:middle;fill:#ffffff;stroke-width:1.13926"
       d="m 27.982504,24.000189 2.252599,-5.729152 0.01302,5.729152 h 2.408848 v -13.3333 h -2.408848 l -2.929681,8.932269 -2.92968,-8.932269 h -2.408848 v 13.3333 h 2.408848 v -5.729152 l 2.26562,5.729152 z" />
    <path
       id="path1064"
       style="font-style:normal;font-variant:normal;font-weight:normal;font-stretch:normal;font-size:13.3333px;font-family:PoliceSNCF;text-align:center;text-anchor:middle;fill:#ffffff;stroke-width:1.13926"
       d="m 35.313215,24.000189 h 2.408848 v -13.3333 h -2.408848 z" />
    <path
       id="path1066"
       style="font-style:normal;font-variant:normal;font-weight:normal;font-stretch:normal;font-size:13.3333px;font-family:PoliceSNCF;text-align:center;text-anchor:middle;fill:#ffffff;stroke-width:1.13926"
       d="m 44.714232,13.062716 h 2.799472 v -2.395827 h -7.994772 v 2.395827 h 2.799472 v 10.937473 h 2.395828 z" />
    <path
       id="path1068"
       style="font-style:normal;font-variant:normal;font-weight:normal;font-stretch:normal;font-size:13.3333px;font-family:PoliceSNCF;text-align:center;text-anchor:middle;fill:#ffffff;stroke-width:1.13926"
       d="m 51.719423,16.096563 v -3.033847 h 5.598944 v -2.395827 h -8.007792 v 13.3333 h 8.007792 V 21.604362 H 51.719423 V 18.49239 h 2.395827 v -2.395827 z" />
    <path
       id="path1070"
       style="font-style:normal;font-variant:normal;font-weight:normal;font-stretch:normal;font-size:6.66667px;font-family:PoliceSNCF;text-align:center;text-anchor:middle;fill:#ffffff;stroke-width:1.13926"
       d="m 29.509186,34.61246 q 0.14974,0 0.292969,0.07161 0.143229,0.0651 0.260417,0.175781 0.110677,0.117188 0.175781,0.260417 0.0651,0.14974 0.0651,0.292969 v 2.669272 q 0,0.14974 -0.0651,0.286459 -0.0651,0.149739 -0.175781,0.260417 -0.117188,0.117187 -0.260417,0.182291 -0.14974,0.0651 -0.292969,0.07161 H 28.708404 V 34.61246 Z m 0,-1.197918 h -2.005209 v 6.66667 h 2.005209 q 0.364583,0 0.722657,-0.169271 0.358073,-0.169271 0.657552,-0.455729 0.286458,-0.286459 0.449219,-0.651042 0.169271,-0.358073 0.169271,-0.722657 v -2.669272 q 0,-0.364583 -0.169271,-0.722656 -0.169271,-0.358074 -0.449219,-0.657553 -0.292969,-0.286458 -0.657552,-0.449219 -0.358074,-0.169271 -0.722657,-0.169271 z" />
    <path
       id="path1072"
       style="font-style:normal;font-variant:normal;font-weight:normal;font-stretch:normal;font-size:6.66667px;font-family:PoliceSNCF;text-align:center;text-anchor:middle;fill:#ffffff;stroke-width:1.13926"
       d="M 33.806063,36.129387 V 34.61246 h 2.79948 v -1.197918 h -4.003908 v 6.66667 h 4.003908 v -1.197917 h -2.79948 v -1.55599 h 1.197917 v -1.197918 z" />
    <path
       id="path1074"
       style="font-style:normal;font-variant:normal;font-weight:normal;font-stretch:normal;font-size:6.66667px;font-family:PoliceSNCF;text-align:center;text-anchor:middle;fill:#ffffff;stroke-width:1.13926"
       d="m 12.246808,54.208051 1.126303,-2.864585 0.0065,2.864585 h 1.204428 v -6.66667 h -1.204428 l -1.464845,4.466148 -1.464844,-4.466148 H 9.2455044 v 6.66667 h 1.2044276 v -2.864585 l 1.132813,2.864585 z" />
    <path
       id="path1076"
       style="font-style:normal;font-variant:normal;font-weight:normal;font-stretch:normal;font-size:6.66667px;font-family:PoliceSNCF;text-align:center;text-anchor:middle;fill:#ffffff;stroke-width:1.13926"
       d="m 17.578842,50.646852 0.286458,1.158854 h -0.546875 z m 0.572917,2.363282 0.299479,1.197917 h 1.132813 l -1.39974,-6.66667 h -1.204428 l -1.39974,6.66667 h 1.204427 l 0.260417,-1.197917 z" />
    <path
       id="path1078"
       style="font-style:normal;font-variant:normal;font-weight:normal;font-stretch:normal;font-size:6.66667px;font-family:PoliceSNCF;text-align:center;text-anchor:middle;fill:#ffffff;stroke-width:1.13926"
       d="m 21.778063,50.392945 1.595053,3.815106 h 1.204427 v -6.66667 h -1.204427 v 3.815106 l -1.595053,-3.815106 h -1.204428 v 6.66667 h 1.204428 z" />
    <path
       id="path1080"
       style="font-style:normal;font-variant:normal;font-weight:normal;font-stretch:normal;font-size:6.66667px;font-family:PoliceSNCF;text-align:center;text-anchor:middle;fill:#ffffff;stroke-width:1.13926"
       d="M 29.675201,52.209352 V 49.54008 q 0,-0.364583 -0.169271,-0.722656 -0.169271,-0.358074 -0.449219,-0.657553 -0.292968,-0.286458 -0.657552,-0.449219 -0.358073,-0.169271 -0.722657,-0.169271 -0.364583,0 -0.729167,0.169271 -0.358073,0.169271 -0.644531,0.449219 -0.292969,0.292969 -0.46224,0.657553 -0.169271,0.358073 -0.16276,0.722656 v 2.669272 q 0,0.364584 0.16276,0.722657 0.169271,0.358073 0.46224,0.651042 0.286458,0.292969 0.644531,0.455729 0.358074,0.169271 0.729167,0.169271 0.364584,0 0.722657,-0.169271 0.358073,-0.169271 0.657552,-0.455729 0.286459,-0.286459 0.449219,-0.651042 0.169271,-0.358073 0.169271,-0.722657 z m -1.197917,0 q 0,0.14974 -0.07162,0.286459 -0.0651,0.149739 -0.175781,0.260417 -0.117187,0.117187 -0.260417,0.182291 -0.149739,0.0651 -0.292969,0.07162 -0.149739,0 -0.286458,-0.07162 -0.14974,-0.0651 -0.260417,-0.182291 -0.117187,-0.110678 -0.188802,-0.260417 -0.0651,-0.14323 -0.0651,-0.286459 V 49.54008 q 0,-0.14974 0.0651,-0.292969 0.0651,-0.143229 0.188802,-0.260417 0.110677,-0.110677 0.260417,-0.175781 0.143229,-0.0651 0.286458,-0.07161 0.14974,0 0.292969,0.07161 0.14323,0.0651 0.260417,0.175781 0.110677,0.117188 0.175781,0.260417 0.0651,0.14974 0.07162,0.292969 z" />
    <path
       id="path1082"
       style="font-style:normal;font-variant:normal;font-weight:normal;font-stretch:normal;font-size:6.66667px;font-family:PoliceSNCF;text-align:center;text-anchor:middle;fill:#ffffff;stroke-width:1.13926"
       d="m 31.973379,50.256226 v -1.516927 h 2.799481 v -1.197918 h -4.003909 v 6.66667 h 4.003909 v -1.197917 h -2.799481 v -1.55599 h 1.197917 v -1.197918 z" />
    <path
       id="path1084"
       style="font-style:normal;font-variant:normal;font-weight:normal;font-stretch:normal;font-size:6.66667px;font-family:PoliceSNCF;text-align:center;text-anchor:middle;fill:#ffffff;stroke-width:1.13926"
       d="m 39.772861,47.541381 h -1.204427 v 4.667971 q 0,0.14974 -0.0651,0.286459 -0.0651,0.149739 -0.175782,0.260417 -0.117187,0.117187 -0.260416,0.182291 -0.14974,0.0651 -0.292969,0.07162 -0.14974,0 -0.286459,-0.07162 -0.14974,-0.0651 -0.260417,-0.182291 -0.117187,-0.110678 -0.188802,-0.260417 -0.0651,-0.14323 -0.0651,-0.286459 v -4.667971 h -1.204428 v 4.667971 q 0,0.364584 0.169271,0.722657 0.169271,0.358073 0.46224,0.651042 0.286459,0.292969 0.644532,0.455729 0.358073,0.169271 0.729167,0.169271 0.364583,0 0.722656,-0.169271 0.358073,-0.169271 0.657553,-0.455729 0.286458,-0.286459 0.449219,-0.651042 0.16927,-0.358073 0.16927,-0.722657 z" />
    <path
       id="path1086"
       style="font-style:normal;font-variant:normal;font-weight:normal;font-stretch:normal;font-size:6.66667px;font-family:PoliceSNCF;text-align:center;text-anchor:middle;fill:#ffffff;stroke-width:1.13926"
       d="m 42.767656,51.102581 -0.794271,-3.5612 h -1.204428 l 1.39974,6.66667 h 1.204428 l 1.39974,-6.66667 h -1.132813 z" />
    <path
       id="path1088"
       style="font-style:normal;font-variant:normal;font-weight:normal;font-stretch:normal;font-size:6.66667px;font-family:PoliceSNCF;text-align:center;text-anchor:middle;fill:#ffffff;stroke-width:1.13926"
       d="m 49.766357,49.53357 q 0,-0.364584 -0.16927,-0.722657 -0.169271,-0.351563 -0.449219,-0.651042 -0.292969,-0.286458 -0.657553,-0.449219 -0.358073,-0.169271 -0.722656,-0.169271 h -2.00521 v 6.66667 h 1.204428 v -2.669272 h 0.800782 q 0.149739,0 0.292968,0.07162 0.14323,0.0651 0.260417,0.175781 0.110677,0.117188 0.175782,0.260417 0.0651,0.149739 0.0651,0.292969 v 1.86849 h 1.204427 v -1.86849 q 0,-0.345053 -0.07813,-0.605469 -0.08463,-0.260417 -0.201823,-0.423178 -0.117187,-0.169271 -0.214843,-0.247396 -0.09766,-0.07161 -0.169271,-0.123698 l 0.01302,-0.01302 q 0.07813,-0.07813 0.175782,-0.182292 0.09115,-0.104167 0.208333,-0.292969 0.104167,-0.182292 0.188802,-0.416667 0.07813,-0.234375 0.07813,-0.501302 z m -1.998698,0.807292 h -0.800782 v -1.601563 h 0.800782 q 0.149739,0 0.292968,0.07161 0.14323,0.0651 0.260417,0.175781 0.110677,0.117188 0.175782,0.260417 0.0651,0.14974 0.0651,0.292969 0,0.14974 -0.0651,0.286459 -0.0651,0.149739 -0.175782,0.260416 -0.117187,0.117188 -0.260417,0.188803 -0.143229,0.0651 -0.292968,0.0651 z" />
    <path
       id="path1090"
       style="font-style:normal;font-variant:normal;font-weight:normal;font-stretch:normal;font-size:6.66667px;font-family:PoliceSNCF;text-align:center;text-anchor:middle;fill:#ffffff;stroke-width:1.13926"
       d="m 52.064533,50.256226 v -1.516927 h 2.799481 v -1.197918 h -4.003908 v 6.66667 h 4.003908 v -1.197917 h -2.799481 v -1.55599 h 1.197917 v -1.197918 z" />
  </g>
</svg>
