<?xml version="1.0" encoding="UTF-8" standalone="no"?>
<svg
   xmlns:dc="http://purl.org/dc/elements/1.1/"
   xmlns:cc="http://creativecommons.org/ns#"
   xmlns:rdf="http://www.w3.org/1999/02/22-rdf-syntax-ns#"
   xmlns:svg="http://www.w3.org/2000/svg"
   xmlns="http://www.w3.org/2000/svg"
   id="svg2"
   version="1.1"
   width="64"
   height="64">
  <metadata
     id="metadata8">
    <rdf:RDF>
      <cc:Work
         rdf:about="">
        <dc:format>image/svg+xml</dc:format>
        <dc:type
           rdf:resource="http://purl.org/dc/dcmitype/StillImage" />
        <dc:title></dc:title>
      </cc:Work>
    </rdf:RDF>
  </metadata>
  <defs
     id="defs6" />
  <g
     id="g3769"
     transform="translate(-107.73191,-4.8418837)">
    <g
       style="font-style:normal;font-variant:normal;font-weight:normal;font-stretch:normal;font-size:30px;line-height:1.25;font-family:Roboto;font-variant-ligatures:normal;font-variant-caps:normal;font-variant-numeric:normal;font-feature-settings:normal;text-align:start;letter-spacing:0px;word-spacing:0px;writing-mode:lr-tb;text-anchor:start;fill:#000000;fill-opacity:1;stroke:none;stroke-width:3.75"
       id="text841"
       aria-label="60">
      <path
         style="fill:#000000;fill-opacity:1;stroke:none;stroke-width:1.17004px;stroke-linecap:butt;stroke-linejoin:miter;stroke-opacity:1"
         d="m 119.73191,4.8418837 h 40 V 51.387338 l -20,17.454546 -20,-17.454546 z"
         id="path836" />
      <path
         id="path858"
         d="m 120.73191,5.8418837 h 38 V 50.841884 l -19,16.489087 -19,-16.489087 z"
         style="fill:#ffffff;fill-opacity:1;stroke:none;stroke-width:1.11154px;stroke-linecap:butt;stroke-linejoin:miter;stroke-opacity:1" />
      <path
         style="fill:#000000;fill-opacity:1;stroke:none;stroke-width:1.05304px;stroke-linecap:butt;stroke-linejoin:miter;stroke-opacity:1"
         d="m 121.73191,6.8418837 h 36 V 50.375647 l -18,15.755347 -18,-15.738615 z"
         id="path870" />
      <g
         style="font-style:normal;font-variant:normal;font-weight:normal;font-stretch:normal;font-size:38px;line-height:1.25;font-family:Roboto;font-variant-ligatures:normal;font-variant-caps:normal;font-variant-numeric:normal;font-feature-settings:normal;text-align:start;letter-spacing:0px;word-spacing:0px;writing-mode:lr-tb;text-anchor:start;fill:#ffffff;fill-opacity:1;stroke:none;stroke-width:17.8125"
         id="text862"
         aria-label="5"
         transform="translate(0,2.9999987)">
        <g
           style="font-style:normal;font-variant:normal;font-weight:normal;font-stretch:normal;font-size:38px;line-height:1.25;font-family:Roboto;font-variant-ligatures:normal;font-variant-caps:normal;font-variant-numeric:normal;font-feature-settings:normal;text-align:start;letter-spacing:0px;word-spacing:0px;writing-mode:lr-tb;text-anchor:start;fill:#ffffff;fill-opacity:1;stroke:none;stroke-width:84.6094"
           id="text839"
           aria-label="2">
          <path
             id="path862"
             style="font-style:normal;font-variant:normal;font-weight:normal;font-stretch:normal;font-family:PoliceSNCF;fill:#ffffff;stroke-width:84.6094"
             d="M 141.17986,28.949306 128.34002,43.01376 v 6.828125 h 22.78516 V 43.01376 h -13.91602 l 6.75391,-7.607422 q 0.48242,-0.519532 1.55859,-1.669922 1.37305,-1.447266 2.18945,-2.375 0.85352,-1.001953 1.63282,-2.226563 0.8164,-1.261718 1.29882,-2.783203 0.48243,-1.484375 0.48243,-3.117187 0,-2.078125 -0.96485,-4.119141 -0.96484,-2.041016 -2.56055,-3.748047 -1.66992,-1.632812 -3.74804,-2.560547 -2.04102,-0.964843 -4.11914,-0.964843 -2.07813,0 -4.15625,0.964843 -2.04102,0.964844 -3.67383,2.560547 -1.66992,1.669922 -2.63477,3.748047 -0.96484,2.041016 -0.92773,4.119141 h 6.82812 q 0,-0.853516 0.3711,-1.669922 0.37109,-0.816406 1.07617,-1.484375 0.63086,-0.63086 1.48437,-1.001953 0.81641,-0.371094 1.63282,-0.408203 0.85351,0 1.66992,0.408203 0.81641,0.371093 1.48437,1.001953 0.63086,0.667969 1.00196,1.484375 0.37109,0.853515 0.4082,1.669922 0,0.816406 -0.33398,1.632812 -0.33399,0.853516 -0.7793,1.558594 -0.48242,0.742187 -0.96484,1.335937 -0.55665,0.667969 -1.03907,1.1875 z" />
        </g>
      </g>
    </g>
  </g>
</svg>
