<svg xmlns="http://www.w3.org/2000/svg" width="64px" height="64px" fill="#ffb612" stroke="#ffb612" stroke-width="0" viewBox="0 0 24 24"><g stroke="none"><path fill="#e64c3c" d="M21.382 17.728a4.11 4.11 0 0 1-2.96-1.173 3.567 3.567 0 0 0-2.569-1.01 3.699 3.699 0 0 0-2.241.72.475.475 0 0 1-.29.102.488.488 0 0 1-.365-.17.567.567 0 0 1-.139-.379V9.674c0-.15.06-.294.167-.4a4.159 4.159 0 0 1 2.869-1.092 4.113 4.113 0 0 1 2.964 1.173 3.562 3.562 0 0 0 2.564 1.01 3.802 3.802 0 0 0 1.879-.478.479.479 0 0 1 .237-.068.526.526 0 0 1 .502.545v6.204a.546.546 0 0 1-.235.464 4.26 4.26 0 0 1-2.383.696z" data-original="#e64c3c" style="fill:#ffb612;fill-opacity:1;stroke-width:0" transform="matrix(1.04277 0 0 1.04277 -1.089 -1.026)"/><path fill="#cbb292" d="M12.545 8.182c.302 0 .546.244.546.546v14.727a.545.545 0 1 1-1.091 0V8.728c0-.301.244-.546.545-.546z" data-original="#cbb292" style="fill:#444;fill-opacity:1;stroke-width:0" transform="matrix(1.04277 0 0 1.04277 -1.089 -1.026)"/></g></svg>
