<?xml version="1.0" encoding="UTF-8" standalone="no"?>
<svg
   stroke="#ffb612"
   fill="#ffb612"
   stroke-width="0"
   viewBox="0 0 24 24"
   height="1em"
   width="1em"
   version="1.1"
   id="svg8"
   sodipodi:docname="destination.svg"
   inkscape:version="1.2.2 (b0a8486541, 2022-12-01)"
   xmlns:inkscape="http://www.inkscape.org/namespaces/inkscape"
   xmlns:sodipodi="http://sodipodi.sourceforge.net/DTD/sodipodi-0.dtd"
   xmlns="http://www.w3.org/2000/svg"
   xmlns:svg="http://www.w3.org/2000/svg">
  <defs
     id="defs12" />
  <sodipodi:namedview
     id="namedview10"
     pagecolor="#ffffff"
     bordercolor="#666666"
     borderopacity="1.0"
     inkscape:showpageshadow="2"
     inkscape:pageopacity="0.0"
     inkscape:pagecheckerboard="0"
     inkscape:deskcolor="#d1d1d1"
     showgrid="true"
     inkscape:zoom="21.052439"
     inkscape:cx="25.602734"
     inkscape:cy="12.706366"
     inkscape:window-width="1920"
     inkscape:window-height="1015"
     inkscape:window-x="0"
     inkscape:window-y="0"
     inkscape:window-maximized="1"
     inkscape:current-layer="svg8">
    <inkscape:grid
       type="xygrid"
       id="grid457" />
  </sodipodi:namedview>
  <g
     id="g896"
     transform="matrix(1.0427667,0,0,1.0427667,-1.0889526,-1.0264008)">
    <path
       d="m 21.381505,17.727507 a 4.11052,4.11052 0 0 1 -2.958984,-1.1727 3.5670994,3.5670994 0 0 0 -2.569021,-1.009046 3.6985597,3.6985597 0 0 0 -2.241745,0.719988 0.47473995,0.47473995 0 0 1 -0.289089,0.100905 0.48783963,0.48783963 0 0 1 -0.365432,-0.169091 0.56727191,0.56727191 0 0 1 -0.139091,-0.379088 V 9.6741057 c 0,-0.1502756 0.06,-0.2945266 0.166372,-0.4008997 a 4.1585625,4.1585625 0 0 1 2.868985,-1.0908885 4.1126518,4.1126518 0 0 1 2.964453,1.1726997 3.5623106,3.5623106 0 0 0 2.563552,1.0090468 3.8020287,3.8020287 0 0 0 1.879032,-0.4772429 0.47881815,0.47881815 0 0 1 0.237277,-0.068186 c 0.288533,0.013378 0.512711,0.2566179 0.501805,0.5454289 v 6.204337 a 0.54558328,0.54558328 0 0 1 -0.234528,0.463618 4.2595289,4.2595289 0 0 1 -2.383586,0.695488 z"
       fill="#e64c3c"
       data-original="#e64c3c"
       id="path248"
       style="fill:#ffb612;fill-opacity:1;stroke-width:0" />
    <path
       d="m 12.545429,8.1823484 c 0.301354,0 0.545428,0.2440743 0.545428,0.5454288 V 23.454571 C 13.090857,23.755926 12.846783,24 12.545429,24 12.244074,24 12,23.755926 12,23.454571 V 8.7277772 c 0,-0.3010765 0.244074,-0.5454288 0.545429,-0.5454288 z"
       fill="#cbb292"
       data-original="#cbb292"
       id="path250"
       style="fill:#444444;fill-opacity:1;stroke-width:0" />
  </g>
</svg>
