<?xml version="1.0" encoding="UTF-8" standalone="no"?>
<svg xmlns:dc="http://purl.org/dc/elements/1.1/" xmlns:cc="http://creativecommons.org/ns#" xmlns:rdf="http://www.w3.org/1999/02/22-rdf-syntax-ns#" xmlns:svg="http://www.w3.org/2000/svg" xmlns="http://www.w3.org/2000/svg" viewBox="0 0 700.00002 110" height="110" width="700" xml:space="preserve" version="1.1" id="svg2"><metadata id="metadata8"><rdf:RDF><cc:Work rdf:about=""><dc:format>image/svg+xml</dc:format><dc:type rdf:resource="http://purl.org/dc/dcmitype/StillImage"/><dc:title/></cc:Work></rdf:RDF></metadata><defs id="defs6"><linearGradient id="linearGradient56872" spreadMethod="pad" gradientTransform="matrix(54.8877,0,0,-54.8877,806.965,332.864)" gradientUnits="userSpaceOnUse" y2="0" x2="1" y1="0" x1="0"><stop id="stop56874" offset="0" style="stop-opacity:1;stop-color:#7f3e6b"/><stop id="stop56876" offset="0.247191" style="stop-opacity:1;stop-color:#ae3d79"/><stop id="stop56878" offset="0.814607" style="stop-opacity:1;stop-color:#db343c"/><stop id="stop56880" offset="1" style="stop-opacity:1;stop-color:#db343c"/></linearGradient></defs><g transform="matrix(1.25,0,0,-1.25,0,109.99997)" id="g10"><g transform="matrix(2.9843123,0,0,2.9843123,-2012.2472,-949.41123)" id="g61242"><g id="g61232"><g id="g56860"><g id="g56862"><g id="g56868"><g id="g56870"><path id="path56882" style="fill:url(#linearGradient56872);stroke:none" d="m 807.975,347.202 c -0.612,-0.027 -1.01,-0.31 -1.01,-0.913 l 0,0 0,-26.936 c 0,-0.47 0.338,-0.893 0.856,-0.893 l 0,0 48.083,0 c 0.431,0 0.776,0.039 0.979,0.61 l 0,0 c 0,0 4.872,15.25 4.96,15.527 l 0,0 c 0.18,0.577 0.064,0.867 -0.43,1.18 l 0,0 c -15.66,10.034 -39.078,11.493 -49.712,11.493 l 0,0 c -1.526,0 -2.788,-0.03 -3.726,-0.068"/></g></g></g></g><g id="g61210"><path id="path56894" style="fill:#ffffff;fill-opacity:1;fill-rule:nonzero;stroke:none" d="m 817.92,329.986 c -1.764,0.852 -2.969,1.296 -2.678,2.153 0.342,1.016 2.118,1.402 3.725,1.365 0.813,-0.018 1.393,-0.123 2.054,-0.276 l 0.585,1.837 c -0.841,0.156 -1.441,0.234 -2.443,0.256 -3.225,0.076 -6.139,-0.813 -6.887,-2.696 -0.89,-2.234 1.63,-3.49 3.814,-4.525 1.732,-0.821 3.1,-1.603 2.62,-2.626 -0.375,-0.795 -1.601,-1.171 -3.385,-1.129 -1.543,0.036 -3.471,0.479 -4.987,1.243 l -0.903,-1.952 c 1.115,-0.518 3.418,-1.221 5.382,-1.269 3.688,-0.085 6.076,0.842 7.032,2.853 1.132,2.375 -1.674,3.677 -3.929,4.766"/><path id="path56898" style="fill:#ffffff;fill-opacity:1;fill-rule:nonzero;stroke:none" d="m 822.923,326.632 c 0.016,-0.047 0.048,-0.056 0.098,-0.056 0.05,0 0.074,0.012 0.088,0.056 0.02,0.061 1.797,5.57 1.797,5.57 1.811,-2.592 3.609,-6.002 4.573,-9.603 l 2.952,0 1.459,4.561 c 0.015,0.046 0.049,0.056 0.096,0.056 0.051,0 0.085,-0.014 0.092,-0.056 0.444,-2.864 3.292,-4.789 7.328,-4.789 2.611,0 4.97,0.685 5.558,0.999 l 1.529,4.82 5.875,0 0.598,1.866 -5.876,0 1.013,3.164 7.002,0 0.609,1.935 -9.836,0 -3.336,-10.436 c -0.709,-0.181 -1.586,-0.267 -2.499,-0.267 -1.971,0 -3.547,0.467 -4.442,1.511 -0.671,0.786 -0.94,1.797 -0.773,2.925 0.397,2.689 3.016,4.388 6.516,4.388 0.737,0 1.496,-0.045 2.179,-0.133 l 0.692,2.03 c -0.844,0.128 -1.865,0.185 -2.868,0.185 -3.106,-10e-4 -5.807,-1.069 -7.557,-2.955 -0.053,-0.058 -0.112,-0.056 -0.144,-0.056 -0.055,0 -0.091,0.01 -0.077,0.056 l 0.878,2.752 -2.565,0 -2.805,-8.803 c -0.893,2.597 -2.729,6.013 -4.976,8.803 l -2.753,0 -2.058,-6.409 c 1.035,-0.767 1.362,-1.324 1.633,-2.114"/></g></g><path id="path56954" style="fill:#f6a823;fill-opacity:1;fill-rule:nonzero;stroke:none" d="m 747.898,327.587 2.654,3.66 1.9,0 -3.616,-4.96 -0.938,1.3 z"/><path id="path56958" style="fill:#f6a823;fill-opacity:1;fill-rule:nonzero;stroke:none" d="m 738.958,339.874 1.136,1.562 1.889,0 -2.081,-2.864 -0.944,1.302 z"/><g id="g61214"><path d="m 687.916,328.607 c -0.758,1.029 -1.968,1.553 -3.196,1.553 -2.853,0 -4.875,-2.51 -4.875,-5.309 0,-2.961 2.003,-5.308 4.875,-5.308 1.553,0 2.798,0.632 3.701,1.787 l 1.137,-0.957 c -1.137,-1.534 -2.798,-2.239 -4.838,-2.239 -3.666,0 -6.5,2.834 -6.5,6.717 0,3.756 2.709,6.717 6.5,6.717 1.733,0 3.431,-0.595 4.515,-2.005 l -1.319,-0.956 z" style="fill:#000000;fill-opacity:1;fill-rule:nonzero;stroke:none" id="path56902"/><path d="m 702.034,324.851 c 0,2.944 -2.057,5.308 -5.054,5.308 -2.998,0 -5.056,-2.364 -5.056,-5.308 0,-2.944 2.058,-5.308 5.056,-5.308 2.997,0 5.054,2.364 5.054,5.308 m -11.735,0 c 0,3.863 2.799,6.717 6.681,6.717 3.881,0 6.681,-2.854 6.681,-6.717 0,-3.864 -2.8,-6.717 -6.681,-6.717 -3.882,0 -6.681,2.853 -6.681,6.717" style="fill:#000000;fill-opacity:1;fill-rule:nonzero;stroke:none" id="path56906"/><path d="m 705.465,331.244 1.914,0 7.404,-10.618 0.035,0 0,10.618 1.517,0 0,-12.784 -1.914,0 -7.403,10.617 -0.036,0 0,-10.617 -1.517,0 0,12.784 z" style="fill:#000000;fill-opacity:1;fill-rule:nonzero;stroke:none" id="path56910"/><path d="m 718.7,331.244 1.913,0 7.405,-10.618 0.034,0 0,10.618 1.518,0 0,-12.784 -1.914,0 -7.404,10.617 -0.036,0 0,-10.617 -1.516,0 0,12.784 z" style="fill:#000000;fill-opacity:1;fill-rule:nonzero;stroke:none" id="path56914"/><path d="m 768.515,324.851 c 0,2.944 -2.058,5.308 -5.056,5.308 -2.997,0 -5.056,-2.364 -5.056,-5.308 0,-2.944 2.059,-5.308 5.056,-5.308 2.998,0 5.056,2.364 5.056,5.308 m -11.737,0 c 0,3.863 2.799,6.717 6.681,6.717 3.882,0 6.681,-2.854 6.681,-6.717 0,-3.864 -2.799,-6.717 -6.681,-6.717 -3.882,0 -6.681,2.853 -6.681,6.717" style="fill:#000000;fill-opacity:1;fill-rule:nonzero;stroke:none" id="path56918"/><path d="m 771.945,331.244 1.914,0 7.403,-10.618 0.036,0 0,10.618 1.517,0 0,-12.784 -1.914,0 -7.404,10.617 -0.036,0 0,-10.617 -1.516,0 0,12.784 z" style="fill:#000000;fill-opacity:1;fill-rule:nonzero;stroke:none" id="path56922"/><path d="m 791.426,328.987 c -0.505,0.813 -1.408,1.173 -2.328,1.173 -1.337,0 -2.728,-0.632 -2.728,-2.148 0,-1.174 0.65,-1.698 2.692,-2.348 1.985,-0.632 3.826,-1.282 3.826,-3.791 0,-2.547 -2.184,-3.738 -4.495,-3.738 -1.48,0 -3.07,0.487 -3.937,1.77 l 1.3,1.064 c 0.542,-0.938 1.626,-1.425 2.727,-1.425 1.3,0 2.781,0.757 2.781,2.22 0,1.57 -1.064,1.841 -3.34,2.6 -1.806,0.596 -3.178,1.39 -3.178,3.521 0,2.456 2.113,3.684 4.352,3.684 1.426,0 2.636,-0.398 3.574,-1.499 l -1.246,-1.083 z" style="fill:#000000;fill-opacity:1;fill-rule:nonzero;stroke:none" id="path56926"/><path d="m 685.885,335.367 c -1.461,-0.812 -3.123,-1.191 -4.784,-1.191 -3.972,0 -6.826,2.708 -6.826,6.717 0,4.025 3.052,6.717 6.88,6.717 1.679,0 3.304,-0.451 4.514,-1.679 l -1.138,-1.193 c -0.867,0.939 -2.185,1.463 -3.485,1.463 -2.925,0 -5.146,-2.203 -5.146,-5.308 0,-3.052 2.149,-5.309 5.292,-5.309 1.027,0 2.237,0.271 3.177,0.74 l 0,3.918 -2.944,0 0,1.408 4.46,0 0,-6.283 z" style="fill:#000000;fill-opacity:1;fill-rule:nonzero;stroke:none" id="path56930"/><path d="m 692.999,345.334 -0.035,0 -2.655,-6.284 5.219,0 -2.529,6.284 z m -0.686,1.95 1.426,0 5.436,-12.783 -1.769,0 -1.3,3.141 -6.393,0 -1.318,-3.141 -1.715,0 5.633,12.783 z" style="fill:#000000;fill-opacity:1;fill-rule:nonzero;stroke:none" id="path56934"/><path d="m 701.485,341.65 1.354,0 c 1.679,0 3.864,0 3.864,2.113 0,1.842 -1.607,2.112 -3.088,2.112 l -2.13,0 0,-4.225 z m -1.517,5.634 3.269,0 c 2.472,0 5.091,-0.361 5.091,-3.521 0,-1.86 -1.21,-3.069 -3.196,-3.377 l 3.629,-5.886 -1.86,0 -3.466,5.742 -1.95,0 0,-5.742 -1.517,0 0,12.784 z" style="fill:#000000;fill-opacity:1;fill-rule:nonzero;stroke:none" id="path56938"/><path d="m 710.096,347.284 8.036,0 0,-1.409 -6.517,0 0,-4.007 6.084,0 0,-1.409 -6.084,0 0,-4.55 6.843,0 0,-1.408 -8.362,0 0,12.783 z" style="fill:#000000;fill-opacity:1;fill-rule:nonzero;stroke:none" id="path56942"/><path d="m 725.969,345.027 c -0.506,0.813 -1.409,1.174 -2.33,1.174 -1.335,0 -2.726,-0.632 -2.726,-2.149 0,-1.174 0.65,-1.697 2.691,-2.348 1.986,-0.631 3.828,-1.281 3.828,-3.791 0,-2.546 -2.186,-3.738 -4.497,-3.738 -1.481,0 -3.069,0.488 -3.936,1.769 l 1.3,1.066 c 0.542,-0.939 1.625,-1.426 2.726,-1.426 1.301,0 2.781,0.757 2.781,2.22 0,1.571 -1.066,1.842 -3.341,2.601 -1.805,0.596 -3.176,1.39 -3.176,3.521 0,2.455 2.11,3.683 4.35,3.683 1.426,0 2.637,-0.397 3.576,-1.498 l -1.246,-1.084 z" style="fill:#000000;fill-opacity:1;fill-rule:nonzero;stroke:none" id="path56946"/><path d="m 731.935,331.244 8.034,0 0,-1.409 -6.518,0 0,-4.008 6.085,0 0,-1.408 -6.085,0 0,-4.551 6.843,0 0,-1.408 -8.359,0 0,12.784 z" style="fill:#000000;fill-opacity:1;fill-rule:nonzero;stroke:none" id="path56950"/><path d="m 750.764,318.459 -3.81,5.238 -3.807,-5.237 -1.883,0 4.757,6.53 -4.546,6.256 1.875,0 9.294,-12.787 -1.88,0 z" style="fill:#f6a823;fill-opacity:1;fill-rule:nonzero;stroke:none" id="path56962"/><path id="path56964" style="fill:#000000;fill-opacity:1;fill-rule:nonzero;stroke:none" d="m 753.457,331.244 1.516,0 0,-12.784 -1.516,0 0,12.784 z"/><path d="m 734.836,342.974 c 1.447,1.072 1.601,1.295 1.601,2.008 0,0.685 -0.542,1.202 -1.298,1.202 -0.729,0 -1.297,-0.568 -1.297,-1.298 0,-0.494 0.04,-0.624 0.922,-1.826 l 0.072,-0.086 z m -0.789,-7.296 c 0.859,0 1.727,0.419 3.036,1.601 l -2.624,3.609 c -0.047,-0.035 -0.054,-0.039 -0.094,-0.066 -0.06,-0.042 -0.175,-0.118 -0.51,-0.348 -1.508,-1.012 -1.986,-1.674 -1.986,-2.598 0,-1.17 1.028,-2.198 2.178,-2.198 m 8.203,-2.912 -1.877,0 -2.367,3.246 c -1.518,-1.38 -2.612,-1.836 -3.901,-1.836 -2.178,0 -3.835,1.593 -3.835,3.72 0,1.208 0.616,2.268 1.82,3.22 0.315,0.241 0.614,0.447 1.43,0.98 -0.947,1.267 -1.239,1.893 -1.239,2.714 0,1.61 1.235,2.8 2.897,2.8 1.581,0 2.82,-1.149 2.82,-2.628 0,-1.195 -0.566,-1.93 -2.28,-3.238 l 6.532,-8.978 z" style="fill:#f6a823;fill-opacity:1;fill-rule:evenodd;stroke:none" id="path56968"/></g></g></g></svg>