<?xml version="1.0" encoding="UTF-8" standalone="no"?>
<svg
   xmlns:dc="http://purl.org/dc/elements/1.1/"
   xmlns:cc="http://creativecommons.org/ns#"
   xmlns:rdf="http://www.w3.org/1999/02/22-rdf-syntax-ns#"
   xmlns:svg="http://www.w3.org/2000/svg"
   xmlns="http://www.w3.org/2000/svg"
   xmlns:sodipodi="http://sodipodi.sourceforge.net/DTD/sodipodi-0.dtd"
   xmlns:inkscape="http://www.inkscape.org/namespaces/inkscape"
   inkscape:version="1.0 (4035a4fb49, 2020-05-01)"
   sodipodi:docname="garesetcologo.svg"
   id="svg2"
   version="1.1"
   xml:space="preserve"
   width="442.47281"
   height="109.95699"
   viewBox="0 0 442.47282 109.95699"><sodipodi:namedview
     inkscape:current-layer="svg2"
     inkscape:window-maximized="0"
     inkscape:window-y="15"
     inkscape:window-x="23"
     inkscape:cy="96.713476"
     inkscape:cx="322.25931"
     inkscape:zoom="1.0592857"
     fit-margin-bottom="0"
     fit-margin-right="0"
     fit-margin-left="0"
     fit-margin-top="0"
     showgrid="false"
     id="namedview40"
     inkscape:window-height="913"
     inkscape:window-width="1816"
     inkscape:pageshadow="2"
     inkscape:pageopacity="0"
     guidetolerance="10"
     gridtolerance="10"
     objecttolerance="10"
     borderopacity="1"
     bordercolor="#666666"
     pagecolor="#ffffff" /><metadata
     id="metadata8"><rdf:RDF><cc:Work
         rdf:about=""><dc:format>image/svg+xml</dc:format><dc:type
           rdf:resource="http://purl.org/dc/dcmitype/StillImage" /><dc:title></dc:title></cc:Work></rdf:RDF></metadata><defs
     id="defs6"><linearGradient
       x1="0"
       y1="0"
       x2="1"
       y2="0"
       gradientUnits="userSpaceOnUse"
       gradientTransform="matrix(54.8877,0,0,-54.8877,806.965,332.864)"
       spreadMethod="pad"
       id="linearGradient56872"><stop
         style="stop-opacity:1;stop-color:#7f3e6b"
         offset="0"
         id="stop56874" /><stop
         style="stop-opacity:1;stop-color:#ae3d79"
         offset="0.247191"
         id="stop56876" /><stop
         style="stop-opacity:1;stop-color:#db343c"
         offset="0.814607"
         id="stop56878" /><stop
         style="stop-opacity:1;stop-color:#db343c"
         offset="1"
         id="stop56880" /></linearGradient></defs><g
     transform="translate(1.304e-5,-0.04299306)"
     id="g941"><path
       id="path56954"
       style="fill:#f6a823;fill-opacity:1;fill-rule:nonzero;stroke:none;stroke-width:3.73039"
       d="m 274.64252,74.7366 9.90046,-13.653229 h 7.08774 l -13.48909,18.502737 z" /><path
       id="path56958"
       style="fill:#f6a823;fill-opacity:1;fill-rule:nonzero;stroke:none;stroke-width:3.73039"
       d="m 241.29283,28.901293 4.23772,-5.82687 h 7.04671 l -7.76294,10.683838 z" /><g
       id="g61214"
       transform="matrix(3.7303904,0,0,-3.7303904,-2515.309,1296.764)"><path
         d="m 687.916,328.607 c -0.758,1.029 -1.968,1.553 -3.196,1.553 -2.853,0 -4.875,-2.51 -4.875,-5.309 0,-2.961 2.003,-5.308 4.875,-5.308 1.553,0 2.798,0.632 3.701,1.787 l 1.137,-0.957 c -1.137,-1.534 -2.798,-2.239 -4.838,-2.239 -3.666,0 -6.5,2.834 -6.5,6.717 0,3.756 2.709,6.717 6.5,6.717 1.733,0 3.431,-0.595 4.515,-2.005 z"
         style="fill:#000000;fill-opacity:1;fill-rule:nonzero;stroke:none"
         id="path56902" /><path
         d="m 702.034,324.851 c 0,2.944 -2.057,5.308 -5.054,5.308 -2.998,0 -5.056,-2.364 -5.056,-5.308 0,-2.944 2.058,-5.308 5.056,-5.308 2.997,0 5.054,2.364 5.054,5.308 m -11.735,0 c 0,3.863 2.799,6.717 6.681,6.717 3.881,0 6.681,-2.854 6.681,-6.717 0,-3.864 -2.8,-6.717 -6.681,-6.717 -3.882,0 -6.681,2.853 -6.681,6.717"
         style="fill:#000000;fill-opacity:1;fill-rule:nonzero;stroke:none"
         id="path56906" /><path
         d="m 705.465,331.244 h 1.914 l 7.404,-10.618 h 0.035 v 10.618 h 1.517 V 318.46 h -1.914 l -7.403,10.617 h -0.036 V 318.46 h -1.517 z"
         style="fill:#000000;fill-opacity:1;fill-rule:nonzero;stroke:none"
         id="path56910" /><path
         d="m 718.7,331.244 h 1.913 l 7.405,-10.618 h 0.034 v 10.618 h 1.518 V 318.46 h -1.914 l -7.404,10.617 h -0.036 V 318.46 H 718.7 Z"
         style="fill:#000000;fill-opacity:1;fill-rule:nonzero;stroke:none"
         id="path56914" /><path
         d="m 768.515,324.851 c 0,2.944 -2.058,5.308 -5.056,5.308 -2.997,0 -5.056,-2.364 -5.056,-5.308 0,-2.944 2.059,-5.308 5.056,-5.308 2.998,0 5.056,2.364 5.056,5.308 m -11.737,0 c 0,3.863 2.799,6.717 6.681,6.717 3.882,0 6.681,-2.854 6.681,-6.717 0,-3.864 -2.799,-6.717 -6.681,-6.717 -3.882,0 -6.681,2.853 -6.681,6.717"
         style="fill:#000000;fill-opacity:1;fill-rule:nonzero;stroke:none"
         id="path56918" /><path
         d="m 771.945,331.244 h 1.914 l 7.403,-10.618 h 0.036 v 10.618 h 1.517 V 318.46 h -1.914 l -7.404,10.617 h -0.036 V 318.46 h -1.516 z"
         style="fill:#000000;fill-opacity:1;fill-rule:nonzero;stroke:none"
         id="path56922" /><path
         d="m 791.426,328.987 c -0.505,0.813 -1.408,1.173 -2.328,1.173 -1.337,0 -2.728,-0.632 -2.728,-2.148 0,-1.174 0.65,-1.698 2.692,-2.348 1.985,-0.632 3.826,-1.282 3.826,-3.791 0,-2.547 -2.184,-3.738 -4.495,-3.738 -1.48,0 -3.07,0.487 -3.937,1.77 l 1.3,1.064 c 0.542,-0.938 1.626,-1.425 2.727,-1.425 1.3,0 2.781,0.757 2.781,2.22 0,1.57 -1.064,1.841 -3.34,2.6 -1.806,0.596 -3.178,1.39 -3.178,3.521 0,2.456 2.113,3.684 4.352,3.684 1.426,0 2.636,-0.398 3.574,-1.499 z"
         style="fill:#000000;fill-opacity:1;fill-rule:nonzero;stroke:none"
         id="path56926" /><path
         d="m 685.885,335.367 c -1.461,-0.812 -3.123,-1.191 -4.784,-1.191 -3.972,0 -6.826,2.708 -6.826,6.717 0,4.025 3.052,6.717 6.88,6.717 1.679,0 3.304,-0.451 4.514,-1.679 l -1.138,-1.193 c -0.867,0.939 -2.185,1.463 -3.485,1.463 -2.925,0 -5.146,-2.203 -5.146,-5.308 0,-3.052 2.149,-5.309 5.292,-5.309 1.027,0 2.237,0.271 3.177,0.74 v 3.918 h -2.944 v 1.408 h 4.46 z"
         style="fill:#000000;fill-opacity:1;fill-rule:nonzero;stroke:none"
         id="path56930" /><path
         d="m 692.999,345.334 h -0.035 l -2.655,-6.284 h 5.219 z m -0.686,1.95 h 1.426 l 5.436,-12.783 h -1.769 l -1.3,3.141 h -6.393 l -1.318,-3.141 h -1.715 z"
         style="fill:#000000;fill-opacity:1;fill-rule:nonzero;stroke:none"
         id="path56934" /><path
         d="m 701.485,341.65 h 1.354 c 1.679,0 3.864,0 3.864,2.113 0,1.842 -1.607,2.112 -3.088,2.112 h -2.13 z m -1.517,5.634 h 3.269 c 2.472,0 5.091,-0.361 5.091,-3.521 0,-1.86 -1.21,-3.069 -3.196,-3.377 l 3.629,-5.886 h -1.86 l -3.466,5.742 h -1.95 V 334.5 h -1.517 z"
         style="fill:#000000;fill-opacity:1;fill-rule:nonzero;stroke:none"
         id="path56938" /><path
         d="m 710.096,347.284 h 8.036 v -1.409 h -6.517 v -4.007 h 6.084 v -1.409 h -6.084 v -4.55 h 6.843 v -1.408 h -8.362 z"
         style="fill:#000000;fill-opacity:1;fill-rule:nonzero;stroke:none"
         id="path56942" /><path
         d="m 725.969,345.027 c -0.506,0.813 -1.409,1.174 -2.33,1.174 -1.335,0 -2.726,-0.632 -2.726,-2.149 0,-1.174 0.65,-1.697 2.691,-2.348 1.986,-0.631 3.828,-1.281 3.828,-3.791 0,-2.546 -2.186,-3.738 -4.497,-3.738 -1.481,0 -3.069,0.488 -3.936,1.769 l 1.3,1.066 c 0.542,-0.939 1.625,-1.426 2.726,-1.426 1.301,0 2.781,0.757 2.781,2.22 0,1.571 -1.066,1.842 -3.341,2.601 -1.805,0.596 -3.176,1.39 -3.176,3.521 0,2.455 2.11,3.683 4.35,3.683 1.426,0 2.637,-0.397 3.576,-1.498 z"
         style="fill:#000000;fill-opacity:1;fill-rule:nonzero;stroke:none"
         id="path56946" /><path
         d="m 731.935,331.244 h 8.034 v -1.409 h -6.518 v -4.008 h 6.085 v -1.408 h -6.085 v -4.551 h 6.843 v -1.408 h -8.359 z"
         style="fill:#000000;fill-opacity:1;fill-rule:nonzero;stroke:none"
         id="path56950" /><path
         d="m 750.764,318.459 -3.81,5.238 -3.807,-5.237 h -1.883 l 4.757,6.53 -4.546,6.256 h 1.875 l 9.294,-12.787 z"
         style="fill:#f6a823;fill-opacity:1;fill-rule:nonzero;stroke:none"
         id="path56962" /><path
         id="path56964"
         style="fill:#000000;fill-opacity:1;fill-rule:nonzero;stroke:none"
         d="m 753.457,331.244 h 1.516 V 318.46 h -1.516 z" /><path
         d="m 734.836,342.974 c 1.447,1.072 1.601,1.295 1.601,2.008 0,0.685 -0.542,1.202 -1.298,1.202 -0.729,0 -1.297,-0.568 -1.297,-1.298 0,-0.494 0.04,-0.624 0.922,-1.826 z m -0.789,-7.296 c 0.859,0 1.727,0.419 3.036,1.601 l -2.624,3.609 c -0.047,-0.035 -0.054,-0.039 -0.094,-0.066 -0.06,-0.042 -0.175,-0.118 -0.51,-0.348 -1.508,-1.012 -1.986,-1.674 -1.986,-2.598 0,-1.17 1.028,-2.198 2.178,-2.198 m 8.203,-2.912 h -1.877 l -2.367,3.246 c -1.518,-1.38 -2.612,-1.836 -3.901,-1.836 -2.178,0 -3.835,1.593 -3.835,3.72 0,1.208 0.616,2.268 1.82,3.22 0.315,0.241 0.614,0.447 1.43,0.98 -0.947,1.267 -1.239,1.893 -1.239,2.714 0,1.61 1.235,2.8 2.897,2.8 1.581,0 2.82,-1.149 2.82,-2.628 0,-1.195 -0.566,-1.93 -2.28,-3.238 z"
         style="fill:#f6a823;fill-opacity:1;fill-rule:evenodd;stroke:none"
         id="path56968" /></g></g></svg>
