<?xml version="1.0" encoding="UTF-8" standalone="no"?>
<!-- Created with Inkscape (http://www.inkscape.org/) -->

<svg
   width="1920"
   height="1080"
   viewBox="0 0 507.99998 285.75"
   version="1.1"
   id="svg5"
   xml:space="preserve"
   inkscape:version="1.2.2 (b0a8486541, 2022-12-01)"
   sodipodi:docname="lapin.svg"
   xmlns:inkscape="http://www.inkscape.org/namespaces/inkscape"
   xmlns:sodipodi="http://sodipodi.sourceforge.net/DTD/sodipodi-0.dtd"
   xmlns="http://www.w3.org/2000/svg"
   xmlns:svg="http://www.w3.org/2000/svg"><sodipodi:namedview
     id="namedview7"
     pagecolor="#ffffff"
     bordercolor="#666666"
     borderopacity="1.0"
     inkscape:showpageshadow="2"
     inkscape:pageopacity="0.0"
     inkscape:pagecheckerboard="0"
     inkscape:deskcolor="#d1d1d1"
     inkscape:document-units="mm"
     showgrid="false"
     inkscape:zoom="0.79939326"
     inkscape:cx="486.61906"
     inkscape:cy="410.93667"
     inkscape:window-width="1761"
     inkscape:window-height="1229"
     inkscape:window-x="708"
     inkscape:window-y="400"
     inkscape:window-maximized="0"
     inkscape:current-layer="layer1" /><defs
     id="defs2" /><g
     inkscape:label="Calque 1"
     inkscape:groupmode="layer"
     id="layer1"
     transform="translate(-56.800151,-44.236249)"><g
       id="g758"
       transform="matrix(5.0668364,0,0,5.0668364,-230.99692,-159.93895)"><path
         id="path306-2"
         style="fill:#e5530d;stroke-width:0.0669366"
         d="m 137.5589,80.074205 c -0.009,0.0098 -0.17924,0.334443 -0.37879,0.721403 -0.49496,0.959829 -0.99741,1.686868 -1.52858,2.210718 l -0.44597,0.439766 0.37465,-0.02636 c 0.40783,-0.02824 1.29545,0.09952 2.44998,0.352433 0.40497,0.08871 1.20291,0.222757 1.77354,0.297657 2.38719,0.313369 4.49228,1.023039 9.11675,3.073197 2.72464,1.207899 4.1133,1.692838 5.50923,1.924947 0.66855,0.11117 1.42622,0.06875 1.81177,-0.101802 0.67641,-0.29921 0.82775,-1.265763 0.28112,-1.794723 -0.42285,-0.409189 -1.09855,-0.613638 -2.59519,-0.785998 -2.09124,-0.24083 -3.7097,-0.854381 -7.74216,-2.935738 -2.08,-1.073599 -4.49563,-2.082171 -6.04459,-2.523361 -0.41885,-0.1193 -1.16719,-0.364066 -1.66347,-0.543636 -0.49627,-0.17957 -0.90929,-0.318508 -0.91829,-0.308508 z" /><g
         id="g736"><path
           style="fill:#ada198;stroke-width:0.0669366"
           d="m 81.723516,79.347905 c 1.383067,-3.170767 2.729052,-6.433316 5.01135,-9.08585 2.711165,0.3411 3.061996,-2.962391 5.204318,-3.448619 5.316885,-1.609547 10.568196,0.812882 15.566226,2.388932 6.29879,1.821124 13.17874,2.673627 19.5564,0.774072 4.79908,-1.703274 6.55613,-7.413229 11.32886,-9.204729 2.79754,-1.324543 6.15725,-0.723929 8.55788,1.153747 1.12484,1.10274 5.12613,2.854427 2.59225,4.294901 -0.59893,1.800815 2.84086,1.572465 0.57853,3.119686 -2.30433,2.112388 -5.5023,-0.579363 -8.065,0.87292 -2.92452,1.738855 -3.04514,5.521251 -3.93653,8.459686 -0.73615,2.766029 -1.72552,5.555386 -3.64643,7.738864 -4.14646,0.641944 -8.25915,2.241409 -12.51329,1.430161 -6.16603,-0.435935 -11.44488,-3.897257 -17.23984,-5.65904 -4.26175,-1.321542 -9.202801,-2.605826 -13.337291,-0.168527 -1.000103,1.082997 -2.119921,0.153686 -3.213186,-0.191297 -2.148083,-0.824969 -4.296165,-1.649938 -6.444247,-2.474907 z m 62.890724,-14.37962 c 3.43205,-2.274449 -2.93506,-5.194893 -2.45362,-1.149801 0.22607,1.077858 1.47952,1.630893 2.45362,1.149801 z m 0.39095,-1.2194 c 0.0449,-1.249545 0.0449,1.249572 0,0 z m 0.0474,-0.97616 c 0.0427,-0.257994 0.0685,0.304992 0,0 z m -63.126484,15.27533 c 0.226377,-0.271762 0.316388,-0.184654 0,0 z"
           id="path310"
           sodipodi:nodetypes="ccsscssscsssssssssssscssscsssssccssssscccsssssssssssscccccccscc" /><path
           style="fill:#e5530d;stroke-width:0.0669366"
           d="m 86.203826,70.169435 c -2.795275,-0.228965 -3.868603,-4.100976 -1.80106,-5.89054 1.746705,-2.036677 5.707038,-1.357101 6.167583,1.447111 0.54448,2.473614 -1.918633,4.870208 -4.366523,4.443429 z m 64.098054,-2.33044 c -2.18025,-0.909366 0.88847,-4.134019 0.81225,-1.016134 0.0847,0.525679 0.0268,1.576403 -0.81225,1.016134 z m -14.97034,-6.57796 c -5.48972,-4.297667 -11.09656,-9.487405 -12.81247,-16.51013 0.54851,-1.028478 3.55748,0.982262 4.8299,1.621547 5.31995,3.419266 9.23406,8.564054 12.53729,13.866773 -1.65558,-0.03032 -3.21157,2.482454 -4.55472,1.02181 z"
           id="path306"
           sodipodi:nodetypes="scssssscsssscssccssscsscs" /><path
           style="fill:#444144;stroke-width:0.0669366"
           d="m 145.05904,63.573235 c 0.0158,-0.54766 0.0604,-1.05194 0.0992,-1.12064 0.0624,-0.11054 0.0888,-0.0875 0.23016,0.20081 0.22494,0.45881 0.22232,1.07357 -0.006,1.52757 -0.30481,0.60472 -0.3551,0.51007 -0.32285,-0.60774 z"
           id="path304" /></g><path
         id="path310-3"
         style="fill:#ada198;stroke-width:0.0669366"
         d="m 83.252846,76.609171 c -0.0995,0.292774 -0.539142,1.296129 -0.803052,1.822628 -1.458789,2.910297 -3.66584,4.472566 -6.491077,4.595585 -1.278449,0.05567 -2.790469,-0.211779 -3.854028,-0.682129 l -0.362769,-0.160196 -0.480074,0.548286 c -1.273178,1.453999 -3.68035,4.062155 -4.545459,4.92476 -1.063719,1.06066 -2.154228,1.97153 -2.772957,2.31666 -1.147319,0.63999 -2.078162,0.5872 -4.30258,-0.24391 -1.437228,-0.53695 -2.207547,-0.52432 -2.557466,0.0419 -0.39033,0.63156 0.153356,1.68044 1.124995,2.17092 0.49294,0.24884 1.130827,0.45687 1.652096,0.53847 0.563679,0.0883 2.034276,0.0356 2.710946,-0.0971 1.336288,-0.2621 2.755521,-0.85267 3.72432,-1.54926 0.29979,-0.21556 0.947449,-0.75009 1.439189,-1.18804 1.607338,-1.43153 2.190088,-1.80443 3.509346,-2.24534 1.396929,-0.46687 2.922454,-0.661313 5.350061,-0.681613 3.198327,-0.02676 5.313746,-0.305069 7.322034,-0.963249 1.886511,-0.618278 3.570624,-1.541892 6.195488,-3.416845 -3.207176,-2.709745 -5.447648,-4.577364 -6.859013,-5.731434 z M 82.85287,76.95592 c -0.0035,-0.0035 -0.03063,0.01726 -0.08372,0.05891 -0.06444,0.05054 -0.116789,0.102889 -0.116789,0.116789 0,0.05506 0.05471,0.01952 0.142111,-0.09198 0.04161,-0.0531 0.06185,-0.08025 0.05839,-0.08372 z" /><path
         id="path306-7"
         style="fill:#e5530d;stroke-width:0.0669366"
         d="m 82.491634,77.806622 c -0.03638,-0.0011 -0.279432,0.210901 -0.590144,0.517798 -1.269649,1.254079 -2.533907,1.875857 -4.226616,2.078426 -1.420968,0.17005 -3.194103,-0.175215 -4.735111,-0.922424 -0.7313,-0.3546 -0.521398,-0.444284 -1.835547,0.783415 -2.880357,2.690867 -5.146114,4.565767 -6.541203,5.413106 -1.615108,0.980969 -2.604517,0.955666 -4.755265,-0.122473 -1.453979,-0.728859 -2.167231,-0.88131 -2.649451,-0.56534 -0.597039,0.391189 -0.423711,1.487246 0.342098,2.161624 0.631759,0.55634 1.785632,1.00713 2.913001,1.13792 1.739558,0.20181 3.815866,-0.19473 5.403804,-1.03198 0.32824,-0.173072 1.059614,-0.647218 1.625224,-1.053168 1.165459,-0.836469 1.409035,-0.997353 1.944584,-1.286743 0.27568,-0.14896 0.540192,-0.389166 0.961182,-0.872815 0.319529,-0.36708 0.603886,-0.69192 0.631486,-0.72192 0.02764,-0.02995 0.239135,0.02237 0.470255,0.116272 0.23113,0.09392 0.63437,0.230458 0.89607,0.303857 2.960097,0.82983 5.654307,0.248617 7.562845,-1.631941 0.996099,-0.981499 1.811483,-2.334283 2.585372,-4.289661 0.0036,-0.0092 0.0026,-0.01379 -0.0026,-0.01395 z" /><path
         id="path310-35"
         style="fill:#ada198;stroke-width:0.0669366"
         d="m 136.01369,82.568685 -3.06545,4.111377 c 0.86487,-0.181196 1.50325,-0.296803 2.0898,-0.374654 2.50864,-0.333 4.28209,-0.311032 6.02444,0.0739 1.03521,0.2287 1.49902,0.412098 2.40967,0.952397 3.58217,2.125348 7.6721,3.880565 10.54147,4.523755 1.44928,0.32486 2.15774,0.24694 2.7249,-0.29973 0.30365,-0.2927 0.32143,-0.32959 0.32143,-0.6599 0,-0.32249 -0.0232,-0.37548 -0.30179,-0.67335 -0.55745,-0.595955 -1.26785,-0.807463 -3.16053,-0.941023 -1.18632,-0.08372 -1.9588,-0.242928 -3.09749,-0.639238 -1.07805,-0.375199 -2.00105,-0.856499 -4.10931,-2.141988 -2.23078,-1.360188 -3.34896,-1.984921 -4.29999,-2.403471 -0.80501,-0.354279 -1.85159,-0.725076 -2.38384,-0.843876 -0.21169,-0.04726 -0.38499,-0.106908 -0.38499,-0.132808 0,-0.0259 -0.0681,-0.04217 -0.15089,-0.03617 -0.0828,0.0059 -0.24096,-0.01329 -0.3514,-0.04289 -1.06126,-0.284145 -2.18972,-0.468872 -2.80603,-0.472323 z" /></g></g></svg>
