<?xml version="1.0" encoding="UTF-8"?>
<svg width="24px" height="24px" viewBox="0 0 24 24" version="1.1" xmlns="http://www.w3.org/2000/svg" xmlns:xlink="http://www.w3.org/1999/xlink">
    <title>icon/24/wand-24</title>
    <g id="icon/24/wand-24" stroke="none" stroke-width="1" fill="none" fill-rule="evenodd">
        <path d="M16.065864,6.51992245 L17.4800776,7.93413601 C18.1634951,8.61755352 18.1634951,9.72559223 17.4800776,10.4090097 L6.16636906,21.7227182 C5.48295154,22.4061358 4.37491283,22.4061358 3.69149532,21.7227182 L2.27728176,20.3085047 C1.59386425,19.6250872 1.59386425,18.5170485 2.27728176,17.8336309 L13.5909903,6.51992245 C14.2744078,5.83650494 15.3824465,5.83650494 16.065864,6.51992245 Z M20.5,15 C21.0522847,15 21.5,15.4477153 21.5,16 C21.5,16.5522847 21.0522847,17 20.5,17 C19.9477153,17 19.5,16.5522847 19.5,16 C19.5,15.4477153 19.9477153,15 20.5,15 Z M14.6516504,7.58058262 L11.0932712,11.1380581 C11.1645262,11.1800778 11.2316896,11.2316896 11.2928932,11.2928932 L12.7071068,12.7071068 C12.7683,12.7683 12.8199046,12.835451 12.8619205,12.9066924 L16.4194174,9.34834957 C16.5170485,9.2507185 16.5170485,9.09242725 16.4194174,8.99479618 L15.0052038,7.58058262 C14.9075727,7.48295154 14.7492815,7.48295154 14.6516504,7.58058262 Z M22.0501186,8.00053926 C22.2491041,8.97970354 23.0203864,9.75095805 23.9995655,9.94990271 L23.9995655,10.0500973 C23.0203515,10.249049 22.249049,11.0203515 22.0500973,11.9995655 L21.9499027,11.9995655 C21.7508893,11.0200481 20.9791705,10.2485711 19.9995242,10.0499125 L19.9995242,9.95008748 C20.9791356,9.751436 21.7508343,8.98000694 21.9498814,8.00053926 L22.0501186,8.00053926 Z M18.5,0 C18.7761424,0 19,0.223857625 19,0.5 C19,1.8254834 20.0315359,2.91003867 21.3356243,2.99468232 L21.5,3 C21.7761424,3 22,3.22385763 22,3.5 C22,3.77614237 21.7761424,4 21.5,4 C20.1745166,4 19.0899613,5.03153594 19.0053177,6.33562431 L19,6.5 C19,6.77614237 18.7761424,7 18.5,7 C18.2238576,7 18,6.77614237 18,6.5 C18,5.11928813 16.8807119,4 15.5,4 L15.4101244,3.99194433 C15.1768752,3.94960837 15,3.74545989 15,3.5 C15,3.22385763 15.2238576,3 15.5,3 C16.8807119,3 18,1.88071187 18,0.5 L18.0080557,0.410124368 C18.0503916,0.176875161 18.2545401,0 18.5,0 Z M11.0501186,2.00053926 C11.2491041,2.97970354 12.0203864,3.75095805 12.9995655,3.94990271 L12.9995655,4.05009729 C12.0203515,4.24904904 11.249049,5.02035148 11.0500973,5.99956551 L10.9499027,5.99956551 C10.7508893,5.02004807 9.97917049,4.24857108 8.99952419,4.04991252 L8.99952419,3.95008748 C9.97913556,3.751436 10.7508343,2.98000694 10.9498814,2.00053926 L11.0501186,2.00053926 Z" id="Shape" fill="#000000" fill-rule="nonzero"></path>
    </g>
</svg>