<svg xmlns="http://www.w3.org/2000/svg" id="Calque_1" data-name="Calque 1" version="1.1" width="515.27" height="663.5"><defs id="defs4"><style id="style2">.cls-1,.cls-2,.cls-3,.cls-4{fill:none;stroke-linecap:round;stroke-linejoin:round}.cls-1,.cls-4{stroke:#aa026d}.cls-1,.cls-2{stroke-width:10px}.cls-2,.cls-3{stroke:#71196f}.cls-3,.cls-4{stroke-width:5px}</style></defs><path class="cls-1" d="M389.52 658.5v-88c0-199.26-91.83-331.42-279.82-362" id="path8"/><path class="cls-1" d="M298.5 658.5v-87.07c0-156.89-75.34-258.73-229.71-276" id="path10"/><path class="cls-2" d="M216.77 658.5v-70.49c0-121.76-58.68-200.64-178.91-213.6" id="path12"/><path class="cls-2" d="M125.74 658.5v-41.14C125.74 533.21 86.13 478 5 466.95" id="path14"/><path class="cls-2" d="M125.74 658.5v-88c0-199.26 91.84-331.42 279.83-362" id="path16"/><path class="cls-2" d="M216.77 658.5v-87.07c0-156.89 75.34-258.73 229.71-276" id="path18"/><path class="cls-1" d="M298.5 658.5v-70.49c0-121.76 58.68-200.64 178.91-213.6" id="path20"/><path class="cls-1" d="M389.52 658.5v-41.14c0-84.15 39.62-139.36 120.75-150.41" id="path22"/><path class="cls-3" id="line24" d="M126 642.5v-520"/><path class="cls-3" id="line26" d="M217 642.5V2.5"/><path class="cls-4" id="line28" d="M299 642.5V2.5"/><path class="cls-4" id="line30" d="M390 642.5v-520"/></svg>