<svg width="678.649" height="377.479" viewBox="0 0 179.559 99.875" xmlns="http://www.w3.org/2000/svg"><g transform="matrix(23.15337 0 0 23.15337 -1496.503 -1039.45)"><g transform="matrix(-1 0 0 1 107.45 -3.825)"><path d="M35.06 52.647h1.288c.127 0 .161-.476.292-.48h3.377c.146.006.137.477.288.48h1.733c1.772.007-.395-3.667-3.004-3.795H35.06z" fill="#e6e8e5"/><path d="M35.06 49.452h3.066c2.448 2.237 3.894 1.197 4.52 2.847l-.255-1.158-.724-.96-.698-.59-.956-.529-.664-.178-.909-.032h-3.38z" fill="#5854cf"/><path d="M40.97 49.591h-.852c-.406 0-.5.79.6.79h1.175" fill="#bad2d8" stroke="#000" stroke-width=".265"/><circle cx="39.559" cy="52.571" r=".351" fill="#484946" stroke="#000" stroke-width=".221"/><circle cx="37.103" cy="52.571" r=".351" fill="#484946" stroke="#000" stroke-width=".221"/><path d="m37.641 52.24.299.518h.736l.306-.53" fill="#3f403e" stroke="#000" stroke-width=".265" stroke-linejoin="round"/><path d="M35.06 52.647h1.288c.127 0 .161-.476.292-.48h3.377c.146.006.137.477.288.48h1.733c1.772.007-.395-3.667-3.004-3.795H35.06" fill="none" stroke="#000" stroke-width=".265"/><path d="M35.06 49.85v1.81h.59l1.8-.482V49.85z" fill="#6f706e"/></g></g></svg>