<svg viewBox="0 0 512 512" style="enable-background:new 0 0 512 512" xml:space="preserve" xmlns="http://www.w3.org/2000/svg"><g transform="matrix(1.45 0 0 1.45 -115.2 -147.199)"><path style="fill:#eff2fa" d="M256 256c-53.629 0-97.103 43.475-97.103 97.103h194.207C353.103 299.475 309.629 256 256 256Z"/><path style="fill:#d7deed" d="M256 317.793c-19.501 0-35.31 15.809-35.31 35.31h70.621c-.001-19.501-15.81-35.31-35.311-35.31Z"/><path style="fill:#ffb473" d="M379.586 353.103h52.966c0-97.354-79.202-176.552-176.552-176.552v52.966c68.147 0 123.586 55.44 123.586 123.586z"/><path style="fill:#ffe182" d="M132.414 353.103H79.448c0-97.354 79.202-176.552 176.552-176.552v52.966c-68.147 0-123.586 55.44-123.586 123.586z"/><path style="fill:#c3e678" d="M79.448 353.103h52.966c0-34.073 13.86-64.97 36.238-87.348l-37.434-37.434c-31.969 31.969-51.77 76.106-51.77 124.782z"/><path style="fill:#ff6464" d="M343.348 265.756c22.378 22.378 36.238 53.274 36.238 87.348h52.966c0-48.676-19.8-92.813-51.769-124.782z"/><path style="fill:#ff6464" d="M238.345 379.586a8.796 8.796 0 0 1-6.241-2.586 8.825 8.825 0 0 1 0-12.483l150.069-150.069a8.825 8.825 0 0 1 12.483 0 8.825 8.825 0 0 1 0 12.483L244.587 377a8.802 8.802 0 0 1-6.242 2.586z"/><circle style="fill:#5b5d6e" cx="256" cy="353.103" r="17.655"/></g></svg>