<svg height="512" viewBox="0 0 56 59" width="512" xmlns="http://www.w3.org/2000/svg"><g id="Page-1" fill="none" fill-rule="evenodd"><g id="035---Track-Intersection" fill-rule="nonzero" transform="translate(0 -1)"><g fill="#a56a43"><path id="Shape" d="m49 30h6c.5522847 0 1 .4477153 1 1s-.4477153 1-1 1h-6z"/><path id="Shape" d="m55 44h-23c-.5522847 0-1-.4477153-1-1s.4477153-1 1-1h23c.5522847 0 1 .4477153 1 1s-.4477153 1-1 1z"/><path id="Shape" d="m28.97 56h-2.97c-.5522847 0-1-.4477153-1-1s.4477153-1 1-1h2.97c.5522847 0 1 .4477153 1 1s-.4477153 1-1 1z"/><path id="Shape" d="m47 56h-13c-.5522847 0-1-.4477153-1-1s.4477153-1 1-1h12.98c.5543733-.0011174 1.0056013.445643 1.01 1 .0023997.2642122-.1008111.5184427-.2867039.7062132-.1858927.1877704-.4390731.2935311-.7032961.2937868z"/><path id="Shape" d="m55 20h-24c-.5522847 0-1-.4477153-1-1s.4477153-1 1-1h24c.5522847 0 1 .4477153 1 1s-.4477153 1-1 1z"/><path id="Shape" d="m55 8h-29c-.5522847 0-1-.44771525-1-1s.4477153-1 1-1h29c.5522847 0 1 .44771525 1 1s-.4477153 1-1 1z"/><path id="Shape" d="m4.081 31h-.035c-.55162821-.0190069-.98354189-.481356-.965-1.033l.919-28.002c.01877769-.55228474.48171526-.98477766 1.034-.96599998s.98477767.48171524.966 1.03399998l-.92 28c-.01779559.5389684-.45973791.9667544-.999.967z"/><path id="Shape" d="m12 34c-.3272256.0000441-.6337714-.1600111-.8207668-.4285429s-.2307805-.6115636-.1172332-.9184571l10-27c.1239712-.33511513.417307-.57863646.7695108-.63883186.3522038-.06019539.7097674.07208026.938.34700001.2282327.27491974.2924604.65071672.1684892.98583185l-2.71 7.33-7.291 19.671c-.1454235.3917637-.5191163.6517933-.937.652z"/><path id="Shape" d="m19 39c-.3880873.0002427-.7412698-.2240762-.9060311-.5754528-.1647614-.3513766-.1113449-.7663507.1370311-1.0645472l12.706-15.246c.3551191-.4244308.9870692-.4806191 1.4115-.1255s.4806191.9870692.1255 1.4115l-12.705 15.24c-.1901328.2282708-.4719175.3601857-.769.36z"/></g><path id="Shape" d="m34 23.88v31.12h-.03c-.2461944-5.7859324-1.9561982-11.4148384-4.97-16.36v-19.34c1.7698727 1.4100253 3.4404952 2.9403154 5 4.58z" fill="#95a5a5"/><path id="Shape" d="m52 4v51h-.03c-.1870641-7.217006-1.8798965-14.3153216-4.97-20.84v-30.16c.0032948-1.10320187.8967981-1.9967052 2-2h1c1.1032019.0032948 1.9967052.89679813 2 2z" fill="#95a5a5"/><path id="Shape" d="m55 56h-3c-.5522847 0-1-.4477153-1-1s.4477153-1 1-1h3c.5522847 0 1 .4477153 1 1s-.4477153 1-1 1z" fill="#a56a43"/><path id="Shape" d="m34 4v12.95l-.01.01c-1.5833215-1.3899901-3.2497325-2.6823769-4.99-3.87v-9.09c.0032948-1.10320187.8967981-1.9967052 2-2h1c1.1032019.0032948 1.9967052.89679813 2 2z" fill="#95a5a5"/><path id="Shape" d="m52 56.5v1.5c-.0032948 1.1032019-.8967981 1.9967052-2 2h-1c-1.1032019-.0032948-1.9967052-.8967981-2-2v-1.5c0-.5-.01-1-.02-1.5-.1265686-4.0661665-.7752156-8.0992049-1.93-12-2.138477-7.149316-5.9230425-13.6978131-11.05-19.12-1.5595048-1.6396846-3.2301273-3.1699747-5-4.58-7.7446926-6.1675714-17.2313699-9.74606361-27.12-10.23-1.05744776-.06355965-1.88190846-.9406455-1.88-2v-1c.00334965-.55050251.2317891-1.07566469.63222854-1.45343775s.93800723-.57525921 1.48777146-.54656225c9.6206766.46864946 18.9240051 3.59052532 26.88 9.02 1.7402675 1.1876231 3.4066785 2.4800099 4.99 3.87 5.4814917 4.7700447 9.9118321 10.6272203 13.01 17.2 3.0901035 6.5246784 4.7829359 13.622994 4.97 20.84.02.5.03 1 .03 1.5z" fill="#bdc3c7"/><path id="Shape" d="m34 56.5v1.5c-.0032948 1.1032019-.8967981 1.9967052-2 2h-1c-1.1032019-.0032948-1.9967052-.8967981-2-2v-1.5c0-.5-.01-1.01-.03-1.5-.7569989-14.7919977-12.3649735-26.7294283-27.13-27.9-1.03781006-.0832901-1.83813115-.9488547-1.84-1.99v-1c.00062274-.5585767.23388558-1.0916511.64374743-1.4711528.40986184-.3795017.95927823-.5711303 1.51625257-.5288472 11.0865459.8663643 21.0772294 7.0193448 26.84 16.53 3.0138018 4.9451616 4.7238056 10.5740676 4.97 16.36.02.5.03 1 .03 1.5z" fill="#bdc3c7"/></g></g></svg>