<svg height="512" viewBox="0 0 58 41" width="512" xmlns="http://www.w3.org/2000/svg"><g id="Page-1" fill="none" fill-rule="evenodd"><g id="020---Train" fill-rule="nonzero"><path id="Shape" d="m40.03 30c-.0202562.1658927-.0302751.3328755-.03.5 0 2.4852814 2.0147186 4.5 4.5 4.5s4.5-2.0147186 4.5-4.5c.0002751-.1671245-.0097438-.3341073-.03-.5" fill="#464f5d"/><path id="Shape" d="m27.03 30c-.0202562.1658927-.0302751.3328755-.03.5 0 2.4852814 2.0147186 4.5 4.5 4.5s4.5-2.0147186 4.5-4.5c.0002751-.1671245-.0097438-.3341073-.03-.5" fill="#464f5d"/><path id="Shape" d="m44.5 36c-3.0361953-.0033068-5.4966932-2.4638047-5.5-5.5 0-.013 0-1.359.038-1.627l1.984.254-.992-.127.994.106c-.017.217-.024 1.24-.024 1.394 0 1.9329966 1.5670034 3.5 3.5 3.5s3.5-1.5670034 3.5-3.5c0-.154-.007-1.177-.024-1.394l1.986-.233c.038.268.038 1.614.038 1.627-.0033068 3.0361953-2.4638047 5.4966932-5.5 5.5z" fill="#95a5a5"/><path id="Shape" d="m31.5 36c-3.0361953-.0033068-5.4966932-2.4638047-5.5-5.5 0-.013 0-1.359.038-1.627l1.984.254-.992-.127.994.106c-.017.217-.024 1.24-.024 1.394 0 1.9329966 1.5670034 3.5 3.5 3.5s3.5-1.5670034 3.5-3.5c0-.154-.007-1.177-.024-1.394l1.986-.233c.038.268.038 1.614.038 1.627-.0033068 3.0361953-2.4638047 5.4966932-5.5 5.5z" fill="#95a5a5"/><path id="Shape" d="m57.7 21c.6317019 2.1187924.2252721 4.4114809-1.0962545 6.1840203s-3.4027891 2.816547-5.6137455 2.8159797h-49.99c-.55228475 0-1-.4477153-1-1v-10z" fill="#3b97d3"/><path id="Shape" d="m57.7 21h-57.7v-19c.0032948-1.10320187.89679813-1.9967052 2-2h38.32c2.3426197.00036861 4.5301787 1.17106913 5.83 3.12l.59.88.67 1 .66 1 6 9 .67 1 .66 1 1.41 2.12c.39065.5777008.690777 1.2116768.89 1.88z" fill="#bdc3c7"/><path id="Shape" d="m54.74 16h-15.74c-1.1032019-.0032948-1.9967052-.8967981-2-2v-7c.0032948-1.10320187.8967981-1.9967052 2-2h8.41l.66 1 6 9z" fill="#393f4a"/><rect id="Rectangle-path" fill="#7f8c8d" height="5" rx="2" width="58" y="36"/><path id="Shape" d="m55.4 17h-16.4c-1.6548028-.0049422-2.9950578-1.3451972-3-3v-7c.0049422-1.6548028 1.3451972-2.9950578 3-3h7.74l1.33 2h-9.07c-.5522847 0-1 .44771525-1 1v7c0 .5522847.4477153 1 1 1h15.07z" fill="#7f8c8d"/><rect id="Rectangle-path" fill="#393f4a" height="11" rx="2" width="11" x="21" y="5"/><rect id="Rectangle-path" fill="#95a5a5" height="20" rx="2" width="11" x="5" y="5"/><path id="Shape" d="m14 4h-7c-1.6548028.0049422-2.9950578 1.3451972-3 3v14h2v-14c0-.55228475.44771525-1 1-1h7c.5522847 0 1 .44771525 1 1v14h2v-14c-.0049422-1.6548028-1.3451972-2.9950578-3-3z" fill="#7f8c8d"/><path id="Shape" d="m17 21v2c-.0049422 1.6548028-1.3451972 2.9950578-3 3h-7c-1.6548028-.0049422-2.9950578-1.3451972-3-3v-2h2v2c0 .5522847.44771525 1 1 1h7c.5522847 0 1-.4477153 1-1v-2z" fill="#2980ba"/><path id="Shape" d="m12 10h-3c-.55228475 0-1-.44771525-1-1s.44771525-1 1-1h3c.5522847 0 1 .44771525 1 1s-.4477153 1-1 1z" fill="#464f5d"/><path id="Shape" d="m12 14h-3c-.55228475 0-1-.4477153-1-1s.44771525-1 1-1h3c.5522847 0 1 .4477153 1 1s-.4477153 1-1 1z" fill="#464f5d"/><path id="Shape" d="m30 17h-7c-1.6568542 0-3-1.3431458-3-3v-7c0-1.65685425 1.3431458-3 3-3h7c1.6568542 0 3 1.34314575 3 3v7c0 1.6568542-1.3431458 3-3 3zm-7-11c-.5522847 0-1 .44771525-1 1v7c0 .5522847.4477153 1 1 1h7c.5522847 0 1-.4477153 1-1v-7c0-.55228475-.4477153-1-1-1z" fill="#7f8c8d"/></g></g></svg>