<svg xmlns="http://www.w3.org/2000/svg" xml:space="preserve" width="512" height="512" style="enable-background:new 0 0 512 512"><path fill="#cad0d7" d="M298.87 512.04h-85.73c-3.32 0-6-2.68-6-6v-52.62c-19.8-4.88-38.65-12.7-56.17-23.29l-37.22 37.23a6.01 6.01 0 0 1-4.25 1.76 5.97 5.97 0 0 1-4.24-1.76l-60.62-60.62c-2.34-2.34-2.34-6.14 0-8.49l37.22-37.22a201.92 201.92 0 0 1-23.29-56.16H5.96c-3.32 0-6-2.69-6-6v-85.73c0-3.32 2.68-6 6-6h52.61c4.88-19.81 12.7-38.67 23.29-56.17l-37.22-37.22c-2.34-2.35-2.34-6.15 0-8.49l60.62-60.62a6.011 6.011 0 0 1 8.49 0l37.22 37.23a201.505 201.505 0 0 1 56.17-23.29V5.96c0-3.32 2.68-6 6-6h85.73c3.31 0 6 2.68 6 6v52.62c19.8 4.88 38.65 12.7 56.16 23.29l37.22-37.23c2.35-2.34 6.15-2.34 8.49 0l60.62 60.62c2.34 2.34 2.34 6.14 0 8.49l-37.22 37.22a201.257 201.257 0 0 1 23.29 56.17h52.61c3.32 0 6 2.68 6 6v85.72a6 6 0 0 1-6 6.01h-52.61a201.795 201.795 0 0 1-23.29 56.16l37.22 37.22c2.34 2.35 2.34 6.15 0 8.49l-60.62 60.62a6.012 6.012 0 0 1-4.24 1.76c-1.59 0-3.12-.64-4.24-1.76l-37.23-37.23c-17.51 10.59-36.36 18.41-56.16 23.29v52.62c0 3.32-2.69 6-6 6z" data-original="#cad0d7"/><path fill="#fff" d="M256 403.73c-81.46 0-147.73-66.27-147.73-147.73S174.54 108.27 256 108.27 403.73 174.54 403.73 256 337.46 403.73 256 403.73z" data-original="#ffffff"/><g style="fill:#82be00;fill-opacity:1" transform="matrix(1.16667 0 0 1.16667 -21.545 -29.833)"><rect width="44.208" height="180" x="215.792" y="155" ry="12.755" style="fill:#82be00;fill-opacity:1;stroke-width:1.34446;stroke-linecap:round;stroke-linejoin:round;stroke-dasharray:2.68893,1.34446;paint-order:markers stroke fill;stop-color:#000"/><rect width="44.208" height="180" x="222.896" y="-327.896" ry="12.755" style="fill:#82be00;fill-opacity:1;stroke-width:1.34446;stroke-linecap:round;stroke-linejoin:round;stroke-dasharray:2.68893,1.34446;paint-order:markers stroke fill;stop-color:#000" transform="rotate(90)"/></g></svg>