<svg xmlns="http://www.w3.org/2000/svg" xml:space="preserve" width="512" height="512" style="enable-background:new 0 0 512 512" viewBox="0 0 100 100"><path fill="#f1f7e9" d="M100 41.648 76.721 64.934a5.884 5.884 0 0 1-8.335 0L47.554 44.106a8.322 8.322 0 0 0-5.892-2.44 8.329 8.329 0 0 0-8.333 8.332l.005 16.667c0 9.206-7.469 16.665-16.668 16.665H0V100h100z" data-original="#f1f7e9"/><path fill="#7cb342" d="M100 41.648 76.721 64.934a5.884 5.884 0 0 1-8.335 0L47.554 44.106a8.322 8.322 0 0 0-5.892-2.44 8.329 8.329 0 0 0-8.333 8.332l.005 16.667c0 9.206-7.469 16.665-16.668 16.665H0v-8.332h16.666A8.34 8.34 0 0 0 25 66.665l-.003-16.667c0-9.19 7.474-16.668 16.667-16.668 4.447 0 8.63 1.734 11.78 4.879l19.112 19.107L100 29.866Z" data-original="#7cb342"/><path fill="#fff8e1" d="M91.668 8.333a16.617 16.617 0 0 0-11.786 4.882s-9.766 9.764-9.766 9.773a5.881 5.881 0 0 1-8.327 0l-8.335-8.334a8.835 8.835 0 0 0-12.504 0L20.116 35.489A16.637 16.637 0 0 1 8.334 40.37H0v34.627h16.666A8.34 8.34 0 0 0 25 66.665l-.003-16.667c0-9.19 7.474-16.668 16.667-16.668 4.447 0 8.63 1.734 11.78 4.879l19.112 19.107L100 29.866V8.332Z" data-original="#fff8e1"/><path fill="#ffc00e" d="M0 40.371h8.334a16.637 16.637 0 0 0 11.782-4.882l20.835-20.834a8.835 8.835 0 0 1 12.504 0l8.335 8.334a5.881 5.881 0 0 0 8.328 0c0-.01 9.766-9.773 9.766-9.773a16.617 16.617 0 0 1 11.785-4.882H100V0h-8.334A24.83 24.83 0 0 0 73.99 7.323c-3.646 3.645-6.201 6.2-7.996 8.09l-6.641-6.648a17.058 17.057 0 0 0-12.148-5.034 17.074 17.074 0 0 0-12.147 5.034l-20.833 20.83a8.293 8.292 0 0 1-5.891 2.441H0Z" data-original="#ffc00e"/><path fill="#ffebb2" d="M91.668 8.333a16.617 16.617 0 0 0-11.786 4.882s-9.766 9.764-9.766 9.773a5.881 5.881 0 0 1-8.327 0l-8.335-8.334a8.835 8.835 0 0 0-12.504 0L20.116 35.489A16.637 16.637 0 0 1 8.334 40.37H0v34.627h5V45.37h3.334c5.78 0 11.22-2.253 15.319-6.347L44.486 18.19a3.817 3.817 0 0 1 2.719-1.126 3.813 3.812 0 0 1 2.715 1.126l8.33 8.33a10.811 10.811 0 0 0 7.701 3.196 10.82 10.82 0 0 0 7.702-3.19l1.464-1.466v-.006c1.987-1.989 5.64-5.641 8.304-8.305a11.578 11.577 0 0 1 8.248-3.416H100v-5z" data-original="#ffebb2"/><path fill="#dbebc7" d="M76.721 64.934a5.884 5.884 0 0 1-8.335 0L47.554 44.106a8.322 8.322 0 0 0-5.892-2.44 8.329 8.329 0 0 0-8.333 8.332l.005 16.667c0 9.206-7.469 16.665-16.668 16.665H0V100h5V88.33h11.666c11.948 0 21.668-9.719 21.668-21.666l-.005-16.666a3.337 3.337 0 0 1 3.333-3.333c.888 0 1.726.348 2.357.978L64.85 68.47a10.841 10.841 0 0 0 7.705 3.194c2.913 0 5.65-1.136 7.702-3.195L100 48.72v-7.071z" data-original="#dbebc7"/><path fill="#568b3f" d="M0 74.998h5v8.332H0z" data-original="#568b3f"/><path fill="#f68e1e" d="M0 32.038h5v8.333H0ZM95 0h5v8.333h-5z" data-original="#f68e1e"/><path fill="#568b3f" d="m95 46.649 5-5.001V29.865l-5 5.001z" data-original="#568b3f"/></svg>