<svg xmlns="http://www.w3.org/2000/svg" xml:space="preserve" width="512" height="512" style="enable-background:new 0 0 512 512"><path fill="#CAD0D7" d="M298.87 512.04h-85.73c-3.32 0-6-2.68-6-6v-52.62c-19.8-4.88-38.65-12.7-56.17-23.29l-37.22 37.23c-1.13 1.13-2.66 1.76-4.25 1.76s-3.12-.63-4.24-1.76l-60.62-60.62c-2.34-2.34-2.34-6.14 0-8.49l37.22-37.22a201.92 201.92 0 0 1-23.29-56.16H5.96c-3.32 0-6-2.69-6-6v-85.73c0-3.32 2.68-6 6-6h52.61c4.88-19.81 12.7-38.67 23.29-56.17l-37.22-37.22c-2.34-2.35-2.34-6.15 0-8.49l60.62-60.62a6.011 6.011 0 0 1 8.49 0l37.22 37.23a201.505 201.505 0 0 1 56.17-23.29V5.96c0-3.32 2.68-6 6-6h85.73c3.31 0 6 2.68 6 6v52.62c19.8 4.88 38.65 12.7 56.16 23.29l37.22-37.23c2.35-2.34 6.15-2.34 8.49 0l60.62 60.62c2.34 2.34 2.34 6.14 0 8.49l-37.22 37.22a201.257 201.257 0 0 1 23.29 56.17h52.61c3.32 0 6 2.68 6 6v85.72a6 6 0 0 1-6 6.01h-52.61a201.795 201.795 0 0 1-23.29 56.16l37.22 37.22c2.34 2.35 2.34 6.15 0 8.49l-60.62 60.62c-1.12 1.12-2.65 1.76-4.24 1.76s-3.12-.64-4.24-1.76l-37.23-37.23c-17.51 10.59-36.36 18.41-56.16 23.29v52.62c0 3.32-2.69 6-6 6z" data-original="#cad0d7"/><path fill="#FFF" d="M256 403.73c-81.46 0-147.73-66.27-147.73-147.73S174.54 108.27 256 108.27 403.73 174.54 403.73 256 337.46 403.73 256 403.73z" data-original="#ffffff"/><path fill="#FFC738" d="M248.97 363.17a6.014 6.014 0 0 1-6-6.01v-77.43h-47.35c-2.16 0-4.15-1.16-5.22-3.04a6.011 6.011 0 0 1 .07-6.04l70.99-118.89a6.012 6.012 0 0 1 6.75-2.71c2.6.72 4.4 3.09 4.4 5.79v77.76h43.77a6.02 6.02 0 0 1 5.19 2.98 6.04 6.04 0 0 1 .03 5.99l-67.41 118.56a6.014 6.014 0 0 1-5.22 3.04z" data-original="#ffc738"/></svg>