<svg xmlns="http://www.w3.org/2000/svg" xml:space="preserve" width="512" height="512" style="enable-background:new 0 0 512 512"><g style="opacity:.5"><path fill="#C6865C" d="M492.19 145.004H19.806C8.868 145.004 0 136.137 0 125.198V57.927c0-10.939 8.868-19.806 19.806-19.806H492.19c10.939 0 19.806 8.868 19.806 19.806v67.271c0 10.939-8.867 19.806-19.806 19.806zm0 164.436H19.806C8.868 309.44 0 300.573 0 289.634v-67.271c0-10.939 8.868-19.806 19.806-19.806H492.19c10.939 0 19.806 8.868 19.806 19.806v67.271c0 10.939-8.867 19.806-19.806 19.806zm0 164.436H19.806C8.868 473.876 0 465.009 0 454.07v-67.271c0-10.939 8.868-19.806 19.806-19.806H492.19c10.939 0 19.806 8.868 19.806 19.806v67.271c0 10.939-8.867 19.806-19.806 19.806z" data-original="#c6865c"/><path fill="#B16E3D" d="M512 102.581v22.623c0 10.94-8.87 19.8-19.81 19.8H19.814c-10.94 0-19.81-8.86-19.81-19.8v-22.623c0 10.941 8.87 19.81 19.81 19.81H492.19c10.941 0 19.81-8.87 19.81-19.81zm0 164.436v22.623c0 10.94-8.87 19.8-19.81 19.8H19.814c-10.94 0-19.81-8.86-19.81-19.8v-22.623c0 10.94 8.87 19.81 19.81 19.81H492.19c10.941 0 19.81-8.869 19.81-19.81zm0 164.437v22.623c0 10.94-8.87 19.8-19.81 19.8H19.814c-10.94 0-19.81-8.86-19.81-19.8v-22.623c0 10.94 8.87 19.81 19.81 19.81H492.19c10.941 0 19.81-8.87 19.81-19.81z" data-original="#b16e3d"/><path fill="#B9C1CB" d="M104.803 511.997H76.231c-7.616 0-13.79-6.174-13.79-13.79V13.791C62.441 6.174 68.615 0 76.231 0h28.572c7.616 0 13.79 6.174 13.79 13.79v484.416c0 7.616-6.174 13.791-13.79 13.791zm330.962 0h-28.572c-7.616 0-13.79-6.174-13.79-13.79V13.791c0-7.616 6.174-13.79 13.79-13.79h28.572c7.616 0 13.79 6.174 13.79 13.79v484.416c.001 7.615-6.174 13.79-13.79 13.79z" data-original="#b9c1cb"/><path fill="#909BA5" d="M95.085 512H76.233c-7.613 0-13.794-6.171-13.794-13.794V13.798C62.439 6.175 68.62.004 76.233.004h18.852c-7.613 0-13.794 6.171-13.794 13.794v484.408c0 7.623 6.182 13.794 13.794 13.794zm330.964 0h-18.852c-7.613 0-13.794-6.171-13.794-13.794V13.798c0-7.623 6.181-13.794 13.794-13.794h18.852c-7.623 0-13.794 6.171-13.794 13.794v484.408c0 7.623 6.171 13.794 13.794 13.794z" data-original="#909ba5"/></g><g style="font-size:516.218px;line-height:1.25;font-family:&quot;Avenir LT Std&quot;;-inkscape-font-specification:&quot;Avenir LT Std&quot;;fill:#4d4f53;stroke-width:12.9055"><path d="M286.973 333.949v-19.616c0-26.844 8.26-33.555 27.36-51.622 29.94-28.392 56.267-50.073 56.267-94.984 0-65.044-47.492-100.663-108.922-100.663-65.56 0-112.535 38.717-120.278 104.276l66.075 5.162c2.582-27.875 22.714-50.589 51.622-50.589 26.844 0 46.46 18.584 46.46 45.427 0 12.906-4.13 24.779-12.906 33.554l-39.748 40.265c-21.165 21.682-27.876 29.425-27.876 60.398v28.392zm-72.27 71.754c0 22.198 19.616 39.233 41.297 39.233 22.714 0 41.297-18.068 41.297-40.265 0-22.198-19.1-39.233-41.297-39.233-22.714 0-41.297 18.068-41.297 40.265z" aria-label="?" style="font-weight:700;-inkscape-font-specification:&quot;Avenir LT Std Bold&quot;"/></g></svg>