<svg xmlns="http://www.w3.org/2000/svg" xml:space="preserve" width="512" height="512" style="enable-background:new 0 0 512 512"><path fill="#3B4456" d="M100.848 349.092h62.061v46.546h-62.061z" data-original="#3b4456" style="fill:#41454c;opacity:.5"/><g fill="#525E77" style="fill:#5a606b;opacity:.5"><path d="M333.576 349.092h62.061v46.546h-62.061z" data-original="#525e77" style="fill:#5a606b"/><circle cx="77.575" cy="372.365" r="38.788" data-original="#525e77" style="fill:#5a606b"/><circle cx="186.182" cy="372.365" r="38.788" data-original="#525e77" style="fill:#5a606b"/></g><circle cx="310.303" cy="372.365" r="38.788" fill="#6B7790" data-original="#6b7790" style="fill:#757982;opacity:.5"/><circle cx="418.909" cy="372.365" r="38.788" fill="#6B7790" data-original="#6b7790" style="fill:#757982;opacity:.5"/><path fill="#FF6E80" d="m503.778 310.298 3.792 15.516a61.84 61.84 0 0 1-13.672 20.689c-11.189 11.189-26.644 18.103-43.716 18.103H196.448l-92.521-15.156-64.363 15.156h-8.655C13.837 364.605 0 350.768 0 333.696v-77.695l164.241-6.089 85.948-3.183 256.361 9.273a201.007 201.007 0 0 1 5.296 38.781z" data-original="#ff6e80" style="fill:#f77288;opacity:.5"/><path fill="#F9475E" d="M196.448 364.605H30.909C13.837 364.605 0 350.768 0 333.696v-77.695l164.241-6.089c2.658 35.638 11.962 74.532 32.207 114.693z" data-original="#f9475e" style="fill:#ef4e69;opacity:.5"/><path fill="#EBEBF9" d="M506.55 256.001H164.756L90.78 242.998 0 256.001V131.756c0-17.072 13.837-30.909 30.909-30.909H310.06c49.043 0 93.995 17.474 128.984 46.549l10.901 33.959 39.234 28.096a200.132 200.132 0 0 1 17.371 46.55z" data-original="#ebebf9" style="fill:#eaeaf7;opacity:.5"/><path fill="#DEDDF5" d="M164.756 256.001H0V131.756c0-17.072 13.837-30.909 30.909-30.909h158.708c-13.837 32.424-31.208 88.38-24.861 155.154z" data-original="#deddf5" style="fill:#dedef1;opacity:.5"/><path fill="#91D4F2" d="M489.179 209.451H366.408a30.91 30.91 0 0 1-27.643-17.082l-11.302-22.605c-5.131-10.272 2.339-22.368 13.827-22.368h97.755c20.554 17.073 37.667 38.163 50.134 62.055z" data-original="#91d4f2" style="fill:#95d1ea;opacity:.5"/><path fill="#F9D171" d="M512 302.787a61.74 61.74 0 0 1-4.43 23.027h-42.109c-8.572 0-15.516-6.944-15.516-15.516 0-4.286 1.731-8.16 4.544-10.973a15.5 15.5 0 0 1 10.973-4.543h46.384c.102 2.657.154 5.326.154 8.005z" data-original="#f9d171" style="fill:#f1c974;opacity:.5"/><path fill="#59C2E8" d="M93.606 209.455H61.545c-8.284 0-15-6.716-15-15v-32.061c0-8.284 6.716-15 15-15h32.061c8.284 0 15 6.716 15 15v32.061c0 8.285-6.716 15-15 15z" data-original="#59c2e8" style="fill:#5fbede;opacity:.5"/><path fill="#91D4F2" d="M201.693 162.851v31.146c0 8.541-6.913 15.455-15.455 15.455h-31.146c-8.541 0-15.455-6.913-15.455-15.455v-31.146c0-8.541 6.913-15.455 15.455-15.455h31.146c8.541 0 15.455 6.913 15.455 15.455z" data-original="#91d4f2" style="fill:#95d1ea;opacity:.5"/><path fill="#59C2E8" d="M173.782 147.396c-4.739 18.257-8.5 39.172-9.839 62.055h-8.85c-8.541 0-15.455-6.913-15.455-15.455V162.85c0-8.541 6.913-15.455 15.455-15.455h18.689z" data-original="#59c2e8" style="fill:#5fbede;opacity:.5"/><path fill="#91D4F2" d="M279.788 209.455h-32.061c-8.284 0-15-6.716-15-15v-32.061c0-8.284 6.716-15 15-15h32.061c8.284 0 15 6.716 15 15v32.061c0 8.285-6.716 15-15 15z" data-original="#91d4f2" style="fill:#95d1ea;opacity:.5"/><path d="M285.913 331.28v-18.944c0-25.925 7.977-32.406 26.423-49.855 28.916-27.42 54.342-48.359 54.342-91.733 0-62.817-45.867-97.217-105.194-97.217-63.316 0-108.683 37.392-116.162 100.707l63.814 4.986c2.493-26.922 21.937-48.858 49.855-48.858 25.925 0 44.87 17.948 44.87 43.872 0 12.464-3.989 23.93-12.464 32.406l-38.388 38.887c-20.44 20.939-26.922 28.417-26.922 58.33v27.42zm-69.797 69.299c0 21.438 18.945 37.89 39.884 37.89 21.936 0 39.884-17.45 39.884-38.887 0-21.438-18.446-37.89-39.884-37.89-21.936 0-39.884 17.45-39.884 38.887z" aria-label="?" style="font-weight:700;font-size:498.548px;line-height:1.25;font-family:&quot;Avenir LT Std&quot;;-inkscape-font-specification:&quot;Avenir LT Std Bold&quot;;fill:#4d4f53;stroke-width:12.4637"/></svg>