<svg xmlns="http://www.w3.org/2000/svg" xml:space="preserve" width="512" height="512" style="enable-background:new 0 0 512 512"><path fill="#cad0d7" d="M288.147 448H223.86c-2.49 0-4.5-2.01-4.5-4.5v-39.458a151.198 151.198 0 0 1-42.12-17.465l-27.91 27.918a4.507 4.507 0 0 1-3.188 1.32 4.477 4.477 0 0 1-3.18-1.32l-45.457-45.458a4.508 4.508 0 0 1 0-6.366l27.91-27.91a151.416 151.416 0 0 1-17.464-42.114H68.499c-2.49 0-4.499-2.017-4.499-4.5V223.86c0-2.49 2.01-4.5 4.5-4.5h39.45a150.92 150.92 0 0 1 17.465-42.12l-27.91-27.91a4.508 4.508 0 0 1 0-6.367l45.458-45.458a4.508 4.508 0 0 1 6.366 0l27.91 27.918a151.105 151.105 0 0 1 42.122-17.465V68.5c0-2.49 2.01-4.499 4.499-4.499h64.287c2.483 0 4.5 2.01 4.5 4.5v39.458a151.06 151.06 0 0 1 42.113 17.465l27.91-27.918a4.508 4.508 0 0 1 6.367 0l45.458 45.458a4.508 4.508 0 0 1 0 6.366l-27.91 27.91a150.92 150.92 0 0 1 17.464 42.122h39.452c2.49 0 4.499 2.01 4.499 4.499v64.28a4.5 4.5 0 0 1-4.5 4.507h-39.45a151.323 151.323 0 0 1-17.465 42.113l27.91 27.91a4.508 4.508 0 0 1 0 6.367l-45.458 45.458a4.508 4.508 0 0 1-3.18 1.32c-1.191 0-2.339-.48-3.179-1.32l-27.918-27.918a151.06 151.06 0 0 1-42.113 17.465V443.5c0 2.49-2.017 4.499-4.5 4.499z" data-original="#cad0d7"/><path fill="#fff" d="M256 366.78c-61.085 0-110.78-49.695-110.78-110.78S194.915 145.22 256 145.22 366.78 194.915 366.78 256 317.085 366.78 256 366.78z" data-original="#ffffff"/><path fill="#ffc738" d="M250.728 336.365a4.51 4.51 0 0 1-4.499-4.507v-58.063h-35.507c-1.62 0-3.112-.87-3.914-2.28a4.508 4.508 0 0 1 .052-4.53l53.234-89.153a4.508 4.508 0 0 1 5.062-2.032c1.95.54 3.3 2.317 3.3 4.342v58.31h32.822a4.514 4.514 0 0 1 3.892 2.235 4.53 4.53 0 0 1 .022 4.492l-50.55 88.906a4.51 4.51 0 0 1-3.914 2.28z" data-original="#ffc738"/><g transform="matrix(1.68953 0 0 1.68953 235.654 -171.955)"><circle cx="12.042" cy="253.298" r="136.522" style="fill:none;stroke:#cd0037;stroke-width:30;stroke-linejoin:round;stroke-dasharray:none;stroke-opacity:1"/><path d="m-84.215 348.898 189.92-189.92" style="fill:none;stroke:#cd0037;stroke-width:30;stroke-linecap:butt;stroke-linejoin:miter;stroke-dasharray:none;stroke-opacity:1"/></g></svg>