<svg xmlns="http://www.w3.org/2000/svg" xml:space="preserve" width="512" height="512" style="enable-background:new 0 0 512 512" viewBox="0 0 32 32"><g stroke="none" style="fill:#82be00;stroke:#82be00;stroke-width:0"><path fill="none" d="M-1.436 17.232h13.234v13.233H-1.436Z"/><path d="m8.69 26.806-3.509 3.51-3.51-3.51a4.963 4.963 0 1 1 7.02 0zM5.181 24.4a1.103 1.103 0 1 0 0-2.206 1.103 1.103 0 0 0 0 2.206z"/></g><path fill="#2e435a" d="M23.52 14.73a.732.732 0 0 1-.7-.445.848.848 0 0 1-.074-.33.923.923 0 0 1 .053-.296.965.965 0 0 1 .17-.244.774.774 0 0 1 .837-.17.764.764 0 0 1 .265.17.806.806 0 0 1 .16.244.71.71 0 0 1 .063.297.785.785 0 0 1-.064.297.827.827 0 0 1-.17.254 1.177 1.177 0 0 1-.254.17.806.806 0 0 1-.286.053zM9.087 31.22a.753.753 0 0 1-.551-.233.732.732 0 0 1-.223-.541.774.774 0 1 1 .774.774Zm1.888-.064a.774.774 0 0 1-.764-.71.753.753 0 0 1 .71-.817.742.742 0 0 1 .563.18.848.848 0 0 1 .265.53.795.795 0 0 1-.191.563.795.795 0 0 1-.52.265zm1.887-.212a.764.764 0 0 1-.763-.647.795.795 0 0 1 .138-.572.774.774 0 0 1 .509-.297.764.764 0 0 1 .88.647.795.795 0 0 1-.149.572.764.764 0 0 1-.509.308zm1.856-.34a.774.774 0 0 1-.753-.604.795.795 0 0 1 .106-.583.774.774 0 1 1 .817 1.167h-.17zm1.867-.466a.764.764 0 0 1-.743-.551.732.732 0 0 1 .064-.594.742.742 0 0 1 .466-.371.774.774 0 0 1 .425 1.485.732.732 0 0 1-.212.031zm1.792-.594a.785.785 0 0 1-.721-.498.774.774 0 0 1 .456-.986.774.774 0 1 1 .265 1.495zm1.739-.678a.785.785 0 0 1-.71-.456.785.785 0 0 1 .392-1.06.774.774 0 0 1 1.028.455.742.742 0 0 1 0 .584.764.764 0 0 1-.413.434.721.721 0 0 1-.297.043zm1.697-.838a.785.785 0 0 1-.658-.371.775.775 0 0 1 1.336-.785.795.795 0 0 1 .074.583.732.732 0 0 1-.35.478.753.753 0 0 1-.402.063zm1.42-1.283a.71.71 0 0 1-.434-.138.774.774 0 1 1 1.06-.212v.064a.785.785 0 0 1-.625.286zm.287-1.813a.785.785 0 0 1-.742-.562.764.764 0 0 1 .551-.955.785.785 0 0 1 .573.074.817.817 0 0 1 .37.467.795.795 0 0 1-.54.954.721.721 0 0 1-.212.043zm-.976-1.591a.742.742 0 0 1-.54-.233.774.774 0 0 1 1.113-1.06.764.764 0 0 1 .223.55.742.742 0 0 1-.234.541.795.795 0 0 1-.562.223zm-1.474-1.188a.764.764 0 0 1-.424-.127.753.753 0 0 1-.329-.488.774.774 0 0 1 .106-.573.732.732 0 0 1 .488-.339.795.795 0 0 1 .583.106.785.785 0 0 1 .223 1.06.764.764 0 0 1-.647.382zm-1.643-.933a.71.71 0 0 1-.361-.095.774.774 0 1 1 1.06-.33.785.785 0 0 1-.7.446zm-1.729-.785a.657.657 0 0 1-.276-.063.774.774 0 0 1-.424-1.06.774.774 0 0 1 1.008-.414.774.774 0 0 1 .424.413.817.817 0 0 1 0 .594.785.785 0 0 1-.732.551zm-1.76-.689a.912.912 0 0 1-.287-.053.769.769 0 1 1 .637-1.4.732.732 0 0 1 .403.414.795.795 0 0 1 0 .604.774.774 0 0 1-.753.456zm-1.368-1.22a.764.764 0 0 1-.71-.498.764.764 0 0 1 .434-.997.817.817 0 0 1 .594 0 .806.806 0 0 1 .403.435.742.742 0 0 1 0 .583.764.764 0 0 1-.435.414.71.71 0 0 1-.286.063zm.138-1.834a.764.764 0 0 1-.34-.085.774.774 0 1 1 1.06-.318.753.753 0 0 1-.72.403zm1.4-1.22a.774.774 0 0 1-.33-1.452.774.774 0 1 1 .33 1.474zm1.823-.509a.774.774 0 0 1-.763-.657.795.795 0 0 1 .138-.573.732.732 0 0 1 .498-.307.753.753 0 0 1 .583.148.732.732 0 0 1 .308.499.806.806 0 0 1-.138.572.785.785 0 0 1-.51.308zm1.888-.19a.785.785 0 0 1-.774-.711.742.742 0 0 1 .18-.562.817.817 0 0 1 .53-.276.774.774 0 0 1 .647 1.273.732.732 0 0 1-.52.265zm1.898-.096a.774.774 0 0 1-.785-.753.774.774 0 0 1 .764-.774.774.774 0 1 1 0 1.538zM7.104 31.146a.71.71 0 0 1-.297-.064.764.764 0 0 1-.265-.19.732.732 0 0 1-.212-.52v-.393a1.06 1.06 0 0 1 .127-.159.764.764 0 0 1 .265-.17.827.827 0 0 1 .425 0h.201a.255.255 0 0 1 .106.085.615.615 0 0 1 .138.149v.095a.636.636 0 0 1 .064.202v.127a.764.764 0 0 1-.234.54.753.753 0 0 1-.318.298z" data-original="#2e435a" style="stroke-width:1.06045"/><g stroke="none" style="fill:#ffb612;stroke:#ffb612;stroke-width:0"><path fill="#e64c3c" d="M21.382 17.728a4.11 4.11 0 0 1-2.96-1.173 3.567 3.567 0 0 0-2.569-1.01 3.699 3.699 0 0 0-2.241.72.475.475 0 0 1-.29.102.488.488 0 0 1-.365-.17.567.567 0 0 1-.139-.379V9.674c0-.15.06-.294.167-.4a4.159 4.159 0 0 1 2.869-1.092 4.113 4.113 0 0 1 2.964 1.173 3.562 3.562 0 0 0 2.564 1.01 3.802 3.802 0 0 0 1.879-.478.479.479 0 0 1 .237-.068.526.526 0 0 1 .502.545v6.204a.546.546 0 0 1-.235.464 4.26 4.26 0 0 1-2.383.696z" data-original="#e64c3c" style="fill:#ffb612;fill-opacity:1;stroke-width:0" transform="translate(14.522 -4.966) scale(.72824)"/><path fill="#cbb292" d="M12.545 8.182c.302 0 .546.244.546.546v14.727a.545.545 0 1 1-1.091 0V8.728c0-.301.244-.546.545-.546z" data-original="#cbb292" style="fill:#444;fill-opacity:1;stroke-width:0" transform="translate(14.522 -4.966) scale(.72824)"/></g></svg>