<svg xmlns="http://www.w3.org/2000/svg" xml:space="preserve" width="512" height="512" style="enable-background:new 0 0 512 512" viewBox="0 0 64 64"><g data-name="Layer 17"><path fill="#C8CDED" d="M9.194 35H2v-6h7.194a23 23 0 0 1 45.612 0H62v6h-7.194a23 23 0 0 1-45.612 0z" data-original="#c8cded"/><circle cx="32" cy="32" r="17" fill="#F2F2F2" data-original="#f2f2f2"/><path fill="#FFF" d="M46 30a16.96 16.96 0 0 0-6.115-13.053 16.994 16.994 0 0 0-18.77 28.106A16.988 16.988 0 0 0 46 30z" data-original="#ffffff"/><path fill="#E2E7F6" d="M42 33h6.95c.019-.333.05-.662.05-1s-.031-.667-.05-1H42zm-27-1c0 .338.037.667.057 1H22v-2h-6.95c-.019.333-.05.662-.05 1z" data-original="#e2e7f6"/><rect width="22" height="8" x="21" y="28" fill="#F2B9A1" data-original="#f2b9a1" rx="4"/><path fill="#3B5892" d="M26 28h4v8h-4z" data-original="#3b5892"/><path fill="#4C6CB5" d="M28 33v-5h-2v6h1a1 1 0 0 0 1-1z" data-original="#4c6cb5"/><path fill="#F0AE42" d="M30 28h4v8h-4z" data-original="#f0ae42"/><path fill="#A72B25" d="M34 28h4v8h-4z" data-original="#a72b25"/><path fill="#5E87CA" d="m2 11 5 8 5-8zm50 0 5 8 5-8z" data-original="#5e87ca"/><path fill="#F9D266" d="M32 33v-5h-2v6h1a1 1 0 0 0 1-1z" data-original="#f9d266"/><path fill="#D23F34" d="M36 33v-5h-2v6h1a1 1 0 0 0 1-1z" data-original="#d23f34"/><path fill="#78A0D4" d="m52 11 5 8v-8zM2 11l5 8v-8z" data-original="#78a0d4"/></g></svg>