<svg xmlns="http://www.w3.org/2000/svg" xml:space="preserve" style="enable-background:new 0 0 512 512" viewBox="0 0 512 512"><path d="M256 224.001c77.762 0 140.8 63.039 140.8 140.8H115.2C115.2 287.04 178.237 224 256 224Z" style="fill:#eff2fa;stroke-width:1.45"/><path d="M256 313.6c28.276 0 51.2 22.924 51.2 51.2H204.8c0-28.276 22.924-51.2 51.2-51.2z" style="fill:#d7deed;stroke-width:1.45"/><path d="M76.8 364.8H0c0-141.163 114.843-256 256-256v76.8c-98.813 0-179.2 80.389-179.2 179.2z" style="fill:#ffb473;stroke-width:1.45"/><path d="M435.2 364.8H512c0-141.163-114.842-256-256-256v76.8c98.813 0 179.2 80.389 179.2 179.2z" style="fill:#ffe182;stroke-width:1.45"/><path d="M512 364.8h-76.8c0-49.406-20.097-94.206-52.545-126.654l54.279-54.28C483.289 230.221 512 294.22 512 364.8z" style="fill:#c3e678;stroke-width:1.45"/><path d="M129.345 238.147C96.897 270.595 76.8 315.395 76.8 364.802H0c0-70.58 28.71-134.579 75.065-180.934zM230.4 403.2a12.754 12.754 0 0 1-9.05-3.749 12.796 12.796 0 0 1 0-18.1l217.6-217.6a12.796 12.796 0 0 1 18.101 0 12.796 12.796 0 0 1 0 18.1l-217.6 217.6a12.763 12.763 0 0 1-9.05 3.75z" style="fill:#ff6464;stroke-width:1.45"/><circle cx="256" cy="364.8" r="25.6" style="fill:#5b5d6e;stroke-width:1.45"/></svg>