<svg xmlns="http://www.w3.org/2000/svg" xml:space="preserve" width="512" height="512" style="enable-background:new 0 0 512 512"><path fill="#C6865C" d="M427.418 125.921H17.2c-9.499 0-17.2-7.701-17.2-17.2V50.303c0-9.499 7.701-17.2 17.2-17.2h410.218c9.499 0 17.2 7.701 17.2 17.2v58.418c-.001 9.5-7.701 17.2-17.2 17.2zm0 142.797H17.2c-9.499 0-17.2-7.701-17.2-17.2V193.1c0-9.499 7.701-17.2 17.2-17.2h410.218c9.499 0 17.2 7.701 17.2 17.2v58.418c-.001 9.499-7.701 17.2-17.2 17.2zm0 142.796H17.2c-9.499 0-17.2-7.701-17.2-17.2v-58.418c0-9.499 7.701-17.2 17.2-17.2h410.218c9.499 0 17.2 7.701 17.2 17.2v58.418c-.001 9.499-7.701 17.2-17.2 17.2z" data-original="#c6865c"/><path fill="#B16E3D" d="M444.621 89.081v19.645c0 9.501-7.703 17.194-17.203 17.194H17.207c-9.501 0-17.203-7.694-17.203-17.194V89.081c0 9.501 7.703 17.203 17.203 17.203h410.211c9.5 0 17.203-7.702 17.203-17.203zm0 142.797v19.645c0 9.501-7.703 17.194-17.203 17.194H17.207c-9.501 0-17.203-7.694-17.203-17.194v-19.645c0 9.501 7.703 17.203 17.203 17.203h410.211c9.5 0 17.203-7.703 17.203-17.203zm0 142.796v19.645c0 9.501-7.703 17.194-17.203 17.194H17.207c-9.501 0-17.203-7.694-17.203-17.194v-19.645c0 9.501 7.703 17.203 17.203 17.203h410.211c9.5 0 17.203-7.702 17.203-17.203z" data-original="#b16e3d"/><path fill="#B9C1CB" d="M91.011 444.617H66.199c-6.614 0-11.976-5.362-11.976-11.976V11.976C54.223 5.362 59.585 0 66.199 0h24.812c6.614 0 11.976 5.362 11.976 11.976v420.666c-.001 6.614-5.362 11.975-11.976 11.975zm287.407 0h-24.812c-6.614 0-11.976-5.362-11.976-11.976V11.976C341.631 5.362 346.993 0 353.607 0h24.812c6.614 0 11.976 5.362 11.976 11.976v420.666c-.001 6.614-5.363 11.975-11.977 11.975z" data-original="#b9c1cb"/><path fill="#909BA5" d="M82.572 444.621H66.201c-6.611 0-11.979-5.359-11.979-11.979V11.982c0-6.62 5.368-11.979 11.979-11.979h16.371c-6.611 0-11.979 5.359-11.979 11.979v420.66c0 6.62 5.368 11.979 11.979 11.979zm287.409 0H353.61c-6.611 0-11.979-5.359-11.979-11.979V11.982c0-6.62 5.368-11.979 11.979-11.979h16.371c-6.62 0-11.979 5.359-11.979 11.979v420.66c0 6.62 5.359 11.979 11.979 11.979z" data-original="#909ba5"/><circle cx="358.053" cy="358.053" r="146.407" fill="#81A7C6" data-original="#81a7c6"/><path fill="#E7ECF1" d="M480.543 438.318c-5.41 8.222-11.733 16.027-18.96 23.254s-15.032 13.55-23.254 18.96l-52.811-52.811c-28.968 12.282-63.722 6.618-87.331-16.991-23.193-23.193-29.06-57.135-17.631-85.788L339 383.396l44.397-44.397-58.454-58.454c28.654-11.419 62.596-5.552 85.789 17.641 23.609 23.609 29.273 58.363 17.001 87.321z" data-original="#e7ecf1"/><path fill="#5C90B9" d="M358.053 512c-39.441 0-78.882-15.013-108.908-45.039-60.052-60.052-60.052-157.764 0-217.816 60.052-60.053 157.764-60.052 217.816 0s60.052 157.764 0 217.816C436.935 496.987 397.494 512 358.053 512zm0-292.677c-35.543 0-71.085 13.529-98.143 40.587-54.116 54.116-54.116 142.169 0 196.285s142.169 54.117 196.285 0c54.116-54.116 54.116-142.169 0-196.285-27.058-27.057-62.6-40.587-98.142-40.587z" data-original="#5c90b9"/></svg>