<svg xmlns="http://www.w3.org/2000/svg" xml:space="preserve" width="512" height="512" style="enable-background:new 0 0 512 512"><path fill="#C6865C" d="M492.19 145.004H19.806C8.868 145.004 0 136.137 0 125.198V57.927c0-10.939 8.868-19.806 19.806-19.806H492.19c10.939 0 19.806 8.868 19.806 19.806v67.271c0 10.939-8.867 19.806-19.806 19.806zm0 164.436H19.806C8.868 309.44 0 300.573 0 289.634v-67.271c0-10.939 8.868-19.806 19.806-19.806H492.19c10.939 0 19.806 8.868 19.806 19.806v67.271c0 10.939-8.867 19.806-19.806 19.806zm0 164.436H19.806C8.868 473.876 0 465.009 0 454.07v-67.271c0-10.939 8.868-19.806 19.806-19.806H492.19c10.939 0 19.806 8.868 19.806 19.806v67.271c0 10.939-8.867 19.806-19.806 19.806z" data-original="#c6865c"/><path fill="#B16E3D" d="M512 102.581v22.623c0 10.94-8.87 19.8-19.81 19.8H19.814c-10.94 0-19.81-8.86-19.81-19.8v-22.623c0 10.941 8.87 19.81 19.81 19.81H492.19c10.941 0 19.81-8.87 19.81-19.81zm0 164.436v22.623c0 10.94-8.87 19.8-19.81 19.8H19.814c-10.94 0-19.81-8.86-19.81-19.8v-22.623c0 10.94 8.87 19.81 19.81 19.81H492.19c10.941 0 19.81-8.869 19.81-19.81zm0 164.437v22.623c0 10.94-8.87 19.8-19.81 19.8H19.814c-10.94 0-19.81-8.86-19.81-19.8v-22.623c0 10.94 8.87 19.81 19.81 19.81H492.19c10.941 0 19.81-8.87 19.81-19.81z" data-original="#b16e3d"/><path fill="#B9C1CB" d="M104.803 511.997H76.231c-7.616 0-13.79-6.174-13.79-13.79V13.791C62.441 6.174 68.615 0 76.231 0h28.572c7.616 0 13.79 6.174 13.79 13.79v484.416c0 7.616-6.174 13.791-13.79 13.791zm330.962 0h-28.572c-7.616 0-13.79-6.174-13.79-13.79V13.791c0-7.616 6.174-13.79 13.79-13.79h28.572c7.616 0 13.79 6.174 13.79 13.79v484.416c.001 7.615-6.174 13.79-13.79 13.79z" data-original="#b9c1cb"/><path fill="#909BA5" d="M95.085 512H76.233c-7.613 0-13.794-6.171-13.794-13.794V13.798C62.439 6.175 68.62.004 76.233.004h18.852c-7.613 0-13.794 6.171-13.794 13.794v484.408c0 7.623 6.182 13.794 13.794 13.794zm330.964 0h-18.852c-7.613 0-13.794-6.171-13.794-13.794V13.798c0-7.623 6.181-13.794 13.794-13.794h18.852c-7.623 0-13.794 6.171-13.794 13.794v484.408c0 7.623 6.171 13.794 13.794 13.794z" data-original="#909ba5"/></svg>