<svg xmlns="http://www.w3.org/2000/svg" xml:space="preserve" width="512" height="512" style="enable-background:new 0 0 512 512" viewBox="0 0 60 48"><g fill="none"><path fill="#7F8C8D" d="M9 5h6v9H9zm36 0h6v9h-6z" data-original="#7f8c8d"/><rect width="58" height="34" x="1" y="13" fill="#464F5D" data-original="#464f5d" rx="3"/><path fill="#BDC3C7" d="M56 48H4a4 4 0 0 1-4-4V16a4 4 0 0 1 4-4h52a4 4 0 0 1 4 4v28a4 4 0 0 1-4 4zM4 14a2 2 0 0 0-2 2v28a2 2 0 0 0 2 2h52a2 2 0 0 0 2-2V16a2 2 0 0 0-2-2z" data-original="#bdc3c7"/><path fill="#A56A43" d="M54 40H35a1 1 0 0 1 0-2h19a1 1 0 0 1 0 2z" data-original="#a56a43"/><path fill="#95A5A5" d="M36 42a1 1 0 0 1-.894-1.447l3-6a1 1 0 1 1 1.79.894l-3 6A1 1 0 0 1 36 42zm17 0a1 1 0 0 1-.9-.553l-3-6a1 1 0 1 1 1.79-.894l3 6A1 1 0 0 1 53 42z" data-original="#95a5a5"/><path fill="#BDC3C7" d="M57 1v1a4 4 0 0 1-4 4H7a4 4 0 0 1-4-4V1a1 1 0 0 1 1-1h52a1 1 0 0 1 1 1z" data-original="#bdc3c7"/><path fill="#F3D55B" d="M29 19h-3a1 1 0 0 1 0-2h3a1 1 0 0 1 0 2zm-8 0H6a1 1 0 0 1 0-2h15a1 1 0 0 1 0 2zm8 4h-3a1 1 0 0 1 0-2h3a1 1 0 0 1 0 2zm-8 0H6a1 1 0 0 1 0-2h15a1 1 0 0 1 0 2zm8 4h-3a1 1 0 0 1 0-2h3a1 1 0 0 1 0 2zm-8 0H6a1 1 0 0 1 0-2h15a1 1 0 0 1 0 2zm8 4h-3a1 1 0 0 1 0-2h3a1 1 0 0 1 0 2zm-8 0H6a1 1 0 0 1 0-2h15a1 1 0 0 1 0 2zm8 4h-3a1 1 0 0 1 0-2h3a1 1 0 0 1 0 2zm-8 0H6a1 1 0 0 1 0-2h15a1 1 0 0 1 0 2zm8 4h-3a1 1 0 0 1 0-2h3a1 1 0 0 1 0 2zm-8 0H6a1 1 0 0 1 0-2h15a1 1 0 0 1 0 2zm8 4h-3a1 1 0 0 1 0-2h3a1 1 0 0 1 0 2zm-8 0H6a1 1 0 0 1 0-2h15a1 1 0 0 1 0 2z" data-original="#f3d55b"/><path fill="#E64C3C" d="M53 28v6a2.006 2.006 0 0 1-2 2H38a2.006 2.006 0 0 1-2-2v-6z" data-original="#e64c3c"/><path fill="#67B9CC" d="M53 26.5V28H36v-1.5a8.5 8.5 0 0 1 8.17-8.49c.11-.01.22-.01.33-.01a8.535 8.535 0 0 1 1.91.22 8.138 8.138 0 0 1 2.11.8 7.87 7.87 0 0 1 1.65 1.15c.12.1.23.21.34.32A8.481 8.481 0 0 1 53 26.5z" data-original="#67b9cc"/><circle cx="40" cy="32" r="1" fill="#F9EAB0" data-original="#f9eab0"/><circle cx="49" cy="32" r="1" fill="#F9EAB0" data-original="#f9eab0"/><path fill="#FFF" d="M46.41 18.22 40.19 28h-2.37l6.35-9.99c.11-.01.22-.01.33-.01a8.535 8.535 0 0 1 1.91.22zm3.76 1.95L45.19 28h-2.38l5.71-8.98a7.87 7.87 0 0 1 1.65 1.15z" data-original="#ffffff"/></g></svg>