<?xml version="1.0" encoding="UTF-8"?>
<svg width="200px" height="200px" viewBox="0 0 200 200" version="1.1" xmlns="http://www.w3.org/2000/svg" xmlns:xlink="http://www.w3.org/1999/xlink">
    <title>Double slip crossing</title>
    <g id="Double-slip-crossing" stroke="none" stroke-width="1" fill="none" fill-rule="evenodd">
        <rect id="Footprint" x="0" y="0" width="200" height="200"></rect>
        <g id="Illustration" transform="translate(18, 46)">
            <circle id="Dot" fill="#D2EDFA" cx="82" cy="54" r="44"></circle>
            <line x1="16.0022791" y1="20.6296512" x2="148.000981" y2="96.8391374" id="Track" stroke="#000000" stroke-width="2"></line>
            <path d="M15.9983832,11.1633002 C16.0256948,11.1790686 16.0530219,11.1948459 16.0803644,11.2106321 C16.0841721,11.2128305 16.4184001,11.4057971 17.0830483,11.7895319 C21.7490629,14.4834567 65.3882719,39.6785658 148.000675,87.3748591" id="Track" stroke="#000000" stroke-width="2"></path>
            <line x1="16.000444" y1="96.7995464" x2="148.002577" y2="20.5880792" id="Track" stroke="#000000" stroke-width="2"></line>
            <line x1="15.9997538" y1="87.3358433" x2="147.999523" y2="11.1257411" id="Track" stroke="#000000" stroke-width="2"></line>
            <path d="M15.9974614,11.1520301 L46.0266509,28.4627233 C68.290389,41.2969272 95.706776,41.2920113 117.96591,28.4498241 L148.00242,11.1205571 L148.00242,11.1205571" id="Track" stroke="#000000" stroke-width="2"></path>
            <path d="M16.0028636,20.6335495 L41.9728117,35.6324161 C66.739183,49.9361604 97.2575791,49.9305566 122.018696,35.6177181 L147.999319,20.5999601 L147.999319,20.5999601" id="Track" stroke="#000000" stroke-width="2"></path>
            <path d="M16.0009493,58.7815737 L46.017081,76.0911706 C68.2856733,88.9329438 95.7115774,88.9281783 117.975706,76.0786671 L148.000791,58.75 L148.000791,58.75" id="Track" stroke="#000000" stroke-width="2" transform="translate(82.0009, 77.7958) scale(1, -1) translate(-82.0009, -77.7958)"></path>
            <path d="M15.9994439,49.2140103 L41.9544628,64.2135674 C66.7301466,78.5315797 97.2666669,78.526068 122.03718,64.1991128 L148.001559,49.1816406 L148.001559,49.1816406" id="Track" stroke="#000000" stroke-width="2" transform="translate(82.0005, 68.2689) scale(1, -1) translate(-82.0005, -68.2689)"></path>
            <g id="Port" fill-rule="nonzero">
                <path d="M16,0 C24.836556,0 32,7.163444 32,16 C32,24.836556 24.836556,32 16,32 C7.163444,32 0,24.836556 0,16 C0,7.163444 7.163444,0 16,0 Z" id="Background" fill="#FFFFFF"></path>
                <path d="M16,0 C24.836556,0 32,7.163444 32,16 C32,24.836556 24.836556,32 16,32 C7.163444,32 0,24.836556 0,16 C0,7.163444 7.163444,0 16,0 Z M16,2 C8.2680135,2 2,8.2680135 2,16 C2,23.7319865 8.2680135,30 16,30 C23.7319865,30 30,23.7319865 30,16 C30,8.2680135 23.7319865,2 16,2 Z M13.284,11.228 L15.93,21 L13.69,21 L13.074,18.648 L10.4,18.648 L9.798,21 L7.67,21 L10.316,11.228 L13.284,11.228 Z M22.048,11.228 L22.048,19.306 L24.12,19.306 L24.12,21 L17.316,21 L17.316,19.306 L19.948,19.306 L19.948,12.754 L19.822,12.754 L17.834,15.358 L16.49,14.308 L18.828,11.228 L22.048,11.228 Z M11.8,13.258 L11.688,13.258 L10.736,16.954 L12.752,16.954 L11.8,13.258 Z" id="A1" fill="#000000"></path>
            </g>
            <g id="Port" transform="translate(132, 0)" fill-rule="nonzero">
                <path d="M16,0 C24.836556,0 32,7.163444 32,16 C32,24.836556 24.836556,32 16,32 C7.163444,32 0,24.836556 0,16 C0,7.163444 7.163444,0 16,0 Z" id="Background" fill="#FFFFFF"></path>
                <path d="M16,0 C24.836556,0 32,7.163444 32,16 C32,24.836556 24.836556,32 16,32 C7.163444,32 0,24.836556 0,16 C0,7.163444 7.163444,0 16,0 Z M16,2 C8.2680135,2 2,8.2680135 2,16 C2,23.7319865 8.2680135,30 16,30 C23.7319865,30 30,23.7319865 30,16 C30,8.2680135 23.7319865,2 16,2 Z M12.108,11.228 C14.012,11.228 15.076,12.236 15.076,13.832 C15.076,14.938 14.502,15.596 13.48,15.89 L13.48,15.974 C14.684,16.268 15.384,16.996 15.384,18.312 C15.384,19.95 14.278,21 12.43,21 L8.678,21 L8.678,11.228 Z M20.186,11.06 C22.328,11.06 23.56,12.306 23.56,14 C23.56,15.624 22.398,16.674 20.928,17.794 L19.066,19.236 L23.77,19.236 L23.77,21 L16.742,21 L16.742,19.082 L19.822,16.52 C20.886,15.61 21.32,15.008 21.32,14.266 L21.32,14.126 C21.32,13.314 20.788,12.88 19.976,12.88 C19.038,12.88 18.576,13.51 18.366,14.252 L16.532,13.552 C16.966,12.208 18.114,11.06 20.186,11.06 Z M11.786,16.772 L10.722,16.772 L10.722,19.53 L11.786,19.53 C12.78,19.53 13.242,19.25 13.242,18.354 L13.242,17.948 C13.242,17.066 12.78,16.772 11.786,16.772 Z M11.52,12.698 L10.722,12.698 L10.722,15.372 L11.52,15.372 C12.5,15.372 12.934,15.092 12.934,14.238 L12.934,13.818 C12.934,12.964 12.5,12.698 11.52,12.698 Z" id="B2" fill="#000000"></path>
            </g>
            <g id="Port" transform="translate(0, 76)" fill-rule="nonzero">
                <path d="M16,0 C24.836556,0 32,7.163444 32,16 C32,24.836556 24.836556,32 16,32 C7.163444,32 0,24.836556 0,16 C0,7.163444 7.163444,0 16,0 Z" id="Background" fill="#FFFFFF"></path>
                <path d="M16,0 C24.836556,0 32,7.163444 32,16 C32,24.836556 24.836556,32 16,32 C7.163444,32 0,24.836556 0,16 C0,7.163444 7.163444,0 16,0 Z M16,2 C8.2680135,2 2,8.2680135 2,16 C2,23.7319865 8.2680135,30 16,30 C23.7319865,30 30,23.7319865 30,16 C30,8.2680135 23.7319865,2 16,2 Z M13.284,11.228 L15.93,21 L13.69,21 L13.074,18.648 L10.4,18.648 L9.798,21 L7.67,21 L10.316,11.228 L13.284,11.228 Z M20.186,11.06 C22.328,11.06 23.56,12.306 23.56,14 C23.56,15.624 22.398,16.674 20.928,17.794 L19.066,19.236 L23.77,19.236 L23.77,21 L16.742,21 L16.742,19.082 L19.822,16.52 C20.886,15.61 21.32,15.008 21.32,14.266 L21.32,14.126 C21.32,13.314 20.788,12.88 19.976,12.88 C19.038,12.88 18.576,13.51 18.366,14.252 L16.532,13.552 C16.966,12.208 18.114,11.06 20.186,11.06 Z M11.8,13.258 L11.688,13.258 L10.736,16.954 L12.752,16.954 L11.8,13.258 Z" id="A2" fill="#000000"></path>
            </g>
            <g id="Port" transform="translate(132, 76)" fill-rule="nonzero">
                <path d="M16,0 C24.836556,0 32,7.163444 32,16 C32,24.836556 24.836556,32 16,32 C7.163444,32 0,24.836556 0,16 C0,7.163444 7.163444,0 16,0 Z" id="Background" fill="#FFFFFF"></path>
                <path d="M16,0 C24.836556,0 32,7.163444 32,16 C32,24.836556 24.836556,32 16,32 C7.163444,32 0,24.836556 0,16 C0,7.163444 7.163444,0 16,0 Z M16,2 C8.2680135,2 2,8.2680135 2,16 C2,23.7319865 8.2680135,30 16,30 C23.7319865,30 30,23.7319865 30,16 C30,8.2680135 23.7319865,2 16,2 Z M12.108,11.228 C14.012,11.228 15.076,12.236 15.076,13.832 C15.076,14.938 14.502,15.596 13.48,15.89 L13.48,15.974 C14.684,16.268 15.384,16.996 15.384,18.312 C15.384,19.95 14.278,21 12.43,21 L8.678,21 L8.678,11.228 Z M22.048,11.228 L22.048,19.306 L24.12,19.306 L24.12,21 L17.316,21 L17.316,19.306 L19.948,19.306 L19.948,12.754 L19.822,12.754 L17.834,15.358 L16.49,14.308 L18.828,11.228 L22.048,11.228 Z M11.786,16.772 L10.722,16.772 L10.722,19.53 L11.786,19.53 C12.78,19.53 13.242,19.25 13.242,18.354 L13.242,17.948 C13.242,17.066 12.78,16.772 11.786,16.772 Z M11.52,12.698 L10.722,12.698 L10.722,15.372 L11.52,15.372 C12.5,15.372 12.934,15.092 12.934,14.238 L12.934,13.818 C12.934,12.964 12.5,12.698 11.52,12.698 Z" id="B1" fill="#000000"></path>
            </g>
        </g>
    </g>
</svg>