<?xml version="1.0" encoding="UTF-8"?>
<svg width="200px" height="200px" viewBox="0 0 200 200" version="1.1" xmlns="http://www.w3.org/2000/svg" xmlns:xlink="http://www.w3.org/1999/xlink">
    <title>Link</title>
    <g id="Link" stroke="none" stroke-width="1" fill="none" fill-rule="evenodd">
        <rect id="Footprint" x="0" y="0" width="200" height="200"></rect>
        <g id="Illustration" transform="translate(18, 46)">
            <circle id="Dot" fill="#D2EDFA" cx="82" cy="54" r="44"></circle>
            <line x1="16.000444" y1="96.7995464" x2="148.002577" y2="20.5880792" id="Track" stroke="#000000" stroke-width="2"></line>
            <line x1="15.9997538" y1="87.3358433" x2="147.999523" y2="11.1257411" id="Track" stroke="#000000" stroke-width="2"></line>
            <g id="Port" transform="translate(132, 0)" fill-rule="nonzero">
                <path d="M16,0 C24.836556,0 32,7.163444 32,16 C32,24.836556 24.836556,32 16,32 C7.163444,32 0,24.836556 0,16 C0,7.163444 7.163444,0 16,0 Z" id="Background" fill="#FFFFFF"></path>
                <path d="M16,0 C24.836556,0 32,7.163444 32,16 C32,24.836556 24.836556,32 16,32 C7.163444,32 0,24.836556 0,16 C0,7.163444 7.163444,0 16,0 Z M16,2 C8.2680135,2 2,8.2680135 2,16 C2,23.7319865 8.2680135,30 16,30 C23.7319865,30 30,23.7319865 30,16 C30,8.2680135 23.7319865,2 16,2 Z M16.308,11.228 C18.212,11.228 19.276,12.236 19.276,13.832 C19.276,14.938 18.702,15.596 17.68,15.89 L17.68,15.974 C18.884,16.268 19.584,16.996 19.584,18.312 C19.584,19.95 18.478,21 16.63,21 L12.878,21 L12.878,11.228 Z M15.986,16.772 L14.922,16.772 L14.922,19.53 L15.986,19.53 C16.98,19.53 17.442,19.25 17.442,18.354 L17.442,17.948 C17.442,17.066 16.98,16.772 15.986,16.772 Z M15.72,12.698 L14.922,12.698 L14.922,15.372 L15.72,15.372 C16.7,15.372 17.134,15.092 17.134,14.238 L17.134,13.818 C17.134,12.964 16.7,12.698 15.72,12.698 Z" id="B" fill="#000000"></path>
            </g>
            <g id="Port" transform="translate(0, 76)" fill-rule="nonzero">
                <path d="M16,0 C24.836556,0 32,7.163444 32,16 C32,24.836556 24.836556,32 16,32 C7.163444,32 0,24.836556 0,16 C0,7.163444 7.163444,0 16,0 Z" id="Background" fill="#FFFFFF"></path>
                <path d="M16,0 C24.836556,0 32,7.163444 32,16 C32,24.836556 24.836556,32 16,32 C7.163444,32 0,24.836556 0,16 C0,7.163444 7.163444,0 16,0 Z M16,2 C8.2680135,2 2,8.2680135 2,16 C2,23.7319865 8.2680135,30 16,30 C23.7319865,30 30,23.7319865 30,16 C30,8.2680135 23.7319865,2 16,2 Z M17.484,11.228 L20.13,21 L17.89,21 L17.274,18.648 L14.6,18.648 L13.998,21 L11.87,21 L14.516,11.228 L17.484,11.228 Z M16,13.258 L15.888,13.258 L14.936,16.954 L16.952,16.954 L16,13.258 Z" id="A" fill="#000000"></path>
            </g>
        </g>
    </g>
</svg>