<svg xmlns="http://www.w3.org/2000/svg" xml:space="preserve" width="135.65" height="136.98"><defs><clipPath id="clipPath352"><path d="M-1347.3 1737.07h1920V-923.35h-1920Z"/></clipPath><filter id="filter2" width="1.06" height="1.06" x="-.03" y="-.03" color-interpolation-filters="sRGB"><feGaussianBlur stdDeviation="1.593"/></filter></defs><style>.st2{fill:#786abf}</style><rect width="128" height="128" x="3.824" y="5.157" stroke-width="1.789" filter="url(#filter2)" opacity=".187" ry="16.444"/><path fill="#fff" d="M0 0h78.915l19.771-26.296 3.25-19.276v-45.82l-47.735-34.352H-.169l-23.64 28.814v52.564z" clip-path="url(#clipPath352)" transform="matrix(1.0179 0 0 -1.0179 28.06 0)"/><path d="M46.824 93.076c-2.117 9.151-3.23 18.972-3.23 29.574v5.357h18.492c-3.231-14.731-8.801-26.115-15.262-34.931zM3.823 64.172V86.38a70.557 70.557 0 0 1 10.583 5.134c9.47 5.803 16.71 14.061 21.612 24.328V81.246c-3.788-3.348-7.687-6.138-11.474-8.37-7.241-4.24-14.37-6.919-20.72-8.704zM43.482 77.898C48.272 65.4 55.29 54.462 64.648 45.2V.002H43.482zM49.386 84.148c5.904 6.92 11.251 15.4 15.262 26.003V56.36c-6.684 8.035-11.809 17.298-15.262 27.788zM116.003.002H72.112v38.502c13.145-10.49 27.515-16.182 39.658-19.307 2.005-.558 4.122.67 4.567 2.678.557 2.009-.668 4.018-2.673 4.576-12.7 3.236-28.184 9.597-41.441 21.985v35.489c3.23-7.031 7.464-13.057 12.7-18.303 10.471-10.378 23.394-15.735 33.977-18.525 2.005-.558 4.121.67 4.567 2.678.557 2.009-.668 4.018-2.674 4.576-5.235 1.339-11.251 3.46-17.044 6.696C82.583 72.542 72.334 92.74 72.334 122.65v5.357h43.78c8.69 0 15.708-7.031 15.708-15.736V15.737c-.111-8.705-7.13-15.735-15.819-15.735zM28.331 66.515c2.451 1.451 5.013 3.125 7.576 5.134V.002H19.53c-8.69 0-15.708 7.03-15.708 15.735V56.36c7.353 1.785 15.93 4.91 24.508 10.155zM9.839 97.652c-2.005-1.228-4.01-2.232-6.016-3.125v17.744c0 8.705 7.019 15.736 15.708 15.736h12.922c-4.01-13.615-11.585-23.883-22.614-30.355z" class="st2"/></svg>