<svg xmlns="http://www.w3.org/2000/svg" xml:space="preserve" id="svg42" width="644.575" height="128" x="0" y="0" version="1.1"><defs id="defs1"><clipPath id="clipPath352"><path id="path1" d="M-1347.3 1737.07h1920V-923.35h-1920Z"/></clipPath><filter id="filter2" width="1.06" height="1.06" x="-.03" y="-.03" color-interpolation-filters="sRGB"><feGaussianBlur id="feGaussianBlur1" stdDeviation="1.593"/></filter></defs><style id="style1" type="text/css">.st10{fill:#fff}.st2{fill:#786abf}</style><g id="g1"><path id="path2" fill="#fff" d="M0 0h78.915l19.771-26.296 3.25-19.276v-45.82l-47.735-34.352H-.169l-23.64 28.814v52.564z" clip-path="url(#clipPath352)" transform="matrix(1.0179 0 0 -1.0179 24.235 0)"/><g id="g42" transform="translate(-55.632 70.037) scale(1.11595)"><g id="g29" transform="translate(13.651 -93.96)"><path id="path23" d="M74.7 114.6c-1.9 8.2-2.9 17-2.9 26.5v4.8h16.6c-2.8-13.1-7.8-23.4-13.7-31.3Z" class="st2"/><path id="path24" d="M36.2 88.7v19.9c3.1 1.2 6.3 2.7 9.5 4.6 8.5 5.2 15 12.6 19.4 21.8v-31c-3.4-3-6.9-5.5-10.3-7.5-6.5-3.7-12.9-6.2-18.6-7.8Z" class="st2"/><path id="path25" d="M71.8 101.1c4.3-11.3 10.6-21.1 19-29.4V31.2h-19z" class="st2"/><path id="path26" d="M77 106.6c5.3 6.2 10.1 13.8 13.7 23.3V81.8C84.8 89 80.2 97.3 77 106.6Z" class="st2"/><path id="path27" d="M136.9 31.2H97.5v34.5c11.8-9.4 24.7-14.5 35.6-17.3 1.8-.5 3.7.6 4.1 2.4.5 1.8-.6 3.6-2.4 4.1-11.4 2.9-25.3 8.6-37.2 19.7v31.8c2.9-6.3 6.7-11.7 11.4-16.4 9.4-9.3 21-14.1 30.5-16.6 1.8-.5 3.7.6 4.1 2.4.5 1.8-.6 3.6-2.4 4.1-4.7 1.2-10.1 3.1-15.3 6-19 10.3-28.2 28.4-28.2 55.2v4.8H137c7.8 0 14.1-6.3 14.1-14.1V45.3c-.1-7.8-6.4-14.1-14.2-14.1Z" class="st2"/><path id="path28" d="M58.2 90.8c2.2 1.3 4.5 2.8 6.8 4.6V31.2H50.3c-7.8 0-14.1 6.3-14.1 14.1v36.4c6.6 1.7 14.3 4.5 22 9.1z" class="st2"/><path id="path29" d="M41.6 118.7c-1.8-1.1-3.6-2-5.4-2.8v15.9c0 7.8 6.3 14.1 14.1 14.1h11.6c-3.6-12.2-10.4-21.3-20.3-27.2Z" class="st2"/></g><g id="g33" transform="translate(13.651 -93.96)"><g id="g32"><g id="g31"><g id="g30"><path id="path30" d="M237.9 140.2c-30.8 0-53.7-21.2-53.7-52.5 0-31.7 22.9-51.6 53.7-51.6 31 0 53.9 20 53.9 51.6-.1 31.3-22.9 52.5-53.9 52.5zm0-82.6c-16.7 0-28.2 12.8-28.2 30.1 0 17.9 11.6 30.7 28.2 30.7s28.3-12.8 28.3-30.7c0-17.2-11.6-30.1-28.3-30.1z" class="st10"/></g></g></g></g><g id="g35" transform="translate(13.651 -93.96)"><g id="g34"><path id="path33" d="M370.6 64.5c-4-5.2-11.4-8.5-17.6-8.5-6.2 0-13.8 2.1-13.8 9.9 0 6.6 5.9 8.7 15.2 11.6 13.4 4.3 30.7 10 30.7 29.7 0 22.7-18.3 32.9-37.8 32.9-14.1 0-28.3-5.2-37-14.2l15.6-15.9c4.7 6 13.5 10.5 21.3 10.5 7.3 0 13.7-2.8 13.7-10.7 0-7.5-7.5-9.9-20.5-14.1-12.6-4-25.3-10.5-25.3-28.3 0-21.9 19.8-31 38.2-31 11.2 0 23.7 4.2 32.4 12.1z" class="st10"/></g></g><g id="g37" transform="translate(13.651 -93.96)"><g id="g36"><path id="path35" d="M469.3 137.6 448 98.4h-8.1v39.2h-23.4V38.8h37.7c19 0 37.8 7.3 37.8 29.9 0 13.3-7.8 22.7-20.5 26.6l25.8 42.3zM452.4 58h-12.7v23H451c7.7 0 17.3-2 17.3-12 .1-9.1-8.7-11-15.9-11z" class="st10"/></g></g><g id="g41" transform="translate(13.651 -93.96)"><g id="g40"><g id="g39"><g id="g38"><path id="path37" d="M558.4 137.4h-36.8V38.6h35.7c28 0 56.5 11.7 56.5 49.1 0 34.8-28.2 49.7-55.4 49.7zM556.7 59h-11.9v57.8h11.3c17 0 32.8-7 32.8-29 0-22.2-15.7-28.8-32.2-28.8Z" class="st10"/></g></g></g></g></g></g></svg>