<?xml version="1.0" encoding="UTF-8" standalone="no"?>
<svg
   xml:space="preserve"
   width="128.00002"
   height="128.007"
   version="1.1"
   id="svg3"
   xmlns="http://www.w3.org/2000/svg"
   xmlns:svg="http://www.w3.org/2000/svg"><defs
     id="defs1"><clipPath
       id="clipPath352"><path
         d="m -1347.3,1737.07 h 1920 V -923.35 h -1920 z"
         id="path1" /></clipPath></defs><style
     id="style1">.st2{fill:#786abf}</style><path
     fill="#ffffff"
     d="m 0,0 h 78.915 l 19.771,-26.296 3.25,-19.276 v -45.82 l -47.735,-34.352 h -54.37 l -23.64,28.814 v 52.564 z"
     clip-path="url(#clipPath352)"
     transform="matrix(1.0179,0,0,-1.0179,24.238,0)"
     id="path2" /><path
     d="m 43.002,93.076 c -2.117,9.151 -3.23,18.972 -3.23,29.574 v 5.357 H 58.264 C 55.033,113.276 49.463,101.892 43.002,93.076 Z M 9.999733e-4,64.172 V 86.38 A 70.557,70.557 0 0 1 10.584,91.514 c 9.47,5.803 16.71,14.061 21.612,24.328 V 81.246 C 28.408,77.898 24.509,75.108 20.722,72.876 13.481,68.636 6.352,65.957 0.00199997,64.172 Z M 39.66,77.898 C 44.45,65.4 51.468,54.462 60.826,45.2 V 0.002 H 39.66 Z m 5.904,6.25 c 5.904,6.92 11.251,15.4 15.262,26.003 V 56.36 C 54.142,64.395 49.017,73.658 45.564,84.148 Z M 112.181,0.002 H 68.29 v 38.502 c 13.145,-10.49 27.515,-16.182 39.658,-19.307 2.005,-0.558 4.122,0.67 4.567,2.678 0.557,2.009 -0.668,4.018 -2.673,4.576 -12.7,3.236 -28.184,9.597 -41.441,21.985 v 35.489 c 3.23,-7.031 7.464,-13.057 12.7,-18.303 10.471,-10.378 23.394,-15.735 33.977,-18.525 2.005,-0.558 4.121,0.67 4.567,2.678 0.557,2.009 -0.668,4.018 -2.674,4.576 -5.235,1.339 -11.251,3.46 -17.044,6.696 C 78.761,72.542 68.512,92.74 68.512,122.65 v 5.357 h 43.78 c 8.69,0 15.708,-7.031 15.708,-15.736 V 15.737 C 127.889,7.032 120.87,0.002 112.181,0.002 Z M 24.509,66.515 c 2.451,1.451 5.013,3.125 7.576,5.134 V 0.002 H 15.708 C 7.018,0.002 -2.670288e-8,7.032 -2.670288e-8,15.737 V 56.36 C 7.353,58.145 15.93,61.27 24.508,66.515 Z M 6.017,97.652 C 4.012,96.424 2.007,95.42 9.999733e-4,94.527 v 17.744 C 9.999733e-4,120.976 7.02,128.007 15.709,128.007 H 28.631 C 24.621,114.392 17.046,104.124 6.017,97.652 Z"
     class="st2"
     id="path3" /></svg>
