<svg xmlns="http://www.w3.org/2000/svg" height="782.201" width="515.27" version="1.1" data-name="Calque 1" id="Calque_1"><defs id="defs4"><style id="style2">.cls-1,.cls-2,.cls-3,.cls-4,.cls-7{fill:none;stroke-linecap:round;stroke-linejoin:round}.cls-1,.cls-4{stroke:#aa026d}.cls-1,.cls-2{stroke-width:10px}.cls-2,.cls-3{stroke:#71196f}.cls-3,.cls-4{stroke-width:5px}.cls-5,.cls-6{font-size:119.48px}.cls-5{fill:#71196f;font-family:AvenirLTStd-Heavy,Avenir LT Std}.cls-6{fill:#aa026d;font-family:AvenirLTStd-Medium,Avenir LT Std}.cls-7{stroke:#fff;stroke-width:.75px}</style></defs><g transform="translate(-274 -148.5)" id="g893"><path class="cls-1" d="M663.52 807v-88c0-199.26-91.83-331.42-279.82-362" id="path8"/><path class="cls-1" d="M572.5 807v-87.07c0-156.89-75.34-258.73-229.71-276" id="path10"/><path class="cls-2" d="M490.77 807v-70.49c0-121.76-58.68-200.64-178.91-213.6" id="path12"/><path class="cls-2" d="M399.74 807v-41.14c0-84.15-39.61-139.36-120.74-150.41" id="path14"/><path class="cls-2" d="M399.74 807v-88c0-199.26 91.84-331.42 279.83-362" id="path16"/><path class="cls-2" d="M490.77 807v-87.07c0-156.89 75.34-258.73 229.71-276" id="path18"/><path class="cls-1" d="M572.5 807v-70.49c0-121.76 58.68-200.64 178.91-213.6" id="path20"/><path class="cls-1" d="M663.52 807v-41.14c0-84.15 39.62-139.36 120.75-150.41" id="path22"/><path class="cls-3" id="line24" d="M400 791V271"/><path class="cls-3" id="line26" d="M491 791V151"/><path class="cls-4" id="line28" d="M573 791V151"/><path class="cls-4" id="line30" d="M664 791V271"/><text class="cls-5" transform="translate(349.98 928.55)" id="text32">O</text><text class="cls-5" transform="translate(460.98 928.55)" id="text34">S</text><text class="cls-6" transform="translate(544.98 928.55)" id="text36">R</text><text class="cls-6" transform="translate(634.98 928.55)" id="text38">D</text></g></svg>
