<?xml version="1.0" encoding="UTF-8" standalone="no"?>
<svg
   xml:space="preserve"
   width="128.09599"
   height="128.00539"
   version="1.1"
   id="svg104"
   xmlns:xlink="http://www.w3.org/1999/xlink"
   xmlns="http://www.w3.org/2000/svg"
   xmlns:svg="http://www.w3.org/2000/svg"><defs
     id="defs7"><clipPath
       id="i"><use
         xlink:href="#a"
         style="overflow:visible"
         id="use1" /></clipPath><clipPath
       id="j"><use
         xlink:href="#b"
         style="overflow:visible"
         id="use2" /></clipPath><clipPath
       id="k"><use
         xlink:href="#c"
         style="overflow:visible"
         id="use3" /></clipPath><clipPath
       id="l"><use
         xlink:href="#d"
         style="overflow:visible"
         id="use4" /></clipPath><clipPath
       id="m"><use
         xlink:href="#e"
         style="overflow:visible"
         id="use5" /></clipPath><clipPath
       id="n"><use
         xlink:href="#f"
         style="overflow:visible"
         id="use6" /></clipPath><clipPath
       id="o"><use
         xlink:href="#g"
         style="overflow:visible"
         id="use7" /></clipPath><path
       id="a"
       d="m 83.3,131.4 c -2.2,9.2 -3.3,19.1 -3.3,29.9 v 5.4 H 98.7 C 95.6,151.8 90,140.3 83.3,131.4 Z" /><path
       id="b"
       d="m 40,102.2 v 22.4 c 3.4,1.3 7.1,3 10.7,5.2 9.6,5.9 16.9,14.1 21.8,24.6 V 119.5 C 68.6,116.1 64.7,113.3 60.9,111.1 53.6,106.8 46.3,104 40,102.2 Z" /><path
       id="c"
       d="m 80.1,116.2 c 4.8,-12.7 12,-23.7 21.3,-33 V 37.5 H 80.1 Z" /><path
       id="d"
       d="m 85.9,122.4 c 6,7 11.4,15.6 15.5,26.3 V 94.4 c -6.8,8.1 -11.9,17.4 -15.5,28 z" /><path
       id="e"
       d="M 153.3,37.5 H 109 v 38.9 c 13.2,-10.5 27.8,-16.3 40,-19.5 2,-0.5 4.1,0.7 4.6,2.7 0.5,2 -0.7,4.1 -2.7,4.6 -12.8,3.3 -28.5,9.7 -41.9,22.1 v 35.8 c 3.2,-7 7.5,-13.2 12.8,-18.5 10.6,-10.5 23.7,-15.9 34.3,-18.7 2,-0.5 4.1,0.7 4.6,2.8 0.5,2 -0.7,4.1 -2.7,4.6 -5.3,1.4 -11.4,3.5 -17.3,6.7 -21.3,11.6 -31.7,32 -31.7,62.2 v 5.4 h 44.3 c 8.8,0 15.9,-7.1 15.9,-15.9 V 53.3 c 0,-8.7 -7.1,-15.8 -15.9,-15.8 z" /><path
       id="f"
       d="m 64.7,104.6 c 2.5,1.5 5.1,3.2 7.7,5.1 V 37.5 H 55.8 c -8.8,0 -15.9,7.1 -15.9,15.9 v 41 c 7.4,1.8 16.1,5 24.8,10.2 z" /><path
       id="g"
       d="m 46,136 c -2,-1.2 -4.1,-2.2 -6.1,-3.1 v 17.9 c 0,8.8 7.1,15.9 15.9,15.9 H 68.9 C 64.8,152.9 57.2,142.6 46,136 Z" /></defs><path
     d="m 43.097995,93.074375 c -2.117,9.150995 -3.23,18.971995 -3.23,29.573995 v 5.357 h 18.492 c -3.231,-14.731 -8.801,-26.115 -15.262,-34.930995 z m -43.00100008,-28.904 v 22.208 a 70.557,70.557 0 0 1 10.58300008,5.134 c 9.47,5.803 16.71,14.060995 21.612,24.327995 V 81.244375 c -3.788,-3.348 -7.687,-6.138 -11.474,-8.37 -7.241,-4.24 -14.3700001,-6.919 -20.72000008,-8.704 z m 39.65900008,13.726 c 4.79,-12.498 11.808,-23.436 21.166,-32.698 V 3.7499997e-4 h -21.166 z m 5.904,6.25 c 5.904,6.92 11.251,15.4 15.262,26.002995 V 56.358375 c -6.684,8.035 -11.809,17.298 -15.262,27.788 z M 112.27699,3.7499997e-4 H 68.385995 V 38.502375 c 13.145,-10.49 27.515,-16.182 39.657995,-19.307 2.005,-0.558 4.122,0.67 4.567,2.678 0.557,2.009 -0.668,4.018 -2.673,4.576 -12.699995,3.236 -28.183995,9.597 -41.440995,21.985 v 35.489 c 3.23,-7.031 7.464,-13.057 12.7,-18.303 10.471,-10.378 23.393995,-15.735 33.976995,-18.525 2.005,-0.558 4.121,0.67 4.567,2.678 0.557,2.009 -0.668,4.018 -2.674,4.576 -5.235,1.339 -11.251,3.46 -17.044,6.696 -21.165995,11.495 -31.414995,31.693 -31.414995,61.602995 v 5.357 h 43.779995 c 8.69,0 15.708,-7.031 15.708,-15.736 V 15.735375 c -0.111,-8.705 -7.13,-15.73500000003 -15.819,-15.73500000003 z M 24.604995,66.513375 c 2.451,1.451 5.013,3.125 7.576,5.134 V 3.7499997e-4 h -16.377 C 7.1139949,3.7499997e-4 0.09599492,7.030375 0.09599492,15.735375 v 40.623 c 7.35299998,1.785 15.93000008,4.91 24.50800008,10.155 z m -18.4920001,31.137 c -2.005,-1.228 -4.01,-2.232 -6.01599998,-3.125 v 17.743995 c 0,8.705 7.01899998,15.736 15.70800008,15.736 h 12.922 c -4.01,-13.615 -11.585,-23.883 -22.6140001,-30.354995 z"
     style="fill:#786abf"
     id="path7" /><path
     d="m 104.53872,0 20.09598,26.74917 3.36583,19.616058 V 93.027669 L 79.39399,127.99973 H 24.055785 L 0.09899492,98.674716 V 45.176376 L 24.253775,0 Z"
     class="st0"
     style="fill:#ffffff;stroke-width:0.99033"
     id="path8" /><g
     class="st1"
     clip-path="url(#i)"
     transform="matrix(0.98995,0,0,0.99071,-39.499005,-37.151625)"
     id="g14"><path
       d="m 38.4,36.2 h 132.1 v 22 H 38.4 Z"
       class="st2"
       style="fill:#c80e0e"
       id="path9" /><path
       d="m 38.4,58.2 h 132.1 v 22 H 38.4 Z"
       class="st3"
       style="fill:#de511d"
       id="path10" /><path
       d="m 38.4,80.2 h 132.1 v 22 H 38.4 Z"
       class="st4"
       style="fill:#ffb100"
       id="path11" /><path
       d="m 38.4,102.3 h 132.1 v 22 H 38.4 Z"
       class="st5"
       style="fill:#7ab327"
       id="path12" /><path
       d="m 38.4,124.3 h 132.1 v 22 H 38.4 Z"
       class="st6"
       style="fill:#5068f5"
       id="path13" /><path
       d="m 38.4,146.3 h 132.1 v 22 H 38.4 Z"
       class="st7"
       style="fill:#9024fa"
       id="path14" /></g><g
     class="st1"
     clip-path="url(#i)"
     transform="matrix(0.98995,0,0,0.99071,-39.499005,-37.151625)"
     id="g23"><path
       d="M 153.3,37.5 H 55.8 c -8.8,0 -15.9,7.1 -15.9,15.9 v 97.4 c 0,8.8 7.1,15.9 15.9,15.9 h 97.5 c 8.8,0 15.9,-7.1 15.9,-15.9 V 53.3 c 0,-8.7 -7.1,-15.8 -15.9,-15.8 z"
       class="st8"
       style="fill:none;stroke:#eca1b5;stroke-width:10;stroke-miterlimit:10"
       id="path15" /><path
       d="M 169.2,102.4 V 66.1"
       class="st9"
       style="fill:none;stroke:#6ec6d4;stroke-width:10;stroke-miterlimit:10"
       id="path16" /><path
       d="M 169.2,135.5 V 99.4"
       class="st10"
       style="fill:none;stroke:#7d4d25;stroke-width:10;stroke-miterlimit:10"
       id="path17" /><path
       d="m 136.4,166.7 h 16.9 c 8.8,0 15.9,-7.1 15.9,-15.9 v -15.3"
       class="st11"
       style="fill:none;stroke:#000000;stroke-width:10;stroke-miterlimit:10"
       id="path18" /><path
       d="m 69.9,166.7 h 66.5"
       class="st10"
       style="fill:none;stroke:#7d4d25;stroke-width:10;stroke-miterlimit:10"
       id="path19" /><path
       d="m 40,135.5 v 15.3 c 0,8.8 7.1,15.9 15.9,15.9 h 16"
       class="st11"
       style="fill:none;stroke:#000000;stroke-width:10;stroke-miterlimit:10"
       id="path20" /><path
       d="m 40,99.2 v 36.3"
       class="st10"
       style="fill:none;stroke:#7d4d25;stroke-width:10;stroke-miterlimit:10"
       id="path21" /><path
       d="M 40,65.8 V 99.2"
       class="st9"
       style="fill:none;stroke:#6ec6d4;stroke-width:10;stroke-miterlimit:10"
       id="path22" /><path
       d="M 136.4,37.5 H 69.9"
       class="st12"
       style="fill:none;stroke:#fafafa;stroke-width:10;stroke-miterlimit:10"
       id="path23" /></g><g
     class="st13"
     clip-path="url(#j)"
     transform="matrix(0.98995,0,0,0.99071,-39.499005,-37.151625)"
     id="g29"><path
       d="m 38.4,36.2 h 132.1 v 22 H 38.4 Z"
       class="st2"
       style="fill:#c80e0e"
       id="path24" /><path
       d="m 38.4,58.2 h 132.1 v 22 H 38.4 Z"
       class="st3"
       style="fill:#de511d"
       id="path25" /><path
       d="m 38.4,80.2 h 132.1 v 22 H 38.4 Z"
       class="st4"
       style="fill:#ffb100"
       id="path26" /><path
       d="m 38.4,102.3 h 132.1 v 22 H 38.4 Z"
       class="st5"
       style="fill:#7ab327"
       id="path27" /><path
       d="m 38.4,124.3 h 132.1 v 22 H 38.4 Z"
       class="st6"
       style="fill:#5068f5"
       id="path28" /><path
       d="m 38.4,146.3 h 132.1 v 22 H 38.4 Z"
       class="st7"
       style="fill:#9024fa"
       id="path29" /></g><g
     class="st13"
     clip-path="url(#j)"
     transform="matrix(0.98995,0,0,0.99071,-39.499005,-37.151625)"
     id="g38"><path
       d="M 153.3,37.5 H 55.8 c -8.8,0 -15.9,7.1 -15.9,15.9 v 97.4 c 0,8.8 7.1,15.9 15.9,15.9 h 97.5 c 8.8,0 15.9,-7.1 15.9,-15.9 V 53.3 c 0,-8.7 -7.1,-15.8 -15.9,-15.8 z"
       class="st8"
       style="fill:none;stroke:#eca1b5;stroke-width:10;stroke-miterlimit:10"
       id="path30" /><path
       d="M 169.2,102.4 V 66.1"
       class="st9"
       style="fill:none;stroke:#6ec6d4;stroke-width:10;stroke-miterlimit:10"
       id="path31" /><path
       d="M 169.2,135.5 V 99.4"
       class="st10"
       style="fill:none;stroke:#7d4d25;stroke-width:10;stroke-miterlimit:10"
       id="path32" /><path
       d="m 136.4,166.7 h 16.9 c 8.8,0 15.9,-7.1 15.9,-15.9 v -15.3"
       class="st11"
       style="fill:none;stroke:#000000;stroke-width:10;stroke-miterlimit:10"
       id="path33" /><path
       d="m 69.9,166.7 h 66.5"
       class="st10"
       style="fill:none;stroke:#7d4d25;stroke-width:10;stroke-miterlimit:10"
       id="path34" /><path
       d="m 40,135.5 v 15.3 c 0,8.8 7.1,15.9 15.9,15.9 h 16"
       class="st11"
       style="fill:none;stroke:#000000;stroke-width:10;stroke-miterlimit:10"
       id="path35" /><path
       d="m 40,99.2 v 36.3"
       class="st10"
       style="fill:none;stroke:#7d4d25;stroke-width:10;stroke-miterlimit:10"
       id="path36" /><path
       d="M 40,65.8 V 99.2"
       class="st9"
       style="fill:none;stroke:#6ec6d4;stroke-width:10;stroke-miterlimit:10"
       id="path37" /><path
       d="M 136.4,37.5 H 69.9"
       class="st12"
       style="fill:none;stroke:#fafafa;stroke-width:10;stroke-miterlimit:10"
       id="path38" /></g><g
     class="st14"
     clip-path="url(#k)"
     transform="matrix(0.98995,0,0,0.99071,-39.499005,-37.151625)"
     id="g44"><path
       d="m 38.4,36.2 h 132.1 v 22 H 38.4 Z"
       class="st2"
       style="fill:#c80e0e"
       id="path39" /><path
       d="m 38.4,58.2 h 132.1 v 22 H 38.4 Z"
       class="st3"
       style="fill:#de511d"
       id="path40" /><path
       d="m 38.4,80.2 h 132.1 v 22 H 38.4 Z"
       class="st4"
       style="fill:#ffb100"
       id="path41" /><path
       d="m 38.4,102.3 h 132.1 v 22 H 38.4 Z"
       class="st5"
       style="fill:#7ab327"
       id="path42" /><path
       d="m 38.4,124.3 h 132.1 v 22 H 38.4 Z"
       class="st6"
       style="fill:#5068f5"
       id="path43" /><path
       d="m 38.4,146.3 h 132.1 v 22 H 38.4 Z"
       class="st7"
       style="fill:#9024fa"
       id="path44" /></g><g
     class="st14"
     clip-path="url(#k)"
     transform="matrix(0.98995,0,0,0.99071,-39.499005,-37.151625)"
     id="g53"><path
       d="M 153.3,37.5 H 55.8 c -8.8,0 -15.9,7.1 -15.9,15.9 v 97.4 c 0,8.8 7.1,15.9 15.9,15.9 h 97.5 c 8.8,0 15.9,-7.1 15.9,-15.9 V 53.3 c 0,-8.7 -7.1,-15.8 -15.9,-15.8 z"
       class="st8"
       style="fill:none;stroke:#eca1b5;stroke-width:10;stroke-miterlimit:10"
       id="path45" /><path
       d="M 169.2,102.4 V 66.1"
       class="st9"
       style="fill:none;stroke:#6ec6d4;stroke-width:10;stroke-miterlimit:10"
       id="path46" /><path
       d="M 169.2,135.5 V 99.4"
       class="st10"
       style="fill:none;stroke:#7d4d25;stroke-width:10;stroke-miterlimit:10"
       id="path47" /><path
       d="m 136.4,166.7 h 16.9 c 8.8,0 15.9,-7.1 15.9,-15.9 v -15.3"
       class="st11"
       style="fill:none;stroke:#000000;stroke-width:10;stroke-miterlimit:10"
       id="path48" /><path
       d="m 69.9,166.7 h 66.5"
       class="st10"
       style="fill:none;stroke:#7d4d25;stroke-width:10;stroke-miterlimit:10"
       id="path49" /><path
       d="m 40,135.5 v 15.3 c 0,8.8 7.1,15.9 15.9,15.9 h 16"
       class="st11"
       style="fill:none;stroke:#000000;stroke-width:10;stroke-miterlimit:10"
       id="path50" /><path
       d="m 40,99.2 v 36.3"
       class="st10"
       style="fill:none;stroke:#7d4d25;stroke-width:10;stroke-miterlimit:10"
       id="path51" /><path
       d="M 40,65.8 V 99.2"
       class="st9"
       style="fill:none;stroke:#6ec6d4;stroke-width:10;stroke-miterlimit:10"
       id="path52" /><path
       d="M 136.4,37.5 H 69.9"
       class="st15"
       style="fill:none;stroke:#f0f0f0;stroke-width:10;stroke-miterlimit:10"
       id="path53" /></g><g
     class="st16"
     clip-path="url(#l)"
     transform="matrix(0.98995,0,0,0.99071,-39.499005,-37.151625)"
     id="g59"><path
       d="m 38.4,36.2 h 132.1 v 22 H 38.4 Z"
       class="st2"
       style="fill:#c80e0e"
       id="path54" /><path
       d="m 38.4,58.2 h 132.1 v 22 H 38.4 Z"
       class="st3"
       style="fill:#de511d"
       id="path55" /><path
       d="m 38.4,80.2 h 132.1 v 22 H 38.4 Z"
       class="st4"
       style="fill:#ffb100"
       id="path56" /><path
       d="m 38.4,102.3 h 132.1 v 22 H 38.4 Z"
       class="st5"
       style="fill:#7ab327"
       id="path57" /><path
       d="m 38.4,124.3 h 132.1 v 22 H 38.4 Z"
       class="st6"
       style="fill:#5068f5"
       id="path58" /><path
       d="m 38.4,146.3 h 132.1 v 22 H 38.4 Z"
       class="st7"
       style="fill:#9024fa"
       id="path59" /></g><g
     class="st17"
     clip-path="url(#m)"
     transform="matrix(0.98995,0,0,0.99071,-39.499005,-37.151625)"
     id="g65"><path
       d="m 38.4,36.2 h 132.1 v 22 H 38.4 Z"
       class="st2"
       style="fill:#c80e0e"
       id="path60" /><path
       d="m 38.4,58.2 h 132.1 v 22 H 38.4 Z"
       class="st3"
       style="fill:#de511d"
       id="path61" /><path
       d="m 38.4,80.2 h 132.1 v 22 H 38.4 Z"
       class="st4"
       style="fill:#ffb100"
       id="path62" /><path
       d="m 38.4,102.3 h 132.1 v 22 H 38.4 Z"
       class="st5"
       style="fill:#7ab327"
       id="path63" /><path
       d="m 38.4,124.3 h 132.1 v 22 H 38.4 Z"
       class="st6"
       style="fill:#5068f5"
       id="path64" /><path
       d="m 38.4,146.3 h 132.1 v 22 H 38.4 Z"
       class="st7"
       style="fill:#9024fa"
       id="path65" /></g><g
     class="st17"
     clip-path="url(#m)"
     transform="matrix(0.98995,0,0,0.99071,-39.499005,-37.151625)"
     id="g74"><path
       d="M 153.3,37.5 H 55.8 c -8.8,0 -15.9,7.1 -15.9,15.9 v 97.4 c 0,8.8 7.1,15.9 15.9,15.9 h 97.5 c 8.8,0 15.9,-7.1 15.9,-15.9 V 53.3 c 0,-8.7 -7.1,-15.8 -15.9,-15.8 z"
       class="st8"
       style="fill:none;stroke:#eca1b5;stroke-width:10;stroke-miterlimit:10"
       id="path66" /><path
       d="M 169.2,102.4 V 66.1"
       class="st9"
       style="fill:none;stroke:#6ec6d4;stroke-width:10;stroke-miterlimit:10"
       id="path67" /><path
       d="M 169.2,135.5 V 102.4"
       class="st10"
       style="fill:none;stroke:#7d4d25;stroke-width:10;stroke-miterlimit:10"
       id="path68" /><path
       d="m 136.4,166.7 h 16.9 c 8.8,0 15.9,-7.1 15.9,-15.9 v -23.3"
       class="st11"
       style="fill:none;stroke:#000000;stroke-width:10;stroke-miterlimit:10"
       id="path69" /><path
       d="m 69.9,166.7 h 66.5"
       class="st10"
       style="fill:none;stroke:#7d4d25;stroke-width:10;stroke-miterlimit:10"
       id="path70" /><path
       d="m 40,135.5 v 15.3 c 0,8.8 7.1,15.9 15.9,15.9 h 16"
       class="st11"
       style="fill:none;stroke:#000000;stroke-width:10;stroke-miterlimit:10"
       id="path71" /><path
       d="m 40,99.2 v 36.3"
       class="st10"
       style="fill:none;stroke:#7d4d25;stroke-width:10;stroke-miterlimit:10"
       id="path72" /><path
       d="M 40,65.8 V 99.2"
       class="st9"
       style="fill:none;stroke:#6ec6d4;stroke-width:10;stroke-miterlimit:10"
       id="path73" /><path
       d="M 126.4,37.5 H 69.9"
       class="st15"
       style="fill:none;stroke:#f0f0f0;stroke-width:10;stroke-miterlimit:10"
       id="path74" /></g><g
     class="st18"
     clip-path="url(#n)"
     transform="matrix(0.98995,0,0,0.99071,-39.499005,-37.151625)"
     id="g80"><path
       d="m 38.4,36.2 h 132.1 v 22 H 38.4 Z"
       class="st2"
       style="fill:#c80e0e"
       id="path75" /><path
       d="m 38.4,58.2 h 132.1 v 22 H 38.4 Z"
       class="st3"
       style="fill:#de511d"
       id="path76" /><path
       d="m 38.4,80.2 h 132.1 v 22 H 38.4 Z"
       class="st4"
       style="fill:#ffb100"
       id="path77" /><path
       d="m 38.4,102.3 h 132.1 v 22 H 38.4 Z"
       class="st5"
       style="fill:#7ab327"
       id="path78" /><path
       d="m 38.4,124.3 h 132.1 v 22 H 38.4 Z"
       class="st6"
       style="fill:#5068f5"
       id="path79" /><path
       d="m 38.4,146.3 h 132.1 v 22 H 38.4 Z"
       class="st7"
       style="fill:#9024fa"
       id="path80" /></g><g
     class="st18"
     clip-path="url(#n)"
     transform="matrix(0.98995,0,0,0.99071,-39.499005,-37.151625)"
     id="g89"><path
       d="M 153.3,37.5 H 55.8 c -8.8,0 -15.9,7.1 -15.9,15.9 v 97.4 c 0,8.8 7.1,15.9 15.9,15.9 h 97.5 c 8.8,0 15.9,-7.1 15.9,-15.9 V 53.3 c 0,-8.7 -7.1,-15.8 -15.9,-15.8 z"
       class="st8"
       style="fill:none;stroke:#eca1b5;stroke-width:10;stroke-miterlimit:10"
       id="path81" /><path
       d="M 169.2,102.4 V 66.1"
       class="st9"
       style="fill:none;stroke:#6ec6d4;stroke-width:10;stroke-miterlimit:10"
       id="path82" /><path
       d="M 169.2,135.5 V 99.4"
       class="st10"
       style="fill:none;stroke:#7d4d25;stroke-width:10;stroke-miterlimit:10"
       id="path83" /><path
       d="m 136.4,166.7 h 16.9 c 8.8,0 15.9,-7.1 15.9,-15.9 v -15.3"
       class="st11"
       style="fill:none;stroke:#000000;stroke-width:10;stroke-miterlimit:10"
       id="path84" /><path
       d="m 69.9,166.7 h 66.5"
       class="st10"
       style="fill:none;stroke:#7d4d25;stroke-width:10;stroke-miterlimit:10"
       id="path85" /><path
       d="m 40,135.5 v 15.3 c 0,8.8 7.1,15.9 15.9,15.9 h 16"
       class="st11"
       style="fill:none;stroke:#000000;stroke-width:10;stroke-miterlimit:10"
       id="path86" /><path
       d="m 40,99.2 v 36.3"
       class="st10"
       style="fill:none;stroke:#7d4d25;stroke-width:10;stroke-miterlimit:10"
       id="path87" /><path
       d="M 40,65.8 V 99.2"
       class="st9"
       style="fill:none;stroke:#6ec6d4;stroke-width:10;stroke-miterlimit:10"
       id="path88" /><path
       d="M 136.4,37.5 H 79.9"
       class="st12"
       style="fill:none;stroke:#fafafa;stroke-width:10;stroke-miterlimit:10"
       id="path89" /></g><g
     class="st19"
     clip-path="url(#o)"
     transform="matrix(0.98995,0,0,0.99071,-39.499005,-37.151625)"
     id="g95"><path
       d="m 38.4,36.2 h 132.1 v 22 H 38.4 Z"
       class="st2"
       style="fill:#c80e0e"
       id="path90" /><path
       d="m 38.4,58.2 h 132.1 v 22 H 38.4 Z"
       class="st3"
       style="fill:#de511d"
       id="path91" /><path
       d="m 38.4,80.2 h 132.1 v 22 H 38.4 Z"
       class="st4"
       style="fill:#ffb100"
       id="path92" /><path
       d="m 38.4,102.3 h 132.1 v 22 H 38.4 Z"
       class="st5"
       style="fill:#7ab327"
       id="path93" /><path
       d="m 38.4,124.3 h 132.1 v 22 H 38.4 Z"
       class="st6"
       style="fill:#5068f5"
       id="path94" /><path
       d="m 38.4,146.3 h 132.1 v 22 H 38.4 Z"
       class="st7"
       style="fill:#9024fa"
       id="path95" /></g><g
     class="st19"
     clip-path="url(#o)"
     transform="matrix(0.98995,0,0,0.99071,-39.499005,-37.151625)"
     id="g104"><path
       d="M 153.3,37.5 H 55.8 c -8.8,0 -15.9,7.1 -15.9,15.9 v 97.4 c 0,8.8 7.1,15.9 15.9,15.9 h 97.5 c 8.8,0 15.9,-7.1 15.9,-15.9 V 53.3 c 0,-8.7 -7.1,-15.8 -15.9,-15.8 z"
       class="st8"
       style="fill:none;stroke:#eca1b5;stroke-width:10;stroke-miterlimit:10"
       id="path96" /><path
       d="M 169.2,102.4 V 66.1"
       class="st9"
       style="fill:none;stroke:#6ec6d4;stroke-width:10;stroke-miterlimit:10"
       id="path97" /><path
       d="M 169.2,135.5 V 99.4"
       class="st10"
       style="fill:none;stroke:#7d4d25;stroke-width:10;stroke-miterlimit:10"
       id="path98" /><path
       d="m 136.4,166.7 h 16.9 c 8.8,0 15.9,-7.1 15.9,-15.9 v -15.3"
       class="st11"
       style="fill:none;stroke:#000000;stroke-width:10;stroke-miterlimit:10"
       id="path99" /><path
       d="m 69.9,166.7 h 66.5"
       class="st10"
       style="fill:none;stroke:#7d4d25;stroke-width:10;stroke-miterlimit:10"
       id="path100" /><path
       d="m 40,125.5 v 25.3 c 0,8.8 7.1,15.9 15.9,15.9 h 16"
       class="st11"
       style="fill:none;stroke:#000000;stroke-width:10;stroke-miterlimit:10"
       id="path101" /><path
       d="m 40,99.2 v 33.7 -7.4"
       class="st10"
       style="fill:none;stroke:#7d4d25;stroke-width:10;stroke-miterlimit:10"
       id="path102" /><path
       d="M 40,65.8 V 99.2"
       class="st9"
       style="fill:none;stroke:#6ec6d4;stroke-width:10;stroke-miterlimit:10"
       id="path103" /><path
       d="M 136.4,37.5 H 69.9"
       class="st12"
       style="fill:none;stroke:#fafafa;stroke-width:10;stroke-miterlimit:10"
       id="path104" /></g></svg>
