<?xml version="1.0" encoding="UTF-8"?><svg id="Layer_1" xmlns="http://www.w3.org/2000/svg" xmlns:xlink="http://www.w3.org/1999/xlink" viewBox="0 0 456.04 144.49"><defs><style>.cls-1{clip-path:url(#clippath-1);}.cls-2{fill:#3c3732;}.cls-3{fill:#fff;}.cls-4{fill:#dfeaf2;}.cls-5{fill:#1188c9;}.cls-6{fill:#267bbd;}</style><clipPath id="clippath-1"><path class="cls-5" d="M93.58,43.9h-19.44v17.05c5.82-4.6,12.19-7.17,17.57-8.55.89-.25,1.83.3,2.02,1.19.25.89-.3,1.78-1.18,2.03-5.62,1.43-12.48,4.25-18.35,9.74v15.72c1.43-3.11,3.31-5.78,5.62-8.11,4.64-4.6,10.36-6.97,15.05-8.2.89-.25,1.83.3,2.02,1.19.25.89-.3,1.78-1.18,2.03-2.32.59-4.98,1.53-7.55,2.97-9.37,5.09-13.91,14.04-13.91,27.28v2.37h19.39c3.85,0,6.96-3.11,6.96-6.97v-42.75c-.1-3.86-3.21-6.97-7.01-6.97ZM58.11,43.9v31.73c-1.13-.89-2.27-1.63-3.36-2.27-3.85-2.27-7.65-3.66-10.86-4.5v-17.99c0-3.86,3.11-6.97,6.96-6.97h7.25ZM43.9,72.32c2.76.79,5.97,2.03,9.18,3.86,1.68.99,3.4,2.22,5.08,3.71v15.32c-2.17-4.55-5.38-8.2-9.57-10.78-1.58-.94-3.16-1.68-4.69-2.27v-9.84ZM43.9,85.76c.89.4,1.78.84,2.66,1.38,4.88,2.92,8.24,7.41,10.02,13.44h-5.72c-3.85,0-6.96-3.11-6.96-6.97v-7.86ZM70.79,43.9v20.02c-4.1,4.1-7.2,8.95-9.33,14.53v-34.55h9.33ZM70.79,68.91v23.77c-1.78-4.7-4.14-8.45-6.76-11.52,1.58-4.6,3.85-8.7,6.76-12.26ZM62.89,85.12c2.91,3.9,5.38,8.95,6.76,15.47h-8.19v-2.37c0-4.7.49-9.05,1.43-13.1Z"/></clipPath></defs><path class="cls-5" d="M242.06,49.75h3.43v12.41h6.36v3.17h-9.79v-15.58Z"/><path class="cls-5" d="M261.2,49.75h2.84l6.78,15.58h-3.87l-1.34-3.3h-6.05l-1.3,3.3h-3.78l6.73-15.58ZM262.52,54.28l-1.89,4.84h3.81l-1.91-4.84Z"/><path class="cls-5" d="M282.41,53.56c-.28-.35-.66-.61-1.13-.78-.48-.17-.93-.25-1.35-.25-.25,0-.51.03-.77.09-.26.06-.51.15-.75.27-.24.12-.43.29-.57.5s-.22.45-.22.75c0,.47.18.83.53,1.08.35.25.8.46,1.33.64.54.18,1.11.35,1.73.53.62.18,1.19.43,1.73.75.54.32.98.76,1.33,1.3.35.54.53,1.27.53,2.18s-.16,1.62-.48,2.27-.76,1.18-1.31,1.61-1.19.74-1.91.95c-.73.21-1.49.31-2.3.31-1.01,0-1.95-.15-2.82-.46s-1.67-.81-2.42-1.5l2.44-2.68c.35.47.79.83,1.33,1.09.54.26,1.09.39,1.66.39.28,0,.56-.03.85-.1s.54-.17.77-.3.41-.3.55-.51c.14-.21.21-.45.21-.73,0-.47-.18-.84-.54-1.11-.36-.27-.81-.5-1.35-.69-.54-.19-1.13-.38-1.76-.57-.63-.19-1.22-.45-1.76-.77-.54-.32-.99-.75-1.35-1.28-.36-.53-.54-1.22-.54-2.09s.17-1.57.5-2.2c.33-.63.77-1.16,1.32-1.58s1.18-.74,1.9-.96,1.46-.32,2.22-.32c.88,0,1.73.12,2.55.37.82.25,1.56.67,2.22,1.25l-2.35,2.57Z"/><path class="cls-5" d="M292.68,52.79h-4.44v-3.04h12.32v3.04h-4.44v12.54h-3.43v-12.54Z"/><path class="cls-5" d="M313.47,49.75h5.19l3.59,10.16h.04l3.61-10.16h5.17v15.58h-3.43v-11.95h-.04l-4.09,11.95h-2.62l-3.94-11.95h-.04v11.95h-3.43v-15.58Z"/><path class="cls-5" d="M336.52,49.75h3.43v15.58h-3.43v-15.58Z"/><path class="cls-5" d="M345.41,49.75h4.66l6.62,10.82h.04v-10.82h3.43v15.58h-4.49l-6.8-11.09h-.04v11.09h-3.43v-15.58Z"/><path class="cls-5" d="M378.81,59.32c0,.92-.14,1.77-.42,2.55-.28.78-.69,1.45-1.24,2.02-.55.57-1.24,1.02-2.06,1.34-.82.32-1.77.48-2.84.48s-2.04-.16-2.86-.48c-.82-.32-1.51-.77-2.06-1.34-.55-.57-.96-1.25-1.24-2.02-.28-.78-.42-1.63-.42-2.55v-9.57h3.43v9.44c0,.48.08.93.23,1.34s.37.77.65,1.07c.28.3.61.54,1,.7.39.17.81.25,1.26.25s.87-.08,1.25-.25c.38-.17.71-.4.99-.7.28-.3.5-.66.65-1.07.15-.41.23-.86.23-1.34v-9.44h3.43v9.57Z"/><path class="cls-5" d="M387.32,52.79h-4.44v-3.04h12.32v3.04h-4.44v12.54h-3.43v-12.54Z"/><path class="cls-5" d="M399.4,49.75h10.58v3.17h-7.15v2.9h6.75v3.17h-6.75v3.17h7.55v3.17h-10.98v-15.58Z"/><path class="cls-2" d="M242.57,73.38h8.49c1.12,0,2.17.11,3.18.33,1,.22,1.88.58,2.64,1.08.75.51,1.35,1.19,1.8,2.05.44.86.67,1.93.67,3.21,0,1.55-.4,2.87-1.21,3.95-.81,1.08-1.98,1.77-3.53,2.06l5.58,9.27h-5.8l-4.59-8.77h-2.39v8.77h-4.84v-21.95ZM247.41,82.46h2.85c.43,0,.89-.02,1.38-.05.49-.03.92-.12,1.32-.28.39-.16.72-.4.98-.73s.39-.8.39-1.4c0-.56-.11-1-.34-1.33s-.52-.58-.87-.76c-.35-.18-.75-.29-1.21-.36s-.9-.09-1.33-.09h-3.16v4.99Z"/><path class="cls-2" d="M267.5,73.38h14.91v4.46h-10.08v4.09h9.52v4.46h-9.52v4.46h10.63v4.46h-15.47v-21.95Z"/><path class="cls-2" d="M315.52,95.33h-13.3c-1.72,0-3.3-.25-4.76-.76s-2.71-1.25-3.77-2.22c-1.05-.97-1.88-2.15-2.48-3.53-.6-1.38-.9-2.97-.9-4.74,0-1.65.3-3.17.92-4.56.61-1.38,1.44-2.57,2.5-3.56s2.29-1.76,3.72-2.31c1.43-.55,2.96-.82,4.59-.82s3.16.28,4.59.84c1.43.56,2.67,1.33,3.72,2.32,1.05.99,1.89,2.18,2.5,3.55.61,1.37.92,2.89.92,4.54,0,.79-.09,1.55-.26,2.29-.18.74-.44,1.45-.79,2.11-.35.66-.81,1.26-1.36,1.78-.56.53-1.21.96-1.95,1.29v.06h6.14v3.72ZM295.34,84.07c0,.95.17,1.84.53,2.67s.83,1.54,1.44,2.15c.61.61,1.32,1.09,2.12,1.44.81.35,1.67.53,2.6.53s1.8-.18,2.6-.53c.81-.35,1.51-.83,2.12-1.44.61-.61,1.09-1.33,1.44-2.15.35-.83.53-1.72.53-2.67s-.18-1.84-.53-2.67c-.35-.83-.83-1.54-1.44-2.15-.61-.61-1.32-1.09-2.12-1.44-.81-.35-1.67-.53-2.6-.53s-1.8.18-2.6.53c-.81.35-1.51.83-2.12,1.44-.61.61-1.09,1.33-1.44,2.15-.35.83-.53,1.72-.53,2.67Z"/><path class="cls-2" d="M341.06,86.86c0,1.3-.2,2.5-.59,3.6-.39,1.1-.98,2.05-1.75,2.85-.78.81-1.74,1.44-2.9,1.89-1.16.45-2.49.68-4,.68s-2.87-.23-4.03-.68c-1.16-.45-2.12-1.08-2.9-1.89-.77-.81-1.36-1.76-1.75-2.85-.39-1.1-.59-2.29-.59-3.6v-13.49h4.84v13.3c0,.68.11,1.31.33,1.89s.52,1.08.91,1.5c.39.42.86.75,1.41.99.55.24,1.14.36,1.78.36s1.23-.12,1.77-.36c.54-.24,1-.57,1.4-.99.39-.42.7-.92.91-1.5.22-.58.33-1.21.33-1.89v-13.3h4.84v13.49Z"/><path class="cls-2" d="M350.36,73.38h14.91v4.46h-10.08v4.09h9.52v4.46h-9.52v4.46h10.63v4.46h-15.47v-21.95Z"/><path class="cls-2" d="M385.2,78.74c-.39-.5-.92-.86-1.6-1.1-.67-.24-1.31-.36-1.91-.36-.35,0-.71.04-1.08.12-.37.08-.72.21-1.05.39-.33.18-.6.41-.81.7-.21.29-.31.64-.31,1.05,0,.66.25,1.17.74,1.52s1.12.65,1.88.9c.75.25,1.57.5,2.43.74s1.68.6,2.43,1.05c.75.45,1.38,1.06,1.88,1.83.5.76.74,1.79.74,3.07s-.23,2.28-.68,3.19c-.46.91-1.07,1.66-1.84,2.26-.77.6-1.67,1.04-2.7,1.33-1.02.29-2.1.43-3.24.43-1.43,0-2.75-.22-3.97-.65-1.22-.43-2.36-1.14-3.41-2.11l3.44-3.78c.5.66,1.12,1.17,1.88,1.53.75.36,1.54.54,2.34.54.39,0,.79-.05,1.19-.14.4-.09.76-.23,1.08-.42s.58-.42.78-.71c.2-.29.29-.63.29-1.02,0-.66-.25-1.18-.76-1.57-.51-.38-1.14-.71-1.91-.98-.76-.27-1.59-.54-2.48-.81-.89-.27-1.72-.63-2.48-1.08s-1.4-1.05-1.91-1.8c-.51-.74-.76-1.73-.76-2.94s.23-2.21.7-3.1c.47-.89,1.09-1.63,1.86-2.23.78-.6,1.67-1.05,2.68-1.35,1.01-.3,2.06-.45,3.13-.45,1.24,0,2.44.18,3.6.53,1.16.35,2.2.94,3.13,1.77l-3.32,3.63Z"/><path class="cls-2" d="M401.04,77.66h-6.26v-4.28h17.36v4.28h-6.26v17.67h-4.84v-17.67Z"/><path class="cls-4" d="M211.92,43.9H50.85c-3.85,0-6.96,3.11-6.96,6.97v42.75c0,3.86,3.11,6.97,6.96,6.97h161.11c3.85,0,6.96-3.11,6.96-6.97v-42.75c-.1-3.86-3.21-6.97-7.01-6.97Z"/><path class="cls-6" d="M127.62,83.03c-1.38,0-2.64-.23-3.78-.69-1.14-.46-2.11-1.14-2.91-2.05s-1.42-2.04-1.86-3.39c-.44-1.35-.66-2.91-.66-4.7s.22-3.34.66-4.69c.44-1.35,1.06-2.48,1.86-3.39.8-.91,1.77-1.59,2.91-2.05,1.14-.46,2.4-.69,3.78-.69s2.64.23,3.78.69c1.14.46,2.11,1.15,2.91,2.05.8.91,1.42,2.04,1.86,3.39s.66,2.92.66,4.69-.22,3.35-.66,4.7-1.06,2.48-1.86,3.39c-.8.91-1.77,1.59-2.91,2.05-1.14.46-2.4.69-3.78.69ZM127.62,78.98c1.38,0,2.46-.45,3.22-1.35.77-.9,1.16-2.19,1.16-3.87v-3.12c0-1.68-.38-2.97-1.16-3.87-.77-.9-1.84-1.35-3.22-1.35s-2.46.45-3.22,1.35c-.77.9-1.16,2.19-1.16,3.87v3.12c0,1.68.38,2.97,1.16,3.87.77.9,1.84,1.35,3.22,1.35Z"/><path class="cls-6" d="M148.8,83.03c-1.84,0-3.4-.32-4.68-.95-1.28-.63-2.37-1.45-3.27-2.45l3-3.03c1.42,1.59,3.17,2.38,5.25,2.38,1.12,0,1.95-.23,2.49-.68s.81-1.06.81-1.81c0-.57-.16-1.06-.48-1.44-.32-.39-.97-.65-1.95-.79l-2.07-.27c-2.22-.28-3.85-.95-4.88-2.01-1.03-1.06-1.55-2.47-1.55-4.24,0-.94.18-1.8.54-2.58.36-.78.88-1.45,1.55-2.01.67-.56,1.49-1,2.46-1.31.97-.31,2.07-.47,3.31-.47,1.58,0,2.97.25,4.17.75,1.2.5,2.23,1.23,3.09,2.19l-3.03,3.07c-.5-.57-1.11-1.04-1.82-1.41-.71-.37-1.6-.55-2.68-.55-1.02,0-1.78.18-2.28.53-.5.36-.75.85-.75,1.48,0,.71.2,1.23.58,1.54s1.02.54,1.91.68l2.07.33c2.16.34,3.76,1.01,4.8,2,1.04.99,1.56,2.4,1.56,4.22,0,1-.18,1.92-.54,2.76s-.88,1.56-1.58,2.16c-.69.6-1.54,1.07-2.56,1.4-1.02.33-2.18.5-3.48.5Z"/><path class="cls-6" d="M166.8,82.67h-4.56v-20.94h9.93c.96,0,1.83.16,2.61.48.78.32,1.45.78,2,1.36.55.59.98,1.3,1.28,2.12.3.82.45,1.73.45,2.73,0,1.42-.32,2.66-.95,3.72s-1.58,1.83-2.87,2.31l4.11,8.22h-5.07l-3.66-7.68h-3.27v7.68ZM171.6,71.15c.68,0,1.21-.17,1.61-.52.39-.35.58-.86.58-1.54v-1.32c0-.68-.2-1.19-.58-1.54-.39-.35-.93-.52-1.61-.52h-4.8v5.46h4.8Z"/><path class="cls-6" d="M183.96,61.73h7.89c1.38,0,2.64.22,3.78.66,1.14.44,2.11,1.09,2.91,1.96s1.42,1.96,1.86,3.27c.44,1.31.66,2.83.66,4.57s-.22,3.27-.66,4.58c-.44,1.31-1.06,2.4-1.86,3.27s-1.77,1.53-2.91,1.96c-1.14.44-2.4.66-3.78.66h-7.89v-20.94ZM191.85,78.62c1.36,0,2.43-.38,3.21-1.14.78-.76,1.17-1.98,1.17-3.66v-3.24c0-1.68-.39-2.9-1.17-3.66-.78-.76-1.85-1.14-3.21-1.14h-3.33v12.84h3.33Z"/><polygon class="cls-3" points="98.89 50.64 78.46 50.64 78.46 43.9 55.51 43.9 55.51 50.64 43.9 50.64 43.9 90.06 49.14 90.06 49.14 99.31 55.51 99.31 55.51 100.59 78.46 100.59 78.46 90.06 98.89 90.06 98.89 50.64"/><path class="cls-5" d="M93.58,43.9h-19.44v17.05c5.82-4.6,12.19-7.17,17.57-8.55.89-.25,1.83.3,2.02,1.19.25.89-.3,1.78-1.18,2.03-5.62,1.43-12.48,4.25-18.35,9.74v15.72c1.43-3.11,3.31-5.78,5.62-8.11,4.64-4.6,10.36-6.97,15.05-8.2.89-.25,1.83.3,2.02,1.19.25.89-.3,1.78-1.18,2.03-2.32.59-4.98,1.53-7.55,2.97-9.37,5.09-13.91,14.04-13.91,27.28v2.37h19.39c3.85,0,6.96-3.11,6.96-6.97v-42.75c-.1-3.86-3.21-6.97-7.01-6.97ZM58.11,43.9v31.73c-1.13-.89-2.27-1.63-3.36-2.27-3.85-2.27-7.65-3.66-10.86-4.5v-17.99c0-3.86,3.11-6.97,6.96-6.97h7.25ZM43.9,72.32c2.76.79,5.97,2.03,9.18,3.86,1.68.99,3.4,2.22,5.08,3.71v15.32c-2.17-4.55-5.38-8.2-9.57-10.78-1.58-.94-3.16-1.68-4.69-2.27v-9.84ZM43.9,85.76c.89.4,1.78.84,2.66,1.38,4.88,2.92,8.24,7.41,10.02,13.44h-5.72c-3.85,0-6.96-3.11-6.96-6.97v-7.86ZM70.79,43.9v20.02c-4.1,4.1-7.2,8.95-9.33,14.53v-34.55h9.33ZM70.79,68.91v23.77c-1.78-4.7-4.14-8.45-6.76-11.52,1.58-4.6,3.85-8.7,6.76-12.26ZM62.89,85.12c2.91,3.9,5.38,8.95,6.76,15.47h-8.19v-2.37c0-4.7.49-9.05,1.43-13.1Z"/><g class="cls-1"><rect class="cls-5" x="41.32" y="41.32" width="61.84" height="61.85"/></g></svg>