<?xml version="1.0" standalone="no"?>
<!DOCTYPE svg PUBLIC "-//W3C//DTD SVG 20010904//EN"
 "http://www.w3.org/TR/2001/REC-SVG-20010904/DTD/svg10.dtd">
<svg version="1.0" xmlns="http://www.w3.org/2000/svg"
 width="330.000000pt" height="330.000000pt" viewBox="0 0 330.000000 330.000000"
 preserveAspectRatio="xMidYMid meet">
<metadata>
Created by potrace 1.11, written by Peter Selinger 2001-2013
</metadata>
<g transform="translate(0.000000,330.000000) scale(0.100000,-0.100000)"
fill="#000000" stroke="none">
<path d="M1437 3293 c-4 -3 -7 -265 -7 -581 0 -543 -1 -574 -17 -567 -85 37
-216 82 -300 104 l-103 26 -2 212 c-4 285 -22 287 -26 4 l-2 -210 -43 2 c-36
2 -42 -1 -45 -20 -3 -17 3 -24 25 -29 69 -15 63 5 63 -221 0 -187 -1 -205 -17
-199 -9 4 -70 16 -135 28 -111 19 -121 19 -136 4 -27 -26 1 -41 115 -60 56
-10 118 -22 138 -27 l35 -10 0 -199 c0 -110 -2 -200 -5 -200 -3 0 -22 8 -43
19 -58 29 -196 70 -291 85 -72 12 -88 12 -100 1 -24 -24 -5 -43 51 -50 119
-15 303 -72 366 -113 22 -14 22 -16 22 -272 0 -141 -3 -298 -6 -348 l-7 -90
-32 66 c-87 180 -251 302 -469 347 -82 16 -101 12 -94 -21 2 -13 26 -23 97
-40 239 -59 377 -182 451 -401 31 -94 47 -229 53 -438 2 -83 4 -90 22 -90 19
0 20 9 27 345 4 226 12 386 22 465 16 116 61 326 76 354 11 21 122 -118 174
-218 94 -183 116 -304 125 -666 6 -279 6 -280 28 -283 16 -2 24 3 27 20 3 13
7 178 10 368 4 368 12 441 67 609 35 108 91 231 101 225 29 -18 107 -239 139
-390 19 -87 22 -142 25 -444 3 -190 7 -355 10 -368 3 -17 11 -22 27 -20 22 3
22 4 28 283 9 362 31 483 125 666 41 79 160 236 171 226 7 -8 41 -143 57 -232
29 -155 38 -273 44 -605 7 -326 8 -335 27 -335 18 0 20 7 22 90 6 209 22 344
53 438 73 218 213 343 450 400 72 18 96 28 98 41 7 33 -12 37 -94 21 -106 -22
-205 -65 -285 -124 -79 -58 -129 -118 -179 -212 l-37 -70 -6 83 c-4 46 -7 201
-7 344 0 260 0 262 23 276 62 41 246 98 365 113 56 7 76 26 51 50 -27 25 -251
-23 -378 -81 -29 -13 -55 -24 -57 -24 -2 0 -4 90 -4 200 l0 199 38 11 c20 5
82 18 137 27 111 18 140 33 113 59 -15 15 -25 15 -136 -4 -65 -12 -126 -24
-135 -28 -16 -6 -17 12 -17 200 l0 206 28 6 c59 13 63 15 60 37 -3 19 -9 22
-45 20 l-43 -2 -2 210 c-4 285 -22 285 -26 -1 l-2 -215 -103 -26 c-84 -22
-215 -67 -299 -104 -17 -7 -18 24 -18 574 0 510 -2 581 -15 581 -13 0 -15 -72
-15 -587 l0 -588 -88 -50 c-48 -27 -94 -50 -102 -50 -8 0 -54 23 -102 50 l-88
50 0 588 c0 323 -4 587 -8 587 -5 0 -12 -3 -15 -7z m-271 -1118 c64 -20 149
-50 190 -67 l74 -31 0 -125 0 -125 -37 -41 c-21 -23 -50 -57 -64 -76 l-26 -34
-84 41 c-46 22 -112 51 -146 63 l-63 23 0 203 c0 195 1 204 19 204 11 0 72
-16 137 -35z m1124 -169 l0 -203 -62 -23 c-35 -12 -101 -40 -147 -63 l-83 -40
-26 34 c-15 19 -44 53 -64 75 l-38 41 0 125 0 126 83 33 c99 40 283 98 315 99
l22 0 0 -204z m-753 10 l63 -37 -33 -26 c-17 -15 -49 -42 -69 -62 l-38 -35 0
103 c0 56 3 100 8 98 4 -2 35 -21 69 -41z m303 -58 l0 -102 -37 35 c-21 20
-53 47 -71 62 l-32 26 67 40 c38 23 69 41 71 41 1 0 2 -46 2 -102z m-151 -45
c20 -15 62 -52 94 -82 l57 -54 0 -105 0 -104 -66 -71 c-36 -40 -78 -88 -93
-109 -14 -21 -28 -38 -31 -38 -3 0 -18 19 -35 42 -16 23 -58 72 -92 109 l-63
66 0 105 0 104 53 50 c52 51 128 114 136 114 2 0 20 -12 40 -27z m-592 -204
c43 -17 99 -42 125 -56 l47 -25 -25 -39 c-29 -46 -115 -219 -134 -269 -7 -19
-15 -36 -16 -38 -1 -2 -21 9 -43 24 l-41 27 0 203 c0 112 2 204 5 204 2 0 39
-14 82 -31z m333 -44 c0 -82 -1 -83 -57 -38 l-22 18 37 48 c20 26 38 47 39 47
2 0 3 -34 3 -75z m500 4 l19 -26 -27 -20 c-53 -39 -52 -40 -52 44 l0 78 21
-25 c11 -14 28 -37 39 -51z m360 -133 l0 -203 -41 -27 c-22 -15 -42 -26 -43
-24 -1 2 -19 42 -39 90 -21 48 -59 126 -86 172 l-48 84 39 22 c39 22 196 89
211 90 4 0 7 -92 7 -204z m-911 14 l51 -40 -1 -368 0 -367 -27 75 c-50 136
-151 296 -233 364 l-30 26 43 102 c47 110 123 248 138 248 4 0 31 -18 59 -40z
m653 -32 c23 -40 62 -119 86 -176 l43 -102 -30 -26 c-82 -68 -183 -228 -233
-364 l-27 -75 0 367 -1 368 51 40 c28 22 55 40 59 40 5 0 28 -33 52 -72z
m-477 -143 c30 -39 55 -76 55 -83 0 -6 -17 -46 -39 -89 -21 -43 -51 -116 -66
-163 -15 -47 -31 -96 -35 -110 -5 -14 -9 97 -9 264 l-1 289 20 -18 c12 -11 45
-51 75 -90z m284 -187 l0 -293 -24 80 c-31 108 -47 149 -91 238 -33 67 -36 80
-25 99 13 26 129 168 136 168 3 0 5 -132 4 -292z m-769 32 c0 -3 -13 -57 -30
-120 l-29 -115 -1 138 0 138 30 -18 c17 -9 30 -20 30 -23z m1220 -97 l-1 -138
-29 115 c-17 63 -30 117 -30 120 0 5 50 39 58 40 1 0 2 -62 2 -137z"/>
</g>
</svg>
