<?xml version="1.0" standalone="no"?>
<!DOCTYPE svg PUBLIC "-//W3C//DTD SVG 20010904//EN"
 "http://www.w3.org/TR/2001/REC-SVG-20010904/DTD/svg10.dtd">
<svg version="1.0" xmlns="http://www.w3.org/2000/svg"
 width="1024.000000pt" height="1024.000000pt" viewBox="0 0 1024.000000 1024.000000"
 preserveAspectRatio="xMidYMid meet">
<metadata>
Created by potrace 1.14, written by Peter Selinger 2001-2017
</metadata>
<g transform="translate(0.000000,1024.000000) scale(0.100000,-0.100000)"
fill="#000000" stroke="none">
<path d="M1040 10220 c-253 -45 -480 -162 -661 -340 -181 -178 -286 -367 -352
-630 -21 -85 -21 -91 -24 -1801 l-4 -1716 58 -16 c657 -187 1151 -384 1678
-670 278 -151 616 -368 820 -528 8 -5 11 873 11 2857 l1 2864 -716 -1 c-625
-1 -728 -4 -811 -19z"/>
<path d="M3173 7124 c0 -2721 2 -3112 14 -3083 8 19 38 93 68 164 305 748 776
1511 1279 2074 109 121 155 171 241 261 l82 85 0 1808 0 1807 -842 0 -843 0 1
-3116z"/>
<path d="M5463 8705 c0 -844 2 -1535 5 -1535 3 0 64 44 136 98 720 539 1505
948 2397 1246 371 124 639 198 717 198 257 -1 388 -318 209 -504 -48 -49 -92
-71 -212 -103 -298 -80 -740 -222 -872 -281 -17 -8 -33 -14 -36 -14 -10 0
-313 -128 -429 -181 -382 -174 -750 -381 -1093 -614 -96 -66 -298 -212 -340
-246 -11 -9 -58 -48 -105 -85 -47 -38 -96 -78 -109 -89 -48 -39 -236 -209
-248 -223 -14 -17 -18 -2812 -4 -2812 5 0 36 55 69 123 60 119 123 237 153
287 9 14 51 81 94 150 116 186 336 487 435 593 8 9 40 44 70 78 111 127 353
361 480 465 19 16 37 31 40 34 3 4 39 33 80 65 414 328 907 614 1410 817 41
16 84 34 95 39 117 53 692 240 815 265 133 28 270 -38 332 -159 33 -65 35
-186 4 -254 -30 -63 -87 -122 -146 -150 -25 -11 -94 -33 -155 -49 -60 -15
-200 -59 -310 -96 -110 -37 -207 -70 -215 -72 -59 -17 -279 -112 -470 -203
-63 -30 -117 -54 -120 -55 -3 0 -16 -8 -30 -17 -14 -9 -50 -30 -80 -46 -243
-127 -609 -367 -781 -513 -175 -147 -194 -164 -306 -273 -498 -485 -869 -1081
-1109 -1784 -31 -88 -66 -200 -80 -250 -35 -126 -82 -305 -88 -335 -2 -14 -11
-57 -20 -95 -8 -39 -17 -82 -19 -95 -19 -99 -37 -200 -41 -225 -33 -207 -48
-326 -62 -470 -4 -38 -8 -83 -10 -100 -1 -16 -5 -75 -9 -130 -4 -55 -9 -122
-11 -150 -2 -27 -7 -254 -10 -503 l-7 -452 1814 1 c1962 1 1875 -1 2059 55
284 87 527 270 692 524 92 143 166 342 186 505 4 33 7 1853 7 4045 0 3845 -1
3988 -19 4069 -103 473 -433 848 -861 980 -189 59 -35 55 -2046 58 l-1846 4 0
-1536z"/>
<path d="M4819 5677 c-15 -18 -76 -98 -136 -178 -397 -530 -732 -1142 -966
-1769 -79 -211 -82 -223 -65 -241 11 -11 111 -134 171 -209 165 -207 426 -596
550 -820 13 -25 46 -83 72 -130 66 -119 255 -506 255 -522 0 -8 4 -18 8 -23 5
-6 19 -35 31 -65 13 -30 29 -68 36 -85 8 -16 29 -68 48 -114 l34 -84 0 2137
c0 1175 -3 2136 -6 2135 -3 0 -18 -15 -32 -32z"/>
<path d="M0 4219 l0 -889 22 -9 c231 -90 541 -238 738 -352 543 -313 1006
-736 1382 -1260 144 -200 244 -366 380 -629 27 -52 50 -96 52 -97 1 -1 2 619
1 1378 l0 1381 -40 35 c-277 239 -615 482 -905 648 -243 140 -616 318 -910
435 -117 47 -337 129 -360 134 -8 2 -67 21 -130 41 -63 20 -141 45 -172 55
l-58 19 0 -890z"/>
<path d="M3426 2769 c-23 -100 -46 -199 -49 -219 -3 -14 -10 -52 -16 -85 -6
-33 -13 -71 -16 -85 -24 -120 -87 -539 -100 -670 -3 -30 -7 -66 -9 -80 -5 -27
-12 -104 -21 -215 -3 -38 -8 -88 -10 -110 -2 -22 -7 -94 -10 -160 -4 -66 -8
-147 -11 -180 -2 -33 -6 -264 -9 -512 l-5 -453 740 0 c407 0 740 2 740 4 0 19
-79 342 -121 494 -222 813 -562 1541 -1022 2192 -78 109 -75 107 -81 79z"/>
<path d="M3 1883 c2 -439 6 -809 10 -823 7 -26 14 -60 21 -96 2 -11 18 -63 36
-115 116 -347 392 -634 735 -764 39 -15 77 -28 85 -30 8 -2 40 -10 70 -18 30
-8 73 -18 95 -22 42 -8 1235 -19 1235 -12 0 8 -79 244 -114 341 -111 306 -294
666 -464 916 -99 144 -101 148 -186 255 -348 439 -776 787 -1299 1053 -84 43
-169 85 -190 95 l-38 17 4 -797z"/>
</g>
</svg>
