<svg xmlns="http://www.w3.org/2000/svg" width="128" height="128"><path fill="none" d="M0 0h128v128H0z" style="fill:#fff;fill-opacity:0;stroke:none"/><path d="M77 47v64.008C77 118.184 71.184 124 64.008 124h-.015C56.817 124 51 118.184 51 111.008V47c0-7.176 5.816-12.992 12.992-12.992h.015C71.184 34.008 77 39.824 77 47zm0 0" style="fill:none;stroke:#000;stroke-width:7.99722;stroke-linecap:round;stroke-linejoin:round;stroke-miterlimit:4;stroke-opacity:1"/><path d="M77 46.719v64.57C77 118.31 71.309 124 64.289 124h-.578C56.69 124 51 118.309 51 111.29V46.718c0-7.02 5.691-12.711 12.71-12.711h.579c7.02 0 12.711 5.691 12.711 12.71zm0 0" style="fill:#000;fill-opacity:1;fill-rule:nonzero;stroke:#fff;stroke-width:3.99861;stroke-linecap:round;stroke-linejoin:round;stroke-miterlimit:4;stroke-opacity:1"/><path d="M64.008 52.004a4.995 4.995 0 0 1-4.996-4.996 4.993 4.993 0 0 1 4.996-4.996 4.995 4.995 0 1 1 0 9.992zM64.008 68.004a4.993 4.993 0 0 1-4.996-4.996 4.995 4.995 0 1 1 9.992 0 4.995 4.995 0 0 1-4.996 4.996zm0 0" style="fill:#333;fill-opacity:1;fill-rule:nonzero;stroke:none"/><path d="M64.008 84.008a4.995 4.995 0 0 1-4.996-4.996 4.993 4.993 0 0 1 4.996-4.996 4.995 4.995 0 1 1 0 9.992zm0 0" style="fill:#0f0;fill-opacity:1;fill-rule:nonzero;stroke:none"/><path d="M64.008 100.004a4.996 4.996 0 0 1-4.996-5 4.995 4.995 0 1 1 9.992 0c0 2.762-2.238 5-4.996 5zM64.008 116.004a4.995 4.995 0 1 1-.001-9.991 4.995 4.995 0 0 1 0 9.99zm0 0" style="fill:#333;fill-opacity:1;fill-rule:nonzero;stroke:none"/></svg>