<svg xmlns="http://www.w3.org/2000/svg" xml:space="preserve" width="128" height="128"><path fill="none" d="M0 0h128v128H0z" style="fill:#fff;fill-opacity:0;stroke:none"/><path d="M77 78.73v32.543C77 118.301 71.3 124 64.273 124h-.546C56.699 124 51 118.3 51 111.273V78.73C51 71.7 56.7 66 63.727 66h.546C71.301 66 77 71.7 77 78.73zm0 0" style="fill:none;stroke:#000;stroke-width:7.99733;stroke-linecap:round;stroke-linejoin:round;stroke-miterlimit:4;stroke-opacity:1"/><path d="M77 78.934v32.132C77 118.211 71.21 124 64.066 124h-.132C56.789 124 51 118.211 51 111.066V78.934C51 71.793 56.79 66 63.934 66h.132C71.211 66 77 71.793 77 78.934zm0 0" style="fill:#000;fill-opacity:1;fill-rule:nonzero;stroke:#fff;stroke-width:3.99867;stroke-linecap:round;stroke-linejoin:round;stroke-miterlimit:4;stroke-opacity:1"/><path d="M64 84a4.995 4.995 0 1 1-.001-9.993A4.995 4.995 0 0 1 64 84Zm0 0" style="fill:#0f0;fill-opacity:1;fill-rule:nonzero;stroke:none"/><path d="M64 100a4.995 4.995 0 1 1-.001-9.99A4.995 4.995 0 0 1 64 100ZM64 115.996A4.998 4.998 0 0 1 59.004 111 4.998 4.998 0 0 1 64 106.004 4.998 4.998 0 0 1 68.996 111 4.998 4.998 0 0 1 64 115.996zm0 0" style="fill:#333;fill-opacity:1;fill-rule:nonzero;stroke:none"/></svg>