<svg xmlns="http://www.w3.org/2000/svg" width="128" height="128"><path fill="none" d="M0 0h128v128H0z" style="fill:#fff;fill-opacity:0;stroke:none"/><path d="M-26.343 30.786h4.305c.93 0 1.684.754 1.684 1.684v.072c0 .93-.754 1.684-1.684 1.684h-4.305c-.93 0-1.684-.754-1.684-1.684v-.072c0-.93.754-1.684 1.684-1.684Zm0 0" style="fill:none;stroke-width:1.058;stroke-linecap:round;stroke-linejoin:round;stroke:#000;stroke-opacity:1;stroke-miterlimit:4" transform="matrix(0 7.55891 -7.55891 0 309.71 277.855)"/><path d="M-26.316 30.786h4.25a1.71 1.71 0 0 1 1.712 1.711v.018a1.71 1.71 0 0 1-1.711 1.71h-4.251a1.711 1.711 0 0 1-1.711-1.71v-.018c0-.945.766-1.71 1.71-1.71Zm0 0" style="fill-rule:nonzero;fill:#000;fill-opacity:1;stroke-width:.529;stroke-linecap:round;stroke-linejoin:round;stroke:#fff;stroke-opacity:1;stroke-miterlimit:4" transform="matrix(0 7.55891 -7.55891 0 309.71 277.855)"/><path d="M64 84a4.995 4.995 0 1 1-.001-9.993A4.995 4.995 0 0 1 64 84Zm0 0" style="stroke:none;fill-rule:nonzero;fill:#333;fill-opacity:1"/><path d="M64 100a4.995 4.995 0 1 1-.001-9.99A4.995 4.995 0 0 1 64 100Zm0 0" style="stroke:none;fill-rule:nonzero;fill:red;fill-opacity:1"/><path d="M64 115.996A4.998 4.998 0 0 1 59.004 111 4.998 4.998 0 0 1 64 106.004 4.998 4.998 0 0 1 68.996 111 4.998 4.998 0 0 1 64 115.996Zm0 0" style="stroke:none;fill-rule:nonzero;fill:#333;fill-opacity:1"/></svg>