<?xml version="1.0" encoding="UTF-8"?>
<svg width="24px" height="24px" viewBox="0 0 24 24" version="1.1" xmlns="http://www.w3.org/2000/svg" xmlns:xlink="http://www.w3.org/1999/xlink">
    <title>icon/24/compass-cardinal-24</title>
    <g id="icon/24/compass-cardinal-24" stroke="none" stroke-width="1" fill="none" fill-rule="evenodd">
        <path d="M12,0 C12.8284271,0 13.5,0.671572875 13.5,1.5 C13.5,2.32842712 12.8284271,3 12,3 C11.1715729,3 10.5,2.32842712 10.5,1.5 C10.5,0.671572875 11.1715729,0 12,0 Z M20,11.5 L23.25,11.5 C23.6642136,11.5 24,11.8357864 24,12.25 C24,12.6642136 23.6642136,13 23.25,13 L20,13 L20,11.5 Z M0.75,11.5 L4,11.5 L4,13 L0.75,13 C0.335786438,13 0,12.6642136 0,12.25 C0,11.8357864 0.335786438,11.5 0.75,11.5 Z M11.25,20 L12.75,20 L12.75,23.25 C12.75,23.6642136 12.4142136,24 12,24 C11.5857864,24 11.25,23.6642136 11.25,23.25 L11.25,20 Z M18,1.60769515 C18.3587195,1.81480194 18.4816258,2.27349474 18.2745191,2.63221421 L17.5245191,3.93125231 C17.3174123,4.28997178 16.8587195,4.41287815 16.5,4.20577137 C16.1412805,3.99866458 16.0183742,3.53997178 16.2254809,3.18125231 L16.9754809,1.88221421 C17.1825877,1.52349474 17.6412805,1.40058837 18,1.60769515 Z M22.3981821,6.00587726 C22.6052889,6.36459673 22.4823825,6.82328954 22.1236631,7.03039632 L20.824625,7.78039632 C20.4659055,7.9875031 20.0072127,7.86459673 19.8001059,7.50587726 C19.5929991,7.1471578 19.7159055,6.68846499 20.074625,6.48135821 L21.3736631,5.73135821 C21.7323825,5.52425143 22.1910753,5.6471578 22.3981821,6.00587726 Z M22.3981821,18.0219343 C22.1910753,18.3806537 21.7323825,18.5035601 21.3736631,18.2964533 L20.074625,17.5464533 C19.7159055,17.3393465 19.5929991,16.8806537 19.8001059,16.5219343 C20.0072127,16.1632148 20.4659055,16.0403084 20.824625,16.2474152 L22.1236631,16.9974152 C22.4823825,17.204522 22.6052889,17.6632148 22.3981821,18.0219343 Z M18,22.4201164 C17.6412805,22.6272231 17.1825877,22.5043168 16.9754809,22.1455973 L16.2254809,20.8465592 C16.0183742,20.4878397 16.1412805,20.0291469 16.5,19.8220402 C16.8587195,19.6149334 17.3174123,19.7378397 17.5245191,20.0965592 L18.2745191,21.3955973 C18.4816258,21.7543168 18.3587195,22.2130096 18,22.4201164 Z M5.98394301,22.4201164 C5.62522355,22.2130096 5.50231718,21.7543168 5.70942396,21.3955973 L6.45942396,20.0965592 C6.66653074,19.7378397 7.12522355,19.6149334 7.48394301,19.8220402 C7.84266248,20.0291469 7.96556885,20.4878397 7.75846207,20.8465592 L7.00846207,22.1455973 C6.80135529,22.5043168 6.34266248,22.6272231 5.98394301,22.4201164 Z M1.5857609,18.0219343 C1.37865412,17.6632148 1.50156049,17.204522 1.86027996,16.9974152 L3.15931806,16.2474152 C3.51803753,16.0403084 3.97673033,16.1632148 4.18383711,16.5219343 C4.3909439,16.8806537 4.26803753,17.3393465 3.90931806,17.5464533 L2.61027996,18.2964533 C2.25156049,18.5035601 1.79286768,18.3806537 1.5857609,18.0219343 Z M1.5857609,6.00587726 C1.79286768,5.6471578 2.25156049,5.52425143 2.61027996,5.73135821 L3.90931806,6.48135821 C4.26803753,6.68846499 4.3909439,7.1471578 4.18383711,7.50587726 C3.97673033,7.86459673 3.51803753,7.9875031 3.15931806,7.78039632 L1.86027996,7.03039632 C1.50156049,6.82328954 1.37865412,6.36459673 1.5857609,6.00587726 Z M5.98394301,1.60769515 C6.34266248,1.40058837 6.80135529,1.52349474 7.00846207,1.88221421 L7.75846207,3.18125231 C7.96556885,3.53997178 7.84266248,3.99866458 7.48394301,4.20577137 C7.12522355,4.41287815 6.66653074,4.28997178 6.45942396,3.93125231 L5.70942396,2.63221421 C5.50231718,2.27349474 5.62522355,1.81480194 5.98394301,1.60769515 Z" id="Shape" fill="#000000" fill-rule="nonzero"></path>
    </g>
</svg>