<?xml version="1.0" encoding="UTF-8" standalone="no"?>
<svg
   xmlns:dc="http://purl.org/dc/elements/1.1/"
   xmlns:cc="http://creativecommons.org/ns#"
   xmlns:rdf="http://www.w3.org/1999/02/22-rdf-syntax-ns#"
   xmlns:svg="http://www.w3.org/2000/svg"
   xmlns="http://www.w3.org/2000/svg"
   id="svg1836"
   version="1.1"
   viewBox="0 0 10.583333 10.583334"
   height="40"
   width="40">
  <defs
     id="defs1830" />
  <metadata
     id="metadata1833">
    <rdf:RDF>
      <cc:Work
         rdf:about="">
        <dc:format>image/svg+xml</dc:format>
        <dc:type
           rdf:resource="http://purl.org/dc/dcmitype/StillImage" />
        <dc:title></dc:title>
      </cc:Work>
    </rdf:RDF>
  </metadata>
  <g
     id="layer1">
    <g
       id="g940"
       transform="matrix(0.62499999,0,0,0.62499999,1.6536457,9.9218753)">
      <g
         id="g854"
         transform="matrix(0.26458334,0,0,0.26458334,8.5375991,-14.510249)">
        <rect
           y="-5.1581163"
           x="-42.268089"
           height="64"
           width="64"
           id="rect2987-3"
           style="fill:#ffffff;fill-opacity:1;fill-rule:nonzero;stroke:none;stroke-width:0.636824" />
        <rect
           y="-2.1711454"
           x="-39.28112"
           height="58.026058"
           width="58.026062"
           id="rect2989-6"
           style="fill:none;stroke:#000000;stroke-width:3.97394;stroke-miterlimit:4;stroke-dasharray:none;stroke-opacity:1" />
      </g>
      <g
         style="font-style:normal;font-variant:normal;font-weight:normal;font-stretch:normal;font-size:30px;line-height:1.25;font-family:Roboto;font-variant-ligatures:normal;font-variant-caps:normal;font-variant-numeric:normal;font-feature-settings:normal;text-align:start;letter-spacing:0px;word-spacing:0px;writing-mode:lr-tb;text-anchor:start;fill:#000000;fill-opacity:1;stroke:none;stroke-width:3.75"
         id="text841"
         aria-label="60"
         transform="matrix(0.26458334,0,0,0.26458334,-31.149901,-17.156082)">
        <path
           id="path1037"
           style="font-style:normal;font-variant:normal;font-weight:normal;font-stretch:normal;font-family:PoliceSNCF;stroke-width:3.75"
           d="m 132.39359,30.836025 h 5.39062 q 0,-1.640625 -0.76172,-3.251953 -0.76172,-1.611328 -2.02148,-2.958984 -1.31836,-1.289063 -2.95899,-2.021485 -1.61133,-0.761718 -3.25195,-0.761718 -1.64063,0 -3.28125,0.761718 -1.61133,0.761719 -2.90039,2.021485 -1.31836,1.318359 -2.08008,2.958984 -0.76172,1.611328 -0.73242,3.251953 v 12.011719 q 0,1.640625 0.73242,3.251953 0.76172,1.611328 2.08008,2.929688 1.28906,1.318359 2.90039,2.050781 1.61133,0.761719 3.28125,0.761719 1.64062,0 3.25195,-0.761719 1.61133,-0.761719 2.95899,-2.050781 1.28906,-1.289063 2.02148,-2.929688 0.76172,-1.611328 0.76172,-3.251953 0,-1.640625 -0.76172,-3.28125 -0.76172,-1.611328 -2.02148,-2.929688 -1.31836,-1.289062 -2.95899,-2.050781 -1.61133,-0.761719 -3.25195,-0.732422 -1.37695,0 -2.31445,0.322266 -0.9375,0.351562 -1.28907,0.585937 v -3.925781 q 0,-0.673828 0.29297,-1.318359 0.29297,-0.644531 0.84961,-1.171875 0.49805,-0.498047 1.17188,-0.791016 0.64453,-0.292969 1.28906,-0.322265 0.67383,0 1.31836,0.322265 0.64453,0.292969 1.17187,0.791016 0.49805,0.527344 0.79102,1.171875 0.32227,0.644531 0.32227,1.318359 z m 0,12.011719 q 0,0.673828 -0.32227,1.289062 -0.29297,0.673829 -0.79102,1.171875 -0.52734,0.527344 -1.17187,0.820313 -0.67383,0.292969 -1.31836,0.322266 -0.67383,0 -1.28906,-0.322266 -0.67383,-0.292969 -1.17188,-0.820313 -0.52734,-0.498046 -0.84961,-1.171875 -0.29297,-0.644531 -0.29297,-1.289062 0,-0.673828 0.29297,-1.318359 0.29297,-0.644532 0.84961,-1.171875 0.49805,-0.498047 1.17188,-0.820313 0.64453,-0.292969 1.28906,-0.292969 0.67383,0 1.31836,0.292969 0.64453,0.292969 1.17187,0.820313 0.49805,0.527343 0.79102,1.171875 0.32227,0.644531 0.32227,1.318359 z" />
        <path
           id="path1039"
           style="font-style:normal;font-variant:normal;font-weight:normal;font-stretch:normal;font-family:PoliceSNCF;stroke-width:3.75"
           d="m 150.67484,51.841885 q 1.64062,0 3.25195,-0.761719 1.61133,-0.761719 2.95898,-2.050781 1.28907,-1.289063 2.02149,-2.929688 0.76172,-1.611328 0.76172,-3.251953 V 30.836025 q 0,-1.640625 -0.76172,-3.251953 -0.76172,-1.611328 -2.02149,-2.958984 -1.31836,-1.289063 -2.95898,-2.021485 -1.61133,-0.761718 -3.25195,-0.761718 -1.64063,0 -3.28125,0.761718 -1.61133,0.761719 -2.9004,2.021485 -1.31835,1.318359 -2.08007,2.958984 -0.76172,1.611328 -0.73243,3.251953 v 12.011719 q 0,1.640625 0.73243,3.251953 0.76172,1.611328 2.08007,2.929688 1.28907,1.318359 2.9004,2.050781 1.64062,0.761719 3.28125,0.761719 z m 0,-5.390625 q -0.67383,0 -1.28907,-0.322266 -0.67383,-0.292969 -1.17187,-0.820313 -0.52735,-0.498046 -0.84961,-1.171875 -0.29297,-0.644531 -0.29297,-1.289062 V 30.836025 q 0,-0.673828 0.29297,-1.318359 0.29297,-0.644531 0.84961,-1.171875 0.49804,-0.498047 1.17187,-0.791016 0.64453,-0.292969 1.28907,-0.322265 0.67382,0 1.31835,0.322265 0.64454,0.292969 1.17188,0.791016 0.49805,0.527344 0.79102,1.171875 0.29296,0.673828 0.32226,1.318359 v 12.011719 q 0,0.673828 -0.32226,1.289062 -0.29297,0.673829 -0.79102,1.171875 -0.52734,0.527344 -1.17188,0.820313 -0.64453,0.322266 -1.31835,0.322266 z" />
      </g>
    </g>
  </g>
</svg>
