<svg xmlns="http://www.w3.org/2000/svg" width="40" height="40" viewBox="0 0 10.583 10.583"><defs><marker id="a" orient="auto" refX="0" refY="0" style="overflow:visible"><path d="M8.719 4.034-2.207.016 8.719-4.002c-1.746 2.372-1.736 5.618 0 8.036z" style="fill:#333;fill-opacity:1;fill-rule:evenodd;stroke:#333;stroke-width:.625;stroke-linejoin:round;stroke-opacity:1" transform="matrix(.3 0 0 .3 -.69 0)"/></marker></defs><path d="M23.247-36.58h1.882c.42 0 .758.338.758.757v.008c0 .42-.338.758-.758.758h-1.882a.756.756 0 0 1-.757-.758v-.008c0-.42.337-.757.757-.757zM23.247-44.318h1.882c.42 0 .758.338.758.758v.008c0 .42-.338.757-.758.757h-1.882a.756.756 0 0 1-.757-.757v-.008c0-.42.337-.758.757-.758z" style="fill:#333;fill-opacity:1;stroke:none;stroke-width:.234196;stroke-linecap:round;stroke-linejoin:round;paint-order:markers stroke fill" transform="rotate(90 -6.9 -27.495)"/><path d="M35.819 29.283V25.51M43.556 29.283V25.51" style="fill:none;stroke:#333;stroke-width:.377438px;stroke-linecap:butt;stroke-linejoin:miter;stroke-opacity:1" transform="translate(-34.396 -20.595)"/><path d="M36.668 28.151h6.039" style="fill:none;stroke:#333;stroke-width:.378032;stroke-linecap:butt;stroke-linejoin:miter;stroke-miterlimit:4;stroke-dasharray:none;stroke-opacity:1;marker-start:url(#a);marker-end:url(#Arrow2Send-7)" transform="translate(-34.396 -20.595)"/><path d="M36.102 25.132a.283.283 0 0 1-.283.283.283.283 0 0 1-.283-.283.283.283 0 0 1 .283-.283.283.283 0 0 1 .283.283M43.84 24.188a.283.283 0 0 1-.284.283.283.283 0 0 1-.283-.283.283.283 0 0 1 .283-.283.283.283 0 0 1 .283.283" style="fill:#fff;fill-opacity:1;stroke:none;stroke-width:.567049;stroke-miterlimit:4;stroke-dasharray:none;stroke-dashoffset:0;stroke-opacity:1" transform="translate(-34.396 -20.595)"/><g aria-label="ZEP" style="font-style:normal;font-weight:400;font-size:1.8428px;line-height:1.25;font-family:sans-serif;letter-spacing:0;word-spacing:0;fill:#333;fill-opacity:1;stroke:none;stroke-width:.04607"><path d="M37.815 25.51h1.129v.209l-.72.872h.74v.261h-1.17v-.21l.72-.871h-.7zM39.216 25.51h.935v.26h-.588v.251h.553v.262h-.553v.308h.608v.261h-.955zM40.475 25.51h.575q.257 0 .393.113.138.114.138.324 0 .212-.138.326-.136.113-.393.113h-.228v.466h-.347zm.347.25v.375h.191q.101 0 .156-.048.055-.05.055-.14 0-.09-.055-.138-.055-.049-.156-.049z" style="font-weight:700;fill:#333;fill-opacity:1;stroke-width:.04607" transform="translate(-34.396 -20.595)"/></g></svg>