<svg xmlns="http://www.w3.org/2000/svg" width="410.74" height="344.776" data-name="Calque 1"><path d="M77.587 72.492a6.96 6.96 0 0 1 .285-.218l.036.012a1.455 1.455 0 0 1-.291.187.103.103 0 0 1-.03.019m14.159-4.722c-.036.024-.066.048-.103.072.055-.006.103-.018.103-.072m-4.476 4.936a18.878 18.878 0 0 1-3.721 2.124 32.37 32.37 0 0 0-4.715 2.433H43.023v-38.63h50.43a19.363 19.363 0 0 0-1.935.737 6.055 6.055 0 0 0-2.257 1.464 6.416 6.416 0 0 0-1.386 2.33 6.242 6.242 0 0 0-2.045 2.342c-.654 1.241-1.61 2.336-1.46 3.721.14 1.168.437 2.264.655 3.504a8.311 8.311 0 0 0 .29 1.241c.152.435 0 .95.218 1.313.15.217.079.514.369.66v.29c.079.073.079.145.218.145v.291a11.237 11.237 0 0 1 1.676 2.196c.152.436-.726.218-1.09.067a8.165 8.165 0 0 1-1.748-1.458.247.247 0 0 0-.078.145c.296.514 1.385 1.168.804 1.531-.29.151-.66-.218-.95.078-.072.145 0 .29 0 .436-.441-.29-.877-.146-1.313-.29-.29-.073-.37-.66-.726-.66a18.798 18.798 0 0 0-2.777-.509 13.902 13.902 0 0 0-3.873-.145 4.207 4.207 0 0 0-2.772 1.822v.224c.509.066.733-.369 1.168-.515.726-.145 1.386-.44 2.118-.587a12.088 12.088 0 0 1 3.135-.435 2.5 2.5 0 0 1 .738 0 10.806 10.806 0 0 0-3.728.732 12.354 12.354 0 0 0-2.56.726 16.443 16.443 0 0 1 5.622.805 8.34 8.34 0 0 1 1.828.877 5.096 5.096 0 0 0 .732.581 1.47 1.47 0 0 0 1.24.08h.37a6.015 6.015 0 0 0 2.989-1.393c0 .073.072.073.145.073a5.159 5.159 0 0 1-.653 1.755c0 .072-.08.217.072.29h.146c-.08 0-.146 0-.146.072 0 .146.218 0 .285.146a1.432 1.432 0 0 0-.944.442c0 .072.15.072.218.072-.146.146-.364.073-.436.218a.25.25 0 0 0 .139.073c-.067 0-.14 0-.14.072v.218c-.217 0-.296.145-.435.224.29.218.508 0 .805 0-.805.29-1.47.726-2.263.944-.151 0 0 .224-.151.224.218.14.369-.079.587-.079-1.023.587-2.046 1.096-3.147 1.755a.513.513 0 0 0-.14.29h-.296c-.14.073-.072.297-.218.436.364.224.805-.29 1.023 0 .073 0-.145.08-.29.08-.08 0-.08.144-.146.144h-.223c-.146.145-.285.218-.285.436-.151 0-.296 0-.37.145 1.61-.218 3.286-.073 4.818-.87a11.317 11.317 0 0 0 3.213-2.416.282.282 0 0 1 .072.151 3.2 3.2 0 0 1-1.24 1.677c-.436.217-.726.587-1.095.732l-.654.436c-2.704.95-5.918.508-8.254 2.335 0-.072-.073-.072-.145-.072-.145.145-.37.218-.435.37a.064.064 0 0 0 .018.047.181.181 0 0 0 .18.067.604.604 0 0 1 .122-.067 4.928 4.928 0 0 1 1.162-.568.912.912 0 0 0-.121.103c-.284.157-.557.326-.835.465h.018a1.644 1.644 0 0 0-.496.436.09.09 0 0 1 .048.133c-.024.043-.048.085-.072.133a.634.634 0 0 0-.05.08c-.03.053-.06.102-.095.156-.013.024-.025.042-.037.067-.018.03-.03.06-.048.091a.214.214 0 0 1-.031.054.36.36 0 0 1-.036.061.586.586 0 0 1-.03.066c-.006.006-.012.012-.012.018-.006.006-.006.012-.013.018-.005.006-.005.013-.011.018a.605.605 0 0 0 .078.025.42.42 0 0 0 .109.012c.266.006.406-.315.58-.472a2.824 2.824 0 0 1 .346-.242c.018.024.036.042.048.06l-.018.067c-.042.061-.078.133-.127.193-.036.055.037.097.085.08v.011a6.539 6.539 0 0 0-1.23.914.11.11 0 0 1 .098.036.067.067 0 0 1 .006.097c-.103.145-.212.291-.314.442-.067.115-.14.224-.212.34-.061.101-.121.205-.188.308-.012.023-.03.048-.042.072a.006.006 0 0 0-.006.006.349.349 0 0 0 .224-.03c.399-.369.78-.75 1.18-1.126a.214.214 0 0 0 .109-.03 7.462 7.462 0 0 1 1.21-.956 1.625 1.625 0 0 0 .502-.43l.109-.127a.211.211 0 0 1 .048-.03 6.256 6.256 0 0 1 1.356-.55l.079-.019a24.044 24.044 0 0 1 2.662-.472 7.731 7.731 0 0 0 1.816-.073c.46-.103.883-.369 1.319-.508v.14c1.095-.436 1.9-1.387 2.989-1.749.079 0 .218.145.369.072a2.961 2.961 0 0 1 2.336-1.095c0 .072 0 .145.073.145h.048l-.781.587c-.072.073 0 .145.079.145.357-.145.58-.435.944-.587-.073.08-.073.218-.14.297a6.854 6.854 0 0 0-.798.635A24.181 24.181 0 0 0 88.51 71.4h.01c-.416.448-.834.896-1.251 1.307m-11.225-5.228c.514-.218 1.1 0 1.537-.436-.151-.15-.37-.078-.514-.296-.146-.073-.364.073-.51.145-.295.151-.804.151-.876.514-.073.146.218.073.363.073m-11.171-1.604a24.68 24.68 0 0 1 5.628-5.04c.139-.073-.224.218.073.145.95-.218 1.24-1.168 1.676-1.894.587-.95 1.609-1.319 2.336-2.118a.266.266 0 0 1-.073.218.268.268 0 0 0 .218.072c.296-.217.659-.145.877-.435a2.847 2.847 0 0 0-1.9-.079 14.313 14.313 0 0 0-4.091 3.213 9.875 9.875 0 0 1-2.48 2.045 22.201 22.201 0 0 1-2.33 3.722.263.263 0 0 0 .066.151m6.064-4.822c0-.073 0-.146-.08-.146a.91.91 0 0 0-.58.66c0 .073.079.073.145.073a.578.578 0 0 0 .297-.29c.066-.134.139-.152.218-.297m3.389 10.94c.06-.145-.327-.109-.388-.066a.976.976 0 0 0-.157.163 3.253 3.253 0 0 1-.303.284c-.181.17-.351.352-.538.515-.121.103.278.163.363.085.09-.085.187-.17.278-.255.049 0 .09-.012.109-.012a1.584 1.584 0 0 0 .55-.387c.06-.054-.005-.097-.096-.115a.664.664 0 0 0 .182-.212m-1.308-.605c.599-.375 1.204-.78 1.864-1.138a1.109 1.109 0 0 0-.66-.145c-.363.073-.804-.145-1.167 0-.926.43-2.1.4-2.796 1.078-.006 0-.006.005-.012.005a1.134 1.134 0 0 0-.157.182.188.188 0 0 1-.037.03c-.066.061-.14.11-.224.176a3.621 3.621 0 0 0-.375.37c0 .005 0 .005-.006.011-.055.048-.103.103-.164.151-.096.067.055.164.128.11.102-.079.169-.17.272-.237l.037-.018a2.398 2.398 0 0 0-.291.393.067.067 0 0 1 .006.05c-.006.035-.018.072-.024.108a.023.023 0 0 1-.006.018.506.506 0 0 1-.024.08.143.143 0 0 1-.013.047.022.022 0 0 0-.006.018 1.43 1.43 0 0 1-.066.17c-.006.011-.006.018-.013.03-.005 0-.005.006-.005.012l-.013.012a1.574 1.574 0 0 1-.078.145c-.03.055-.067.103-.097.158a.255.255 0 0 1-.03.042c-.006.006-.006.006-.006.012a9.112 9.112 0 0 1-.23.308c-.012.02-.031.037-.042.055-.043.055-.085.11-.127.157a.984.984 0 0 0-.073.097c-.006 0-.006.006-.012.012-.08.097-.158.182-.236.266.006.012.01.025.018.037v.006a.716.716 0 0 0 .066.115l.018.036a.32.32 0 0 0 .03.043.083.083 0 0 0 .06-.03h.007a.7.7 0 0 0 .049-.079l.006-.006c.006-.012.012-.019.018-.03l.024-.025c.006-.006.006-.018.012-.024a.006.006 0 0 0 .006-.006 3.384 3.384 0 0 1 .43-.448c.085-.078.176-.15.266-.224.006-.012.03-.018.048-.018a.12.12 0 0 1 .049.006l.115-.06a1.114 1.114 0 0 1 .127-.067v.012c-.012.085.115.085.163.055a.744.744 0 0 0 .097-.097c.055-.073.109-.12.157-.176v-.006c.007-.006.013-.006.013-.012.036-.036.072-.067.108-.103l.007-.006.006-.006c.036-.036.066-.066.103-.097a3.657 3.657 0 0 1 .732-.563.092.092 0 0 1 .12.031c.007.006.013.012.013.018.327-.15.653-.29.962-.472.29-.169.563-.363.835-.557.006-.006.013-.006.018-.012m1.495-5.077c.218.218.653.146.95 0a1.196 1.196 0 0 1 .726-.145c.073 0 .073-.146.073-.224a1.539 1.539 0 0 0 .586.078 20.224 20.224 0 0 0 5.04-1.536c-1.905-1.459-4.307-1.967-6.57-2.627.217 0 .435.218.653 0-.363-.29-.805-.145-1.167-.362.078 0 .223.072.296-.079a8.498 8.498 0 0 0-1.755-.436.707.707 0 0 0 .58-.726c0-.079-.144-.079-.217-.079a3.941 3.941 0 0 0-1.827 2.197c.514.284 1.1.066 1.609.145-.218.218-.587.218-.871.291-.23.054-.442.217-.37.362a.274.274 0 0 0 .164.11.968.968 0 0 0-.454.26c.29.218.58.072.878.072 0 .146.145.146.218.218a1.3 1.3 0 0 0-.732.654c-.146.37-.51.514-.727.805v.217a12.767 12.767 0 0 0-2.118 1.9c.073 0 .073.073.073.146-.151.217-.442.29-.515.514 0 .073 0 .14.073.14.878-.29 1.53-.945 2.336-1.24.587-.146 1.023-.509 1.537-.655.363-.072.799-.218 1.162-.29 0 .072 0 .145.078.145h.582c-.073.145-.364.073-.291.145M149.593 38.631h-41.56a1.48 1.48 0 0 1 .393.182c.339.181.775.417 1.054.562a3.496 3.496 0 0 1 1.39 1.162c.146.224.365.659.219.95-.145.369-.218.95-.587 1.095a2.72 2.72 0 0 1-1.531.146 3.576 3.576 0 0 1-.871-.146 5.993 5.993 0 0 1 2.844 1.973c.072.145.363.218.66.218.066 0 .066.145.066.218-.145.151-.285.218-.218.441h.218c.369-.145.297-.877.805-.659a.82.82 0 0 1 .29 1.095 7.836 7.836 0 0 1-.871.732.627.627 0 0 0 0 .509 2.256 2.256 0 0 1 .363.877c.218.508.29 1.095.508 1.61a10.118 10.118 0 0 1 .515 3.28c0 .587-.297 1.095-.073 1.682a6.171 6.171 0 0 0 .799 1.531 11.023 11.023 0 0 1 .805 1.167c.435.733 1.24 1.459.87 2.336-.211.515-1.01.442-1.524.732-.441.364-.073.951.145 1.314.37.659-.436 1.095-.95 1.313.145.218.436.145.514.29.067.369.436.587.218.95-.296.442-1.174.66-.732 1.313a1.926 1.926 0 0 1-.072 1.61 1.795 1.795 0 0 1-1.313 1.095 2.98 2.98 0 0 1-1.386.073 1.086 1.086 0 0 0-.442-.146 32.776 32.776 0 0 0-3.721-.514 4.225 4.225 0 0 0-1.023.291 6.603 6.603 0 0 0-.884.786l-.005.007a1.93 1.93 0 0 0-.164.181c-.03.03-.061.073-.091.109-.024.024-.042.049-.066.072a8.627 8.627 0 0 0-.575.841.39.39 0 0 0-.031.061c-.018.031-.036.067-.054.097a7.244 7.244 0 0 0-.557 1.343c-.496 1.671-.278 3.105.073 3.455.097.098 2.408.811 4.018 1.525a13.505 13.505 0 0 1 1.724.872h40.81z" style="fill:#000" transform="translate(-42.884 -38.631)"/><path d="M110.509 52.725c.29.073.726.073.726.218-.14.587-1.023.732-1.458 1.313h-.218c-.218.145-.152.514-.37.514a1.028 1.028 0 0 0-.653.073 1.24 1.24 0 0 0 1.089.436.326.326 0 0 1 .23.296.209.209 0 0 0 .139-.08c.079 0 .146 0 .146.08v.29c-.218.29-.581.146-.872.218a3.283 3.283 0 0 0 1.677 0c.44-.145 0-.877.29-1.24-.14 0 0-.224-.14-.224.14-.14.29-.363.436-.436a.524.524 0 0 0 .436-.217c0-.146-.296-.22-.218-.364.436-.29.805-.732.654-1.168-.067-.217-.654-.217-1.017-.37a2.467 2.467 0 0 0-1.246.074 5.519 5.519 0 0 0-1.09.296 5.1 5.1 0 0 0-1.392.727 10.222 10.222 0 0 1 1.61-.436 4.731 4.731 0 0 1 1.24 0" style="fill:#000" transform="translate(-42.884 -38.631)"/><path d="M94.461 334.763c.786 0 1.464.6 1.101 2.112l-3.655.847c.635-1.7 1.7-2.96 2.554-2.96m2.021 5.9h-.726c-.914 1.084-1.894 1.93-2.868 1.93-1.005 0-1.513-.592-1.513-1.93a8.15 8.15 0 0 1 .17-1.614l5.893-1.943c1.15-2.723-.23-3.915-1.852-3.915-2.789 0-5.954 4.659-5.954 8.75 0 1.827.865 2.826 2.233 2.826 1.597 0 3.255-1.555 4.617-4.103m-1.174-8.556 4.151-3.873v-.448h-2.233l-2.553 4.32zm-12.72 2.723h1.955l-3.11 8.49a.988.988 0 0 0 .86 1.446 7.223 7.223 0 0 0 5.614-4.127h-.557a7.736 7.736 0 0 1-3.594 2.172l2.85-7.981h2.917l.363-1.211h-2.832l1.09-3.068h-1.132l-2.02 3.068-2.404.339zm-2.644-.405a.872.872 0 0 0-.696-1.235c-1.707 0-3.728 1.537-4.532 3.685h.55a4.306 4.306 0 0 1 2.36-1.81l-3.256 8.466a.848.848 0 0 0 .71 1.235c1.614 0 3.508-1.555 4.313-3.68h-.55a4.357 4.357 0 0 1-2.367 1.81zm.6-4.255a1.404 1.404 0 1 0-1.405-1.404 1.401 1.401 0 0 0 1.404 1.404m-18.747 13.023c-.424.956.025 1.573.956 1.573a.953.953 0 0 0 1.065-.763l2.258-5.978c1.04-1.277 3.194-2.64 4.042-2.64.617 0 .532.51.126 1.272l-3.467 6.663a.979.979 0 0 0 .854 1.446c1.7 0 3.721-1.531 4.532-3.68h-.557a4.36 4.36 0 0 1-2.36 1.81l2.977-6.021a4.872 4.872 0 0 0 .582-2.063 1.472 1.472 0 0 0-1.58-1.622c-1.464 0-2.953 1.664-4.72 3.703v-1.573c0-1.125-.363-2.13-1.386-2.13-.635 0-1.258.557-1.833 1.343v.212c1.107-.067 1.597 1.597.811 3.34zm-.042-7.407c.405-1.38.194-2.596-.87-2.596-1.254 0-1.575.956-2.852 3.703v-1.573c0-1.125-.363-2.13-1.379-2.13-1.199 0-2.282 1.852-3.11 3.685h.55c.575-.835 1.108-1.325 1.537-1.325.508 0 .787.792 0 2.535l-2.3 5.108c-.429.956.02 1.573.956 1.573a.954.954 0 0 0 1.066-.763l2.257-5.978a36.102 36.102 0 0 1 1.93-2.24zm-13.065-1.023c.787 0 1.465.6 1.108 2.112l-3.66.847c.64-1.7 1.705-2.96 2.552-2.96m2.021 5.9h-.726c-.908 1.084-1.888 1.93-2.874 1.93-.999 0-1.507-.592-1.507-1.93a7.72 7.72 0 0 1 .176-1.614l5.887-1.943c1.15-2.723-.236-3.915-1.845-3.915-2.79 0-5.967 4.659-5.967 8.75 0 1.827.878 2.826 2.24 2.826 1.597 0 3.261-1.555 4.616-4.103m-13.893-5.833h1.954l-3.104 8.49a.982.982 0 0 0 .847 1.446 7.224 7.224 0 0 0 5.622-4.127h-.557a7.783 7.783 0 0 1-3.588 2.172l2.844-7.981h2.916l.365-1.211h-2.827l1.078-3.068h-1.12l-2.027 3.068-2.402.339zm-10.747 6.614c0-2.614 2.917-6.166 4.556-6.166a3.732 3.732 0 0 1 1 .126l-1.7 4.533c-.988 1.192-2.495 2.638-3.197 2.638-.405 0-.659-.338-.659-1.131m8.956-8.744-.89-.061-.998.98h-.212c-4.853 0-9.047 5.447-9.047 9.404a1.61 1.61 0 0 0 1.75 1.743c1.252 0 2.486-1.785 3.865-3.704l-.06.684c-.175 1.96.424 3.02 1.447 3.02 1.192 0 2.275-1.852 3.104-3.68h-.55c-.576.83-1.108 1.32-1.532 1.32-.448 0-.768-.811 0-2.536zm-10.342 3.086c.412-1.38.2-2.596-.865-2.596-1.259 0-1.579.956-2.856 3.703v-1.573c0-1.125-.358-2.13-1.38-2.13-1.198 0-2.276 1.852-3.11 3.685h.556c.57-.835 1.102-1.325 1.531-1.325.515 0 .787.792 0 2.535l-2.299 5.108c-.43.956.024 1.573.956 1.573a.947.947 0 0 0 1.065-.763l2.257-5.978a34.295 34.295 0 0 1 1.936-2.24zm-16.296 8.556.212-.66c-2.832-.532-3.189-.532-2.064-3.618l1.15-3.171h3.13c1.403 0 1.427.575 1.215 2.106h.805l1.87-5.125h-.805c-.702 1.21-1.259 2.105-2.79 2.105H8.026l1.64-4.49c.508-1.428.811-1.724 2.723-1.724h1.361c1.98 0 2.215.533 2.215 2.535h.787l.66-3.491H5.664l-.212.659c2.275.466 2.487.678 1.422 3.619l-2.553 6.977c-1.065 2.917-1.507 3.147-4.127 3.619l-.194.659zm57.58-36.173c.787 0 1.47.593 1.107 2.106l-3.66.853c.64-1.706 1.706-2.959 2.553-2.959m2.02 5.894h-.725c-.914 1.084-1.888 1.937-2.87 1.937-.997 0-1.505-.594-1.505-1.937a7.824 7.824 0 0 1 .163-1.616l5.9-1.942c1.144-2.723-.242-3.915-1.851-3.915-2.79 0-5.961 4.665-5.961 8.75 0 1.828.872 2.832 2.233 2.832 1.597 0 3.255-1.555 4.617-4.109m-1.168-8.557 4.15-3.872v-.448h-2.238l-2.553 4.32zm-12.732 2.724h1.967l-3.11 8.49a.99.99 0 0 0 .853 1.452 7.225 7.225 0 0 0 5.616-4.133h-.551a7.726 7.726 0 0 1-3.595 2.172l2.844-7.98h2.917l.363-1.21h-2.826l1.077-3.069h-1.125l-2.021 3.068-2.41.338zm-2.632-.4a.875.875 0 0 0-.702-1.24c-1.706 0-3.727 1.537-4.532 3.685h.55a4.324 4.324 0 0 1 2.367-1.809l-3.256 8.465a.85.85 0 0 0 .696 1.241c1.622 0 3.516-1.555 4.32-3.685h-.55a4.338 4.338 0 0 1-2.36 1.81zm.599-4.26a1.404 1.404 0 0 0 1.404-1.403 1.407 1.407 0 0 0-2.814 0 1.394 1.394 0 0 0 1.41 1.403m-11.328 12.726 5.942-15.552-.193-.236-3.728.424v.448l.732.55c.654.515.442 1.005-.157 2.578l-4.63 12.211a.98.98 0 0 0 .848 1.453c1.7 0 3.51-1.537 4.32-3.685h-.556a4.793 4.793 0 0 1-2.578 1.81m-11.273-1.447c0-2.62 2.917-6.172 4.55-6.172a3.705 3.705 0 0 1 1.005.127l-1.7 4.532c-.981 1.192-2.494 2.638-3.195 2.638-.406 0-.66-.339-.66-1.125m8.96-8.75-.894-.06-1.004.98h-.212c-4.853 0-9.041 5.445-9.041 9.403a1.611 1.611 0 0 0 1.743 1.75c1.259 0 2.493-1.793 3.879-3.704l-.067.678c-.17 1.96.424 3.025 1.447 3.025 1.186 0 2.275-1.858 3.104-3.685h-.551c-.581.828-1.113 1.32-1.537 1.32-.442 0-.762-.806 0-2.536zm-21.662 14.13c0-1.126 1.083-1.828 2.639-2.445a18.127 18.127 0 0 0 2.299.871c1.616.533 2.233.75 2.233 1.235 0 1.047-1.767 1.833-4.17 1.833-2.021 0-3.001-.43-3.001-1.494m4.406-6.869c-.703 0-.981-.599-.981-1.276 0-1.895 1.023-4.684 2.62-4.684.702 0 .975.593.975 1.277 0 1.893-1.017 4.683-2.614 4.683m4.617 5.828c0-1.362-1.211-1.852-3.195-2.445-1.701-.514-2.47-.66-2.47-1.21a1.735 1.735 0 0 1 1.09-1.368 4.962 4.962 0 0 0 4.599-4.762 2.967 2.967 0 0 0-.236-1.174h2.36l.363-1.21h-3.746a2.898 2.898 0 0 0-1.513-.43 4.937 4.937 0 0 0-4.871 4.707 2.738 2.738 0 0 0 2.25 2.827c-1.378.617-2.141 1.343-2.141 2.19a1.34 1.34 0 0 0 .569 1.15c-3.19.938-4.441 2.003-4.441 3.51 0 1.47 1.93 2.087 4.229 2.087 3.897 0 7.153-2.105 7.153-3.872m-14.874-9.107c1.404 0 1.422.574 1.21 2.105h.81l1.87-5.125h-.804c-.708 1.21-1.26 2.106-2.79 2.106H8.112l1.555-4.279c.509-1.428.805-1.7 2.724-1.7h1.355c1.984 0 2.22.533 2.22 2.511h.787l.66-3.49H5.666l-.217.658c2.275.467 2.486.684 1.427 3.62l-2.553 6.976c-1.065 2.916-1.507 3.153-4.127 3.62l-.194.658h13.065l2.342-3.703h-.895a8.565 8.565 0 0 1-5.98 2.747c-3.467 0-3.146-.15-1.996-3.322l1.234-3.382zm1.7-8.914 4.15-2.85v-.448h-2.51l-2.3 3.298zm51.986-19.599c.786 0 1.464.594 1.1 2.107l-3.654.853c.635-1.706 1.7-2.96 2.554-2.96m2.02 5.895h-.725c-.92 1.084-1.894 1.937-2.875 1.937-.998 0-1.513-.6-1.513-1.937a8.247 8.247 0 0 1 .17-1.615l5.9-1.937c1.149-2.73-.236-3.915-1.858-3.915-2.784 0-5.954 4.659-5.954 8.744 0 1.827.877 2.832 2.233 2.832 1.597 0 3.255-1.555 4.623-4.11m-1.174-8.555 4.15-3.873v-.442h-2.232l-2.554 4.315zm-12.193 2.729h1.555l-3.105 8.484a.99.99 0 0 0 .854 1.452 7.227 7.227 0 0 0 5.609-4.127h-.544a7.827 7.827 0 0 1-3.601 2.166l2.85-7.975h2.917l.363-1.216h-2.832l1.083-3.062h-1.125l-2.021 3.062-2.003.338zm-1.532.956c.406-1.386.194-2.596-.871-2.596-1.26 0-1.573.956-2.85 3.697v-1.573c0-1.125-.363-2.124-1.386-2.124-1.191 0-2.275 1.852-3.104 3.679h.55c.575-.83 1.108-1.32 1.53-1.32.516 0 .788.788 0 2.53l-2.298 5.108c-.423.962.025 1.579.963 1.579.574 0 .829-.151 1.058-.768l2.257-5.98a36.923 36.923 0 0 1 1.943-2.232zm-13.064-1.024c.793 0 1.47.593 1.1 2.106l-3.654.853c.636-1.706 1.7-2.96 2.554-2.96m2.02 5.895h-.72c-.92 1.084-1.9 1.937-2.873 1.937-1 0-1.513-.6-1.513-1.937a8.247 8.247 0 0 1 .169-1.615l5.894-1.937c1.15-2.73-.23-3.915-1.852-3.915-2.79 0-5.954 4.659-5.954 8.744 0 1.827.87 2.832 2.233 2.832 1.597 0 3.256-1.555 4.617-4.11m-14.451 2.387c-.575 0-1.398-.533-1.398-1a11.97 11.97 0 0 1 .569-1.64l.962-2.534c1.017-1.211 2.572-2.512 3.443-2.512.533 0 .938.345.938 1.132 0 2.317-2.166 6.554-4.514 6.554m6.705-7.492c0-1.725-.636-2.36-1.828-2.36-1.49 0-2.898 1.573-4.296 3.486l3.55-9.337-.192-.236-3.727.423v.448l.726.557c.665.508.453 1.04-.145 2.57l-3.831 9.877a10.89 10.89 0 0 0-.617 1.809c0 1.017 1.379 1.979 2.638 1.979 2.893 0 7.722-5.216 7.722-9.216m-11.576-1.125a.869.869 0 0 0-.703-1.235c-1.7 0-3.721 1.53-4.532 3.679h.557a4.34 4.34 0 0 1 2.36-1.81l-3.262 8.473a.855.855 0 0 0 .708 1.234c1.616 0 3.516-1.555 4.32-3.685h-.55a4.326 4.326 0 0 1-2.366 1.809zm.599-4.261a1.4 1.4 0 0 0 1.398-1.403 1.402 1.402 0 1 0-2.803 0 1.39 1.39 0 0 0 1.405 1.403m-8.575-1.361H5.623l-.212.66c2.276.47 2.488.683 1.423 3.618l-2.511 6.977c-1.066 2.917-1.507 3.153-4.127 3.619l-.194.66H11.79l2.553-4.557h-.89c-1.452 1.604-3.152 3.6-5.766 3.6-1.985 0-2.215-.338-1.15-3.322l2.512-6.977c1.04-2.917 1.506-3.147 4.127-3.618zM.006 57.976h7.319l7.071 12.157 7.072-12.157h7.318v28.946h-5.87V66.163l-6.451 10.834H12.33L5.879 66.163v20.759H.006Zm36.843 0h5.872v28.946h-5.872zm13.977 0h7.525L71.294 78.9V57.976h5.872v28.946H69.64L56.697 65.998v20.924h-5.871Zm34.444 0h5.872v28.946H85.27zm15.631 21.006a8.349 8.349 0 0 0 6.41 3.556c2.315 0 3.721-1.24 3.721-3.308 0-5.334-13.15-3.887-13.15-13.687 0-4.59 3.804-8.394 9.345-8.394a12.847 12.847 0 0 1 10.132 4.88l-4.301 3.886c-1.695-2.192-3.597-3.639-5.79-3.639a3.131 3.131 0 0 0-3.431 3.06c0 5.252 13.15 3.763 13.15 13.688-.083 5.458-4.301 8.725-9.635 8.725a12.973 12.973 0 0 1-10.71-4.838zm19.269-21.006h23.736v5.334h-8.933v23.612h-5.871V63.309h-8.932zm28.905 0h16.87v4.88h-10.999v6.864h9.346v4.879h-9.346v7.443h11v4.88h-16.872zm.496-8.064h6.037l4.673 5.582h-5.376zm23.197 8.064h8.849c6.368 0 10.297 3.267 10.297 8.642a7.768 7.768 0 0 1-4.673 7.485l9.056 12.819h-6.906l-7.733-11.703h-3.019v11.703h-5.871zm5.871 4.88v7.484h3.309c2.481 0 3.928-1.448 3.928-3.804 0-2.192-1.447-3.68-3.928-3.68zm21.378-4.88h16.872v4.88h-11v6.864h9.346v4.879h-9.346v7.443h11v4.88h-16.872zm-200.011 42h11.372c9.18 0 15.383 6.657 15.383 14.473 0 7.816-6.204 14.473-15.383 14.473H.006Zm5.872 5.334v18.277h5.582a9.14 9.14 0 1 0 0-18.277zm26.548-5.334h16.87v4.88h-11v6.864h9.346v4.879h-9.345v7.443h11v4.88H32.424Zm34.443 0h5.872v23.611h11v5.335H66.869zm29.359 0h7.692l10.958 28.946h-6.244l-2.77-7.526H94.285l-2.77 7.526H85.27zm7.816 16.416-3.97-10.875-3.97 10.875zm23.072-16.416h23.736v5.334h-8.932v23.612h-5.871v-23.613h-8.933Zm28.905 0h8.849c6.368 0 10.296 3.267 10.296 8.642a7.767 7.767 0 0 1-4.673 7.485l9.057 12.819h-6.906l-7.733-11.703h-3.019v11.703h-5.871zm5.871 4.88v7.484h3.308c2.482 0 3.93-1.448 3.93-3.804 0-2.192-1.448-3.68-3.93-3.68zm28.698-4.88h7.691l10.958 28.946h-6.244l-2.77-7.526h-11.579l-2.77 7.526h-6.244zm7.815 16.416-3.97-10.875-3.97 10.875zm15.299-16.416h7.526l12.944 20.924V99.976h5.87v28.946h-7.525l-12.943-20.924v20.924h-5.872zm36.1 21.006a8.35 8.35 0 0 0 6.409 3.556c2.316 0 3.721-1.24 3.721-3.308 0-5.334-13.149-3.887-13.149-13.687 0-4.59 3.805-8.394 9.346-8.394a12.847 12.847 0 0 1 10.13 4.88l-4.3 3.886c-1.696-2.191-3.598-3.639-5.79-3.639a3.13 3.13 0 0 0-3.431 3.06c0 5.252 13.15 3.763 13.15 13.688-.084 5.458-4.301 8.725-9.635 8.725a12.971 12.971 0 0 1-10.71-4.838zm22.246-21.006h5.872v28.946h-5.872zm11 0h23.735v5.334h-8.932v23.612h-5.872v-23.613h-8.931zm28.903 0h5.872v28.946h-5.872zm42.22 14.473a15.362 15.362 0 1 1-15.341-15.3 15.042 15.042 0 0 1 15.34 15.3zm-6.037 0c0-5.541-3.887-9.8-9.304-9.8-5.46 0-9.346 4.259-9.346 9.8s3.887 9.8 9.346 9.8c5.417 0 9.304-4.26 9.304-9.8zm11.66-14.473h7.526l12.943 20.924V99.976h5.872v28.946h-7.526l-12.943-20.924v20.924h-5.872ZM.006 141.975h16.871v4.88h-11v6.864h9.346v4.88H5.878v7.442h11v4.88H.006Zm5.707-2.48 4.672-5.583h6.038l-5.376 5.583zm38.456 22.784 4.631 3.556a14.803 14.803 0 0 1-12.199 5.913 15.3 15.3 0 1 1 12.2-24.728l-4.632 3.598a9.051 9.051 0 0 0-7.568-3.97c-5.458 0-9.345 4.26-9.345 9.8 0 5.542 3.887 9.8 9.345 9.8a9.05 9.05 0 0 0 7.568-3.97zm37.959-5.83a15.362 15.362 0 1 1-15.341-15.3 15.042 15.042 0 0 1 15.341 15.3zm-6.037 0c0-5.542-3.887-9.801-9.304-9.801-5.458 0-9.345 4.26-9.345 9.8 0 5.542 3.887 9.8 9.345 9.8 5.417 0 9.304-4.258 9.304-9.8zm11.661-14.474h5.872v23.612h11v5.334H87.752zm50.283 14.474a15.362 15.362 0 1 1-15.341-15.3 15.042 15.042 0 0 1 15.341 15.3zm-6.037 0c0-5.542-3.887-9.801-9.304-9.801-5.458 0-9.346 4.26-9.346 9.8 0 5.542 3.888 9.8 9.346 9.8 5.417 0 9.304-4.258 9.304-9.8zm31.716 7.277v-5.045h-7.36v-5.003h13.232v12.157a15.441 15.441 0 0 1-12.613 5.913c-9.386 0-15.795-7.03-15.795-15.3a15.456 15.456 0 0 1 27.58-9.428l-4.63 3.598a9.051 9.051 0 0 0-7.568-3.97c-5.458 0-9.345 4.26-9.345 9.8a9.532 9.532 0 0 0 9.758 9.8 9.666 9.666 0 0 0 6.74-2.522zm12.405-21.751h5.872v28.946h-5.872zm44.328 30.973a6.01 6.01 0 0 0 2.067-.331v4.961a7.645 7.645 0 0 1-3.06.539 13.655 13.655 0 0 1-9.056-3.805l-3.431-3.06a15.35 15.35 0 0 1-3.97.496 15.3 15.3 0 1 1 15.34-15.3 15.33 15.33 0 0 1-5.705 12.075l1.736 1.654c2.233 2.026 4.218 2.77 6.079 2.77zm-8.146-16.5c0-5.54-3.887-9.8-9.304-9.8-5.46 0-9.346 4.26-9.346 9.8 0 5.542 3.887 9.8 9.346 9.8 5.417 0 9.304-4.258 9.304-9.8zm28.408-14.473h5.87v17.616c0 7.609-4.465 12.157-11.742 12.157-7.237 0-11.702-4.548-11.702-12.157v-17.616h5.87v18.112c0 3.887 2.193 6.161 5.873 6.161 3.597 0 5.83-2.274 5.83-6.16zm13.148 0h16.872v4.88h-11v6.864h9.346v4.88h-9.346v7.442h11v4.88h-16.872zm-253.851 42h16.871v4.88h-11v6.864h9.346v4.88H5.878v7.442h11v4.88H.006Zm20.716 0h23.736v5.335h-8.932v23.611h-5.87V189.31h-8.933zm39.656 0h11.371c9.18 0 15.383 6.658 15.383 14.474s-6.203 14.472-15.383 14.472H60.378zm5.871 5.335v18.277h5.583a9.14 9.14 0 1 0 0-18.277zm26.547-5.335h16.871v4.88h-11v6.864h9.346v4.88h-9.345v7.442h11v4.88H92.796Zm34.445 0h5.872v23.612h11v5.334h-16.872zm29.359 0h7.691l10.959 28.946h-6.244l-2.77-7.526h-11.58l-2.77 7.526h-6.244zm7.815 16.417-3.97-10.876-3.97 10.876zm46.519 3.887 4.632 3.556a14.804 14.804 0 0 1-12.199 5.913 15.301 15.301 0 1 1 12.2-24.728l-4.633 3.598a9.053 9.053 0 0 0-7.567-3.97c-5.458 0-9.346 4.26-9.346 9.8 0 5.54 3.888 9.8 9.346 9.8a9.05 9.05 0 0 0 7.567-3.97zm37.96-5.83a15.362 15.362 0 1 1-15.34-15.301 15.042 15.042 0 0 1 15.34 15.3zm-6.037 0c0-5.541-3.887-9.801-9.303-9.801-5.46 0-9.346 4.26-9.346 9.8 0 5.54 3.887 9.8 9.345 9.8 5.417 0 9.304-4.258 9.304-9.8zm11.66-14.474h5.872v11.537h14.598v-11.537h5.871v28.946h-5.87v-12.074h-14.599v12.074h-5.872zm34.445 0h16.872v4.88h-11v6.864h9.345v4.88h-9.345v7.442h11v4.88h-16.872zm5.707-2.48 4.673-5.583h6.037l-5.376 5.583zm19.641 23.487a8.348 8.348 0 0 0 6.41 3.556c2.316 0 3.721-1.24 3.721-3.308 0-5.334-13.15-3.887-13.15-13.688 0-4.59 3.805-8.394 9.346-8.394a12.85 12.85 0 0 1 10.131 4.88l-4.3 3.886c-1.696-2.191-3.598-3.638-5.79-3.638a3.131 3.131 0 0 0-3.431 3.06c0 5.251 13.15 3.763 13.15 13.687-.084 5.459-4.302 8.725-9.635 8.725a12.972 12.972 0 0 1-10.71-4.837zm22.246-21.007h5.872v28.946h-5.872zm42.22 14.474a15.362 15.362 0 1 1-15.34-15.301 15.042 15.042 0 0 1 15.34 15.3zm-6.037 0c0-5.541-3.887-9.801-9.304-9.801-5.459 0-9.345 4.26-9.345 9.8 0 5.54 3.886 9.8 9.345 9.8 5.417 0 9.304-4.258 9.304-9.8zm11.66-14.474h7.527l12.943 20.924v-20.924h5.871v28.946h-7.525l-12.944-20.924v20.924h-5.872zm-384.393 42h11.372c9.18 0 15.383 6.658 15.383 14.474s-6.204 14.472-15.383 14.472H.006Zm5.872 5.335v18.277h5.582a9.14 9.14 0 1 0 0-18.277zm26.548-5.335h16.87v4.88h-11v6.864h9.346v4.88h-9.345v7.442h11v4.88H32.424Zm25.347 21.007a8.348 8.348 0 0 0 6.41 3.556c2.315 0 3.721-1.24 3.721-3.308 0-5.334-13.15-3.887-13.15-13.688 0-4.59 3.804-8.394 9.345-8.394a12.849 12.849 0 0 1 10.132 4.88l-4.301 3.886c-1.695-2.191-3.597-3.638-5.79-3.638a3.131 3.131 0 0 0-3.431 3.06c0 5.251 13.15 3.763 13.15 13.687-.083 5.459-4.301 8.725-9.635 8.725a12.974 12.974 0 0 1-10.71-4.837zm30.02-21.007h23.736v5.335h-8.933v23.611h-5.871V231.31h-8.932zm28.904 0h16.871v4.88h-11v6.864h9.346v4.88h-9.345v7.442h11v4.88h-16.873Zm23.694 0h8.849c6.368 0 10.296 3.268 10.296 8.643a7.766 7.766 0 0 1-4.672 7.484l9.056 12.82h-6.906l-7.732-11.703h-3.02v11.702h-5.871zm5.871 4.88v7.484h3.309c2.481 0 3.928-1.447 3.928-3.803 0-2.193-1.447-3.681-3.928-3.681zm21.379-4.88h8.849c6.368 0 10.296 3.268 10.296 8.643a7.766 7.766 0 0 1-4.672 7.484l9.056 12.82h-6.906l-7.732-11.703h-3.02v11.702h-5.871zm5.871 4.88v7.484h3.309c2.481 0 3.928-1.447 3.928-3.803 0-2.193-1.447-3.681-3.928-3.681zm21.378-4.88h5.872v28.946h-5.872zm11 0h23.736v5.335h-8.932v23.611h-5.872V231.31h-8.932zm57.146 14.474a15.362 15.362 0 1 1-15.34-15.301 15.042 15.042 0 0 1 15.34 15.3zm-6.036 0c0-5.541-3.887-9.801-9.304-9.801-5.459 0-9.346 4.26-9.346 9.8 0 5.54 3.887 9.8 9.346 9.8 5.417 0 9.304-4.258 9.304-9.8zm11.66-14.474h5.872v28.946h-5.872zm13.976 0h8.85c6.367 0 10.296 3.268 10.296 8.643a7.767 7.767 0 0 1-4.673 7.484l9.056 12.82h-6.905l-7.734-11.703h-3.018v11.702h-5.872zm5.872 4.88v7.484h3.308c2.48 0 3.928-1.447 3.928-3.803 0-2.193-1.447-3.681-3.928-3.681zm21.378-4.88h16.872v4.88h-11v6.864h9.345v4.88h-9.345v7.442h11v4.88h-16.872Zm25.348 21.007a8.349 8.349 0 0 0 6.41 3.556c2.316 0 3.721-1.24 3.721-3.308 0-5.334-13.15-3.887-13.15-13.688 0-4.59 3.805-8.394 9.346-8.394a12.85 12.85 0 0 1 10.131 4.88l-4.3 3.886c-1.696-2.191-3.598-3.638-5.79-3.638a3.131 3.131 0 0 0-3.431 3.06c0 5.251 13.15 3.763 13.15 13.687-.084 5.459-4.302 8.725-9.636 8.725a12.972 12.972 0 0 1-10.71-4.837z"/></svg>