<svg xmlns="http://www.w3.org/2000/svg" xml:space="preserve" width="512" height="512" style="enable-background:new 0 0 512 512"><path fill="#60B7FF" d="m478.717 481.4 24.527-2.464-45.328-458.43-19.113 2.575c-2.502-3.88-7.011-6.283-11.931-5.853l31.766-2.888-.004-.001-131.243 11.482c-7.367.644-12.487 7.358-11.888 14.209l39.024 446.053c.543 6.206 5.409 10.993 11.371 11.658l131.244-11.482c.03-.003.058-.01.087-.012l-27.51 2.407c4.066-.869 7.348-3.634 8.998-7.254z" data-original="#60b7ff"/><path fill="#60BA4D" d="M278.735 26.916v.004a12.798 12.798 0 0 0-8.066-2.851h-99.984c-7.102 0-12.86 5.758-12.86 12.86v447.757c0 7.102 5.758 12.86 12.86 12.86h99.984a12.78 12.78 0 0 0 6.874-2.005v.006h21.209V26.916z" data-original="#60ba4d"/><path fill="#0055A3" d="M146.114 496.535 144.97 25.85h-22.121l-7.147-1.78H12.86C5.758 24.069 0 29.827 0 36.929v447.757c0 7.102 5.758 12.86 12.86 12.86h104.667l4.893-1.011z" data-original="#0055a3"/><path fill="#004281" d="M144.966 24.069h-32.122c7.102 0 12.86 5.758 12.86 12.86v447.757c0 7.102-5.758 12.86-12.86 12.86h32.122c7.102 0 12.86-5.758 12.86-12.86V36.929c0-7.102-5.758-12.86-12.86-12.86z" data-original="#004281"/><circle cx="78.913" cy="109.748" r="34.271" fill="#00366D" data-original="#00366d"/><path fill="#B3DAFE" d="M92.942 221.89H64.884a7.726 7.726 0 1 1 0-15.452h28.058a7.726 7.726 0 1 1 0 15.452zM92.942 261.657H64.884a7.726 7.726 0 1 1 0-15.452h28.058a7.726 7.726 0 1 1 0 15.452zM92.942 453.864H64.884a7.726 7.726 0 1 1 0-15.452h28.058a7.726 7.726 0 1 1 0 15.452z" data-original="#b3dafe"/><circle cx="236.738" cy="109.748" r="34.271" fill="#53A143" data-original="#53a143"/><path fill="#C4E6D5" d="M250.768 221.89H222.71a7.726 7.726 0 1 1 0-15.452h28.058a7.726 7.726 0 1 1 0 15.452zM250.768 261.657H222.71a7.726 7.726 0 1 1 0-15.452h28.058a7.726 7.726 0 1 1 0 15.452zM250.768 453.864H222.71a7.726 7.726 0 1 1 0-15.452h28.058a7.726 7.726 0 1 1 0 15.452z" data-original="#c4e6d5"/><circle cx="400.66" cy="105.417" r="34.271" fill="#26A6FE" data-original="#26a6fe"/><path fill="#B3DAFE" d="M395.776 218.385a7.726 7.726 0 0 1-.664-15.423l27.951-2.445a7.727 7.727 0 0 1 1.346 15.394l-27.951 2.445a8.26 8.26 0 0 1-.682.029zM399.242 258a7.727 7.727 0 0 1-.664-15.424l27.952-2.445a7.727 7.727 0 0 1 1.346 15.394l-27.952 2.445a7.47 7.47 0 0 1-.682.03zM415.994 449.477a7.726 7.726 0 0 1-.664-15.423l27.951-2.445a7.727 7.727 0 0 1 1.346 15.394l-27.951 2.445a8.24 8.24 0 0 1-.682.029z" data-original="#b3dafe"/><path fill="#82AEE3" d="M78.913 151.745c-23.157 0-41.997-18.84-41.997-41.997s18.84-41.997 41.997-41.997 41.997 18.84 41.997 41.997-18.84 41.997-41.997 41.997zm0-68.541c-14.636 0-26.544 11.908-26.544 26.544s11.908 26.544 26.544 26.544 26.544-11.908 26.544-26.544-11.908-26.544-26.544-26.544z" data-original="#82aee3"/><path fill="#C4E6D5" d="M236.738 151.745c-23.157 0-41.997-18.84-41.997-41.997s18.84-41.997 41.997-41.997 41.997 18.84 41.997 41.997-18.84 41.997-41.997 41.997zm0-68.541c-14.636 0-26.544 11.908-26.544 26.544s11.908 26.544 26.544 26.544 26.544-11.908 26.544-26.544-11.907-26.544-26.544-26.544z" data-original="#c4e6d5"/><path fill="#B3DAFE" d="M400.589 147.418c-9.848 0-19.291-3.424-26.924-9.829-8.594-7.211-13.864-17.336-14.842-28.512-.978-11.175 2.455-22.062 9.666-30.655 7.21-8.594 17.336-13.864 28.511-14.842 11.168-.977 22.061 2.455 30.655 9.665 8.594 7.211 13.864 17.336 14.842 28.512v-.001c.978 11.175-2.455 22.062-9.665 30.656-7.211 8.593-17.337 13.864-28.512 14.842a42.903 42.903 0 0 1-3.731.164zm.116-68.547c-.783 0-1.569.034-2.359.103-7.063.618-13.463 3.949-18.02 9.381-4.557 5.431-6.727 12.313-6.109 19.376s3.949 13.463 9.38 18.021c5.431 4.557 12.307 6.727 19.376 6.109 7.062-.618 13.463-3.949 18.02-9.381 4.557-5.431 6.727-12.313 6.109-19.376v-.001c-.618-7.063-3.949-13.463-9.38-18.02-4.824-4.048-10.792-6.212-17.017-6.212z" data-original="#b3dafe"/><path fill="#53A143" d="M302.791 24.069h-32.122c7.102 0 12.86 5.758 12.86 12.86v447.757c0 7.102-5.758 12.86-12.86 12.86h32.122c7.102 0 12.86-5.758 12.86-12.86V36.929c0-7.102-5.757-12.86-12.86-12.86z" data-original="#53a143"/><path fill="#26A6FE" d="M426.872 17.228c7.075-.619 13.313 4.615 13.932 11.69l39.024 446.053c.572 6.535-3.854 12.345-10.109 13.684l30.541-2.672c7.075-.619 12.309-6.856 11.69-13.932L472.926 25.998c-.619-7.075-6.857-12.309-13.932-11.69z" data-original="#26a6fe"/></svg>