<svg xmlns="http://www.w3.org/2000/svg" version="1.1" xmlns:xlink="http://www.w3.org/1999/xlink" xmlns:svgjs="http://svgjs.com/svgjs" width="512" height="512" x="0" y="0" viewBox="0 0 512 512" style="enable-background:new 0 0 512 512" xml:space="preserve"><g><path fill="#60B7FF" d="M471.051 46.415c-9.321-.78 16.759-.545-201.863-.545l-14.329-33.559-26.444-9.645a10.557 10.557 0 0 0-4.743-1.141H162.54c-6.506 0-11.78 6.007-11.78 13.416v244.07c0 9.88 7.032 17.888 15.706 17.888 321.499 0 296.796.102 302.186-.221l23.773-3.304V48.203z" data-original="#60b7ff"></path><path fill="#26A6FE" d="M496.294 45.87h-32.265c8.674 0 15.706 8.009 15.706 17.888v195.253c0 9.88-7.032 17.888-15.706 17.888h32.265c8.674 0 15.706-8.008 15.706-17.888V63.758c0-9.879-7.032-17.888-15.706-17.888zM234.103 8.722l17.066 37.148h32.265L266.368 8.722c-2.032-4.424-6.054-7.197-10.437-7.197h-32.265c4.383 0 8.405 2.772 10.437 7.197z" data-original="#26a6fe"></path><path fill="#FE9901" d="m422.163 213.84 31.53 279.904c1.005 8.921-5.975 16.731-14.952 16.731H47.494c-8.169 0-15.034-6.136-15.949-14.253L.09 216.984c-.938-8.326 5.577-15.615 13.955-15.615h394.162a14.043 14.043 0 0 1 13.956 12.471z" data-original="#fe9901"></path><path fill="#FEC165" d="M417.49 237.146a17.072 17.072 0 0 0-3.401-.351H200.876l-22.246-47.709L153.342 180a17.027 17.027 0 0 0-7.93-1.991l-86.41-.335c-9.205-.026-16.768 7.259-17.089 16.458L31.449 493.865c-.317 9.078 6.956 16.61 16.04 16.61h360.173a14.962 14.962 0 0 0 6.535-1.51l.005.012 22.795-8.253c0-15.001 6.191-241.236 6.191-258.311z" data-original="#fec165"></path><g fill="#FDB441"><path d="M145.412 178.009a17.053 17.053 0 0 1 15.557 10.174l19.318 43.823a8.025 8.025 0 0 0 7.343 4.788h35.199a8.025 8.025 0 0 1-7.343-4.788l-19.318-43.823a17.052 17.052 0 0 0-15.557-10.174zM449.284 236.794h-35.199c9.651 0 17.379 8.003 17.042 17.648l-8.434 241.511c-.283 8.101-6.932 14.522-15.037 14.522h35.198c8.106 0 14.755-6.421 15.038-14.522l8.434-241.511c.337-9.645-7.391-17.648-17.042-17.648z" fill="#FDB441" data-original="#fdb441"></path></g></g></svg>