<svg xmlns="http://www.w3.org/2000/svg" xml:space="preserve" width="512" height="512" style="enable-background:new 0 0 512 512" viewBox="0 0 512 511"><path fill="#00AA63" d="M512 74.879v206.488c0 9.195-7.46 16.656-16.656 16.656H145.98c-9.195 0-16.656-7.46-16.656-16.656V17.157C129.324 7.96 136.785.5 145.98.5h113.102a16.659 16.659 0 0 1 14.938 9.285l19.304 39.153a16.657 16.657 0 0 0 14.942 9.289h187.078c9.195 0 16.656 7.457 16.656 16.652zm0 0" data-original="#00aa63"/><path fill="#087" d="M512 74.879v206.488c0 9.195-7.46 16.656-16.656 16.656H330.008V58.227h165.336c9.195 0 16.656 7.457 16.656 16.652zm0 0" data-original="#008877"/><path fill="#FFC43B" d="M447.336 139.543v206.488c0 9.196-7.457 16.653-16.652 16.653H81.316c-9.195 0-16.652-7.457-16.652-16.653V81.816c0-9.195 7.457-16.652 16.652-16.652h113.102c6.348 0 12.14 3.602 14.941 9.285l19.305 39.153a16.638 16.638 0 0 0 14.938 9.285h187.082c9.195 0 16.652 7.46 16.652 16.656zm0 0" data-original="#ffc43b"/><path fill="#FFA433" d="M447.336 139.543v206.488c0 9.196-7.457 16.653-16.652 16.653H256V122.887h174.684c9.195 0 16.652 7.46 16.652 16.656zm0 0" data-original="#ffa433"/><path fill="#FF6F44" d="M382.676 204.207v206.484c0 9.196-7.461 16.657-16.656 16.657H16.656C7.461 427.348 0 419.887 0 410.69v-264.21c0-9.196 7.46-16.657 16.656-16.657h113.102a16.669 16.669 0 0 1 14.937 9.29L164 178.265a16.646 16.646 0 0 0 14.93 9.297h187.09c9.195 0 16.656 7.449 16.656 16.644zm0 0" data-original="#ff6f44"/><path fill="#FF451B" d="M382.676 204.207v206.484c0 9.196-7.461 16.657-16.656 16.657H191.336V187.563H366.02c9.195 0 16.656 7.449 16.656 16.644zm0 0" data-original="#ff451b"/><g fill="#FFF"><path d="M268.324 382.09c-8.316 0-15.058-6.742-15.058-15.059v-9.254c0-8.316 6.742-15.058 15.058-15.058 8.32 0 15.063 6.742 15.063 15.058v9.254c0 8.317-6.742 15.059-15.063 15.059zM314.953 382.09c-8.316 0-15.058-6.742-15.058-15.059v-9.254c0-8.316 6.742-15.058 15.058-15.058s15.059 6.742 15.059 15.058v9.254c0 8.317-6.742 15.059-15.059 15.059zm0 0" data-original="#ffffff"/></g></svg>