<svg xmlns="http://www.w3.org/2000/svg" xml:space="preserve" width="512" height="512" style="enable-background:new 0 0 512 512"><path fill="#0ed2b3" d="M358.812 22.437H239.888l-43.886 82.333H384.36Z" data-original="#0ed2b3" style="fill:#00aa63;fill-opacity:1"/><path fill="#0ab69f" d="M196.002 22.437v82.332h146.492L239.888 22.437Z" data-original="#0ab69f" style="fill:#087;fill-opacity:1"/><path fill="#dc8758" d="M464.694 22.437H358.812v82.332h116.184v-72.03c0-5.689-4.612-10.302-10.302-10.302z" data-original="#dc8758" style="fill:#ffc43b;fill-opacity:1"/><path fill="#ff8086" d="M491.396 380.569H358.65L256 317.88l-102.651 62.689H39.72c-11.379 0-25.44-9.225-25.44-20.604l1.018-339.362C15.298 9.225 28.592 0 39.971 0h125.963c4.68 0 9.221 1.593 12.874 4.518l74.769 59.841a20.605 20.605 0 0 0 12.874 4.518h224.944c11.379 0 20.604 9.225 20.604 20.604v270.486c.001 11.378-9.224 20.602-20.603 20.602z" data-original="#ff8086" style="fill:#ff6f44;fill-opacity:1"/><path fill="#f46c7a" d="M26.702 359.966V20.604C26.702 9.225 35.927 0 47.306 0H20.604C9.225 0 0 9.225 0 20.604v339.362c0 11.379 9.225 20.604 20.604 20.604h26.702c-11.379-.001-20.604-9.225-20.604-20.604ZM349.341 348.191l-20.96-20.961c-5.503-5.502-12.819-8.533-20.601-8.533-3.551 0-7.075.662-10.373 1.918-4.596-10.227-14.883-17.226-26.587-17.226h-29.642c-11.707 0-21.994 7-26.588 17.226a29.188 29.188 0 0 0-10.371-1.918c-7.784 0-15.102 3.032-20.601 8.533l-20.957 20.958c-8.278 8.275-10.606 20.496-6.624 30.978-.927.417-1.818.896-2.69 1.403H358.65a28.764 28.764 0 0 0-2.688-1.402c3.983-10.484 1.655-22.707-6.621-30.976z" data-original="#f46c7a" style="fill:#ff451b;fill-opacity:1"/><path fill="#eef5f6" d="M60.876 61.316H48.918a7.726 7.726 0 1 1 0-15.452h11.959a7.726 7.726 0 1 1-.001 15.452zM108.441 61.316H96.482a7.726 7.726 0 1 1 0-15.452h11.959a7.726 7.726 0 1 1 0 15.452zM156.006 61.316h-11.959a7.726 7.726 0 1 1 0-15.452h11.959a7.726 7.726 0 1 1 0 15.452z" data-original="#eef5f6"/><path fill="#a4ccff" d="m344.473 402.398-26.212-3.307c-1.231-.155-2.303-.951-2.762-2.103a62.98 62.98 0 0 0-.756-1.815c-.491-1.131-.3-2.443.456-3.417l16.211-20.893a3.378 3.378 0 0 0-.28-4.46l-20.96-20.96a3.378 3.378 0 0 0-4.46-.28l-20.893 16.211c-.974.756-2.286.947-3.417.456a62.98 62.98 0 0 0-1.815-.756c-1.153-.459-1.948-1.531-2.104-2.762l-3.307-26.212a3.38 3.38 0 0 0-3.352-2.956H241.18a3.38 3.38 0 0 0-3.352 2.956l-3.307 26.212c-.155 1.231-.951 2.303-2.104 2.762a62.98 62.98 0 0 0-1.815.756c-1.131.491-2.443.3-3.417-.456l-11.896-9.231-8.81 2.1c-1.345-1.044-2.358-4.55-3.562-3.346l-18.135 16.624c-1.204 1.204-2.123 2.541-1.079 3.886l18.423 15.472c.756.974-2.243 7.361-2.735 8.492-.261.6-.045 1.261-.288 1.871-.459 1.153-1.647 2.147-2.879 2.303l-23.748 6.908c-1.689.213-4.462.168-4.462 1.871l4.318 21.301c0 1.702-2.841 5.976-1.151 6.189l22.453 5.325c1.231.155 10.623 1.865 11.082 3.018.243.61.495 1.215.756 1.816.491 1.131.3 2.443-.456 3.417l-16.211 20.893a3.378 3.378 0 0 0 .28 4.46l15.775 14.036a3.378 3.378 0 0 0 4.46.28l5.968-.056 11.897-9.231c.974-.756 2.286-.947 3.417-.456.6.261 1.206.513 1.815.756 1.153.459 1.948 1.531 2.104 2.762l3.307 26.212a3.38 3.38 0 0 0 3.352 2.956h29.642a3.378 3.378 0 0 0 3.352-2.956l3.307-26.211c.155-1.232.951-2.303 2.104-2.763a62.98 62.98 0 0 0 1.815-.756c1.131-.491 2.443-.3 3.417.456l20.893 16.212a3.379 3.379 0 0 0 4.46-.28l20.96-20.96a3.378 3.378 0 0 0 .28-4.46l-16.211-20.893c-.756-.974-.947-2.286-.456-3.417a65.44 65.44 0 0 0 .756-1.815c.459-1.153 1.531-1.948 2.762-2.104l26.212-3.307a3.38 3.38 0 0 0 2.956-3.352v-29.642a3.38 3.38 0 0 0-2.956-3.356zM256 448.209c-15.264 0-27.637-12.374-27.637-27.638 0-15.264 12.374-27.637 27.637-27.637s27.637 12.374 27.637 27.637c0 15.264-12.373 27.638-27.637 27.638z" data-original="#a4ccff"/><path fill="#8bb3ea" d="M201.027 474.741a3.378 3.378 0 0 1-.28-4.46l16.211-20.893c.756-.974.947-2.286.456-3.417-.261-.6-.513-1.206-.756-1.815-.459-1.153-1.531-1.949-2.762-2.104l-26.212-3.308a3.38 3.38 0 0 1-2.956-3.352V405.75a3.378 3.378 0 0 1 2.956-3.352l26.212-3.307c1.231-.155 2.303-.951 2.762-2.104.243-.61.495-1.215.756-1.815.491-1.131.3-2.443-.456-3.417l-16.211-20.893a3.378 3.378 0 0 1 .28-4.46l14.26-14.26-8.997-6.981a3.377 3.377 0 0 0-4.46.281l-20.96 20.96a3.378 3.378 0 0 0-.28 4.46l16.211 20.893c.756.974.947 2.286.456 3.417-.261.6-.513 1.206-.756 1.815-.459 1.153-1.531 1.948-2.762 2.104l-26.212 3.307a3.38 3.38 0 0 0-2.956 3.352v29.642a3.378 3.378 0 0 0 2.956 3.352l26.212 3.308c1.231.155 2.303.951 2.762 2.104.243.61.495 1.215.756 1.815.491 1.131.3 2.443-.456 3.417l-16.211 20.893a3.378 3.378 0 0 0 .28 4.46l20.96 20.96a3.378 3.378 0 0 0 4.46.28l8.996-6.981Z" data-original="#8bb3ea"/></svg>