<?xml version="1.0" encoding="UTF-8"?>
<svg width="42px" height="42px" viewBox="0 0 42 42" version="1.1" xmlns="http://www.w3.org/2000/svg" xmlns:xlink="http://www.w3.org/1999/xlink">
    <title>Assets/Itinerary/Start</title>
    <defs>
        <linearGradient x1="50%" y1="0%" x2="50%" y2="100%" id="linearGradient-1">
            <stop stop-color="#000000" stop-opacity="0" offset="0%"></stop>
            <stop stop-color="#000000" stop-opacity="0.530976836" offset="100%"></stop>
        </linearGradient>
        <rect id="path-2" x="12" y="6" width="18" height="18" rx="3"></rect>
        <filter x="-1.4%" y="-1.4%" width="102.8%" height="102.8%" filterUnits="objectBoundingBox" id="filter-3">
            <feMorphology radius="0.5" operator="erode" in="SourceAlpha" result="shadowSpreadInner1"></feMorphology>
            <feOffset dx="0" dy="0" in="shadowSpreadInner1" result="shadowOffsetInner1"></feOffset>
            <feComposite in="shadowOffsetInner1" in2="SourceAlpha" operator="arithmetic" k2="-1" k3="1" result="shadowInnerInner1"></feComposite>
            <feColorMatrix values="0 0 0 0 0   0 0 0 0 0   0 0 0 0 0  0 0 0 1 0" type="matrix" in="shadowInnerInner1"></feColorMatrix>
        </filter>
    </defs>
    <g id="Assets/Itinerary/Start" stroke="none" stroke-width="1" fill="none" fill-rule="evenodd">
        <rect id="Footprint" x="0" y="0" width="42" height="42"></rect>
        <circle id="Oval" fill="#FFFFFF" cx="21" cy="33" r="3"></circle>
        <rect id="halo" stroke-opacity="0.75" stroke="#FFFFFF" stroke-width="2" x="11" y="5" width="20" height="20" rx="3"></rect>
        <path d="M24.6104076,20.8819805 L26.6104076,20.8819805 L26.6104076,34.8819805 C26.6104076,35.4342653 26.1626924,35.8819805 25.6104076,35.8819805 C25.0581229,35.8819805 24.6104076,35.4342653 24.6104076,34.8819805 L24.6104076,20.8819805 L24.6104076,20.8819805 Z" id="Rectangle" fill="url(#linearGradient-1)" transform="translate(25.6104, 28.382) rotate(45) translate(-25.6104, -28.382)"></path>
        <path d="M21.75,19.25 L21.75,33 C21.75,33.2071068 21.6660534,33.3946068 21.5303301,33.5303301 C21.3946068,33.6660534 21.2071068,33.75 21,33.75 C20.7928932,33.75 20.6053932,33.6660534 20.4696699,33.5303301 C20.3339466,33.3946068 20.25,33.2071068 20.25,33 L20.25,19.25 L21.75,19.25 Z" id="Rectangle" stroke="#000000" stroke-width="0.5" fill="#D3D1CF"></path>
        <path d="M22,20 L22,22 L21.9167766,21.999916 C21.7624576,21.1170085 21.4100508,20.5 21,20.5 C20.5899492,20.5 20.2375424,21.1170085 20.0832234,21.999916 L20,22 L20,20 L22,20 Z" id="Shadow" fill-opacity="0.5" fill="#000000"></path>
        <g id="Sign">
            <use fill="#3C8AFF" fill-rule="evenodd" xlink:href="#path-2"></use>
            <use fill="black" fill-opacity="1" filter="url(#filter-3)" xlink:href="#path-2"></use>
        </g>
        <circle id="Oval" stroke="#1844EF" stroke-width="1.5" fill="#FFFFFF" cx="21" cy="15" r="4.75"></circle>
    </g>
</svg>