<?xml version="1.0" encoding="UTF-8" standalone="no"?>
<svg
   xmlns:dc="http://purl.org/dc/elements/1.1/"
   xmlns:cc="http://creativecommons.org/ns#"
   xmlns:rdf="http://www.w3.org/1999/02/22-rdf-syntax-ns#"
   xmlns:svg="http://www.w3.org/2000/svg"
   xmlns="http://www.w3.org/2000/svg"
   xmlns:sodipodi="http://sodipodi.sourceforge.net/DTD/sodipodi-0.dtd"
   xmlns:inkscape="http://www.inkscape.org/namespaces/inkscape"
   sodipodi:docname="pan_approetsa.svg"
   height="64"
   width="64"
   inkscape:version="1.1-dev (ccb98c3c56, 2020-01-19)"
   version="1.1"
   id="svg2">
  <metadata
     id="metadata8">
    <rdf:RDF>
      <cc:Work
         rdf:about="">
        <dc:format>image/svg+xml</dc:format>
        <dc:type
           rdf:resource="http://purl.org/dc/dcmitype/StillImage" />
        <dc:title />
      </cc:Work>
    </rdf:RDF>
  </metadata>
  <defs
     id="defs6" />
  <sodipodi:namedview
     inkscape:document-rotation="0"
     inkscape:current-layer="g3769"
     inkscape:window-maximized="1"
     inkscape:window-y="28"
     inkscape:window-x="0"
     inkscape:cy="38.118414"
     inkscape:cx="-20.375752"
     inkscape:zoom="4.6732673"
     inkscape:snap-page="true"
     inkscape:snap-center="true"
     inkscape:snap-object-midpoints="true"
     inkscape:snap-midpoints="true"
     inkscape:snap-smooth-nodes="true"
     inkscape:snap-intersection-paths="true"
     inkscape:object-nodes="true"
     inkscape:object-paths="true"
     inkscape:snap-bbox-midpoints="true"
     inkscape:snap-bbox-edge-midpoints="true"
     inkscape:bbox-nodes="true"
     inkscape:bbox-paths="true"
     inkscape:snap-bbox="true"
     showgrid="true"
     id="namedview4"
     inkscape:window-height="1024"
     inkscape:window-width="1920"
     inkscape:pageshadow="2"
     inkscape:pageopacity="0"
     guidetolerance="10"
     gridtolerance="10"
     objecttolerance="10"
     borderopacity="1"
     bordercolor="#666666"
     pagecolor="#ffffff">
    <inkscape:grid
       id="grid865"
       type="xygrid" />
  </sodipodi:namedview>
  <g
     transform="translate(-107.73191,-4.8418837)"
     id="g3769">
    <g
       transform="translate(150,10)"
       id="g854">
      <rect
         style="fill:#ffffff;fill-opacity:1;fill-rule:nonzero;stroke:none;stroke-width:0.636824"
         id="rect2987-3"
         width="64"
         height="64"
         x="-42.268089"
         y="-5.1581163" />
      <rect
         style="fill:none;stroke:#000000;stroke-width:3.97394;stroke-miterlimit:4;stroke-dasharray:none;stroke-opacity:1"
         id="rect2989-6"
         width="58.026062"
         height="58.026058"
         x="-39.28112"
         y="-2.1711454" />
    </g>
    <g
       style="font-style:normal;font-variant:normal;font-weight:normal;font-stretch:normal;font-size:12px;line-height:1.25;font-family:Roboto;font-variant-ligatures:normal;font-variant-caps:normal;font-variant-numeric:normal;font-feature-settings:normal;text-align:start;letter-spacing:0px;word-spacing:0px;writing-mode:lr-tb;text-anchor:start;fill:#000000;fill-opacity:1;stroke:none;stroke-width:1.5"
       id="text858"
       aria-label="GARE">
      <path
         id="path894"
         style="font-style:normal;font-variant:normal;font-weight:normal;font-stretch:normal;font-family:PoliceSNCF;text-align:center;text-anchor:middle;stroke-width:1.5"
         d="m 126.36104,28.244228 h 1.4414 q 0,0.269532 -0.1289,0.515625 -0.11719,0.269532 -0.31641,0.46875 -0.21094,0.210938 -0.46875,0.328125 -0.26953,0.117188 -0.52734,0.128907 -0.26953,0 -0.51563,-0.128907 -0.26953,-0.117187 -0.46875,-0.328125 -0.21093,-0.199218 -0.33984,-0.46875 -0.11719,-0.257812 -0.11719,-0.515625 v -4.804687 q 0,-0.269531 0.11719,-0.527344 0.11719,-0.257812 0.33984,-0.46875 0.19922,-0.199219 0.46875,-0.316406 0.25782,-0.117188 0.51563,-0.128906 0.26953,0 0.52734,0.128906 0.25781,0.117187 0.46875,0.316406 0.19922,0.210938 0.31641,0.46875 0.11719,0.269531 0.1289,0.527344 h 2.15625 q 0,-0.65625 -0.30468,-1.300781 -0.30469,-0.644532 -0.8086,-1.183594 -0.52734,-0.515625 -1.18359,-0.808594 -0.64453,-0.304687 -1.30078,-0.304687 -0.65625,0 -1.3125,0.304687 -0.64453,0.304688 -1.16016,0.808594 -0.52734,0.527344 -0.83203,1.183594 -0.30469,0.644531 -0.29297,1.300781 v 4.804687 q 0,0.65625 0.29297,1.300782 0.30469,0.644531 0.83203,1.171875 0.51563,0.527343 1.16016,0.820312 0.64453,0.304688 1.3125,0.304688 0.65625,0 1.30078,-0.304688 0.64453,-0.304687 1.18359,-0.820312 0.51563,-0.515625 0.8086,-1.171875 0.30468,-0.644532 0.30468,-1.300782 V 26.07626 h -3.59765 z" />
      <path
         id="path896"
         style="font-style:normal;font-variant:normal;font-weight:normal;font-stretch:normal;font-family:PoliceSNCF;text-align:center;text-anchor:middle;stroke-width:1.5"
         d="m 134.92744,25.431728 0.51563,2.085938 h -0.98438 z m 1.03125,4.253907 0.53907,2.15625 h 2.03906 l -2.51953,-12 h -2.16797 l -2.51953,12 h 2.16797 l 0.46875,-2.15625 z" />
      <path
         id="path898"
         style="font-style:normal;font-variant:normal;font-weight:normal;font-stretch:normal;font-family:PoliceSNCF;text-align:center;text-anchor:middle;stroke-width:1.5"
         d="m 147.5251,23.427822 q 0,-0.65625 -0.30469,-1.300781 -0.30468,-0.632813 -0.80859,-1.171875 -0.52734,-0.515625 -1.18359,-0.808594 -0.64454,-0.304687 -1.30079,-0.304687 h -3.60937 v 12 h 2.16797 v -4.804688 h 1.4414 q 0.26954,0 0.52735,0.128906 0.25781,0.117188 0.46875,0.316407 0.19922,0.210937 0.3164,0.46875 0.11719,0.269531 0.11719,0.527343 v 3.363282 h 2.16797 v -3.363282 q 0,-0.621093 -0.14062,-1.089843 -0.15235,-0.46875 -0.36329,-0.761719 -0.21093,-0.304688 -0.38671,-0.445313 -0.17579,-0.128906 -0.30469,-0.222656 l 0.0234,-0.02344 q 0.14062,-0.140625 0.3164,-0.328125 0.16406,-0.1875 0.375,-0.527344 0.1875,-0.328125 0.33985,-0.75 0.14062,-0.421875 0.14062,-0.902344 z m -3.59766,1.453125 h -1.4414 v -2.882812 h 1.4414 q 0.26954,0 0.52735,0.128906 0.25781,0.117187 0.46875,0.316406 0.19922,0.210938 0.3164,0.46875 0.11719,0.269531 0.11719,0.527344 0,0.269531 -0.11719,0.515625 -0.11718,0.269531 -0.3164,0.46875 -0.21094,0.210937 -0.46875,0.339844 -0.25781,0.117187 -0.52735,0.117187 z" />
      <path
         id="path900"
         style="font-style:normal;font-variant:normal;font-weight:normal;font-stretch:normal;font-family:PoliceSNCF;text-align:center;text-anchor:middle;stroke-width:1.5"
         d="m 151.66182,24.728603 v -2.730468 h 5.03906 v -2.15625 h -7.20703 v 12 h 7.20703 v -2.15625 h -5.03906 v -2.800782 h 2.15625 v -2.15625 z" />
    </g>
    <g
       style="font-style:normal;font-variant:normal;font-weight:normal;font-stretch:normal;font-size:12px;line-height:1.25;font-family:Roboto;font-variant-ligatures:normal;font-variant-caps:normal;font-variant-numeric:normal;font-feature-settings:normal;text-align:start;letter-spacing:0px;word-spacing:0px;writing-mode:lr-tb;text-anchor:start;fill:#000000;fill-opacity:1;stroke:none;stroke-width:1.5"
       id="text874"
       aria-label="À 500m">
      <path
         id="path903"
         style="font-size:6px;stroke-width:1.5"
         d="m 120.95476,52.76376 0.26953,1.078125 h 1.01953 l -1.25977,-6 h -1.08398 l -1.25977,6 h 1.08399 l 0.23437,-1.078125 z m -0.51563,-2.126954 0.25782,1.042969 h -0.49219 z m -0.43359,-4.957031 0.56836,1.083985 h 0.83789 l -0.53906,-1.083985 z" />
      <path
         id="path905"
         style="font-style:normal;font-variant:normal;font-weight:normal;font-stretch:normal;font-family:PoliceSNCF;stroke-width:1.5"
         d="m 131.50319,45.439541 q -0.41016,0 -0.5625,0.02344 -0.15234,0.02344 -0.28125,0.08203 v -1.546875 h 3.84375 v -2.15625 h -6 v 5.378906 l 2.15625,0.703125 q 0.0117,-0.105469 0.1875,-0.210938 0.17578,-0.105468 0.65625,-0.105468 0.26953,0 0.52734,0.117187 0.25782,0.117188 0.46875,0.316406 0.19922,0.210938 0.31641,0.46875 0.11719,0.269532 0.12891,0.527344 v 1.207031 q 0,0.269532 -0.12891,0.515625 -0.11719,0.269532 -0.31641,0.46875 -0.21093,0.210938 -0.46875,0.328125 -0.26953,0.117188 -0.52734,0.128907 -0.26953,0 -0.51563,-0.128907 -0.26953,-0.117187 -0.46875,-0.328125 -0.21093,-0.199218 -0.33984,-0.46875 -0.11719,-0.257812 -0.11719,-0.515625 h -2.15625 q 0,0.65625 0.29297,1.300782 0.30469,0.644531 0.83203,1.171875 0.51563,0.527343 1.16016,0.820312 0.64453,0.304688 1.3125,0.304688 0.65625,0 1.30078,-0.304688 0.64453,-0.304687 1.18359,-0.820312 0.51563,-0.515625 0.8086,-1.171875 0.30469,-0.644532 0.30469,-1.300782 v -1.207031 q 0,-0.65625 -0.30469,-1.300781 -0.30469,-0.644531 -0.8086,-1.183594 -0.52734,-0.515625 -1.18359,-0.808594 -0.64453,-0.304687 -1.30078,-0.304687 z" />
      <path
         id="path907"
         style="font-style:normal;font-variant:normal;font-weight:normal;font-stretch:normal;font-family:PoliceSNCF;stroke-width:1.5"
         d="m 140.2571,53.841885 q 0.65625,0 1.30078,-0.304688 0.64453,-0.304687 1.18359,-0.820312 0.51563,-0.515625 0.80859,-1.171875 0.30469,-0.644532 0.30469,-1.300782 v -4.804687 q 0,-0.65625 -0.30469,-1.300781 -0.30468,-0.644532 -0.80859,-1.183594 -0.52734,-0.515625 -1.18359,-0.808594 -0.64453,-0.304687 -1.30078,-0.304687 -0.65625,0 -1.3125,0.304687 -0.64454,0.304688 -1.16016,0.808594 -0.52734,0.527344 -0.83203,1.183594 -0.30469,0.644531 -0.29297,1.300781 v 4.804687 q 0,0.65625 0.29297,1.300782 0.30469,0.644531 0.83203,1.171875 0.51562,0.527343 1.16016,0.820312 0.65625,0.304688 1.3125,0.304688 z m 0,-2.15625 q -0.26954,0 -0.51563,-0.128907 -0.26953,-0.117187 -0.46875,-0.328125 -0.21094,-0.199218 -0.33984,-0.46875 -0.11719,-0.257812 -0.11719,-0.515625 v -4.804687 q 0,-0.269531 0.11719,-0.527344 0.11718,-0.257812 0.33984,-0.46875 0.19922,-0.199219 0.46875,-0.316406 0.25781,-0.117188 0.51563,-0.128906 0.26953,0 0.52734,0.128906 0.25781,0.117187 0.46875,0.316406 0.19922,0.210938 0.31641,0.46875 0.11718,0.269531 0.1289,0.527344 v 4.804687 q 0,0.269532 -0.1289,0.515625 -0.11719,0.269532 -0.31641,0.46875 -0.21094,0.210938 -0.46875,0.328125 -0.25781,0.128907 -0.52734,0.128907 z" />
      <path
         id="path909"
         style="font-style:normal;font-variant:normal;font-weight:normal;font-stretch:normal;font-family:PoliceSNCF;stroke-width:1.5"
         d="m 149.011,53.841885 q 0.65625,0 1.30078,-0.304688 0.64453,-0.304687 1.1836,-0.820312 0.51562,-0.515625 0.80859,-1.171875 0.30469,-0.644532 0.30469,-1.300782 v -4.804687 q 0,-0.65625 -0.30469,-1.300781 -0.30469,-0.644532 -0.80859,-1.183594 -0.52735,-0.515625 -1.1836,-0.808594 -0.64453,-0.304687 -1.30078,-0.304687 -0.65625,0 -1.3125,0.304687 -0.64453,0.304688 -1.16015,0.808594 -0.52735,0.527344 -0.83204,1.183594 -0.30468,0.644531 -0.29296,1.300781 v 4.804687 q 0,0.65625 0.29296,1.300782 0.30469,0.644531 0.83204,1.171875 0.51562,0.527343 1.16015,0.820312 0.65625,0.304688 1.3125,0.304688 z m 0,-2.15625 q -0.26953,0 -0.51562,-0.128907 -0.26953,-0.117187 -0.46875,-0.328125 -0.21094,-0.199218 -0.33985,-0.46875 -0.11718,-0.257812 -0.11718,-0.515625 v -4.804687 q 0,-0.269531 0.11718,-0.527344 0.11719,-0.257812 0.33985,-0.46875 0.19922,-0.199219 0.46875,-0.316406 0.25781,-0.117188 0.51562,-0.128906 0.26953,0 0.52735,0.128906 0.25781,0.117187 0.46875,0.316406 0.19921,0.210938 0.3164,0.46875 0.11719,0.269531 0.12891,0.527344 v 4.804687 q 0,0.269532 -0.12891,0.515625 -0.11719,0.269532 -0.3164,0.46875 -0.21094,0.210938 -0.46875,0.328125 -0.25782,0.128907 -0.52735,0.128907 z" />
      <path
         id="path911"
         style="font-style:normal;font-variant:normal;font-weight:normal;font-stretch:normal;font-family:PoliceSNCF;stroke-width:1.5"
         d="m 158.84303,47.244228 q -0.46875,0 -0.78515,0.09375 -0.31641,0.105469 -0.53907,0.269532 -0.1875,-0.152344 -0.5039,-0.269532 -0.32813,-0.09375 -0.8086,-0.09375 -0.26953,0 -0.39843,0.01172 -0.14063,0.02344 -0.26953,0.05859 v -0.07031 h -1.3125 v 6.597657 h 1.3125 v -4.617188 q 0,-0.257812 0.21093,-0.457031 0.1875,-0.199219 0.45703,-0.210938 0.26954,0 0.46875,0.199219 0.1875,0.199219 0.1875,0.46875 v 4.617188 h 1.32422 v -4.617188 q 0,-0.257812 0.19922,-0.457031 0.1875,-0.199219 0.45703,-0.210938 0.26953,0 0.46875,0.199219 0.1875,0.199219 0.1875,0.46875 v 4.617188 h 1.32422 v -4.617188 q 0,-1.980469 -1.98047,-1.980469 z" />
    </g>
  </g>
</svg>
