<?xml version="1.0" encoding="UTF-8" standalone="no"?>
<svg
   xmlns:dc="http://purl.org/dc/elements/1.1/"
   xmlns:cc="http://creativecommons.org/ns#"
   xmlns:rdf="http://www.w3.org/1999/02/22-rdf-syntax-ns#"
   xmlns:svg="http://www.w3.org/2000/svg"
   xmlns="http://www.w3.org/2000/svg"
   xmlns:sodipodi="http://sodipodi.sourceforge.net/DTD/sodipodi-0.dtd"
   xmlns:inkscape="http://www.inkscape.org/namespaces/inkscape"
   inkscape:version="1.0 (4035a4fb49, 2020-05-01)"
   sodipodi:docname="ARRET VOY 13V.svg"
   height="64"
   width="64"
   version="1.1"
   id="svg2">
  <sodipodi:namedview
     inkscape:current-layer="svg2"
     inkscape:window-maximized="0"
     inkscape:window-y="25"
     inkscape:window-x="0"
     inkscape:cy="32"
     inkscape:cx="32"
     inkscape:zoom="13.390625"
     showgrid="false"
     id="namedview13"
     inkscape:window-height="1051"
     inkscape:window-width="1825"
     inkscape:pageshadow="2"
     inkscape:pageopacity="0"
     guidetolerance="10"
     gridtolerance="10"
     objecttolerance="10"
     borderopacity="1"
     bordercolor="#666666"
     pagecolor="#ffffff" />
  <metadata
     id="metadata8">
    <rdf:RDF>
      <cc:Work
         rdf:about="">
        <dc:format>image/svg+xml</dc:format>
        <dc:type
           rdf:resource="http://purl.org/dc/dcmitype/StillImage" />
        <dc:title></dc:title>
      </cc:Work>
    </rdf:RDF>
  </metadata>
  <defs
     id="defs6" />
  <rect
     y="-4.0637207e-08"
     x="7.0556644e-07"
     height="64"
     width="64"
     id="rect2987"
     style="fill:#000000;fill-opacity:1;fill-rule:nonzero;stroke:none;stroke-width:0.636824" />
  <rect
     y="2.9675407"
     x="2.9675376"
     height="58.064922"
     width="58.064919"
     id="rect2989"
     style="fill:none;stroke:#ffffff;stroke-width:3.93508;stroke-miterlimit:4;stroke-dasharray:none;stroke-opacity:1" />
  <g
     transform="matrix(0.80040629,0,0,0.80040629,-79.842296,2.5115255)"
     aria-label="TT"
     id="text837"
     style="font-style:normal;font-variant:normal;font-weight:normal;font-stretch:normal;font-size:32px;line-height:1.25;font-family:Roboto;font-variant-ligatures:normal;font-variant-caps:normal;font-variant-numeric:normal;font-feature-settings:normal;text-align:start;letter-spacing:0px;word-spacing:0px;writing-mode:lr-tb;text-anchor:start;fill:#ffffff;fill-opacity:1;stroke:none;stroke-width:4">
    <g
       style="font-style:normal;font-variant:normal;font-weight:normal;font-stretch:normal;font-size:30.522px;line-height:1.25;font-family:Roboto;font-variant-ligatures:normal;font-variant-caps:normal;font-variant-numeric:normal;font-feature-settings:normal;text-align:start;letter-spacing:0px;word-spacing:0px;writing-mode:lr-tb;text-anchor:start;fill:#ffffff;fill-opacity:1;stroke:none;stroke-width:15.261"
       id="text840"
       aria-label="13V">
      <path
         id="path892"
         style="font-style:normal;font-variant:normal;font-weight:normal;font-stretch:normal;font-family:PoliceSNCF;fill:#ffffff;stroke-width:15.261"
         d="m 114.39626,52.102882 h 5.51423 V 21.580883 h -5.51423 z" />
      <path
         id="path894"
         style="font-style:normal;font-variant:normal;font-weight:normal;font-stretch:normal;font-family:PoliceSNCF;fill:#ffffff;stroke-width:15.261"
         d="m 141.72895,27.065305 v -5.484422 h -15.261 v 5.484422 h 8.34586 l -5.81229,5.424808 2.95086,4.560416 q 0.0596,-0.05961 0.23845,-0.26826 0.20865,-0.298066 0.56632,-0.417293 0.32788,-0.119226 1.3413,-0.119226 0.68556,0 1.3413,0.298066 0.65575,0.298067 1.19227,0.80478 0.50671,0.536519 0.80478,1.192265 0.29806,0.685553 0.32787,1.341299 v 3.070084 q 0,0.685553 -0.32787,1.311492 -0.29807,0.685553 -0.80478,1.192266 -0.53652,0.536519 -1.19227,0.834586 -0.68555,0.298066 -1.3413,0.327873 -0.68555,0 -1.31149,-0.327873 -0.68555,-0.298067 -1.19226,-0.834586 -0.53652,-0.506713 -0.8644,-1.192266 -0.29806,-0.655746 -0.29806,-1.311492 h -5.48442 q 0,1.669172 0.74516,3.308537 0.77497,1.639365 2.11627,2.980664 1.31149,1.341299 2.95086,2.086465 1.63937,0.774972 3.33834,0.774972 1.66918,0 3.30854,-0.774972 1.63937,-0.774973 3.01047,-2.086465 1.31149,-1.311492 2.05666,-2.980664 0.77497,-1.639365 0.77497,-3.308537 V 39.88216 q 0,-1.669172 -0.62594,-3.129697 -0.65574,-1.430719 -1.57975,-2.503758 -0.98362,-1.073039 -1.90762,-1.728785 -0.95382,-0.685553 -1.72879,-1.073039 z" />
      <path
         id="path896"
         style="font-style:normal;font-variant:normal;font-weight:normal;font-stretch:normal;font-family:PoliceSNCF;fill:#ffffff;stroke-width:15.261"
         d="M 155.88711,37.885115 152.2507,21.580883 h -5.51423 l 6.40843,30.521999 h 5.51423 l 6.40842,-30.521999 h -5.18635 z" />
    </g>
  </g>
</svg>
