<?xml version="1.0" encoding="UTF-8" standalone="no"?>
<svg
   xmlns:dc="http://purl.org/dc/elements/1.1/"
   xmlns:cc="http://creativecommons.org/ns#"
   xmlns:rdf="http://www.w3.org/1999/02/22-rdf-syntax-ns#"
   xmlns:svg="http://www.w3.org/2000/svg"
   xmlns="http://www.w3.org/2000/svg"
   xmlns:sodipodi="http://sodipodi.sourceforge.net/DTD/sodipodi-0.dtd"
   xmlns:inkscape="http://www.inkscape.org/namespaces/inkscape"
   inkscape:version="1.0 (4035a4fb49, 2020-05-01)"
   sodipodi:docname="ATC.svg"
   height="64"
   width="64"
   version="1.1"
   id="svg2">
  <sodipodi:namedview
     inkscape:current-layer="svg2"
     inkscape:window-maximized="1"
     inkscape:window-y="0"
     inkscape:window-x="0"
     inkscape:cy="24.310675"
     inkscape:cx="25.397902"
     inkscape:zoom="9.375"
     showgrid="true"
     id="namedview9"
     inkscape:window-height="1024"
     inkscape:window-width="1920"
     inkscape:pageshadow="2"
     inkscape:pageopacity="0"
     guidetolerance="10"
     gridtolerance="10"
     objecttolerance="10"
     borderopacity="1"
     inkscape:document-rotation="0"
     bordercolor="#666666"
     pagecolor="#ffffff">
    <inkscape:grid
       id="grid833"
       type="xygrid" />
  </sodipodi:namedview>
  <metadata
     id="metadata8">
    <rdf:RDF>
      <cc:Work
         rdf:about="">
        <dc:format>image/svg+xml</dc:format>
        <dc:type
           rdf:resource="http://purl.org/dc/dcmitype/StillImage" />
        <dc:title></dc:title>
      </cc:Work>
    </rdf:RDF>
  </metadata>
  <defs
     id="defs6" />
  <rect
     y="0"
     x="0"
     height="64"
     width="64"
     id="rect2987"
     style="fill:#000000;fill-opacity:1;fill-rule:nonzero;stroke:none;stroke-width:0.636824" />
  <rect
     y="1.5248455"
     x="1.5248455"
     height="60.95031"
     width="60.95031"
     id="rect2989"
     style="fill:none;stroke:#ffffff;stroke-width:1.04969;stroke-miterlimit:4;stroke-dasharray:none;stroke-opacity:1" />
  <g
     style="font-style:normal;font-variant:normal;font-weight:normal;font-stretch:normal;font-size:24px;line-height:1.25;font-family:Roboto;font-variant-ligatures:normal;font-variant-caps:normal;font-variant-numeric:normal;font-feature-settings:normal;text-align:start;letter-spacing:0px;word-spacing:0px;writing-mode:lr-tb;text-anchor:start;fill:#000000;fill-opacity:1;stroke:none;stroke-width:3"
     id="text835"
     aria-label="CAB" />
  <path
     id="path1003"
     style="font-style:normal;font-variant:normal;font-weight:normal;font-stretch:normal;font-size:15.1901px;line-height:1.55;font-family:PoliceSNCF;font-variant-ligatures:normal;font-variant-caps:normal;font-variant-numeric:normal;font-feature-settings:normal;text-align:center;letter-spacing:0px;word-spacing:0px;writing-mode:lr-tb;text-anchor:middle;fill:#ffffff;fill-opacity:1;stroke:none;stroke-width:1.13926"
     d="m 9.4892809,15.885946 0.6527001,2.640467 H 8.8959176 Z m 1.3053991,5.384772 0.682368,2.729471 h 2.58113 L 10.868851,8.8100891 H 8.1245454 L 4.9352178,24.000189 h 2.7443051 l 0.5933633,-2.729471 z" />
  <path
     id="path1005"
     style="font-style:normal;font-variant:normal;font-weight:normal;font-stretch:normal;font-size:15.1901px;line-height:1.55;font-family:PoliceSNCF;font-variant-ligatures:normal;font-variant-caps:normal;font-variant-numeric:normal;font-feature-settings:normal;text-align:center;letter-spacing:0px;word-spacing:0px;writing-mode:lr-tb;text-anchor:middle;fill:#ffffff;fill-opacity:1;stroke:none;stroke-width:1.13926"
     d="m 25.435919,13.349318 q 0,-0.830708 -0.385686,-1.646583 -0.385687,-0.80104 -1.023552,-1.483408 Q 23.359147,9.5666273 22.528439,9.1957752 21.712564,8.8100891 20.881856,8.8100891 H 16.312958 V 24.000189 h 2.744306 v -6.081974 h 1.824592 q 0.341184,0 0.667533,0.163175 0.32635,0.148341 0.593364,0.40052 0.252179,0.267014 0.40052,0.593364 0.148341,0.341184 0.148341,0.667533 v 4.257382 h 2.744305 v -4.257382 q 0,-0.786206 -0.178009,-1.379569 -0.192843,-0.593364 -0.459857,-0.964216 -0.267013,-0.385686 -0.489524,-0.563695 -0.222512,-0.163175 -0.385687,-0.281847 l 0.02967,-0.02967 q 0.178009,-0.178009 0.40052,-0.415355 0.207677,-0.237345 0.47469,-0.667533 0.237346,-0.415355 0.430189,-0.949382 0.178009,-0.534027 0.178009,-1.142224 z m -4.554063,1.839426 H 19.057264 V 11.53956 h 1.824592 q 0.341184,0 0.667533,0.163175 0.32635,0.148341 0.593364,0.40052 0.252179,0.267014 0.40052,0.593364 0.148341,0.341183 0.148341,0.667533 0,0.341184 -0.148341,0.6527 -0.148341,0.341184 -0.40052,0.593363 -0.267014,0.267014 -0.593364,0.430188 -0.326349,0.148341 -0.667533,0.148341 z" />
  <path
     id="path1007"
     style="font-style:normal;font-variant:normal;font-weight:normal;font-stretch:normal;font-size:15.1901px;line-height:1.55;font-family:PoliceSNCF;font-variant-ligatures:normal;font-variant-caps:normal;font-variant-numeric:normal;font-feature-settings:normal;text-align:center;letter-spacing:0px;word-spacing:0px;writing-mode:lr-tb;text-anchor:middle;fill:#ffffff;fill-opacity:1;stroke:none;stroke-width:1.13926"
     d="m 37.051004,13.349318 q 0,-0.830708 -0.385686,-1.646583 -0.385686,-0.80104 -1.023551,-1.483408 Q 34.974233,9.5666273 34.143524,9.1957752 33.32765,8.8100891 32.496941,8.8100891 H 27.928044 V 24.000189 h 2.744305 v -6.081974 h 1.824592 q 0.341184,0 0.667534,0.163175 0.32635,0.148341 0.593363,0.40052 0.25218,0.267014 0.40052,0.593364 0.148341,0.341184 0.148341,0.667533 v 4.257382 h 2.744305 v -4.257382 q 0,-0.786206 -0.178009,-1.379569 -0.192843,-0.593364 -0.459856,-0.964216 -0.267014,-0.385686 -0.489525,-0.563695 -0.222511,-0.163175 -0.385686,-0.281847 l 0.02967,-0.02967 q 0.178009,-0.178009 0.40052,-0.415355 0.207678,-0.237345 0.474691,-0.667533 0.237345,-0.415355 0.430188,-0.949382 0.178009,-0.534027 0.178009,-1.142224 z m -4.554063,1.839426 H 30.672349 V 11.53956 h 1.824592 q 0.341184,0 0.667534,0.163175 0.32635,0.148341 0.593363,0.40052 0.25218,0.267014 0.40052,0.593364 0.148341,0.341183 0.148341,0.667533 0,0.341184 -0.148341,0.6527 -0.14834,0.341184 -0.40052,0.593363 -0.267013,0.267014 -0.593363,0.430188 -0.32635,0.148341 -0.667534,0.148341 z" />
  <path
     id="path1009"
     style="font-style:normal;font-variant:normal;font-weight:normal;font-stretch:normal;font-size:15.1901px;line-height:1.55;font-family:PoliceSNCF;font-variant-ligatures:normal;font-variant-caps:normal;font-variant-numeric:normal;font-feature-settings:normal;text-align:center;letter-spacing:0px;word-spacing:0px;writing-mode:lr-tb;text-anchor:middle;fill:#ffffff;fill-opacity:1;stroke:none;stroke-width:1.13926"
     d="M 42.287433,14.995901 V 11.53956 h 6.378655 V 8.8100891 h -9.12296 V 24.000189 h 9.12296 v -2.729471 h -6.378655 v -3.545346 h 2.729471 v -2.729471 z" />
  <path
     id="path1011"
     style="font-style:normal;font-variant:normal;font-weight:normal;font-stretch:normal;font-size:15.1901px;line-height:1.55;font-family:PoliceSNCF;font-variant-ligatures:normal;font-variant-caps:normal;font-variant-numeric:normal;font-feature-settings:normal;text-align:center;letter-spacing:0px;word-spacing:0px;writing-mode:lr-tb;text-anchor:middle;fill:#ffffff;fill-opacity:1;stroke:none;stroke-width:1.13926"
     d="m 55.875455,11.53956 h 3.189328 V 8.8100891 H 49.956656 V 11.53956 h 3.189328 v 12.460629 h 2.729471 z" />
  <g
     style="font-style:normal;font-variant:normal;font-weight:normal;font-stretch:normal;font-size:7px;line-height:1.25;font-family:Roboto;font-variant-ligatures:normal;font-variant-caps:normal;font-variant-numeric:normal;font-feature-settings:normal;text-align:start;letter-spacing:0px;word-spacing:0px;writing-mode:lr-tb;text-anchor:start;fill:#ffffff;fill-opacity:1;stroke:none;stroke-width:0.875"
     id="text872"
     aria-label="DES TRAINS">
    <path
       id="path904"
       style="font-style:normal;font-variant:normal;font-weight:normal;font-stretch:normal;font-family:PoliceSNCF;fill:#ffffff;stroke-width:0.875"
       d="m 11.337925,30.503983 q 0.157227,0 0.307617,0.07519 0.150391,0.06836 0.273438,0.18457 0.116211,0.123047 0.18457,0.273438 0.06836,0.157226 0.06836,0.307617 v 2.802734 q 0,0.157227 -0.06836,0.300781 -0.06836,0.157227 -0.18457,0.273438 -0.123047,0.123047 -0.273438,0.191406 -0.157226,0.06836 -0.307617,0.0752 h -0.84082 v -4.484375 z m 0,-1.257813 H 9.2324562 v 7 h 2.1054688 q 0.382812,0 0.758789,-0.177734 0.375977,-0.177735 0.69043,-0.478516 0.300781,-0.300781 0.471679,-0.683594 0.177735,-0.375976 0.177735,-0.758789 v -2.802734 q 0,-0.382813 -0.177735,-0.758789 -0.177734,-0.375977 -0.471679,-0.69043 -0.307617,-0.300781 -0.69043,-0.47168 -0.375977,-0.177734 -0.758789,-0.177734 z" />
    <path
       id="path906"
       style="font-style:normal;font-variant:normal;font-weight:normal;font-stretch:normal;font-family:PoliceSNCF;fill:#ffffff;stroke-width:0.875"
       d="m 15.849644,32.096756 v -1.592773 h 2.939453 V 29.24617 h -4.204102 v 7 h 4.204102 v -1.257812 h -2.939453 v -1.63379 h 1.257812 v -1.257812 z" />
    <path
       id="path908"
       style="font-style:normal;font-variant:normal;font-weight:normal;font-stretch:normal;font-family:PoliceSNCF;fill:#ffffff;stroke-width:0.875"
       d="m 23.724644,31.276443 q 0,-0.382812 -0.164063,-0.758789 -0.170898,-0.362304 -0.451172,-0.65625 -0.293945,-0.287109 -0.663086,-0.451171 -0.36914,-0.164063 -0.751953,-0.164063 -0.382812,0 -0.751953,0.164063 -0.36914,0.170898 -0.65625,0.451171 -0.287109,0.293946 -0.458008,0.65625 -0.170898,0.369141 -0.164062,0.758789 0,0.382813 0.164062,0.751954 0.170899,0.36914 0.458008,0.65625 0.28711,0.287109 0.65625,0.451171 0.362305,0.170899 0.751953,0.170899 0.157227,0 0.307617,0.06836 0.150391,0.06836 0.273438,0.191407 0.116211,0.123046 0.18457,0.273437 0.06836,0.157227 0.0752,0.307617 0,0.157227 -0.0752,0.300781 -0.06836,0.157227 -0.18457,0.273438 -0.123047,0.123047 -0.273438,0.191406 -0.157226,0.06836 -0.307617,0.0752 -0.157226,0 -0.300781,-0.0752 -0.157227,-0.06836 -0.273437,-0.191406 -0.123047,-0.116211 -0.198243,-0.273438 -0.06836,-0.15039 -0.06836,-0.300781 h -1.257813 q 0,0.382813 0.170899,0.758789 0.177734,0.375977 0.485351,0.683594 0.300782,0.307617 0.676758,0.478516 0.375977,0.177734 0.765625,0.177734 0.382813,0 0.758789,-0.177734 0.375977,-0.177735 0.69043,-0.478516 0.300781,-0.300781 0.47168,-0.683594 0.177734,-0.375976 0.177734,-0.758789 0,-0.382812 -0.177734,-0.765625 -0.177735,-0.375976 -0.47168,-0.683594 -0.307617,-0.300781 -0.69043,-0.478515 -0.375976,-0.177735 -0.758789,-0.170899 -0.314453,0 -0.540039,-0.232421 -0.232422,-0.225586 -0.232422,-0.54004 0,-0.314453 0.232422,-0.546875 0.225586,-0.225585 0.540039,-0.225585 0.314453,0 0.546875,0.225585 0.225586,0.232422 0.21875,0.546875 z" />
    <path
       id="path910"
       style="font-style:normal;font-variant:normal;font-weight:normal;font-stretch:normal;font-family:PoliceSNCF;fill:#ffffff;stroke-width:0.875"
       d="m 29.891567,30.503983 h 1.469727 V 29.24617 h -4.197266 v 1.257813 h 1.469727 v 5.742187 h 1.257812 z" />
    <path
       id="path912"
       style="font-style:normal;font-variant:normal;font-weight:normal;font-stretch:normal;font-family:PoliceSNCF;fill:#ffffff;stroke-width:0.875"
       d="m 36.508755,31.337967 q 0,-0.382813 -0.177735,-0.758789 -0.177734,-0.369141 -0.471679,-0.683594 -0.307618,-0.300781 -0.69043,-0.47168 -0.375977,-0.177734 -0.758789,-0.177734 h -2.105469 v 7 h 1.264649 v -2.802734 h 0.84082 q 0.157226,0 0.307617,0.0752 0.150391,0.06836 0.273438,0.18457 0.116211,0.123047 0.18457,0.273438 0.06836,0.157226 0.06836,0.307617 v 1.961914 h 1.264649 v -1.961914 q 0,-0.362305 -0.08203,-0.635742 -0.08887,-0.273438 -0.211914,-0.444336 -0.123046,-0.177735 -0.225586,-0.259766 -0.102539,-0.0752 -0.177734,-0.129883 l 0.01367,-0.01367 q 0.08203,-0.08203 0.18457,-0.191407 0.0957,-0.109375 0.21875,-0.307617 0.109375,-0.191406 0.198242,-0.4375 0.08203,-0.246094 0.08203,-0.526367 z m -2.098633,0.847656 h -0.84082 v -1.68164 h 0.84082 q 0.157226,0 0.307617,0.07519 0.150391,0.06836 0.273438,0.18457 0.116211,0.123047 0.18457,0.273438 0.06836,0.157226 0.06836,0.307617 0,0.157226 -0.06836,0.300781 -0.06836,0.157227 -0.18457,0.273438 -0.123047,0.123046 -0.273438,0.198242 -0.150391,0.06836 -0.307617,0.06836 z" />
    <path
       id="path914"
       style="font-style:normal;font-variant:normal;font-weight:normal;font-stretch:normal;font-family:PoliceSNCF;fill:#ffffff;stroke-width:0.875"
       d="m 39.407192,32.506912 0.300781,1.216797 h -0.574218 z m 0.601563,2.481446 0.314453,1.257812 h 1.189453 l -1.469727,-7 h -1.264648 l -1.469727,7 h 1.264649 l 0.273437,-1.257812 z" />
    <path
       id="path916"
       style="font-style:normal;font-variant:normal;font-weight:normal;font-stretch:normal;font-family:PoliceSNCF;fill:#ffffff;stroke-width:0.875"
       d="m 42.551723,36.24617 h 1.264649 v -7 h -1.264649 z" />
    <path
       id="path918"
       style="font-style:normal;font-variant:normal;font-weight:normal;font-stretch:normal;font-family:PoliceSNCF;fill:#ffffff;stroke-width:0.875"
       d="m 46.475552,32.240311 1.674804,4.005859 h 1.264649 v -7 h -1.264649 v 4.005859 L 46.475552,29.24617 h -1.264649 v 7 h 1.264649 z" />
    <path
       id="path920"
       style="font-style:normal;font-variant:normal;font-weight:normal;font-stretch:normal;font-family:PoliceSNCF;fill:#ffffff;stroke-width:0.875"
       d="m 54.699184,31.276443 q 0,-0.382812 -0.164062,-0.758789 -0.170899,-0.362304 -0.451172,-0.65625 -0.293945,-0.287109 -0.663086,-0.451171 -0.369141,-0.164063 -0.751953,-0.164063 -0.382813,0 -0.751953,0.164063 -0.369141,0.170898 -0.65625,0.451171 -0.28711,0.293946 -0.458008,0.65625 -0.170898,0.369141 -0.164062,0.758789 0,0.382813 0.164062,0.751954 0.170898,0.36914 0.458008,0.65625 0.287109,0.287109 0.65625,0.451171 0.362305,0.170899 0.751953,0.170899 0.157227,0 0.307617,0.06836 0.150391,0.06836 0.273438,0.191407 0.116211,0.123046 0.18457,0.273437 0.06836,0.157227 0.0752,0.307617 0,0.157227 -0.0752,0.300781 -0.06836,0.157227 -0.18457,0.273438 -0.123047,0.123047 -0.273438,0.191406 -0.157226,0.06836 -0.307617,0.0752 -0.157227,0 -0.300781,-0.0752 -0.157227,-0.06836 -0.273438,-0.191406 -0.123047,-0.116211 -0.198242,-0.273438 -0.06836,-0.15039 -0.06836,-0.300781 h -1.257813 q 0,0.382813 0.170899,0.758789 0.177734,0.375977 0.485351,0.683594 0.300781,0.307617 0.676758,0.478516 0.375977,0.177734 0.765625,0.177734 0.382812,0 0.758789,-0.177734 0.375977,-0.177735 0.69043,-0.478516 0.300781,-0.300781 0.471679,-0.683594 0.177735,-0.375976 0.177735,-0.758789 0,-0.382812 -0.177735,-0.765625 -0.177734,-0.375976 -0.471679,-0.683594 -0.307617,-0.300781 -0.69043,-0.478515 -0.375977,-0.177735 -0.758789,-0.170899 -0.314453,0 -0.540039,-0.232421 -0.232422,-0.225586 -0.232422,-0.54004 0,-0.314453 0.232422,-0.546875 0.225586,-0.225585 0.540039,-0.225585 0.314453,0 0.546875,0.225585 0.225586,0.232422 0.21875,0.546875 z" />
  </g>
  <g
     style="font-style:normal;font-variant:normal;font-weight:normal;font-stretch:normal;font-size:7px;line-height:1.25;font-family:Roboto;font-variant-ligatures:normal;font-variant-caps:normal;font-variant-numeric:normal;font-feature-settings:normal;text-align:start;letter-spacing:0px;word-spacing:0px;writing-mode:lr-tb;text-anchor:start;fill:#ffffff;fill-opacity:1;stroke:none;stroke-width:0.875"
     id="text880"
     aria-label="DU">
    <path
       id="path923"
       style="font-style:normal;font-variant:normal;font-weight:normal;font-stretch:normal;font-family:PoliceSNCF;fill:#ffffff;stroke-width:0.875"
       d="m 29.327148,41.146484 q 0.157227,0 0.307618,0.0752 0.15039,0.06836 0.273437,0.18457 0.116211,0.123047 0.18457,0.273437 0.06836,0.157227 0.06836,0.307618 v 2.802734 q 0,0.157227 -0.06836,0.300781 -0.06836,0.157227 -0.18457,0.273438 -0.123047,0.123047 -0.273437,0.191406 -0.157227,0.06836 -0.307618,0.0752 h -0.84082 v -4.484375 z m 0,-1.257812 H 27.22168 v 7 h 2.105468 q 0.382813,0 0.758789,-0.177735 0.375977,-0.177734 0.69043,-0.478515 0.300781,-0.300781 0.47168,-0.683594 0.177734,-0.375976 0.177734,-0.758789 v -2.802734 q 0,-0.382813 -0.177734,-0.758789 -0.177735,-0.375977 -0.47168,-0.69043 -0.307617,-0.300781 -0.69043,-0.47168 -0.375976,-0.177734 -0.758789,-0.177734 z" />
    <path
       id="path925"
       style="font-style:normal;font-variant:normal;font-weight:normal;font-stretch:normal;font-family:PoliceSNCF;fill:#ffffff;stroke-width:0.875"
       d="m 36.77832,39.888672 h -1.264648 v 4.901367 q 0,0.157227 -0.06836,0.300781 -0.06836,0.157227 -0.18457,0.273438 -0.123047,0.123047 -0.273437,0.191406 -0.157227,0.06836 -0.307618,0.0752 -0.157226,0 -0.300781,-0.0752 -0.157226,-0.06836 -0.273437,-0.191406 -0.123047,-0.116211 -0.198242,-0.273438 -0.06836,-0.15039 -0.06836,-0.300781 v -4.901367 h -1.264648 v 4.901367 q 0,0.382813 0.177734,0.758789 0.177734,0.375977 0.485352,0.683594 0.300781,0.307617 0.676757,0.478515 0.375977,0.177735 0.765625,0.177735 0.382813,0 0.75879,-0.177735 0.375976,-0.177734 0.690429,-0.478515 0.300781,-0.300781 0.47168,-0.683594 0.177734,-0.375976 0.177734,-0.758789 z" />
  </g>
  <g
     style="font-style:normal;font-variant:normal;font-weight:normal;font-stretch:normal;font-size:7px;line-height:1.25;font-family:Roboto;font-variant-ligatures:normal;font-variant-caps:normal;font-variant-numeric:normal;font-feature-settings:normal;text-align:start;letter-spacing:0px;word-spacing:0px;writing-mode:lr-tb;text-anchor:start;fill:#ffffff;fill-opacity:1;stroke:none;stroke-width:0.875"
     id="text884"
     aria-label="CHANTIER">
    <path
       id="path928"
       style="font-style:normal;font-variant:normal;font-weight:normal;font-stretch:normal;font-family:PoliceSNCF;fill:#ffffff;stroke-width:0.875"
       d="m 17.077275,55.056705 h -1.257812 q 0,0.157227 -0.0752,0.300782 -0.06836,0.157226 -0.18457,0.273437 -0.123047,0.123047 -0.273437,0.191406 -0.157227,0.06836 -0.307618,0.0752 -0.157226,0 -0.300781,-0.0752 -0.157226,-0.06836 -0.273437,-0.191406 -0.123047,-0.116211 -0.198242,-0.273437 -0.06836,-0.150391 -0.06836,-0.300782 v -2.802734 q 0,-0.157226 0.06836,-0.307617 0.06836,-0.150391 0.198242,-0.273438 0.116211,-0.116211 0.273437,-0.18457 0.150391,-0.06836 0.300781,-0.0752 0.157227,0 0.307618,0.0752 0.15039,0.06836 0.273437,0.18457 0.116211,0.123047 0.18457,0.273438 0.06836,0.157226 0.0752,0.307617 h 1.257812 q 0,-0.382812 -0.177734,-0.758789 -0.177734,-0.375977 -0.47168,-0.69043 -0.307617,-0.300781 -0.690429,-0.471679 -0.375977,-0.177735 -0.75879,-0.177735 -0.382812,0 -0.765625,0.177735 -0.375976,0.177734 -0.676757,0.471679 -0.307618,0.307618 -0.485352,0.69043 -0.177734,0.375977 -0.170898,0.758789 v 2.802734 q 0,0.382813 0.170898,0.75879 0.177734,0.375976 0.485352,0.683593 0.300781,0.307617 0.676757,0.478516 0.375977,0.177734 0.765625,0.177734 0.382813,0 0.75879,-0.177734 0.375976,-0.177734 0.690429,-0.478516 0.300781,-0.300781 0.47168,-0.683593 0.177734,-0.375977 0.177734,-0.75879 z" />
    <path
       id="path930"
       style="font-style:normal;font-variant:normal;font-weight:normal;font-stretch:normal;font-family:PoliceSNCF;fill:#ffffff;stroke-width:0.875"
       d="m 22.429814,50.155338 h -1.264648 v 2.850586 h -1.674805 v -2.850586 h -1.264648 v 7 h 1.264648 v -2.891601 h 1.674805 v 2.891601 h 1.264648 z" />
    <path
       id="path932"
       style="font-style:normal;font-variant:normal;font-weight:normal;font-stretch:normal;font-family:PoliceSNCF;fill:#ffffff;stroke-width:0.875"
       d="m 25.574346,53.41608 0.300781,1.216797 h -0.574219 z m 0.601562,2.481446 0.314453,1.257812 h 1.189453 l -1.469726,-7 h -1.264649 l -1.469726,7 h 1.264648 l 0.273438,-1.257812 z" />
    <path
       id="path934"
       style="font-style:normal;font-variant:normal;font-weight:normal;font-stretch:normal;font-family:PoliceSNCF;fill:#ffffff;stroke-width:0.875"
       d="m 29.983525,53.149479 1.674805,4.005859 h 1.264648 v -7 H 31.65833 v 4.00586 l -1.674805,-4.00586 h -1.264648 v 7 h 1.264648 z" />
    <path
       id="path936"
       style="font-style:normal;font-variant:normal;font-weight:normal;font-stretch:normal;font-family:PoliceSNCF;fill:#ffffff;stroke-width:0.875"
       d="m 36.593877,51.413151 h 1.469726 v -1.257813 h -4.197265 v 1.257813 h 1.469726 v 5.742187 h 1.257813 z" />
    <path
       id="path938"
       style="font-style:normal;font-variant:normal;font-weight:normal;font-stretch:normal;font-family:PoliceSNCF;fill:#ffffff;stroke-width:0.875"
       d="m 39.006963,57.155338 h 1.264648 v -7 h -1.264648 z" />
    <path
       id="path940"
       style="font-style:normal;font-variant:normal;font-weight:normal;font-stretch:normal;font-family:PoliceSNCF;fill:#ffffff;stroke-width:0.875"
       d="m 42.930791,53.005924 v -1.592773 h 2.939453 v -1.257813 h -4.204102 v 7 h 4.204102 v -1.257812 h -2.939453 v -1.633789 h 1.257812 v -1.257813 z" />
    <path
       id="path942"
       style="font-style:normal;font-variant:normal;font-weight:normal;font-stretch:normal;font-family:PoliceSNCF;fill:#ffffff;stroke-width:0.875"
       d="m 51.120244,52.247135 q 0,-0.382812 -0.177734,-0.758789 -0.177735,-0.369141 -0.47168,-0.683594 -0.307617,-0.300781 -0.69043,-0.471679 -0.375976,-0.177735 -0.758789,-0.177735 h -2.105469 v 7 h 1.264649 v -2.802734 h 0.84082 q 0.157227,0 0.307617,0.0752 0.150391,0.06836 0.273438,0.184571 0.116211,0.123046 0.18457,0.273437 0.06836,0.157227 0.06836,0.307617 v 1.961914 h 1.264648 v -1.961914 q 0,-0.362304 -0.08203,-0.635742 -0.08887,-0.273437 -0.211914,-0.444336 -0.123047,-0.177734 -0.225586,-0.259766 -0.102539,-0.0752 -0.177735,-0.129882 l 0.01367,-0.01367 q 0.08203,-0.08203 0.184571,-0.191406 0.0957,-0.109375 0.21875,-0.307618 0.109375,-0.191406 0.198242,-0.4375 0.08203,-0.246093 0.08203,-0.526367 z m -2.098633,0.847656 h -0.84082 v -1.68164 h 0.84082 q 0.157227,0 0.307617,0.0752 0.150391,0.06836 0.273438,0.18457 0.116211,0.123047 0.18457,0.273438 0.06836,0.157226 0.06836,0.307617 0,0.157227 -0.06836,0.300781 -0.06836,0.157227 -0.18457,0.273438 -0.123047,0.123047 -0.273438,0.198242 -0.15039,0.06836 -0.307617,0.06836 z" />
  </g>
</svg>
