<?xml version="1.0" encoding="UTF-8"?>
<svg xmlns="http://www.w3.org/2000/svg" xmlns:xlink="http://www.w3.org/1999/xlink" width="128px" height="128px" viewBox="0 0 128 128" version="1.1">
<g id="surface1">
<rect y="0" x="0" height="128" width="128" id="rect842" style="fill:#ffffff;fill-opacity:0;stroke:none;" />
<path style="fill:none;stroke-width:1.058;stroke-linecap:round;stroke-linejoin:round;stroke:rgb(0%,0%,0%);stroke-opacity:1;stroke-miterlimit:4;" d="M 18.444031 -247.40386 L 26.912004 -247.40386 C 27.86133 -247.40386 28.630817 -246.634373 28.630817 -245.685046 L 28.630817 -245.682979 C 28.630817 -244.733653 27.86133 -243.964166 26.912004 -243.964166 L 18.444031 -243.964166 C 17.494705 -243.964166 16.725218 -244.733653 16.725218 -245.682979 L 16.725218 -245.685046 C 16.725218 -246.634373 17.494705 -247.40386 18.444031 -247.40386 Z M 18.444031 -247.40386 " transform="matrix(0,7.558812,-7.558812,0,-1793.0793,-92.414968)"/>
<path style="fill-rule:nonzero;fill:rgb(0%,0%,0%);fill-opacity:1;stroke-width:0.529;stroke-linecap:round;stroke-linejoin:round;stroke:rgb(100%,100%,100%);stroke-opacity:1;stroke-miterlimit:4;" d="M 18.406823 -247.40386 L 26.949212 -247.40386 C 27.877867 -247.40386 28.630817 -246.65091 28.630817 -245.722255 L 28.630817 -245.645771 C 28.630817 -244.717116 27.877867 -243.964166 26.949212 -243.964166 L 18.406823 -243.964166 C 17.478168 -243.964166 16.725218 -244.717116 16.725218 -245.645771 L 16.725218 -245.722255 C 16.725218 -246.65091 17.478168 -247.40386 18.406823 -247.40386 Z M 18.406823 -247.40386 " transform="matrix(0,7.558812,-7.558812,0,-1793.0793,-92.414968)"/>
<path style=" stroke:none;fill-rule:nonzero;fill:rgb(100%,0%,0%);fill-opacity:1;" d="M 64.007812 52.003906 C 61.246094 52.003906 59.011719 49.765625 59.011719 47.007812 C 59.011719 44.246094 61.246094 42.011719 64.007812 42.011719 C 66.765625 42.011719 69.003906 44.246094 69.003906 47.007812 C 69.003906 49.765625 66.765625 52.003906 64.007812 52.003906 Z M 64.007812 52.003906 "/>
<path style=" stroke:none;fill-rule:nonzero;fill:rgb(20%,20%,20%);fill-opacity:1;" d="M 64.007812 68.003906 C 61.246094 68.003906 59.011719 65.769531 59.011719 63.007812 C 59.011719 60.25 61.246094 58.011719 64.007812 58.011719 C 66.765625 58.011719 69.003906 60.25 69.003906 63.007812 C 69.003906 65.769531 66.765625 68.003906 64.007812 68.003906 Z M 64.007812 68.003906 "/>
<path style=" stroke:none;fill-rule:nonzero;fill:rgb(20%,20%,20%);fill-opacity:1;" d="M 64.007812 84.007812 C 61.246094 84.007812 59.011719 81.769531 59.011719 79.011719 C 59.011719 76.25 61.246094 74.015625 64.007812 74.015625 C 66.765625 74.015625 69.003906 76.25 69.003906 79.011719 C 69.003906 81.769531 66.765625 84.007812 64.007812 84.007812 Z M 64.007812 84.007812 "/>
<path style=" stroke:none;fill-rule:nonzero;fill:rgb(100%,0%,0%);fill-opacity:1;" d="M 64.007812 100.003906 C 61.246094 100.003906 59.011719 97.765625 59.011719 95.003906 C 59.011719 92.246094 61.246094 90.007812 64.007812 90.007812 C 66.765625 90.007812 69.003906 92.246094 69.003906 95.003906 C 69.003906 97.765625 66.765625 100.003906 64.007812 100.003906 Z M 64.007812 100.003906 "/>
<path style=" stroke:none;fill-rule:nonzero;fill:rgb(20%,20%,20%);fill-opacity:1;" d="M 64.007812 116.003906 C 61.246094 116.003906 59.011719 113.765625 59.011719 111.007812 C 59.011719 108.25 61.246094 106.011719 64.007812 106.011719 C 66.765625 106.011719 69.003906 108.25 69.003906 111.007812 C 69.003906 113.765625 66.765625 116.003906 64.007812 116.003906 Z M 64.007812 116.003906 "/>
</g>
</svg>
