<?xml version="1.0" encoding="UTF-8" standalone="no"?>
<svg
   xmlns:dc="http://purl.org/dc/elements/1.1/"
   xmlns:cc="http://creativecommons.org/ns#"
   xmlns:rdf="http://www.w3.org/1999/02/22-rdf-syntax-ns#"
   xmlns:svg="http://www.w3.org/2000/svg"
   xmlns="http://www.w3.org/2000/svg"
   xmlns:sodipodi="http://sodipodi.sourceforge.net/DTD/sodipodi-0.dtd"
   xmlns:inkscape="http://www.inkscape.org/namespaces/inkscape"
   sodipodi:docname="DD.svg"
   height="64"
   width="64"
   inkscape:version="1.0 (4035a4fb49, 2020-05-01)"
   version="1.1"
   id="svg2">
  <metadata
     id="metadata8">
    <rdf:RDF>
      <cc:Work
         rdf:about="">
        <dc:format>image/svg+xml</dc:format>
        <dc:type
           rdf:resource="http://purl.org/dc/dcmitype/StillImage" />
        <dc:title />
      </cc:Work>
    </rdf:RDF>
  </metadata>
  <defs
     id="defs6" />
  <sodipodi:namedview
     inkscape:document-rotation="0"
     inkscape:current-layer="g3769"
     inkscape:window-maximized="1"
     inkscape:window-y="0"
     inkscape:window-x="0"
     inkscape:cy="34.990851"
     inkscape:cx="57.983103"
     inkscape:zoom="9.3465346"
     inkscape:snap-page="true"
     inkscape:snap-center="true"
     inkscape:snap-object-midpoints="true"
     inkscape:snap-midpoints="true"
     inkscape:snap-smooth-nodes="true"
     inkscape:snap-intersection-paths="true"
     inkscape:object-nodes="true"
     inkscape:object-paths="true"
     inkscape:snap-bbox-midpoints="true"
     inkscape:snap-bbox-edge-midpoints="true"
     inkscape:bbox-nodes="true"
     inkscape:bbox-paths="true"
     inkscape:snap-bbox="true"
     showgrid="true"
     id="namedview4"
     inkscape:window-height="1024"
     inkscape:window-width="1920"
     inkscape:pageshadow="2"
     inkscape:pageopacity="0"
     guidetolerance="10"
     gridtolerance="10"
     objecttolerance="10"
     borderopacity="1"
     bordercolor="#666666"
     pagecolor="#ffffff">
    <inkscape:grid
       id="grid848"
       type="xygrid" />
  </sodipodi:namedview>
  <g
     transform="translate(-107.73191,-4.8418837)"
     id="g3769">
    <rect
       style="fill:#000000;fill-opacity:1;fill-rule:nonzero;stroke:none;stroke-width:0.636824"
       id="rect2987"
       width="64"
       height="64"
       x="107.73191"
       y="4.8418837" />
    <rect
       style="fill:#ffffff;stroke:none;stroke-width:0.984127;stroke-linecap:round;stroke-linejoin:round;stroke-miterlimit:4;stroke-dasharray:none;paint-order:markers stroke fill;stop-color:#000000"
       id="rect852"
       width="62"
       height="62"
       x="108.73191"
       y="5.8418837" />
    <g
       id="g846"
       transform="translate(6.9941399,5.4999991)">
      <g
         style="font-style:normal;font-variant:normal;font-weight:normal;font-stretch:normal;font-size:20px;line-height:1.25;font-family:Roboto;font-variant-ligatures:normal;font-variant-caps:normal;font-variant-numeric:normal;font-feature-settings:normal;text-align:start;letter-spacing:0px;word-spacing:0px;writing-mode:lr-tb;text-anchor:start;fill:#000000;fill-opacity:1;stroke:none;stroke-width:2.5"
         id="text836"
         aria-label="D">
        <path
           id="path839"
           style="font-style:normal;font-variant:normal;font-weight:normal;font-stretch:normal;font-family:PoliceSNCF;stroke-width:2.5"
           d="m 118.74754,13.435635 q 0.44921,0 0.8789,0.214843 0.42969,0.195313 0.78125,0.527344 0.33203,0.351563 0.52735,0.78125 0.19531,0.449219 0.19531,0.878906 v 8.007813 q 0,0.449219 -0.19531,0.859375 -0.19532,0.449219 -0.52735,0.78125 -0.35156,0.351562 -0.78125,0.546875 -0.44922,0.195312 -0.8789,0.214844 h -2.40235 v -12.8125 z m 0,-3.5937504 h -6.01563 V 29.841885 h 6.01563 q 1.09375,0 2.16796,-0.507813 1.07422,-0.507812 1.97266,-1.367187 0.85938,-0.859375 1.34766,-1.953125 0.50781,-1.074219 0.50781,-2.167969 v -8.007813 q 0,-1.09375 -0.50781,-2.167968 -0.50782,-1.074219 -1.34766,-1.972657 -0.87891,-0.859375 -1.97266,-1.347656 -1.07421,-0.5078124 -2.16796,-0.5078124 z" />
      </g>
      <g
         style="font-style:normal;font-variant:normal;font-weight:normal;font-stretch:normal;font-size:20px;line-height:1.25;font-family:Roboto;font-variant-ligatures:normal;font-variant-caps:normal;font-variant-numeric:normal;font-feature-settings:normal;text-align:start;letter-spacing:0px;word-spacing:0px;writing-mode:lr-tb;text-anchor:start;fill:#000000;fill-opacity:1;stroke:none;stroke-width:2.5"
         id="text840"
         aria-label="D">
        <path
           id="path842"
           style="font-style:normal;font-variant:normal;font-weight:normal;font-stretch:normal;font-family:PoliceSNCF;stroke-width:2.5"
           d="m 118.74754,36.435635 q 0.44921,0 0.8789,0.214843 0.42969,0.195313 0.78125,0.527344 0.33203,0.351563 0.52735,0.78125 0.19531,0.449219 0.19531,0.878906 v 8.007813 q 0,0.449219 -0.19531,0.859375 -0.19532,0.449219 -0.52735,0.78125 -0.35156,0.351562 -0.78125,0.546875 -0.44922,0.195312 -0.8789,0.214844 h -2.40235 v -12.8125 z m 0,-3.59375 h -6.01563 v 20 h 6.01563 q 1.09375,0 2.16796,-0.507813 1.07422,-0.507812 1.97266,-1.367187 0.85938,-0.859375 1.34766,-1.953125 0.50781,-1.074219 0.50781,-2.167969 v -8.007813 q 0,-1.09375 -0.50781,-2.167968 -0.50782,-1.074219 -1.34766,-1.972657 -0.87891,-0.859375 -1.97266,-1.347656 -1.07421,-0.507812 -2.16796,-0.507812 z" />
      </g>
    </g>
    <path
       id="path864"
       style="fill:#000000;fill-opacity:1;stroke:none;stroke-width:1px;stroke-linecap:butt;stroke-linejoin:miter;stroke-opacity:1"
       d="m 163.73191,36.837983 c -4e-5,-0.02406 -0.0236,-13.176246 -3,-17.992188 -1.95928,-3.17019 -6.04071,-0.82981 -8,-4 -0.52573,-0.85065 -0.14487,-2.38366 -1,-3 -1.35207,-0.97452 -5,-1.66667 -5,0 v 15 c 0,1.66667 3.58225,0.87622 5,0 0.63404,-0.39186 0.58656,-1.37983 1,-2 2,-3 3,-1 3,-1 v 12.992188 0.0078 12.99219 c 0,0 -1,2 -3,-1 -0.41344,-0.62017 -0.36596,-1.60814 -1,-2 -1.41775,-0.87622 -5,-1.666673 -5,0 v 15 c 0,1.66667 3.64793,0.97452 5,0 0.85513,-0.61634 0.47427,-2.14935 1,-3 1.95929,-3.17019 6.04072,-0.82981 8,-4 2.97642,-4.81595 2.99996,-17.968127 3,-17.99219 0,-2.2e-5 0,-0.0078 0,-0.0078 z" />
  </g>
</svg>
