<?xml version="1.0" encoding="UTF-8" standalone="no"?>
<svg
   xmlns:dc="http://purl.org/dc/elements/1.1/"
   xmlns:cc="http://creativecommons.org/ns#"
   xmlns:rdf="http://www.w3.org/1999/02/22-rdf-syntax-ns#"
   xmlns:svg="http://www.w3.org/2000/svg"
   xmlns="http://www.w3.org/2000/svg"
   xmlns:sodipodi="http://sodipodi.sourceforge.net/DTD/sodipodi-0.dtd"
   xmlns:inkscape="http://www.inkscape.org/namespaces/inkscape"
   id="svg2"
   version="1.1"
   inkscape:version="1.1-dev (ccb98c3c56, 2020-01-19)"
   width="64"
   height="64"
   sodipodi:docname="pan_d.svg">
  <metadata
     id="metadata8">
    <rdf:RDF>
      <cc:Work
         rdf:about="">
        <dc:format>image/svg+xml</dc:format>
        <dc:type
           rdf:resource="http://purl.org/dc/dcmitype/StillImage" />
        <dc:title />
      </cc:Work>
    </rdf:RDF>
  </metadata>
  <defs
     id="defs6" />
  <sodipodi:namedview
     pagecolor="#ffffff"
     bordercolor="#666666"
     borderopacity="1"
     objecttolerance="10"
     gridtolerance="10"
     guidetolerance="10"
     inkscape:pageopacity="0"
     inkscape:pageshadow="2"
     inkscape:window-width="1920"
     inkscape:window-height="1024"
     id="namedview4"
     showgrid="true"
     inkscape:snap-bbox="true"
     inkscape:bbox-paths="true"
     inkscape:bbox-nodes="true"
     inkscape:snap-bbox-edge-midpoints="true"
     inkscape:snap-bbox-midpoints="true"
     inkscape:object-paths="true"
     inkscape:object-nodes="true"
     inkscape:snap-intersection-paths="true"
     inkscape:snap-smooth-nodes="true"
     inkscape:snap-midpoints="true"
     inkscape:snap-object-midpoints="true"
     inkscape:snap-center="true"
     inkscape:snap-page="true"
     inkscape:zoom="4.6732673"
     inkscape:cx="-17.115288"
     inkscape:cy="26.669669"
     inkscape:window-x="0"
     inkscape:window-y="28"
     inkscape:window-maximized="1"
     inkscape:current-layer="g3769"
     inkscape:document-rotation="0">
    <inkscape:grid
       id="grid837"
       type="xygrid" />
  </sodipodi:namedview>
  <g
     id="g3769"
     transform="translate(-107.73191,-4.8418837)">
    <g
       id="g860">
      <rect
         style="fill:#000000;fill-opacity:1;fill-rule:nonzero;stroke:none;stroke-width:0.636824"
         id="rect2987"
         width="64"
         height="64"
         x="107.73191"
         y="4.8418837" />
      <rect
         style="fill:none;stroke:#ffffff;stroke-width:3.93508;stroke-miterlimit:4;stroke-dasharray:none;stroke-opacity:1"
         id="rect2989"
         width="58.064919"
         height="58.064922"
         x="110.69945"
         y="7.8094234" />
    </g>
    <g
       transform="matrix(0.56438745,0,0,0.55879945,50.710003,5.9168713)"
       style="font-style:normal;font-weight:normal;font-size:40px;line-height:125%;font-family:Sans;text-align:center;letter-spacing:0px;word-spacing:0px;text-anchor:middle;fill:#ffffff;fill-opacity:1;stroke:none"
       id="text2996">
      <path
         inkscape:connector-curvature="0"
         d="m 133.728,26.709068 h 21.13281 c 4.76559,5.8e-5 8.3984,0.364641 10.89844,1.09375 3.35933,0.989639 6.23693,2.74745 8.63281,5.273438 2.39578,2.52609 4.2187,5.618535 5.46875,9.277344 1.24995,3.658892 1.87495,8.170606 1.875,13.535156 -5e-5,4.713565 -0.58599,8.776061 -1.75781,12.1875 -1.43235,4.166678 -3.47661,7.539071 -6.13282,10.117187 -2.00525,1.953129 -4.71358,3.476565 -8.125,4.570313 -2.55211,0.807292 -5.96357,1.210937 -10.23437,1.210937 H 133.728 Z m 11.5625,9.6875 v 37.929688 h 8.63281 c 3.22914,9e-6 5.55986,-0.182282 6.99219,-0.546875 1.87496,-0.46874 3.43095,-1.26301 4.66797,-2.382813 1.23694,-1.119778 2.24605,-2.962224 3.02734,-5.527343 0.78121,-2.565084 1.17183,-6.061174 1.17187,-10.488282 -4e-5,-4.42705 -0.39066,-7.825484 -1.17187,-10.195312 -0.78129,-2.369751 -1.87504,-4.218707 -3.28125,-5.546875 -1.40629,-1.32808 -3.19014,-2.226516 -5.35156,-2.695313 -1.61462,-0.364536 -4.77868,-0.546827 -9.49219,-0.546875 z"
         style="font-weight:bold;font-size:80px;-inkscape-font-specification:'Sans Bold';fill:#ffffff"
         id="path2988" />
    </g>
  </g>
</svg>
