<?xml version="1.0" encoding="UTF-8" standalone="no"?>
<svg
   xmlns:dc="http://purl.org/dc/elements/1.1/"
   xmlns:cc="http://creativecommons.org/ns#"
   xmlns:rdf="http://www.w3.org/1999/02/22-rdf-syntax-ns#"
   xmlns:svg="http://www.w3.org/2000/svg"
   xmlns="http://www.w3.org/2000/svg"
   id="svg2"
   version="1.1"
   width="64"
   height="64">
  <metadata
     id="metadata8">
    <rdf:RDF>
      <cc:Work
         rdf:about="">
        <dc:format>image/svg+xml</dc:format>
        <dc:type
           rdf:resource="http://purl.org/dc/dcmitype/StillImage" />
        <dc:title></dc:title>
      </cc:Work>
    </rdf:RDF>
  </metadata>
  <defs
     id="defs6" />
  <g
     id="g3769"
     transform="translate(-107.73191,-4.8418837)">
    <rect
       style="fill:#ffffff;fill-opacity:0;stroke-width:6.4;stroke-linecap:round;stroke-linejoin:round;paint-order:markers stroke fill;stop-color:#000000"
       id="rect832"
       width="64"
       height="64"
       x="107.73191"
       y="4.8418837" />
    <g
       id="g865"
       transform="matrix(1.9695017,0,0,1.9695017,-129.16794,-8.0060084)">
      <path
         d="m 128.86098,22.114359 c -0.6041,1e-6 -1.20984,0.229897 -1.67273,0.692789 l -5.96201,5.96401 c -0.92577,0.925783 -0.92577,2.41567 0,3.341452 l 5.96201,5.964011 c 0.92578,0.925781 2.41768,0.925781 3.34345,0 l 5.96402,-5.964011 c 0.0138,-0.01378 0.0228,-0.03015 0.0362,-0.04418 0.0134,0.01398 0.0224,0.03044 0.0362,0.04418 l 5.96201,5.964011 c 0.92578,0.925781 2.41767,0.925781 3.34345,0 l 5.96401,-5.964011 c 0.92579,-0.925782 0.92578,-2.41567 0,-3.341452 l -5.96401,-5.96401 c -0.92577,-0.925781 -2.41767,-0.925781 -3.34345,0 l -5.96201,5.96401 c -0.0138,0.01374 -0.0228,0.0302 -0.0362,0.04418 -0.0134,-0.01402 -0.0224,-0.0304 -0.0362,-0.04418 l -5.96402,-5.96401 c -0.46288,-0.462891 -1.06662,-0.69279 -1.67072,-0.692789 z"
         style="vector-effect:none;fill:#aa00aa;fill-opacity:1;stroke:#000000;stroke-width:0.5;stroke-linecap:round;stroke-linejoin:round;stroke-miterlimit:4;stroke-dasharray:none;stroke-opacity:1;stop-color:#000000"
         id="rect854" />
      <rect
         ry="0.25382352"
         y="29.801884"
         x="120.74744"
         height="1.28"
         width="31.476826"
         id="rect861"
         style="vector-effect:none;fill:#ffffff;fill-opacity:1;stroke-width:1.87431;stroke-linecap:round;stroke-linejoin:round;stop-color:#000000" />
    </g>
  </g>
</svg>
