<?xml version="1.0" encoding="UTF-8" standalone="no"?>
<svg
   xmlns:dc="http://purl.org/dc/elements/1.1/"
   xmlns:cc="http://creativecommons.org/ns#"
   xmlns:rdf="http://www.w3.org/1999/02/22-rdf-syntax-ns#"
   xmlns:svg="http://www.w3.org/2000/svg"
   xmlns="http://www.w3.org/2000/svg"
   xmlns:sodipodi="http://sodipodi.sourceforge.net/DTD/sodipodi-0.dtd"
   xmlns:inkscape="http://www.inkscape.org/namespaces/inkscape"
   id="svg2"
   version="1.1"
   inkscape:version="1.1-dev (ccb98c3c56, 2020-01-19)"
   width="64"
   height="64"
   sodipodi:docname="pan_g.svg">
  <metadata
     id="metadata8">
    <rdf:RDF>
      <cc:Work
         rdf:about="">
        <dc:format>image/svg+xml</dc:format>
        <dc:type
           rdf:resource="http://purl.org/dc/dcmitype/StillImage" />
        <dc:title />
      </cc:Work>
    </rdf:RDF>
  </metadata>
  <defs
     id="defs6" />
  <sodipodi:namedview
     pagecolor="#ffffff"
     bordercolor="#666666"
     borderopacity="1"
     objecttolerance="10"
     gridtolerance="10"
     guidetolerance="10"
     inkscape:pageopacity="0"
     inkscape:pageshadow="2"
     inkscape:window-width="1920"
     inkscape:window-height="1024"
     id="namedview4"
     showgrid="false"
     inkscape:snap-bbox="true"
     inkscape:bbox-paths="true"
     inkscape:bbox-nodes="true"
     inkscape:snap-bbox-edge-midpoints="true"
     inkscape:snap-bbox-midpoints="true"
     inkscape:object-paths="true"
     inkscape:object-nodes="true"
     inkscape:snap-intersection-paths="true"
     inkscape:snap-smooth-nodes="true"
     inkscape:snap-midpoints="true"
     inkscape:snap-object-midpoints="true"
     inkscape:snap-center="true"
     inkscape:snap-page="true"
     inkscape:zoom="4.6732673"
     inkscape:cx="12.842339"
     inkscape:cy="45.72272"
     inkscape:window-x="0"
     inkscape:window-y="28"
     inkscape:window-maximized="1"
     inkscape:current-layer="g3769"
     inkscape:document-rotation="0" />
  <g
     id="g3769"
     transform="translate(-107.73191,-4.8418837)">
    <rect
       y="4.8418837"
       x="107.73191"
       height="64"
       width="64"
       id="rect2987"
       style="fill:#000000;fill-opacity:1;fill-rule:nonzero;stroke:none;stroke-width:0.636824" />
    <rect
       y="7.8094244"
       x="110.69946"
       height="58.064922"
       width="58.064919"
       id="rect2989"
       style="fill:none;stroke:#ffffff;stroke-width:3.93508;stroke-miterlimit:4;stroke-dasharray:none;stroke-opacity:1" />
    <g
       transform="matrix(0.54577308,0,0,0.54036939,53.646083,6.9368252)"
       style="font-style:normal;font-weight:normal;font-size:40px;line-height:125%;font-family:Sans;text-align:center;letter-spacing:0px;word-spacing:0px;text-anchor:middle;fill:#ffffff;fill-opacity:1;stroke:none"
       id="text2996">
      <path
         inkscape:connector-curvature="0"
         d="m 159.58737,62.920006 v -9.648438 h 24.92188 v 22.8125 c -2.42193,2.343756 -5.93104,4.407556 -10.52735,6.191407 -4.59639,1.783854 -9.25134,2.67578 -13.96484,2.675781 -5.98961,-10e-7 -11.21096,-1.25651 -15.66406,-3.769531 -4.45314,-2.513016 -7.79949,-6.106762 -10.03907,-10.78125 -2.23958,-4.674461 -3.35937,-9.759092 -3.35937,-15.253907 0,-5.963507 1.24999,-11.26298 3.75,-15.898437 2.49999,-4.635368 6.15884,-8.190051 10.97656,-10.664063 3.67185,-1.900984 8.24216,-2.851504 13.71094,-2.851562 7.10933,5.8e-5 12.66271,1.490942 16.66016,4.472656 3.99734,2.981822 6.56895,7.102911 7.71484,12.363281 l -11.48438,2.148438 c -0.80733,-2.812458 -2.32426,-5.032508 -4.55078,-6.660156 -2.2266,-1.627557 -5.00654,-2.441358 -8.33984,-2.441407 -5.05211,4.9e-5 -9.06903,1.60161 -12.05078,4.804688 -2.98179,3.203165 -4.47267,7.955765 -4.47266,14.257812 -1e-5,6.796898 1.5104,11.894549 4.53125,15.292969 3.02081,3.398448 6.97914,5.097665 11.875,5.097656 2.42184,9e-6 4.85023,-0.475251 7.28516,-1.425781 2.43485,-0.95051 4.52469,-2.102852 6.26953,-3.457031 v -7.265625 z"
         style="font-weight:bold;font-size:80px;-inkscape-font-specification:'Sans Bold';fill:#ffffff"
         id="path3782" />
    </g>
  </g>
</svg>
