<?xml version="1.0" encoding="UTF-8" standalone="no"?>
<svg
   xmlns:dc="http://purl.org/dc/elements/1.1/"
   xmlns:cc="http://creativecommons.org/ns#"
   xmlns:rdf="http://www.w3.org/1999/02/22-rdf-syntax-ns#"
   xmlns:svg="http://www.w3.org/2000/svg"
   xmlns="http://www.w3.org/2000/svg"
   xmlns:sodipodi="http://sodipodi.sourceforge.net/DTD/sodipodi-0.dtd"
   xmlns:inkscape="http://www.inkscape.org/namespaces/inkscape"
   width="128px"
   height="128px"
   viewBox="0 0 128 128"
   version="1.1"
   id="svg14"
   sodipodi:docname="ID.svg"
   inkscape:version="1.0 (4035a4fb49, 2020-05-01)">
  <metadata
     id="metadata20">
    <rdf:RDF>
      <cc:Work
         rdf:about="">
        <dc:format>image/svg+xml</dc:format>
        <dc:type
           rdf:resource="http://purl.org/dc/dcmitype/StillImage" />
      </cc:Work>
    </rdf:RDF>
  </metadata>
  <defs
     id="defs18" />
  <sodipodi:namedview
     inkscape:document-rotation="0"
     pagecolor="#ffffff"
     bordercolor="#666666"
     borderopacity="1"
     objecttolerance="10"
     gridtolerance="10"
     guidetolerance="10"
     inkscape:pageopacity="0"
     inkscape:pageshadow="2"
     inkscape:window-width="1886"
     inkscape:window-height="1084"
     id="namedview16"
     showgrid="false"
     inkscape:zoom="6.6953125"
     inkscape:cx="30.767795"
     inkscape:cy="74.037139"
     inkscape:window-x="991"
     inkscape:window-y="167"
     inkscape:window-maximized="0"
     inkscape:current-layer="svg14" />
  <rect
     style="fill:#ffffff;fill-opacity:0;stroke:none;stroke-width:9.14344"
     id="rect842"
     width="128"
     height="128"
     x="0"
     y="0" />
  <g
     transform="matrix(0.65419011,0,0,0.65419011,22.131834,44.263672)"
     id="g840">
    <path
       style="fill:#000000;fill-opacity:1;fill-rule:nonzero;stroke:#000000;stroke-width:10;stroke-linecap:butt;stroke-linejoin:miter;stroke-miterlimit:4;stroke-opacity:1"
       d="m 111.97656,102.01171 c 0,11.6289 -9.35937,20.98828 -20.984374,20.98828 H 37.007812 c -11.625,0 -20.984376,-9.35938 -20.984376,-20.98828 0,-11.625 9.359376,-20.98438 20.984376,-20.98438 h 53.984374 c 11.625004,0 20.984374,9.35938 20.984374,20.98438 z m 0,0"
       id="path3" />
    <path
       style="fill:#000000;fill-opacity:1;fill-rule:nonzero;stroke:#ffffff;stroke-width:4.25762;stroke-linecap:butt;stroke-linejoin:miter;stroke-miterlimit:4;stroke-opacity:1"
       d="m 111.97656,102.01171 c 0,11.6289 -9.35937,20.98828 -20.984374,20.98828 H 37.007812 c -11.625,0 -20.984376,-9.35938 -20.984376,-20.98828 0,-11.625 9.359376,-20.98438 20.984376,-20.98438 h 53.984374 c 11.625004,0 20.984374,9.35938 20.984374,20.98438 z m 0,0"
       id="path5" />
    <path
       style="fill:#ffffff;fill-opacity:1;fill-rule:nonzero;stroke:none"
       d="m 91.464844,109.37891 c -4.019532,0 -7.28125,-3.25782 -7.28125,-7.28125 0,-4.019535 3.261718,-7.281254 7.28125,-7.281254 4.023437,0 7.28125,3.261719 7.28125,7.281254 0,4.02343 -3.257813,7.28125 -7.28125,7.28125 z m 0,0"
       id="path7" />
    <path
       style="fill:#ffffff;fill-opacity:1;fill-rule:nonzero;stroke:none"
       d="m 37.007812,109.37891 c -4.019531,0 -7.28125,-3.25782 -7.28125,-7.28125 0,-4.019535 3.261719,-7.281254 7.28125,-7.281254 4.023438,0 7.28125,3.261719 7.28125,7.281254 0,4.02343 -3.257812,7.28125 -7.28125,7.28125 z m 0,0"
       id="path9" />
    <path
       style="fill:#ffffff;fill-opacity:1;fill-rule:nonzero;stroke:none"
       d="m 64.238281,109.37891 c -4.023437,0 -7.28125,-3.25782 -7.28125,-7.28125 0,-4.019535 3.257813,-7.281254 7.28125,-7.281254 4.019531,0 7.28125,3.261719 7.28125,7.281254 0,4.02343 -3.261719,7.28125 -7.28125,7.28125 z m 0,0"
       id="path11" />
  </g>
</svg>
