<?xml version="1.0" encoding="UTF-8" standalone="no"?>
<svg
   xmlns:dc="http://purl.org/dc/elements/1.1/"
   xmlns:cc="http://creativecommons.org/ns#"
   xmlns:rdf="http://www.w3.org/1999/02/22-rdf-syntax-ns#"
   xmlns:svg="http://www.w3.org/2000/svg"
   xmlns="http://www.w3.org/2000/svg"
   xmlns:sodipodi="http://sodipodi.sourceforge.net/DTD/sodipodi-0.dtd"
   xmlns:inkscape="http://www.inkscape.org/namespaces/inkscape"
   sodipodi:docname="PN....svg"
   height="64"
   width="64"
   inkscape:version="1.0 (4035a4fb49, 2020-05-01)"
   version="1.1"
   id="svg2">
  <metadata
     id="metadata8">
    <rdf:RDF>
      <cc:Work
         rdf:about="">
        <dc:format>image/svg+xml</dc:format>
        <dc:type
           rdf:resource="http://purl.org/dc/dcmitype/StillImage" />
        <dc:title />
      </cc:Work>
    </rdf:RDF>
  </metadata>
  <defs
     id="defs6" />
  <sodipodi:namedview
     inkscape:document-rotation="0"
     inkscape:current-layer="text849"
     inkscape:window-maximized="1"
     inkscape:window-y="0"
     inkscape:window-x="0"
     inkscape:cy="25.577427"
     inkscape:cx="-2.0413491"
     inkscape:zoom="4.6732673"
     inkscape:snap-page="true"
     inkscape:snap-center="true"
     inkscape:snap-object-midpoints="true"
     inkscape:snap-midpoints="true"
     inkscape:snap-smooth-nodes="true"
     inkscape:snap-intersection-paths="true"
     inkscape:object-nodes="true"
     inkscape:object-paths="true"
     inkscape:snap-bbox-midpoints="true"
     inkscape:snap-bbox-edge-midpoints="true"
     inkscape:bbox-nodes="true"
     inkscape:bbox-paths="true"
     inkscape:snap-bbox="true"
     showgrid="false"
     id="namedview4"
     inkscape:window-height="1024"
     inkscape:window-width="1920"
     inkscape:pageshadow="2"
     inkscape:pageopacity="0"
     guidetolerance="10"
     gridtolerance="10"
     objecttolerance="10"
     borderopacity="1"
     bordercolor="#666666"
     pagecolor="#ffffff">
    <inkscape:grid
       id="grid865"
       type="xygrid" />
  </sodipodi:namedview>
  <g
     transform="translate(-107.73191,-4.8418837)"
     id="g3769">
    <g
       id="g854"
       transform="translate(150,10)">
      <rect
         y="-5.1581163"
         x="-42.268089"
         height="64"
         width="64"
         id="rect2987-3"
         style="fill:#ffffff;fill-opacity:1;fill-rule:nonzero;stroke:none;stroke-width:0.636824" />
      <rect
         y="-2.1711454"
         x="-39.28112"
         height="58.026058"
         width="58.026062"
         id="rect2989-6"
         style="fill:none;stroke:#000000;stroke-width:3.97394;stroke-miterlimit:4;stroke-dasharray:none;stroke-opacity:1" />
    </g>
    <g
       id="g912">
      <g
         aria-label="SEC À"
         id="text849"
         style="font-style:normal;font-variant:normal;font-weight:normal;font-stretch:normal;font-size:15.6472px;line-height:1.25;font-family:Roboto;font-variant-ligatures:normal;font-variant-caps:normal;font-variant-numeric:normal;font-feature-settings:normal;text-align:start;letter-spacing:0px;word-spacing:0px;writing-mode:lr-tb;text-anchor:start;fill:#000000;fill-opacity:1;stroke:none;stroke-width:1.9559">
        <g
           transform="translate(0,-1.6006178)"
           id="g875">
          <g
             aria-label="PN"
             id="text850"
             style="font-style:normal;font-variant:normal;font-weight:normal;font-stretch:normal;font-size:13px;line-height:1.25;font-family:Roboto;font-variant-ligatures:normal;font-variant-caps:normal;font-variant-numeric:normal;font-feature-settings:normal;text-align:start;letter-spacing:0px;word-spacing:0px;writing-mode:lr-tb;text-anchor:start;fill:#000000;fill-opacity:1;stroke:none;stroke-width:3.17834">
            <path
               d="m 133.30173,20.58975 v -3.123047 h 1.56152 q 0.29199,0 0.57129,0.139649 0.2793,0.126953 0.50781,0.342773 0.21582,0.228516 0.34278,0.507813 0.12695,0.291992 0.12695,0.571289 0,0.291992 -0.12695,0.558594 -0.12696,0.291992 -0.34278,0.507812 -0.22851,0.228516 -0.50781,0.368164 -0.29199,0.126953 -0.57129,0.126953 z m 0,2.335938 h 1.56152 q 0.71094,0 1.40918,-0.317383 0.69824,-0.330078 1.28223,-0.901367 0.55859,-0.558594 0.87597,-1.256836 0.33008,-0.698242 0.33008,-1.421875 0,-0.710938 -0.33008,-1.40918 -0.33007,-0.698242 -0.87597,-1.282226 -0.57129,-0.558594 -1.28223,-0.875977 -0.69824,-0.330078 -1.40918,-0.330078 h -3.91016 v 13 h 2.34864 z"
               style="font-style:normal;font-variant:normal;font-weight:normal;font-stretch:normal;font-family:PoliceSNCF;stroke-width:3.17834"
               id="path842" />
            <path
               d="m 143.05173,20.691313 3.11035,7.439453 h 2.34863 v -13 h -2.34863 v 7.439453 l -3.11035,-7.439453 h -2.34864 v 13 h 2.34864 z"
               style="font-style:normal;font-variant:normal;font-weight:normal;font-stretch:normal;font-family:PoliceSNCF;stroke-width:3.17834"
               id="path844" />
          </g>
          <g
             aria-label="10"
             id="text854"
             style="font-style:normal;font-variant:normal;font-weight:normal;font-stretch:normal;font-size:13px;line-height:1.25;font-family:Roboto;font-variant-ligatures:normal;font-variant-caps:normal;font-variant-numeric:normal;font-feature-settings:normal;text-align:start;letter-spacing:0px;word-spacing:0px;writing-mode:lr-tb;text-anchor:start;fill:#000000;fill-opacity:1;stroke:none;stroke-width:3.17834">
            <path
               d="m 133.58737,45.205109 h 2.34863 v -13 h -2.34863 z"
               style="font-style:normal;font-variant:normal;font-weight:normal;font-stretch:normal;font-family:PoliceSNCF;stroke-width:3.17834"
               id="path847" />
            <path
               d="m 141.97897,45.205109 q 0.71094,0 1.40918,-0.330078 0.69825,-0.330079 1.28223,-0.888672 0.55859,-0.558594 0.87598,-1.269532 0.33007,-0.698242 0.33007,-1.409179 V 36.10257 q 0,-0.710938 -0.33007,-1.40918 -0.33008,-0.698242 -0.87598,-1.282227 -0.57129,-0.558593 -1.28223,-0.875976 -0.69824,-0.330078 -1.40918,-0.330078 -0.71093,0 -1.42187,0.330078 -0.69824,0.330078 -1.25684,0.875976 -0.57129,0.571289 -0.90136,1.282227 -0.33008,0.698242 -0.31739,1.40918 v 5.205078 q 0,0.710937 0.31739,1.409179 0.33007,0.698243 0.90136,1.269532 0.5586,0.571289 1.25684,0.888672 0.71094,0.330078 1.42187,0.330078 z m 0,-2.335938 q -0.29199,0 -0.55859,-0.139648 -0.29199,-0.126953 -0.50781,-0.355469 -0.22852,-0.21582 -0.36817,-0.507813 -0.12695,-0.279296 -0.12695,-0.558593 V 36.10257 q 0,-0.291993 0.12695,-0.571289 0.12696,-0.279297 0.36817,-0.507813 0.21582,-0.21582 0.50781,-0.342773 0.2793,-0.126954 0.55859,-0.139649 0.292,0 0.57129,0.139649 0.2793,0.126953 0.50781,0.342773 0.21583,0.228516 0.34278,0.507813 0.12695,0.291992 0.13965,0.571289 v 5.205078 q 0,0.291992 -0.13965,0.558593 -0.12695,0.291993 -0.34278,0.507813 -0.22851,0.228516 -0.50781,0.355469 -0.27929,0.139648 -0.57129,0.139648 z"
               style="font-style:normal;font-variant:normal;font-weight:normal;font-stretch:normal;font-family:PoliceSNCF;stroke-width:3.17834"
               id="path849" />
          </g>
          <g
             aria-label="à 500m"
             id="text858"
             style="font-style:normal;font-variant:normal;font-weight:normal;font-stretch:normal;font-size:13px;line-height:1.25;font-family:Roboto;font-variant-ligatures:normal;font-variant-caps:normal;font-variant-numeric:normal;font-feature-settings:normal;text-align:start;letter-spacing:0px;word-spacing:0px;writing-mode:lr-tb;text-anchor:start;fill:#000000;fill-opacity:1;stroke:none;stroke-width:3.17834">
            <path
               d="m 118.6378,57.463211 q -2.14551,0 -2.14551,2.145508 0,2.145508 2.14551,2.145508 h 2.14551 v -5.001953 q 0,-2.145508 -2.14551,-2.145508 -2.14551,0 -2.14551,2.145508 h 1.43457 q 0,-0.279297 0.21582,-0.495118 0.20313,-0.21582 0.49512,-0.228515 0.29199,0 0.50781,0.21582 0.20313,0.21582 0.21582,0.507813 0,0.279296 -0.21582,0.495117 -0.21582,0.21582 -0.50781,0.21582 z m 0.72363,0.710938 v 1.43457 q 0,0.279297 -0.21582,0.495117 -0.21582,0.21582 -0.50781,0.21582 -0.29199,0 -0.49512,-0.21582 -0.21582,-0.21582 -0.21582,-0.495117 0,-0.279297 0.21582,-0.495117 0.20313,-0.215821 0.49512,-0.215821 0.29199,0 0.50781,-0.228515 0.21582,-0.215821 0.21582,-0.495117 z m 0,-4.291016 -0.72363,-1.421875 h -1.16797 l 1.16797,1.421875 z"
               style="font-style:normal;font-variant:normal;font-weight:normal;font-stretch:normal;font-family:PoliceSNCF;stroke-width:3.17834"
               id="path852" />
            <path
               d="m 131.20785,52.651688 q -0.44434,0 -0.60938,0.02539 -0.16504,0.02539 -0.30468,0.08887 v -1.675781 h 4.16406 V 48.75423 h -6.5 v 5.827148 l 2.33594,0.761719 q 0.0127,-0.114258 0.20312,-0.228516 0.19043,-0.114258 0.71094,-0.114258 0.29199,0 0.57129,0.126954 0.27929,0.126953 0.50781,0.342773 0.21582,0.228516 0.34277,0.507812 0.12696,0.291993 0.13965,0.57129 v 1.307617 q 0,0.291992 -0.13965,0.558593 -0.12695,0.291993 -0.34277,0.507813 -0.22852,0.228516 -0.50781,0.355469 -0.292,0.126953 -0.57129,0.139648 -0.29199,0 -0.5586,-0.139648 -0.29199,-0.126953 -0.50781,-0.355469 -0.22851,-0.21582 -0.36816,-0.507813 -0.12696,-0.279296 -0.12696,-0.558593 h -2.33593 q 0,0.710937 0.31738,1.409179 0.33008,0.698243 0.90137,1.269532 0.55859,0.571289 1.25683,0.888672 0.69824,0.330078 1.42188,0.330078 0.71094,0 1.40918,-0.330078 0.69824,-0.330079 1.28222,-0.888672 0.5586,-0.558594 0.87598,-1.269532 0.33008,-0.698242 0.33008,-1.409179 v -1.307617 q 0,-0.710938 -0.33008,-1.40918 -0.33008,-0.698242 -0.87598,-1.282227 -0.57129,-0.558593 -1.28222,-0.875976 -0.69824,-0.330078 -1.40918,-0.330078 z"
               style="font-style:normal;font-variant:normal;font-weight:normal;font-stretch:normal;font-family:PoliceSNCF;stroke-width:3.17834"
               id="path854" />
            <path
               d="m 140.69125,61.754227 q 0.71093,0 1.40918,-0.330078 0.69824,-0.330079 1.28222,-0.888672 0.5586,-0.558594 0.87598,-1.269532 0.33008,-0.698242 0.33008,-1.409179 v -5.205078 q 0,-0.710938 -0.33008,-1.40918 -0.33008,-0.698242 -0.87598,-1.282227 -0.57129,-0.558593 -1.28222,-0.875976 -0.69825,-0.330078 -1.40918,-0.330078 -0.71094,0 -1.42188,0.330078 -0.69824,0.330078 -1.25683,0.875976 -0.57129,0.571289 -0.90137,1.282227 -0.33008,0.698242 -0.31738,1.40918 v 5.205078 q 0,0.710937 0.31738,1.409179 0.33008,0.698243 0.90137,1.269532 0.55859,0.571289 1.25683,0.888672 0.71094,0.330078 1.42188,0.330078 z m 0,-2.335938 q -0.292,0 -0.5586,-0.139648 -0.29199,-0.126953 -0.50781,-0.355469 -0.22852,-0.21582 -0.36816,-0.507813 -0.12696,-0.279296 -0.12696,-0.558593 v -5.205078 q 0,-0.291993 0.12696,-0.571289 0.12695,-0.279297 0.36816,-0.507813 0.21582,-0.21582 0.50781,-0.342773 0.2793,-0.126954 0.5586,-0.139649 0.29199,0 0.57129,0.139649 0.27929,0.126953 0.50781,0.342773 0.21582,0.228516 0.34277,0.507813 0.12695,0.291992 0.13965,0.571289 v 5.205078 q 0,0.291992 -0.13965,0.558593 -0.12695,0.291993 -0.34277,0.507813 -0.22852,0.228516 -0.50781,0.355469 -0.2793,0.139648 -0.57129,0.139648 z"
               style="font-style:normal;font-variant:normal;font-weight:normal;font-stretch:normal;font-family:PoliceSNCF;stroke-width:3.17834"
               id="path856" />
            <path
               d="m 150.17464,61.754227 q 0.71094,0 1.40918,-0.330078 0.69825,-0.330079 1.28223,-0.888672 0.55859,-0.558594 0.87598,-1.269532 0.33008,-0.698242 0.33008,-1.409179 v -5.205078 q 0,-0.710938 -0.33008,-1.40918 -0.33008,-0.698242 -0.87598,-1.282227 -0.57129,-0.558593 -1.28223,-0.875976 -0.69824,-0.330078 -1.40918,-0.330078 -0.71093,0 -1.42187,0.330078 -0.69824,0.330078 -1.25684,0.875976 -0.57129,0.571289 -0.90136,1.282227 -0.33008,0.698242 -0.31739,1.40918 v 5.205078 q 0,0.710937 0.31739,1.409179 0.33007,0.698243 0.90136,1.269532 0.5586,0.571289 1.25684,0.888672 0.71094,0.330078 1.42187,0.330078 z m 0,-2.335938 q -0.29199,0 -0.55859,-0.139648 -0.29199,-0.126953 -0.50781,-0.355469 -0.22852,-0.21582 -0.36817,-0.507813 -0.12695,-0.279296 -0.12695,-0.558593 v -5.205078 q 0,-0.291993 0.12695,-0.571289 0.12696,-0.279297 0.36817,-0.507813 0.21582,-0.21582 0.50781,-0.342773 0.2793,-0.126954 0.55859,-0.139649 0.292,0 0.57129,0.139649 0.2793,0.126953 0.50782,0.342773 0.21582,0.228516 0.34277,0.507813 0.12695,0.291992 0.13965,0.571289 v 5.205078 q 0,0.291992 -0.13965,0.558593 -0.12695,0.291993 -0.34277,0.507813 -0.22852,0.228516 -0.50782,0.355469 -0.27929,0.139648 -0.57129,0.139648 z"
               style="font-style:normal;font-variant:normal;font-weight:normal;font-stretch:normal;font-family:PoliceSNCF;stroke-width:3.17834"
               id="path858" />
            <path
               d="m 160.82601,54.606766 q -0.50781,0 -0.85058,0.101562 -0.34278,0.114258 -0.58399,0.291992 -0.20312,-0.165039 -0.5459,-0.291992 -0.35547,-0.101562 -0.87597,-0.101562 -0.292,0 -0.43164,0.0127 -0.15235,0.02539 -0.292,0.06348 v -0.07617 h -1.42187 v 7.147461 h 1.42187 v -5.001953 q 0,-0.279297 0.22852,-0.495118 0.20312,-0.21582 0.49512,-0.228515 0.29199,0 0.50781,0.21582 0.20312,0.21582 0.20312,0.507813 v 5.001953 h 1.43457 v -5.001953 q 0,-0.279297 0.21582,-0.495118 0.20313,-0.21582 0.49512,-0.228515 0.29199,0 0.50781,0.21582 0.20313,0.21582 0.20313,0.507813 v 5.001953 h 1.43457 v -5.001953 q 0,-2.145508 -2.14551,-2.145508 z"
               style="font-style:normal;font-variant:normal;font-weight:normal;font-stretch:normal;font-family:PoliceSNCF;stroke-width:3.17834"
               id="path860" />
          </g>
        </g>
      </g>
    </g>
  </g>
</svg>
