<?xml version="1.0" encoding="UTF-8" standalone="no"?>
<svg
   xmlns:dc="http://purl.org/dc/elements/1.1/"
   xmlns:cc="http://creativecommons.org/ns#"
   xmlns:rdf="http://www.w3.org/1999/02/22-rdf-syntax-ns#"
   xmlns:svg="http://www.w3.org/2000/svg"
   xmlns="http://www.w3.org/2000/svg"
   height="64"
   width="64"
   version="1.1"
   id="svg2">
  <metadata
     id="metadata8">
    <rdf:RDF>
      <cc:Work
         rdf:about="">
        <dc:format>image/svg+xml</dc:format>
        <dc:type
           rdf:resource="http://purl.org/dc/dcmitype/StillImage" />
        <dc:title></dc:title>
      </cc:Work>
    </rdf:RDF>
  </metadata>
  <defs
     id="defs6" />
  <g
     style="font-style:normal;font-variant:normal;font-weight:normal;font-stretch:normal;font-size:24px;line-height:1.25;font-family:Roboto;font-variant-ligatures:normal;font-variant-caps:normal;font-variant-numeric:normal;font-feature-settings:normal;text-align:start;letter-spacing:0px;word-spacing:0px;writing-mode:lr-tb;text-anchor:start;fill:#000000;fill-opacity:1;stroke:none;stroke-width:3"
     id="text835"
     aria-label="CAB" />
  <rect
     style="fill:#ffffff;fill-opacity:0;stroke-width:6.4;stroke-linecap:round;stroke-linejoin:round;paint-order:markers stroke fill;stop-color:#000000"
     id="rect832"
     width="64"
     height="64"
     x="0"
     y="0" />
  <g
     transform="translate(0,21)"
     id="g851">
    <rect
       style="fill:#000000;fill-opacity:1;fill-rule:nonzero;stroke:none;stroke-width:0.373372"
       id="rect2987"
       width="64"
       height="22"
       x="0"
       y="21" />
    <rect
       style="fill:none;stroke:#ffffff;stroke-width:0.594499;stroke-miterlimit:4;stroke-dasharray:none;stroke-opacity:1"
       id="rect2989"
       width="61.405502"
       height="19.4055"
       x="1.29725"
       y="22.297249" />
    <g
       style="font-style:normal;font-variant:normal;font-weight:normal;font-stretch:normal;font-size:10.2534px;line-height:1.55;font-family:Roboto;font-variant-ligatures:normal;font-variant-caps:normal;font-variant-numeric:normal;font-feature-settings:normal;text-align:start;letter-spacing:0px;word-spacing:0px;writing-mode:lr-tb;text-anchor:start;fill:#ffffff;fill-opacity:1;stroke:none;stroke-width:1.28167"
       id="text838"
       aria-label="STOP">
      <path
         id="path1146"
         style="font-style:normal;font-variant:normal;font-weight:normal;font-stretch:normal;font-size:15px;font-family:PoliceSNCF;text-align:center;text-anchor:middle;fill:#ffffff;stroke-width:1.28167"
         d="m 20.120117,28.850586 q 0,-0.820313 -0.351562,-1.625977 -0.366211,-0.776367 -0.966797,-1.40625 Q 18.171875,25.203125 17.380859,24.851562 16.589844,24.5 15.769531,24.5 q -0.820312,0 -1.611328,0.351562 -0.791015,0.366211 -1.40625,0.966797 -0.615234,0.629883 -0.981445,1.40625 -0.366211,0.791016 -0.351563,1.625977 0,0.820312 0.351563,1.611328 0.366211,0.791016 0.981445,1.40625 0.615235,0.615234 1.40625,0.966797 0.776367,0.366211 1.611328,0.366211 0.336914,0 0.65918,0.146484 0.322266,0.146485 0.585937,0.410156 0.249024,0.263672 0.395508,0.585938 0.146485,0.336914 0.161133,0.65918 0,0.336914 -0.161133,0.644531 -0.146484,0.336914 -0.395508,0.585937 -0.263671,0.263672 -0.585937,0.410157 -0.336914,0.146484 -0.65918,0.161132 -0.336914,0 -0.644531,-0.161132 -0.336914,-0.146485 -0.585937,-0.410157 -0.263672,-0.249023 -0.424805,-0.585937 -0.146485,-0.322266 -0.146485,-0.644531 h -2.695312 q 0,0.820312 0.366211,1.625976 0.380859,0.805664 1.040039,1.464844 0.644531,0.65918 1.450195,1.025391 Q 14.93457,39.5 15.769531,39.5 q 0.820313,0 1.625977,-0.380859 0.805664,-0.38086 1.479492,-1.025391 0.644531,-0.644531 1.010742,-1.464844 0.38086,-0.805664 0.38086,-1.625976 0,-0.820313 -0.38086,-1.640625 Q 19.504883,32.556641 18.875,31.897461 18.21582,31.25293 17.395508,30.87207 q -0.805664,-0.380859 -1.625977,-0.366211 -0.673828,0 -1.157226,-0.498047 -0.498047,-0.483398 -0.498047,-1.157226 0,-0.673828 0.498047,-1.171875 0.483398,-0.483399 1.157226,-0.483399 0.673828,0 1.171875,0.483399 0.483399,0.498047 0.46875,1.171875 z" />
      <path
         id="path1148"
         style="font-style:normal;font-variant:normal;font-weight:normal;font-stretch:normal;font-size:15px;font-family:PoliceSNCF;text-align:center;text-anchor:middle;fill:#ffffff;stroke-width:1.28167"
         d="m 27.605469,27.195312 h 3.149414 V 24.5 h -8.994141 v 2.695312 h 3.149414 V 39.5 h 2.695313 z" />
      <path
         id="path1150"
         style="font-style:normal;font-variant:normal;font-weight:normal;font-stretch:normal;font-size:15px;font-family:PoliceSNCF;text-align:center;text-anchor:middle;fill:#ffffff;stroke-width:1.28167"
         d="m 41.257812,35.00293 v -6.00586 q 0,-0.820312 -0.380859,-1.625976 Q 40.496094,26.56543 39.866211,25.891602 39.207031,25.24707 38.386719,24.880859 37.581055,24.5 36.760742,24.5 q -0.820312,0 -1.640625,0.380859 -0.805664,0.38086 -1.450195,1.010743 -0.65918,0.659179 -1.040039,1.479492 -0.38086,0.805664 -0.366211,1.625976 v 6.00586 q 0,0.820312 0.366211,1.625976 0.380859,0.805664 1.040039,1.464844 0.644531,0.65918 1.450195,1.025391 Q 35.925781,39.5 36.760742,39.5 q 0.820313,0 1.625977,-0.380859 0.805664,-0.38086 1.479492,-1.025391 0.644531,-0.644531 1.010742,-1.464844 0.380859,-0.805664 0.380859,-1.625976 z m -2.695312,0 q 0,0.336914 -0.161133,0.644531 -0.146484,0.336914 -0.395508,0.585937 -0.263672,0.263672 -0.585937,0.410157 -0.336914,0.146484 -0.65918,0.161132 -0.336914,0 -0.644531,-0.161132 -0.336914,-0.146485 -0.585938,-0.410157 -0.263671,-0.249023 -0.424804,-0.585937 -0.146485,-0.322266 -0.146485,-0.644531 v -6.00586 q 0,-0.336914 0.146485,-0.659179 0.146484,-0.322266 0.424804,-0.585938 0.249024,-0.249023 0.585938,-0.395508 0.322266,-0.146484 0.644531,-0.161133 0.336914,0 0.65918,0.161133 0.322265,0.146485 0.585937,0.395508 0.249024,0.263672 0.395508,0.585938 0.146485,0.336914 0.161133,0.659179 z" />
      <path
         id="path1152"
         style="font-style:normal;font-variant:normal;font-weight:normal;font-stretch:normal;font-size:15px;font-family:PoliceSNCF;text-align:center;text-anchor:middle;fill:#ffffff;stroke-width:1.28167"
         d="m 46.428711,30.798828 v -3.603516 h 1.801758 q 0.336914,0 0.659179,0.161133 0.322266,0.146485 0.585938,0.395508 0.249023,0.263672 0.395508,0.585938 0.146484,0.336914 0.146484,0.659179 0,0.336914 -0.146484,0.644532 -0.146485,0.336914 -0.395508,0.585937 -0.263672,0.263672 -0.585938,0.424805 -0.336914,0.146484 -0.659179,0.146484 z m 0,2.695313 h 1.801758 q 0.820312,0 1.625976,-0.366211 0.805664,-0.38086 1.479492,-1.040039 0.644532,-0.644532 1.010743,-1.450196 0.380859,-0.805664 0.380859,-1.640625 0,-0.820312 -0.380859,-1.625976 Q 51.96582,26.56543 51.335937,25.891602 50.676758,25.24707 49.856445,24.880859 49.050781,24.5 48.230469,24.5 H 43.71875 v 15 h 2.709961 z" />
    </g>
  </g>
</svg>
