<?xml version="1.0" encoding="UTF-8" standalone="no"?>
<svg
   xmlns:dc="http://purl.org/dc/elements/1.1/"
   xmlns:cc="http://creativecommons.org/ns#"
   xmlns:rdf="http://www.w3.org/1999/02/22-rdf-syntax-ns#"
   xmlns:svg="http://www.w3.org/2000/svg"
   xmlns="http://www.w3.org/2000/svg"
   xmlns:sodipodi="http://sodipodi.sourceforge.net/DTD/sodipodi-0.dtd"
   xmlns:inkscape="http://www.inkscape.org/namespaces/inkscape"
   sodipodi:docname="TIV PENEXE.svg"
   height="64"
   width="64"
   inkscape:version="1.0 (4035a4fb49, 2020-05-01)"
   version="1.1"
   id="svg2">
  <metadata
     id="metadata8">
    <rdf:RDF>
      <cc:Work
         rdf:about="">
        <dc:format>image/svg+xml</dc:format>
        <dc:type
           rdf:resource="http://purl.org/dc/dcmitype/StillImage" />
        <dc:title />
      </cc:Work>
    </rdf:RDF>
  </metadata>
  <defs
     id="defs6" />
  <sodipodi:namedview
     inkscape:document-rotation="0"
     inkscape:current-layer="text841"
     inkscape:window-maximized="1"
     inkscape:window-y="0"
     inkscape:window-x="0"
     inkscape:cy="35.793035"
     inkscape:cx="22.902549"
     inkscape:zoom="9.2034367"
     inkscape:snap-page="true"
     inkscape:snap-center="true"
     inkscape:snap-object-midpoints="true"
     inkscape:snap-midpoints="true"
     inkscape:snap-smooth-nodes="true"
     inkscape:snap-intersection-paths="true"
     inkscape:object-nodes="true"
     inkscape:object-paths="true"
     inkscape:snap-bbox-midpoints="true"
     inkscape:snap-bbox-edge-midpoints="true"
     inkscape:bbox-nodes="true"
     inkscape:bbox-paths="true"
     inkscape:snap-bbox="true"
     showgrid="true"
     id="namedview4"
     inkscape:window-height="1024"
     inkscape:window-width="1920"
     inkscape:pageshadow="2"
     inkscape:pageopacity="0"
     guidetolerance="10"
     gridtolerance="10"
     objecttolerance="10"
     borderopacity="1"
     bordercolor="#666666"
     pagecolor="#ffffff">
    <inkscape:grid
       id="grid865"
       type="xygrid" />
  </sodipodi:namedview>
  <g
     transform="translate(-107.73191,-4.8418837)"
     id="g3769">
    <g
       aria-label="60"
       id="text841"
       style="font-style:normal;font-variant:normal;font-weight:normal;font-stretch:normal;font-size:30px;line-height:1.25;font-family:Roboto;font-variant-ligatures:normal;font-variant-caps:normal;font-variant-numeric:normal;font-feature-settings:normal;text-align:start;letter-spacing:0px;word-spacing:0px;writing-mode:lr-tb;text-anchor:start;fill:#000000;fill-opacity:1;stroke:none;stroke-width:3.75">
      <path
         sodipodi:nodetypes="cccccc"
         id="path836"
         d="m 119.73191,4.8418837 h 40 V 51.387338 l -20,17.454546 -20,-17.454546 z"
         style="fill:#000000;fill-opacity:1;stroke:none;stroke-width:1.17004px;stroke-linecap:butt;stroke-linejoin:miter;stroke-opacity:1" />
      <path
         style="fill:#ffffff;fill-opacity:1;stroke:none;stroke-width:1.11154px;stroke-linecap:butt;stroke-linejoin:miter;stroke-opacity:1"
         d="m 120.73191,5.8418837 h 38 V 50.841884 l -19,16.489087 -19,-16.489087 z"
         id="path858"
         sodipodi:nodetypes="cccccc" />
      <path
         sodipodi:nodetypes="cccccc"
         id="path870"
         d="m 121.73191,6.8418837 h 36 V 50.375647 l -18,15.755347 -18,-15.738615 z"
         style="fill:#000000;fill-opacity:1;stroke:none;stroke-width:1.05304px;stroke-linecap:butt;stroke-linejoin:miter;stroke-opacity:1" />
      <g
         transform="translate(0,2.9999987)"
         aria-label="5"
         id="text862"
         style="font-style:normal;font-variant:normal;font-weight:normal;font-stretch:normal;font-size:38px;line-height:1.25;font-family:Roboto;font-variant-ligatures:normal;font-variant-caps:normal;font-variant-numeric:normal;font-feature-settings:normal;text-align:start;letter-spacing:0px;word-spacing:0px;writing-mode:lr-tb;text-anchor:start;fill:#ffffff;fill-opacity:1;stroke:none;stroke-width:17.8125">
        <path
           d="m 139.7319,23.234463 q -1.29883,0 -1.78125,0.07422 -0.48242,0.07422 -0.89062,0.259766 V 18.67001 h 12.17187 v -6.828125 h -19 v 17.033203 l 6.82813,2.226562 q 0.0371,-0.333984 0.59375,-0.667969 0.55664,-0.333984 2.07812,-0.333984 0.85352,0 1.66992,0.371094 0.81641,0.371094 1.48438,1.001953 0.63086,0.667969 1.00195,1.484375 0.3711,0.853516 0.40821,1.669922 v 3.822265 q 0,0.853516 -0.40821,1.632813 -0.37109,0.853516 -1.00195,1.484375 -0.66797,0.667969 -1.48438,1.039062 -0.85351,0.371094 -1.66992,0.408204 -0.85351,0 -1.63281,-0.408204 -0.85352,-0.371093 -1.48437,-1.039062 -0.66797,-0.630859 -1.07618,-1.484375 -0.37109,-0.816406 -0.37109,-1.632813 h -6.82813 q 0,2.078125 0.92774,4.119141 0.96484,2.041016 2.63476,3.710938 1.63282,1.669921 3.67383,2.597656 2.04102,0.964844 4.15625,0.964844 2.07813,0 4.11914,-0.964844 2.04102,-0.964844 3.74805,-2.597656 1.63281,-1.632813 2.56055,-3.710938 0.96484,-2.041016 0.96484,-4.119141 v -3.822265 q 0,-2.078125 -0.96484,-4.119141 -0.96485,-2.041015 -2.56055,-3.748047 -1.66992,-1.632812 -3.74805,-2.560547 -2.04101,-0.964843 -4.11914,-0.964843 z"
           style="font-style:normal;font-variant:normal;font-weight:normal;font-stretch:normal;font-family:PoliceSNCF;fill:#ffffff;stroke-width:17.8125"
           id="path837" />
      </g>
    </g>
  </g>
</svg>
