<?xml version="1.0" encoding="UTF-8" standalone="no"?>
<svg
   xmlns:dc="http://purl.org/dc/elements/1.1/"
   xmlns:cc="http://creativecommons.org/ns#"
   xmlns:rdf="http://www.w3.org/1999/02/22-rdf-syntax-ns#"
   xmlns:svg="http://www.w3.org/2000/svg"
   xmlns="http://www.w3.org/2000/svg"
   id="svg2"
   version="1.1"
   width="64"
   height="64">
  <metadata
     id="metadata8">
    <rdf:RDF>
      <cc:Work
         rdf:about="">
        <dc:format>image/svg+xml</dc:format>
        <dc:type
           rdf:resource="http://purl.org/dc/dcmitype/StillImage" />
        <dc:title></dc:title>
      </cc:Work>
    </rdf:RDF>
  </metadata>
  <defs
     id="defs6" />
  <g
     id="g3769"
     transform="translate(-107.73191,-4.8418837)">
    <g
       style="font-style:normal;font-variant:normal;font-weight:normal;font-stretch:normal;font-size:30px;line-height:1.25;font-family:Roboto;font-variant-ligatures:normal;font-variant-caps:normal;font-variant-numeric:normal;font-feature-settings:normal;text-align:start;letter-spacing:0px;word-spacing:0px;writing-mode:lr-tb;text-anchor:start;fill:#000000;fill-opacity:1;stroke:none;stroke-width:3.75"
       id="text841"
       aria-label="60">
      <path
         style="fill:#000000;fill-opacity:1;stroke:none;stroke-width:1.17004px;stroke-linecap:butt;stroke-linejoin:miter;stroke-opacity:1"
         d="m 119.73191,4.8418837 h 40 V 51.387338 l -20,17.454546 -20,-17.454546 z"
         id="path836" />
      <path
         id="path858"
         d="m 120.73191,5.8418837 h 38 V 50.841884 l -19,16.489087 -19,-16.489087 z"
         style="fill:#ffffff;fill-opacity:1;stroke:none;stroke-width:1.11154px;stroke-linecap:butt;stroke-linejoin:miter;stroke-opacity:1" />
      <path
         style="fill:#000000;fill-opacity:1;stroke:none;stroke-width:1.05304px;stroke-linecap:butt;stroke-linejoin:miter;stroke-opacity:1"
         d="m 121.73191,6.8418837 h 36 V 50.375647 l -18,15.755347 -18,-15.738615 z"
         id="path870" />
      <g
         style="font-style:normal;font-variant:normal;font-weight:normal;font-stretch:normal;font-size:38px;line-height:1.25;font-family:Roboto;font-variant-ligatures:normal;font-variant-caps:normal;font-variant-numeric:normal;font-feature-settings:normal;text-align:start;letter-spacing:0px;word-spacing:0px;writing-mode:lr-tb;text-anchor:start;fill:#ffffff;fill-opacity:1;stroke:none;stroke-width:17.8125"
         id="text862"
         aria-label="5"
         transform="translate(0,2.9999987)">
        <g
           style="font-style:normal;font-variant:normal;font-weight:normal;font-stretch:normal;font-size:38px;line-height:1.25;font-family:Roboto;font-variant-ligatures:normal;font-variant-caps:normal;font-variant-numeric:normal;font-feature-settings:normal;text-align:start;letter-spacing:0px;word-spacing:0px;writing-mode:lr-tb;text-anchor:start;fill:#ffffff;fill-opacity:1;stroke:none;stroke-width:84.6094"
           id="text839"
           aria-label="3">
          <path
             id="path883"
             style="font-style:normal;font-variant:normal;font-weight:normal;font-stretch:normal;font-family:PoliceSNCF;fill:#ffffff;stroke-width:84.6094"
             d="m 149.2319,18.67001 v -6.828125 h -19 v 6.828125 h 10.39063 l -7.23633,6.753906 3.67383,5.677734 q 0.0742,-0.07422 0.29687,-0.333984 0.25977,-0.371094 0.70508,-0.519531 0.4082,-0.148438 1.66992,-0.148438 0.85352,0 1.66992,0.371094 0.81641,0.371094 1.48438,1.001953 0.63086,0.667969 1.00195,1.484375 0.3711,0.853516 0.40821,1.669922 v 3.822265 q 0,0.853516 -0.40821,1.632813 -0.37109,0.853516 -1.00195,1.484375 -0.66797,0.667969 -1.48438,1.039062 -0.85351,0.371094 -1.66992,0.408204 -0.85351,0 -1.63281,-0.408204 -0.85352,-0.371093 -1.48437,-1.039062 -0.66797,-0.630859 -1.07618,-1.484375 -0.37109,-0.816406 -0.37109,-1.632813 h -6.82813 q 0,2.078125 0.92774,4.119141 0.96484,2.041016 2.63476,3.710938 1.63282,1.669921 3.67383,2.597656 2.04102,0.964844 4.15625,0.964844 2.07813,0 4.11914,-0.964844 2.04102,-0.964844 3.74805,-2.597656 1.63281,-1.632813 2.56055,-3.710938 0.96484,-2.041016 0.96484,-4.119141 v -3.822265 q 0,-2.078125 -0.7793,-3.896485 -0.8164,-1.78125 -1.96679,-3.117187 -1.22461,-1.335938 -2.375,-2.152344 -1.1875,-0.853515 -2.15235,-1.335937 z" />
        </g>
      </g>
    </g>
  </g>
</svg>
