<?xml version="1.0" encoding="UTF-8" standalone="no"?>
<svg
   xmlns:dc="http://purl.org/dc/elements/1.1/"
   xmlns:cc="http://creativecommons.org/ns#"
   xmlns:rdf="http://www.w3.org/1999/02/22-rdf-syntax-ns#"
   xmlns:svg="http://www.w3.org/2000/svg"
   xmlns="http://www.w3.org/2000/svg"
   height="64"
   width="64"
   version="1.1"
   id="svg2">
  <metadata
     id="metadata8">
    <rdf:RDF>
      <cc:Work
         rdf:about="">
        <dc:format>image/svg+xml</dc:format>
        <dc:type
           rdf:resource="http://purl.org/dc/dcmitype/StillImage" />
        <dc:title></dc:title>
      </cc:Work>
    </rdf:RDF>
  </metadata>
  <defs
     id="defs6" />
  <g
     transform="translate(-107.73191,-4.8418837)"
     id="g3769">
    <g
       transform="matrix(0.5,0.5,-0.5,0.5,158.2869,28.554987)"
       id="g854">
      <rect
         style="fill:#ffffff;fill-opacity:1;fill-rule:nonzero;stroke:none;stroke-width:0.636824"
         id="rect2987-3"
         width="64"
         height="64"
         x="-42.268089"
         y="-5.1581163" />
      <rect
         style="fill:none;stroke:#000000;stroke-width:3.97394;stroke-miterlimit:4;stroke-dasharray:none;stroke-opacity:1"
         id="rect2989-6"
         width="58.026062"
         height="58.026058"
         x="-39.28112"
         y="-2.1711454" />
    </g>
    <g
       style="font-style:normal;font-variant:normal;font-weight:normal;font-stretch:normal;font-size:18px;line-height:1.25;font-family:PoliceSNCF;-inkscape-font-specification:PoliceSNCF;font-variant-ligatures:normal;font-variant-caps:normal;font-variant-numeric:normal;font-feature-settings:normal;text-align:start;letter-spacing:0px;word-spacing:0px;writing-mode:lr-tb;text-anchor:start;fill:#000000;fill-opacity:1;stroke:none;stroke-width:2.25"
       id="text839"
       aria-label="3">
      <path
         id="path841"
         style="stroke-width:2.25"
         d="m 144.2319,31.07626 v -3.234375 h -9 v 3.234375 h 4.92188 l -3.42774,3.199218 1.74024,2.689453 q 0.0351,-0.03516 0.14062,-0.158203 0.12305,-0.175781 0.33399,-0.246093 0.19336,-0.07031 0.79101,-0.07031 0.4043,0 0.79102,0.175781 0.38672,0.175782 0.70312,0.47461 0.29883,0.316406 0.47461,0.703125 0.17578,0.404297 0.19336,0.791015 V 40.4454 q 0,0.404297 -0.19336,0.773438 -0.17578,0.404297 -0.47461,0.703125 -0.3164,0.316406 -0.70312,0.492187 -0.4043,0.175781 -0.79102,0.19336 -0.40429,0 -0.77343,-0.19336 -0.4043,-0.175781 -0.70313,-0.492187 -0.31641,-0.298828 -0.50977,-0.703125 -0.17578,-0.386719 -0.17578,-0.773438 h -3.23437 q 0,0.984375 0.43945,1.951172 0.45703,0.966797 1.24805,1.757813 0.77344,0.791015 1.74023,1.230468 0.9668,0.457032 1.96875,0.457032 0.98438,0 1.95117,-0.457032 0.9668,-0.457031 1.7754,-1.230468 0.77343,-0.773438 1.21289,-1.757813 0.45703,-0.966797 0.45703,-1.951172 v -1.810547 q 0,-0.984375 -0.36914,-1.845703 -0.38672,-0.84375 -0.93164,-1.476562 -0.58008,-0.632813 -1.125,-1.019532 -0.5625,-0.404296 -1.01954,-0.632812 z" />
    </g>
  </g>
</svg>
