<?xml version="1.0" encoding="UTF-8" standalone="no"?>
<svg
   xmlns:dc="http://purl.org/dc/elements/1.1/"
   xmlns:cc="http://creativecommons.org/ns#"
   xmlns:rdf="http://www.w3.org/1999/02/22-rdf-syntax-ns#"
   xmlns:svg="http://www.w3.org/2000/svg"
   xmlns="http://www.w3.org/2000/svg"
   xmlns:sodipodi="http://sodipodi.sourceforge.net/DTD/sodipodi-0.dtd"
   xmlns:inkscape="http://www.inkscape.org/namespaces/inkscape"
   id="svg2"
   version="1.1"
   inkscape:version="1.1-dev (ccb98c3c56, 2020-01-19)"
   width="64"
   height="64"
   sodipodi:docname="pan_tiv_130_losange.svg">
  <metadata
     id="metadata8">
    <rdf:RDF>
      <cc:Work
         rdf:about="">
        <dc:format>image/svg+xml</dc:format>
        <dc:type
           rdf:resource="http://purl.org/dc/dcmitype/StillImage" />
        <dc:title></dc:title>
      </cc:Work>
    </rdf:RDF>
  </metadata>
  <defs
     id="defs6" />
  <sodipodi:namedview
     pagecolor="#ffffff"
     bordercolor="#666666"
     borderopacity="1"
     objecttolerance="10"
     gridtolerance="10"
     guidetolerance="10"
     inkscape:pageopacity="0"
     inkscape:pageshadow="2"
     inkscape:window-width="1920"
     inkscape:window-height="1024"
     id="namedview4"
     showgrid="false"
     inkscape:snap-bbox="true"
     inkscape:bbox-paths="true"
     inkscape:bbox-nodes="true"
     inkscape:snap-bbox-edge-midpoints="true"
     inkscape:snap-bbox-midpoints="true"
     inkscape:object-paths="true"
     inkscape:object-nodes="true"
     inkscape:snap-intersection-paths="true"
     inkscape:snap-smooth-nodes="true"
     inkscape:snap-midpoints="true"
     inkscape:snap-object-midpoints="true"
     inkscape:snap-center="true"
     inkscape:snap-page="true"
     inkscape:zoom="11.313708"
     inkscape:cx="41.990066"
     inkscape:cy="19.719455"
     inkscape:window-x="0"
     inkscape:window-y="28"
     inkscape:window-maximized="1"
     inkscape:current-layer="g3769"
     inkscape:document-rotation="0">
    <inkscape:grid
       type="xygrid"
       id="grid865" />
  </sodipodi:namedview>
  <g
     id="g3769"
     transform="translate(-107.73191,-4.8418837)">
    <g
       id="g854"
       transform="matrix(0.5,0.5,-0.5,0.5,158.2869,28.554987)">
      <rect
         y="-5.1581163"
         x="-42.268089"
         height="64"
         width="64"
         id="rect2987-3"
         style="fill:#ffffff;fill-opacity:1;fill-rule:nonzero;stroke:none;stroke-width:0.636824" />
      <rect
         y="-2.1711454"
         x="-39.28112"
         height="58.026058"
         width="58.026062"
         id="rect2989-6"
         style="fill:none;stroke:#000000;stroke-width:3.97394;stroke-miterlimit:4;stroke-dasharray:none;stroke-opacity:1" />
    </g>
    <g
       style="font-style:normal;font-variant:normal;font-weight:normal;font-stretch:normal;font-size:18px;line-height:1.25;font-family:Roboto;font-variant-ligatures:normal;font-variant-caps:normal;font-variant-numeric:normal;font-feature-settings:normal;text-align:start;letter-spacing:0px;word-spacing:0px;writing-mode:lr-tb;text-anchor:start;fill:#000000;fill-opacity:1;stroke:none;stroke-width:2.25"
       id="text841"
       aria-label="130">
      <path
         id="path1225"
         style="font-style:normal;font-variant:normal;font-weight:normal;font-stretch:normal;font-family:PoliceSNCF;stroke-width:2.25"
         d="m 124.65867,45.841885 h 3.25195 v -18 h -3.25195 z" />
      <path
         id="path1227"
         style="font-style:normal;font-variant:normal;font-weight:normal;font-stretch:normal;font-family:PoliceSNCF;stroke-width:2.25"
         d="m 140.77781,31.07626 v -3.234375 h -9 v 3.234375 h 4.92187 l -3.42773,3.199218 1.74023,2.689453 q 0.0352,-0.03516 0.14063,-0.158203 0.12305,-0.175781 0.33398,-0.246093 0.19336,-0.07031 0.79102,-0.07031 0.4043,0 0.79101,0.175781 0.38672,0.175782 0.70313,0.47461 0.29883,0.316406 0.47461,0.703125 0.17578,0.404297 0.19336,0.791015 V 40.4454 q 0,0.404297 -0.19336,0.773438 -0.17578,0.404297 -0.47461,0.703125 -0.31641,0.316406 -0.70313,0.492187 -0.40429,0.175781 -0.79101,0.19336 -0.4043,0 -0.77344,-0.19336 -0.4043,-0.175781 -0.70312,-0.492187 -0.31641,-0.298828 -0.50977,-0.703125 -0.17578,-0.386719 -0.17578,-0.773438 h -3.23438 q 0,0.984375 0.43946,1.951172 0.45703,0.966797 1.24804,1.757813 0.77344,0.791015 1.74024,1.230468 0.9668,0.457032 1.96875,0.457032 0.98437,0 1.95117,-0.457032 0.9668,-0.457031 1.77539,-1.230468 0.77344,-0.773438 1.21289,-1.757813 0.45703,-0.966797 0.45703,-1.951172 v -1.810547 q 0,-0.984375 -0.36914,-1.845703 -0.38672,-0.84375 -0.93164,-1.476562 -0.58008,-0.632813 -1.125,-1.019532 -0.5625,-0.404296 -1.01953,-0.632812 z" />
      <path
         id="path1229"
         style="font-style:normal;font-variant:normal;font-weight:normal;font-stretch:normal;font-family:PoliceSNCF;stroke-width:2.25"
         d="m 149.40867,45.841885 q 0.98437,0 1.95117,-0.457032 0.9668,-0.457031 1.77539,-1.230468 0.77344,-0.773438 1.21289,-1.757813 0.45703,-0.966797 0.45703,-1.951172 v -7.207031 q 0,-0.984375 -0.45703,-1.951172 -0.45703,-0.966797 -1.21289,-1.775391 -0.79101,-0.773437 -1.77539,-1.21289 -0.9668,-0.457031 -1.95117,-0.457031 -0.98438,0 -1.96875,0.457031 -0.9668,0.457031 -1.74024,1.21289 -0.79101,0.791016 -1.24804,1.775391 -0.45703,0.966797 -0.43946,1.951172 V 40.4454 q 0,0.984375 0.43946,1.951172 0.45703,0.966797 1.24804,1.757813 0.77344,0.791015 1.74024,1.230468 0.98437,0.457032 1.96875,0.457032 z m 0,-3.234375 q -0.4043,0 -0.77344,-0.19336 -0.4043,-0.175781 -0.70312,-0.492187 -0.31641,-0.298828 -0.50977,-0.703125 -0.17578,-0.386719 -0.17578,-0.773438 v -7.207031 q 0,-0.404297 0.17578,-0.791016 0.17578,-0.386718 0.50977,-0.703125 0.29882,-0.298828 0.70312,-0.474609 0.38672,-0.175781 0.77344,-0.193359 0.4043,0 0.79101,0.193359 0.38672,0.175781 0.70313,0.474609 0.29883,0.316407 0.47461,0.703125 0.17578,0.404297 0.19336,0.791016 V 40.4454 q 0,0.404297 -0.19336,0.773438 -0.17578,0.404297 -0.47461,0.703125 -0.31641,0.316406 -0.70313,0.492187 -0.38671,0.19336 -0.79101,0.19336 z" />
    </g>
  </g>
</svg>
