<?xml version="1.0" encoding="UTF-8" standalone="no"?>
<svg
   xmlns:dc="http://purl.org/dc/elements/1.1/"
   xmlns:cc="http://creativecommons.org/ns#"
   xmlns:rdf="http://www.w3.org/1999/02/22-rdf-syntax-ns#"
   xmlns:svg="http://www.w3.org/2000/svg"
   xmlns="http://www.w3.org/2000/svg"
   xmlns:sodipodi="http://sodipodi.sourceforge.net/DTD/sodipodi-0.dtd"
   xmlns:inkscape="http://www.inkscape.org/namespaces/inkscape"
   sodipodi:docname="pan_tiv_140_rappel.svg"
   height="64"
   width="64"
   inkscape:version="1.1-dev (ccb98c3c56, 2020-01-19)"
   version="1.1"
   id="svg2">
  <metadata
     id="metadata8">
    <rdf:RDF>
      <cc:Work
         rdf:about="">
        <dc:format>image/svg+xml</dc:format>
        <dc:type
           rdf:resource="http://purl.org/dc/dcmitype/StillImage" />
        <dc:title />
      </cc:Work>
    </rdf:RDF>
  </metadata>
  <defs
     id="defs6" />
  <sodipodi:namedview
     inkscape:document-rotation="0"
     inkscape:current-layer="g3769"
     inkscape:window-maximized="1"
     inkscape:window-y="28"
     inkscape:window-x="0"
     inkscape:cy="23.449233"
     inkscape:cx="11.972602"
     inkscape:zoom="6.5078125"
     inkscape:snap-page="true"
     inkscape:snap-center="true"
     inkscape:snap-object-midpoints="true"
     inkscape:snap-midpoints="true"
     inkscape:snap-smooth-nodes="true"
     inkscape:snap-intersection-paths="true"
     inkscape:object-nodes="true"
     inkscape:object-paths="true"
     inkscape:snap-bbox-midpoints="true"
     inkscape:snap-bbox-edge-midpoints="true"
     inkscape:bbox-nodes="true"
     inkscape:bbox-paths="true"
     inkscape:snap-bbox="true"
     showgrid="false"
     id="namedview4"
     inkscape:window-height="1024"
     inkscape:window-width="1920"
     inkscape:pageshadow="2"
     inkscape:pageopacity="0"
     guidetolerance="10"
     gridtolerance="10"
     objecttolerance="10"
     borderopacity="1"
     bordercolor="#666666"
     pagecolor="#ffffff">
    <inkscape:grid
       id="grid865"
       type="xygrid" />
  </sodipodi:namedview>
  <g
     transform="translate(-107.73191,-4.8418837)"
     id="g3769">
    <g
       id="g837">
      <rect
         y="4.8418837"
         x="107.73191"
         height="64"
         width="64"
         id="rect2987"
         style="fill:#000000;fill-opacity:1;fill-rule:nonzero;stroke:none;stroke-width:0.636824" />
      <rect
         y="7.8094244"
         x="110.69945"
         height="58.064922"
         width="58.064919"
         id="rect2989"
         style="fill:none;stroke:#ffffff;stroke-width:3.93508;stroke-miterlimit:4;stroke-dasharray:none;stroke-opacity:1" />
    </g>
    <g
       aria-label="140"
       id="text841"
       style="font-style:normal;font-variant:normal;font-weight:normal;font-stretch:normal;font-size:30px;line-height:1.25;font-family:Roboto;font-variant-ligatures:normal;font-variant-caps:normal;font-variant-numeric:normal;font-feature-settings:normal;text-align:start;letter-spacing:0px;word-spacing:0px;writing-mode:lr-tb;text-anchor:start;fill:#ffffff;fill-opacity:1;stroke:none;stroke-width:3.75">
      <path
         d="m 115.50339,51.841885 h 5.41992 v -30 h -5.41992 z"
         style="font-style:normal;font-variant:normal;font-weight:normal;font-stretch:normal;font-family:PoliceSNCF;stroke-width:3.75;fill:#ffffff"
         id="path861" />
      <path
         d="m 134.86862,41.031338 h -3.89648 l 3.89648,-8.378907 z m -9.90234,0 v 5.419922 h 9.90234 v 5.390625 h 5.39063 V 46.45126 h 2.69531 v -5.419922 h -2.69531 V 21.841885 h -5.36133 z"
         style="font-style:normal;font-variant:normal;font-weight:normal;font-stretch:normal;font-family:PoliceSNCF;stroke-width:3.75;fill:#ffffff"
         id="path863" />
      <path
         d="m 154.96628,51.841885 q 1.64062,0 3.25195,-0.761719 1.61133,-0.761719 2.95899,-2.050781 1.28906,-1.289063 2.02148,-2.929688 0.76172,-1.611328 0.76172,-3.251953 V 30.836025 q 0,-1.640625 -0.76172,-3.251953 -0.76172,-1.611328 -2.02148,-2.958984 -1.31836,-1.289063 -2.95899,-2.021485 -1.61133,-0.761718 -3.25195,-0.761718 -1.64063,0 -3.28125,0.761718 -1.61133,0.761719 -2.90039,2.021485 -1.31836,1.318359 -2.08008,2.958984 -0.76172,1.611328 -0.73242,3.251953 v 12.011719 q 0,1.640625 0.73242,3.251953 0.76172,1.611328 2.08008,2.929688 1.28906,1.318359 2.90039,2.050781 1.64062,0.761719 3.28125,0.761719 z m 0,-5.390625 q -0.67383,0 -1.28906,-0.322266 -0.67383,-0.292969 -1.17188,-0.820313 -0.52734,-0.498046 -0.84961,-1.171875 -0.29297,-0.644531 -0.29297,-1.289062 V 30.836025 q 0,-0.673828 0.29297,-1.318359 0.29297,-0.644531 0.84961,-1.171875 0.49805,-0.498047 1.17188,-0.791016 0.64453,-0.292969 1.28906,-0.322265 0.67383,0 1.31836,0.322265 0.64453,0.292969 1.17187,0.791016 0.49805,0.527344 0.79102,1.171875 0.29297,0.673828 0.32226,1.318359 v 12.011719 q 0,0.673828 -0.32226,1.289062 -0.29297,0.673829 -0.79102,1.171875 -0.52734,0.527344 -1.17187,0.820313 -0.64453,0.322266 -1.31836,0.322266 z"
         style="font-style:normal;font-variant:normal;font-weight:normal;font-stretch:normal;font-family:PoliceSNCF;stroke-width:3.75;fill:#ffffff"
         id="path865" />
    </g>
  </g>
</svg>
