<?xml version="1.0" encoding="UTF-8" standalone="no"?>
<svg
   xmlns:dc="http://purl.org/dc/elements/1.1/"
   xmlns:cc="http://creativecommons.org/ns#"
   xmlns:rdf="http://www.w3.org/1999/02/22-rdf-syntax-ns#"
   xmlns:svg="http://www.w3.org/2000/svg"
   xmlns="http://www.w3.org/2000/svg"
   id="svg2"
   version="1.1"
   width="64"
   height="64">
  <metadata
     id="metadata8">
    <rdf:RDF>
      <cc:Work
         rdf:about="">
        <dc:format>image/svg+xml</dc:format>
        <dc:type
           rdf:resource="http://purl.org/dc/dcmitype/StillImage" />
        <dc:title></dc:title>
      </cc:Work>
    </rdf:RDF>
  </metadata>
  <defs
     id="defs6" />
  <g
     id="g3769"
     transform="translate(-107.73191,-4.8418837)">
    <g
       id="g837">
      <rect
         style="fill:#000000;fill-opacity:1;fill-rule:nonzero;stroke:none;stroke-width:0.636824"
         id="rect2987"
         width="64"
         height="64"
         x="107.73191"
         y="4.8418837" />
      <rect
         style="fill:none;stroke:#ffffff;stroke-width:3.93508;stroke-miterlimit:4;stroke-dasharray:none;stroke-opacity:1"
         id="rect2989"
         width="58.064919"
         height="58.064922"
         x="110.69945"
         y="7.8094244" />
    </g>
    <g
       style="font-style:normal;font-variant:normal;font-weight:normal;font-stretch:normal;font-size:30px;line-height:1.25;font-family:Roboto;font-variant-ligatures:normal;font-variant-caps:normal;font-variant-numeric:normal;font-feature-settings:normal;text-align:start;letter-spacing:0px;word-spacing:0px;writing-mode:lr-tb;text-anchor:start;fill:#ffffff;fill-opacity:1;stroke:none;stroke-width:3.75"
       id="text841"
       aria-label="140">
      <g
         style="font-style:normal;font-variant:normal;font-weight:normal;font-stretch:normal;font-size:30px;line-height:1.25;font-family:Roboto;font-variant-ligatures:normal;font-variant-caps:normal;font-variant-numeric:normal;font-feature-settings:normal;text-align:start;letter-spacing:0px;word-spacing:0px;writing-mode:lr-tb;text-anchor:start;fill:#ffffff;fill-opacity:1;stroke:none;stroke-width:14.0625"
         id="text840"
         aria-label="160">
        <path
           id="path867"
           style="font-style:normal;font-variant:normal;font-weight:normal;font-stretch:normal;font-family:PoliceSNCF;fill:#ffffff;stroke-width:14.0625"
           d="m 114.60984,51.841885 h 5.41992 v -30 h -5.41992 z" />
        <path
           id="path869"
           style="font-style:normal;font-variant:normal;font-weight:normal;font-stretch:normal;font-family:PoliceSNCF;fill:#ffffff;stroke-width:14.0625"
           d="m 137.57859,30.836025 h 5.39063 q 0,-1.640625 -0.76172,-3.251953 -0.76172,-1.611328 -2.02149,-2.958984 -1.31836,-1.289063 -2.95898,-2.021485 -1.61133,-0.761718 -3.25196,-0.761718 -1.64062,0 -3.28125,0.761718 -1.61132,0.761719 -2.90039,2.021485 -1.31836,1.318359 -2.08007,2.958984 -0.76172,1.611328 -0.73243,3.251953 v 12.011719 q 0,1.640625 0.73243,3.251953 0.76171,1.611328 2.08007,2.929688 1.28907,1.318359 2.90039,2.050781 1.61133,0.761719 3.28125,0.761719 1.64063,0 3.25196,-0.761719 1.61133,-0.761719 2.95898,-2.050781 1.28906,-1.289063 2.02149,-2.929688 0.76172,-1.611328 0.76172,-3.251953 0,-1.640625 -0.76172,-3.28125 -0.76172,-1.611328 -2.02149,-2.929688 -1.31836,-1.289062 -2.95898,-2.050781 -1.61133,-0.761719 -3.25196,-0.732422 -1.37695,0 -2.31445,0.322266 -0.9375,0.351562 -1.28906,0.585937 v -3.925781 q 0,-0.673828 0.29297,-1.318359 0.29297,-0.644531 0.84961,-1.171875 0.49804,-0.498047 1.17187,-0.791016 0.64453,-0.292969 1.28906,-0.322265 0.67383,0 1.31836,0.322265 0.64454,0.292969 1.17188,0.791016 0.49805,0.527344 0.79101,1.171875 0.32227,0.644531 0.32227,1.318359 z m 0,12.011719 q 0,0.673828 -0.32227,1.289062 -0.29296,0.673829 -0.79101,1.171875 -0.52734,0.527344 -1.17188,0.820313 -0.67382,0.292969 -1.31836,0.322266 -0.67382,0 -1.28906,-0.322266 -0.67383,-0.292969 -1.17187,-0.820313 -0.52735,-0.498046 -0.84961,-1.171875 -0.29297,-0.644531 -0.29297,-1.289062 0,-0.673828 0.29297,-1.318359 0.29297,-0.644532 0.84961,-1.171875 0.49804,-0.498047 1.17187,-0.820313 0.64453,-0.292969 1.28906,-0.292969 0.67383,0 1.31836,0.292969 0.64454,0.292969 1.17188,0.820313 0.49805,0.527343 0.79101,1.171875 0.32227,0.644531 0.32227,1.318359 z" />
        <path
           id="path871"
           style="font-style:normal;font-variant:normal;font-weight:normal;font-stretch:normal;font-family:PoliceSNCF;fill:#ffffff;stroke-width:14.0625"
           d="m 155.85984,51.841885 q 1.64063,0 3.25195,-0.761719 1.61133,-0.761719 2.95899,-2.050781 1.28906,-1.289063 2.02148,-2.929688 0.76172,-1.611328 0.76172,-3.251953 V 30.836025 q 0,-1.640625 -0.76172,-3.251953 -0.76172,-1.611328 -2.02148,-2.958984 -1.31836,-1.289063 -2.95899,-2.021485 -1.61132,-0.761718 -3.25195,-0.761718 -1.64062,0 -3.28125,0.761718 -1.61133,0.761719 -2.90039,2.021485 -1.31836,1.318359 -2.08008,2.958984 -0.76172,1.611328 -0.73242,3.251953 v 12.011719 q 0,1.640625 0.73242,3.251953 0.76172,1.611328 2.08008,2.929688 1.28906,1.318359 2.90039,2.050781 1.64063,0.761719 3.28125,0.761719 z m 0,-5.390625 q -0.67383,0 -1.28906,-0.322266 -0.67383,-0.292969 -1.17188,-0.820313 -0.52734,-0.498046 -0.84961,-1.171875 -0.29297,-0.644531 -0.29297,-1.289062 V 30.836025 q 0,-0.673828 0.29297,-1.318359 0.29297,-0.644531 0.84961,-1.171875 0.49805,-0.498047 1.17188,-0.791016 0.64453,-0.292969 1.28906,-0.322265 0.67383,0 1.31836,0.322265 0.64453,0.292969 1.17187,0.791016 0.49805,0.527344 0.79102,1.171875 0.29297,0.673828 0.32227,1.318359 v 12.011719 q 0,0.673828 -0.32227,1.289062 -0.29297,0.673829 -0.79102,1.171875 -0.52734,0.527344 -1.17187,0.820313 -0.64453,0.322266 -1.31836,0.322266 z" />
      </g>
    </g>
  </g>
</svg>
