<?xml version="1.0" encoding="UTF-8" standalone="no"?>
<svg
   xmlns:dc="http://purl.org/dc/elements/1.1/"
   xmlns:cc="http://creativecommons.org/ns#"
   xmlns:rdf="http://www.w3.org/1999/02/22-rdf-syntax-ns#"
   xmlns:svg="http://www.w3.org/2000/svg"
   xmlns="http://www.w3.org/2000/svg"
   height="64"
   width="64"
   version="1.1"
   id="svg2">
  <metadata
     id="metadata8">
    <rdf:RDF>
      <cc:Work
         rdf:about="">
        <dc:format>image/svg+xml</dc:format>
        <dc:type
           rdf:resource="http://purl.org/dc/dcmitype/StillImage" />
        <dc:title></dc:title>
      </cc:Work>
    </rdf:RDF>
  </metadata>
  <defs
     id="defs6" />
  <g
     transform="translate(-107.73191,-4.8418837)"
     id="g3769">
    <g
       transform="translate(150,10)"
       id="g854">
      <rect
         style="fill:#ffffff;fill-opacity:1;fill-rule:nonzero;stroke:none;stroke-width:0.636824"
         id="rect2987-3"
         width="64"
         height="64"
         x="-42.268089"
         y="-5.1581163" />
      <rect
         style="fill:none;stroke:#000000;stroke-width:3.97394;stroke-miterlimit:4;stroke-dasharray:none;stroke-opacity:1"
         id="rect2989-6"
         width="58.026062"
         height="58.026058"
         x="-39.28112"
         y="-2.1711454" />
    </g>
    <g
       style="font-style:normal;font-variant:normal;font-weight:normal;font-stretch:normal;font-size:19.9514px;line-height:1.45;font-family:Roboto;font-variant-ligatures:normal;font-variant-caps:normal;font-variant-numeric:normal;font-feature-settings:normal;text-align:start;letter-spacing:0px;word-spacing:0px;writing-mode:lr-tb;text-anchor:start;fill:#000000;fill-opacity:1;stroke:none;stroke-width:2.49393"
       id="text839"
       aria-label="40
60">
      <path
         id="path1320"
         style="font-style:normal;font-variant:normal;font-weight:normal;font-stretch:normal;font-family:PoliceSNCF;text-align:center;text-anchor:middle;stroke-width:2.49393"
         d="m 133.05384,25.108638 h -2.59135 l 2.59135,-5.572364 z m -6.58552,0 v 3.604501 h 6.58552 v 3.585018 h 3.58501 v -3.585018 h 1.79251 v -3.604501 h -1.79251 V 12.346756 h -3.56553 z" />
      <path
         id="path1322"
         style="font-style:normal;font-variant:normal;font-weight:normal;font-stretch:normal;font-family:PoliceSNCF;text-align:center;text-anchor:middle;stroke-width:2.49393"
         d="m 146.41972,32.298157 q 1.09109,0 2.1627,-0.506579 1.07161,-0.506578 1.96786,-1.363865 0.85729,-0.857287 1.34438,-1.948379 0.50658,-1.071609 0.50658,-2.162701 v -7.988354 q 0,-1.091092 -0.50658,-2.1627 -0.50658,-1.071609 -1.34438,-1.967863 -0.87677,-0.857287 -1.96786,-1.344381 -1.07161,-0.506579 -2.1627,-0.506579 -1.09109,0 -2.18219,0.506579 -1.07161,0.506578 -1.92889,1.344381 -0.87677,0.876771 -1.38335,1.967863 -0.50658,1.071608 -0.4871,2.1627 v 7.988354 q 0,1.091092 0.4871,2.162701 0.50658,1.071608 1.38335,1.948379 0.85728,0.87677 1.92889,1.363865 1.0911,0.506579 2.18219,0.506579 z m 0,-3.585018 q -0.44813,0 -0.85729,-0.214321 -0.44813,-0.194838 -0.77935,-0.545546 -0.35071,-0.331225 -0.56503,-0.779352 -0.19484,-0.428643 -0.19484,-0.857287 v -7.988354 q 0,-0.448127 0.19484,-0.87677 0.19484,-0.428643 0.56503,-0.779352 0.33122,-0.331224 0.77935,-0.526062 0.42864,-0.194838 0.85729,-0.214322 0.44812,0 0.87677,0.214322 0.42864,0.194838 0.77935,0.526062 0.33122,0.350709 0.52606,0.779352 0.19484,0.448127 0.21432,0.87677 v 7.988354 q 0,0.448127 -0.21432,0.857287 -0.19484,0.448127 -0.52606,0.779352 -0.35071,0.350708 -0.77935,0.545546 -0.42865,0.214321 -0.87677,0.214321 z" />
      <path
         id="path1324"
         style="font-style:normal;font-variant:normal;font-weight:normal;font-stretch:normal;font-family:PoliceSNCF;text-align:center;text-anchor:middle;stroke-width:2.49393"
         d="m 134.85609,47.367134 h 3.58502 q 0,-1.091092 -0.50658,-2.1627 -0.50658,-1.071609 -1.34438,-1.967863 -0.87678,-0.857287 -1.96787,-1.344382 -1.07161,-0.506578 -2.1627,-0.506578 -1.09109,0 -2.18218,0.506578 -1.07161,0.506579 -1.9289,1.344382 -0.87677,0.87677 -1.38335,1.967863 -0.50658,1.071608 -0.48709,2.1627 v 7.988354 q 0,1.091092 0.48709,2.162701 0.50658,1.071608 1.38335,1.948379 0.85729,0.87677 1.9289,1.363865 1.07161,0.506579 2.18218,0.506579 1.09109,0 2.1627,-0.506579 1.07161,-0.506579 1.96787,-1.363865 0.85728,-0.857287 1.34438,-1.948379 0.50658,-1.071609 0.50658,-2.162701 0,-1.091092 -0.50658,-2.182184 -0.50658,-1.071609 -1.34438,-1.948379 -0.87678,-0.857287 -1.96787,-1.363866 -1.07161,-0.506578 -2.1627,-0.487094 -0.91574,0 -1.53922,0.214321 -0.62348,0.233806 -0.85728,0.389676 v -2.610828 q 0,-0.448127 0.19483,-0.87677 0.19484,-0.428644 0.56503,-0.779352 0.33123,-0.331224 0.77936,-0.526062 0.42864,-0.194838 0.85728,-0.214322 0.44813,0 0.87677,0.214322 0.42865,0.194838 0.77935,0.526062 0.33123,0.350708 0.52607,0.779352 0.21432,0.428643 0.21432,0.87677 z m 0,7.988354 q 0,0.448127 -0.21432,0.857287 -0.19484,0.448127 -0.52607,0.779351 -0.3507,0.350709 -0.77935,0.545547 -0.44812,0.194837 -0.87677,0.214321 -0.44813,0 -0.85728,-0.214321 -0.44813,-0.194838 -0.77936,-0.545547 -0.3507,-0.331224 -0.56503,-0.779351 -0.19483,-0.428644 -0.19483,-0.857287 0,-0.448127 0.19483,-0.87677 0.19484,-0.428644 0.56503,-0.779352 0.33123,-0.331224 0.77936,-0.545546 0.42864,-0.194838 0.85728,-0.194838 0.44813,0 0.87677,0.194838 0.42865,0.194838 0.77935,0.545546 0.33123,0.350708 0.52607,0.779352 0.21432,0.428643 0.21432,0.87677 z" />
      <path
         id="path1326"
         style="font-style:normal;font-variant:normal;font-weight:normal;font-stretch:normal;font-family:PoliceSNCF;text-align:center;text-anchor:middle;stroke-width:2.49393"
         d="m 147.01397,61.337012 q 1.0911,0 2.1627,-0.506579 1.07161,-0.506579 1.96787,-1.363865 0.85728,-0.857287 1.34438,-1.948379 0.50658,-1.071609 0.50658,-2.162701 v -7.988354 q 0,-1.091092 -0.50658,-2.1627 -0.50658,-1.071609 -1.34438,-1.967863 -0.87677,-0.857287 -1.96787,-1.344382 -1.0716,-0.506578 -2.1627,-0.506578 -1.09109,0 -2.18218,0.506578 -1.07161,0.506579 -1.9289,1.344382 -0.87677,0.87677 -1.38335,1.967863 -0.50657,1.071608 -0.48709,2.1627 v 7.988354 q 0,1.091092 0.48709,2.162701 0.50658,1.071608 1.38335,1.948379 0.85729,0.87677 1.9289,1.363865 1.09109,0.506579 2.18218,0.506579 z m 0,-3.585018 q -0.44812,0 -0.85728,-0.214321 -0.44813,-0.194838 -0.77936,-0.545547 -0.3507,-0.331224 -0.56503,-0.779351 -0.19483,-0.428644 -0.19483,-0.857287 v -7.988354 q 0,-0.448127 0.19483,-0.87677 0.19484,-0.428644 0.56503,-0.779352 0.33123,-0.331224 0.77936,-0.526062 0.42864,-0.194838 0.85728,-0.214322 0.44813,0 0.87677,0.214322 0.42865,0.194838 0.77935,0.526062 0.33123,0.350708 0.52607,0.779352 0.19484,0.448127 0.21432,0.87677 v 7.988354 q 0,0.448127 -0.21432,0.857287 -0.19484,0.448127 -0.52607,0.779351 -0.3507,0.350709 -0.77935,0.545547 -0.42864,0.214321 -0.87677,0.214321 z" />
    </g>
    <path
       id="path1192"
       d="m 122.73191,36.841884 h 34"
       style="fill:none;stroke:#000000;stroke-width:2;stroke-linecap:butt;stroke-linejoin:miter;stroke-miterlimit:4;stroke-dasharray:none;stroke-opacity:1" />
  </g>
</svg>
