<?xml version="1.0" encoding="UTF-8" standalone="no"?>
<svg
   xmlns:dc="http://purl.org/dc/elements/1.1/"
   xmlns:cc="http://creativecommons.org/ns#"
   xmlns:rdf="http://www.w3.org/1999/02/22-rdf-syntax-ns#"
   xmlns:svg="http://www.w3.org/2000/svg"
   xmlns="http://www.w3.org/2000/svg"
   height="64"
   width="64"
   version="1.1"
   id="svg2">
  <metadata
     id="metadata8">
    <rdf:RDF>
      <cc:Work
         rdf:about="">
        <dc:format>image/svg+xml</dc:format>
        <dc:type
           rdf:resource="http://purl.org/dc/dcmitype/StillImage" />
        <dc:title></dc:title>
      </cc:Work>
    </rdf:RDF>
  </metadata>
  <defs
     id="defs6" />
  <g
     transform="translate(-107.73191,-4.8418837)"
     id="g3769">
    <g
       transform="translate(150,10)"
       id="g854">
      <rect
         style="fill:#ffffff;fill-opacity:1;fill-rule:nonzero;stroke:none;stroke-width:0.636824"
         id="rect2987-3"
         width="64"
         height="64"
         x="-42.268089"
         y="-5.1581163" />
      <rect
         style="fill:none;stroke:#000000;stroke-width:3.97394;stroke-miterlimit:4;stroke-dasharray:none;stroke-opacity:1"
         id="rect2989-6"
         width="58.026062"
         height="58.026058"
         x="-39.28112"
         y="-2.1711454" />
    </g>
    <g
       style="font-style:normal;font-variant:normal;font-weight:normal;font-stretch:normal;font-size:19.9514px;line-height:1.45;font-family:Roboto;font-variant-ligatures:normal;font-variant-caps:normal;font-variant-numeric:normal;font-feature-settings:normal;text-align:start;letter-spacing:0px;word-spacing:0px;writing-mode:lr-tb;text-anchor:start;fill:#000000;fill-opacity:1;stroke:none;stroke-width:2.49393"
       id="text839"
       aria-label="80
70">
      <path
         id="path1590"
         style="font-style:normal;font-variant:normal;font-weight:normal;font-stretch:normal;font-family:PoliceSNCF;text-align:center;text-anchor:middle;stroke-width:2.49393"
         d="m 138.24172,18.133442 q 0,-1.091093 -0.46761,-2.162701 -0.4871,-1.032641 -1.28593,-1.870444 -0.8378,-0.818319 -1.88993,-1.28593 -1.05212,-0.467611 -2.14322,-0.467611 -1.09109,0 -2.14321,0.467611 -1.05213,0.487095 -1.87045,1.28593 -0.81832,0.837803 -1.30541,1.870444 -0.48709,1.052125 -0.46761,2.162701 0,0.681932 0.21432,1.363865 0.19484,0.701416 0.50658,1.246962 0.29226,0.584514 0.58451,0.935222 0.29226,0.370192 0.46761,0.448127 -0.81832,0.759868 -1.40283,1.831477 -0.58451,1.091092 -0.56503,2.357538 0,1.091092 0.4871,2.162701 0.50657,1.071608 1.38335,1.948379 0.85728,0.87677 1.92889,1.363865 1.07161,0.506579 2.18218,0.506579 1.0911,0 2.16271,-0.506579 1.0716,-0.506578 1.96786,-1.363865 0.85728,-0.857287 1.34438,-1.948379 0.50658,-1.071609 0.50658,-2.162701 0,-1.266446 -0.58452,-2.357538 -0.58451,-1.071609 -1.38334,-1.831477 0.15587,-0.05845 0.44812,-0.448127 0.29226,-0.350708 0.604,-0.935222 0.29226,-0.56503 0.50658,-1.246962 0.21432,-0.681933 0.21432,-1.363865 z m -3.6045,0 q 0,0.896254 -0.62348,1.539219 -0.66245,0.662449 -1.55871,0.662449 -0.89625,0 -1.53921,-0.662449 -0.66245,-0.642965 -0.66245,-1.539219 0,-0.896255 0.66245,-1.558704 0.64296,-0.642965 1.53921,-0.642965 0.89626,0 1.55871,0.642965 0.62348,0.662449 0.62348,1.558704 z m -4.57869,8.183191 q 0,-0.448127 0.19484,-0.87677 0.19483,-0.428644 0.56503,-0.779352 0.33122,-0.331224 0.77935,-0.545546 0.42864,-0.194838 0.85728,-0.194838 0.44813,0 0.87678,0.194838 0.42864,0.194838 0.77935,0.545546 0.33122,0.350708 0.52606,0.779352 0.19484,0.448127 0.21432,0.87677 0,0.448127 -0.21432,0.857287 -0.19484,0.448127 -0.52606,0.779352 -0.35071,0.350708 -0.77935,0.545546 -0.44813,0.194838 -0.87678,0.214321 -0.44812,0 -0.85728,-0.214321 -0.44813,-0.194838 -0.77935,-0.545546 -0.35071,-0.331225 -0.56503,-0.779352 -0.19484,-0.40916 -0.19484,-0.857287 z" />
      <path
         id="path1592"
         style="font-style:normal;font-variant:normal;font-weight:normal;font-stretch:normal;font-family:PoliceSNCF;text-align:center;text-anchor:middle;stroke-width:2.49393"
         d="m 147.00943,32.298157 q 1.09109,0 2.1627,-0.506579 1.0716,-0.506578 1.96786,-1.363865 0.85729,-0.857287 1.34438,-1.948379 0.50658,-1.071609 0.50658,-2.162701 v -7.988354 q 0,-1.091092 -0.50658,-2.1627 -0.50658,-1.071609 -1.34438,-1.967863 -0.87677,-0.857287 -1.96786,-1.344381 -1.07161,-0.506579 -2.1627,-0.506579 -1.0911,0 -2.18219,0.506579 -1.07161,0.506578 -1.92889,1.344381 -0.87677,0.876771 -1.38335,1.967863 -0.50658,1.071608 -0.4871,2.1627 v 7.988354 q 0,1.091092 0.4871,2.162701 0.50658,1.071608 1.38335,1.948379 0.85728,0.87677 1.92889,1.363865 1.09109,0.506579 2.18219,0.506579 z m 0,-3.585018 q -0.44813,0 -0.85729,-0.214321 -0.44813,-0.194838 -0.77935,-0.545546 -0.35071,-0.331225 -0.56503,-0.779352 -0.19484,-0.428643 -0.19484,-0.857287 v -7.988354 q 0,-0.448127 0.19484,-0.87677 0.19484,-0.428643 0.56503,-0.779352 0.33122,-0.331224 0.77935,-0.526062 0.42864,-0.194838 0.85729,-0.214322 0.44812,0 0.87677,0.214322 0.42864,0.194838 0.77935,0.526062 0.33122,0.350709 0.52606,0.779352 0.19484,0.448127 0.21432,0.87677 v 7.988354 q 0,0.448127 -0.21432,0.857287 -0.19484,0.448127 -0.52606,0.779352 -0.35071,0.350708 -0.77935,0.545546 -0.42865,0.214321 -0.87677,0.214321 z" />
      <path
         id="path1594"
         style="font-style:normal;font-variant:normal;font-weight:normal;font-stretch:normal;font-family:PoliceSNCF;text-align:center;text-anchor:middle;stroke-width:2.49393"
         d="m 130.7502,61.337012 7.98836,-16.366384 v -3.585017 h -11.96305 v 3.585017 h 7.96887 l -7.96887,16.366384 z" />
      <path
         id="path1596"
         style="font-style:normal;font-variant:normal;font-weight:normal;font-stretch:normal;font-family:PoliceSNCF;text-align:center;text-anchor:middle;stroke-width:2.49393"
         d="m 146.70743,61.337012 q 1.09109,0 2.1627,-0.506579 1.07161,-0.506579 1.96786,-1.363865 0.85729,-0.857287 1.34438,-1.948379 0.50658,-1.071609 0.50658,-2.162701 v -7.988354 q 0,-1.091092 -0.50658,-2.1627 -0.50658,-1.071609 -1.34438,-1.967863 -0.87677,-0.857287 -1.96786,-1.344382 -1.07161,-0.506578 -2.1627,-0.506578 -1.0911,0 -2.18219,0.506578 -1.07161,0.506579 -1.92889,1.344382 -0.87677,0.87677 -1.38335,1.967863 -0.50658,1.071608 -0.4871,2.1627 v 7.988354 q 0,1.091092 0.4871,2.162701 0.50658,1.071608 1.38335,1.948379 0.85728,0.87677 1.92889,1.363865 1.09109,0.506579 2.18219,0.506579 z m 0,-3.585018 q -0.44813,0 -0.85729,-0.214321 -0.44813,-0.194838 -0.77935,-0.545547 -0.35071,-0.331224 -0.56503,-0.779351 -0.19484,-0.428644 -0.19484,-0.857287 v -7.988354 q 0,-0.448127 0.19484,-0.87677 0.19484,-0.428644 0.56503,-0.779352 0.33122,-0.331224 0.77935,-0.526062 0.42864,-0.194838 0.85729,-0.214322 0.44812,0 0.87677,0.214322 0.42864,0.194838 0.77935,0.526062 0.33122,0.350708 0.52606,0.779352 0.19484,0.448127 0.21432,0.87677 v 7.988354 q 0,0.448127 -0.21432,0.857287 -0.19484,0.448127 -0.52606,0.779351 -0.35071,0.350709 -0.77935,0.545547 -0.42865,0.214321 -0.87677,0.214321 z" />
    </g>
    <path
       id="path1192"
       d="m 122.73191,36.841884 h 34"
       style="fill:none;stroke:#000000;stroke-width:2;stroke-linecap:butt;stroke-linejoin:miter;stroke-miterlimit:4;stroke-dasharray:none;stroke-opacity:1" />
  </g>
</svg>
