<?xml version="1.0" encoding="UTF-8" standalone="no"?>
<svg
   xmlns:dc="http://purl.org/dc/elements/1.1/"
   xmlns:cc="http://creativecommons.org/ns#"
   xmlns:rdf="http://www.w3.org/1999/02/22-rdf-syntax-ns#"
   xmlns:svg="http://www.w3.org/2000/svg"
   xmlns="http://www.w3.org/2000/svg"
   height="64"
   width="64"
   version="1.1"
   id="svg2">
  <metadata
     id="metadata8">
    <rdf:RDF>
      <cc:Work
         rdf:about="">
        <dc:format>image/svg+xml</dc:format>
        <dc:type
           rdf:resource="http://purl.org/dc/dcmitype/StillImage" />
        <dc:title></dc:title>
      </cc:Work>
    </rdf:RDF>
  </metadata>
  <defs
     id="defs6" />
  <rect
     y="0"
     x="0"
     height="64"
     width="64"
     id="rect832"
     style="fill:#ffffff;fill-opacity:0;stroke-width:6.4;stroke-linecap:round;stroke-linejoin:round;paint-order:markers stroke fill;stop-color:#000000" />
  <path
     id="path839"
     d="m 0.98438,63.01562 h 62.03124 c 0,0 0,-9.69238 0,-14.538571 0,-33.923335 -62.03124,-33.923335 -62.03124,0 0,4.846191 0,14.538571 0,14.538571 z"
     style="font-style:normal;font-variant:normal;font-weight:normal;font-stretch:normal;font-size:30px;line-height:1.25;font-family:Roboto;font-variant-ligatures:normal;font-variant-caps:normal;font-variant-numeric:normal;font-feature-settings:normal;text-align:start;letter-spacing:0px;word-spacing:0px;writing-mode:lr-tb;text-anchor:start;fill:#ffffff;fill-opacity:1;stroke:#000000;stroke-width:1.96876;stroke-linecap:butt;stroke-linejoin:miter;stroke-miterlimit:4;stroke-dasharray:none;stroke-opacity:1" />
  <g
     style="font-style:normal;font-variant:normal;font-weight:normal;font-stretch:normal;font-size:20px;line-height:1.25;font-family:Roboto;font-variant-ligatures:normal;font-variant-caps:normal;font-variant-numeric:normal;font-feature-settings:normal;text-align:start;letter-spacing:0px;word-spacing:0px;writing-mode:lr-tb;text-anchor:start;fill:#000000;fill-opacity:1;stroke:none;stroke-width:2.5"
     id="text848"
     aria-label="85">
    <path
       id="path1034"
       style="font-style:normal;font-variant:normal;font-weight:normal;font-stretch:normal;font-family:PoliceSNCF;stroke-width:2.5"
       d="m 30.506174,40.800781 q 0,-1.09375 -0.46875,-2.167969 -0.488281,-1.035156 -1.289062,-1.875 Q 27.908518,35.9375 26.85383,35.46875 25.799143,35 24.705393,35 q -1.09375,0 -2.148438,0.46875 -1.054687,0.488281 -1.875,1.289062 -0.820312,0.839844 -1.308593,1.875 -0.488282,1.054688 -0.46875,2.167969 0,0.683594 0.214843,1.367188 0.195313,0.703125 0.507813,1.25 0.292969,0.585937 0.585937,0.9375 0.292969,0.371093 0.46875,0.449218 -0.820312,0.761719 -1.40625,1.835938 -0.585937,1.09375 -0.566406,2.363281 0,1.09375 0.488281,2.167969 0.507813,1.074219 1.386719,1.953125 0.859375,0.878906 1.933594,1.367187 Q 23.592112,55 24.705393,55 q 1.09375,0 2.167969,-0.507813 1.074218,-0.507812 1.972656,-1.367187 0.859375,-0.859375 1.347656,-1.953125 0.507813,-1.074219 0.507813,-2.167969 0,-1.269531 -0.585938,-2.363281 -0.585937,-1.074219 -1.386719,-1.835938 0.15625,-0.05859 0.449219,-0.449218 0.292969,-0.351563 0.605469,-0.9375 0.292969,-0.566407 0.507812,-1.25 0.214844,-0.683594 0.214844,-1.367188 z m -3.613281,0 q 0,0.898438 -0.625,1.542969 -0.664063,0.664062 -1.5625,0.664062 -0.898438,0 -1.542969,-0.664062 -0.664062,-0.644531 -0.664062,-1.542969 0,-0.898437 0.664062,-1.5625 0.644531,-0.644531 1.542969,-0.644531 0.898437,0 1.5625,0.644531 0.625,0.664063 0.625,1.5625 z m -4.589844,8.203125 q 0,-0.449219 0.195313,-0.878906 0.195312,-0.429688 0.566406,-0.78125 0.332031,-0.332031 0.78125,-0.546875 0.429687,-0.195313 0.859375,-0.195313 0.449219,0 0.878906,0.195313 0.429688,0.195312 0.78125,0.546875 0.332031,0.351562 0.527344,0.78125 0.195312,0.449219 0.214844,0.878906 0,0.449219 -0.214844,0.859375 -0.195313,0.449219 -0.527344,0.78125 -0.351562,0.351563 -0.78125,0.546875 -0.449219,0.195313 -0.878906,0.214844 -0.449219,0 -0.859375,-0.214844 -0.449219,-0.195312 -0.78125,-0.546875 -0.351563,-0.332031 -0.566406,-0.78125 -0.195313,-0.410156 -0.195313,-0.859375 z" />
    <path
       id="path1036"
       style="font-style:normal;font-variant:normal;font-weight:normal;font-stretch:normal;font-family:PoliceSNCF;stroke-width:2.5"
       d="m 39.295237,40.996094 q -0.683594,0 -0.9375,0.03906 -0.253907,0.03906 -0.46875,0.136719 V 38.59375 h 6.40625 V 35 h -10 v 8.964844 l 3.59375,1.171875 q 0.01953,-0.175782 0.3125,-0.351563 0.292968,-0.175781 1.09375,-0.175781 0.449218,0 0.878906,0.195312 0.429687,0.195313 0.78125,0.527344 0.332031,0.351563 0.527344,0.78125 0.195312,0.449219 0.214843,0.878906 v 2.011719 q 0,0.449219 -0.214843,0.859375 -0.195313,0.449219 -0.527344,0.78125 -0.351563,0.351563 -0.78125,0.546875 -0.449219,0.195313 -0.878906,0.214844 -0.449219,0 -0.859375,-0.214844 -0.449219,-0.195312 -0.78125,-0.546875 -0.351563,-0.332031 -0.566407,-0.78125 -0.195312,-0.429687 -0.195312,-0.859375 h -3.59375 q 0,1.09375 0.488281,2.167969 0.507813,1.074219 1.386719,1.953125 0.859375,0.878906 1.933594,1.367187 Q 38.181955,55 39.295237,55 q 1.09375,0 2.167968,-0.507813 1.074219,-0.507812 1.972657,-1.367187 0.859375,-0.859375 1.347656,-1.953125 0.507812,-1.074219 0.507812,-2.167969 v -2.011719 q 0,-1.09375 -0.507812,-2.167968 Q 44.275705,43.75 43.435862,42.851562 42.556955,41.992187 41.463205,41.503906 40.388987,40.996094 39.295237,40.996094 Z" />
  </g>
</svg>
