<?xml version="1.0" encoding="UTF-8" standalone="no"?>
<svg
   xmlns:dc="http://purl.org/dc/elements/1.1/"
   xmlns:cc="http://creativecommons.org/ns#"
   xmlns:rdf="http://www.w3.org/1999/02/22-rdf-syntax-ns#"
   xmlns:svg="http://www.w3.org/2000/svg"
   xmlns="http://www.w3.org/2000/svg"
   height="64"
   width="64"
   version="1.1"
   id="svg2">
  <metadata
     id="metadata8">
    <rdf:RDF>
      <cc:Work
         rdf:about="">
        <dc:format>image/svg+xml</dc:format>
        <dc:type
           rdf:resource="http://purl.org/dc/dcmitype/StillImage" />
        <dc:title></dc:title>
      </cc:Work>
    </rdf:RDF>
  </metadata>
  <defs
     id="defs6" />
  <rect
     y="0"
     x="0"
     height="64"
     width="64"
     id="rect832"
     style="fill:#ffffff;fill-opacity:0;stroke-width:6.4;stroke-linecap:round;stroke-linejoin:round;paint-order:markers stroke fill;stop-color:#000000" />
  <path
     id="path839"
     d="m 0.98438,63.01562 h 62.03124 c 0,0 0,-9.69238 0,-14.538571 0,-33.923335 -62.03124,-33.923335 -62.03124,0 0,4.846191 0,14.538571 0,14.538571 z"
     style="font-style:normal;font-variant:normal;font-weight:normal;font-stretch:normal;font-size:30px;line-height:1.25;font-family:Roboto;font-variant-ligatures:normal;font-variant-caps:normal;font-variant-numeric:normal;font-feature-settings:normal;text-align:start;letter-spacing:0px;word-spacing:0px;writing-mode:lr-tb;text-anchor:start;fill:#ffffff;fill-opacity:1;stroke:#000000;stroke-width:1.96876;stroke-linecap:butt;stroke-linejoin:miter;stroke-miterlimit:4;stroke-dasharray:none;stroke-opacity:1" />
  <g
     style="font-style:normal;font-variant:normal;font-weight:normal;font-stretch:normal;font-size:20px;line-height:1.25;font-family:Roboto;font-variant-ligatures:normal;font-variant-caps:normal;font-variant-numeric:normal;font-feature-settings:normal;text-align:start;letter-spacing:0px;word-spacing:0px;writing-mode:lr-tb;text-anchor:start;fill:#000000;fill-opacity:1;stroke:none;stroke-width:2.5"
     id="text848"
     aria-label="75">
    <path
       id="path988"
       style="font-style:normal;font-variant:normal;font-weight:normal;font-stretch:normal;font-family:PoliceSNCF;stroke-width:2.5"
       d="M 22.996094,55 31.003906,38.59375 V 35 H 19.011719 v 3.59375 H 27 L 19.011719,55 Z" />
    <path
       id="path990"
       style="font-style:normal;font-variant:normal;font-weight:normal;font-stretch:normal;font-family:PoliceSNCF;stroke-width:2.5"
       d="m 38.992187,40.996094 q -0.683593,0 -0.9375,0.03906 -0.253906,0.03906 -0.46875,0.136719 V 38.59375 h 6.40625 V 35 h -10 v 8.964844 l 3.59375,1.171875 q 0.01953,-0.175782 0.3125,-0.351563 0.292969,-0.175781 1.09375,-0.175781 0.449219,0 0.878907,0.195312 0.429687,0.195313 0.78125,0.527344 0.332031,0.351563 0.527343,0.78125 0.195313,0.449219 0.214844,0.878906 v 2.011719 q 0,0.449219 -0.214844,0.859375 -0.195312,0.449219 -0.527343,0.78125 -0.351563,0.351563 -0.78125,0.546875 -0.449219,0.195313 -0.878907,0.214844 -0.449218,0 -0.859375,-0.214844 -0.449218,-0.195312 -0.78125,-0.546875 Q 37,50.3125 36.785156,49.863281 36.589844,49.433594 36.589844,49.003906 h -3.59375 q 0,1.09375 0.488281,2.167969 0.507812,1.074219 1.386719,1.953125 0.859375,0.878906 1.933593,1.367187 Q 37.878906,55 38.992187,55 q 1.09375,0 2.167969,-0.507813 1.074219,-0.507812 1.972656,-1.367187 0.859375,-0.859375 1.347657,-1.953125 0.507812,-1.074219 0.507812,-2.167969 v -2.011719 q 0,-1.09375 -0.507812,-2.167968 Q 43.972656,43.75 43.132812,42.851562 42.253906,41.992187 41.160156,41.503906 40.085937,40.996094 38.992187,40.996094 Z" />
  </g>
</svg>
