<?xml version="1.0" encoding="UTF-8" standalone="no"?>
<svg
   xmlns:dc="http://purl.org/dc/elements/1.1/"
   xmlns:cc="http://creativecommons.org/ns#"
   xmlns:rdf="http://www.w3.org/1999/02/22-rdf-syntax-ns#"
   xmlns:svg="http://www.w3.org/2000/svg"
   xmlns="http://www.w3.org/2000/svg"
   height="64"
   width="64"
   version="1.1"
   id="svg2">
  <metadata
     id="metadata8">
    <rdf:RDF>
      <cc:Work
         rdf:about="">
        <dc:format>image/svg+xml</dc:format>
        <dc:type
           rdf:resource="http://purl.org/dc/dcmitype/StillImage" />
        <dc:title></dc:title>
      </cc:Work>
    </rdf:RDF>
  </metadata>
  <defs
     id="defs6" />
  <rect
     y="0"
     x="0"
     height="64"
     width="64"
     id="rect832"
     style="fill:#ffffff;fill-opacity:0;stroke-width:6.4;stroke-linecap:round;stroke-linejoin:round;paint-order:markers stroke fill;stop-color:#000000" />
  <path
     id="path839"
     d="m 0.98438,63.01562 h 62.03124 c 0,0 0,-9.69238 0,-14.538571 0,-33.923335 -62.03124,-33.923335 -62.03124,0 0,4.846191 0,14.538571 0,14.538571 z"
     style="font-style:normal;font-variant:normal;font-weight:normal;font-stretch:normal;font-size:30px;line-height:1.25;font-family:Roboto;font-variant-ligatures:normal;font-variant-caps:normal;font-variant-numeric:normal;font-feature-settings:normal;text-align:start;letter-spacing:0px;word-spacing:0px;writing-mode:lr-tb;text-anchor:start;fill:#ffffff;fill-opacity:1;stroke:#000000;stroke-width:1.96876;stroke-linecap:butt;stroke-linejoin:miter;stroke-miterlimit:4;stroke-dasharray:none;stroke-opacity:1" />
  <g
     style="font-style:normal;font-variant:normal;font-weight:normal;font-stretch:normal;font-size:20px;line-height:1.25;font-family:Roboto;font-variant-ligatures:normal;font-variant-caps:normal;font-variant-numeric:normal;font-feature-settings:normal;text-align:start;letter-spacing:0px;word-spacing:0px;writing-mode:lr-tb;text-anchor:start;fill:#000000;fill-opacity:1;stroke:none;stroke-width:2.5"
     id="text848"
     aria-label="30">
    <path
       id="path850"
       style="font-style:normal;font-variant:normal;font-weight:normal;font-stretch:normal;font-family:PoliceSNCF;stroke-width:2.5"
       d="M 29.705078,38.59375 V 35 h -10 v 3.59375 h 5.46875 l -3.808594,3.554687 1.933594,2.988282 q 0.03906,-0.03906 0.15625,-0.175782 0.136719,-0.195312 0.371094,-0.273437 0.214844,-0.07813 0.878906,-0.07813 0.449219,0 0.878906,0.195312 0.429688,0.195313 0.78125,0.527344 0.332032,0.351563 0.527344,0.78125 0.195313,0.449219 0.214844,0.878906 v 2.011719 q 0,0.449219 -0.214844,0.859375 -0.195312,0.449219 -0.527344,0.78125 -0.351562,0.351563 -0.78125,0.546875 -0.449218,0.195313 -0.878906,0.214844 -0.449219,0 -0.859375,-0.214844 -0.449219,-0.195312 -0.78125,-0.546875 -0.351562,-0.332031 -0.566406,-0.78125 -0.195313,-0.429687 -0.195313,-0.859375 h -3.59375 q 0,1.09375 0.488282,2.167969 0.507812,1.074219 1.386718,1.953125 0.859375,0.878906 1.933594,1.367187 Q 23.591797,55 24.705078,55 q 1.09375,0 2.167969,-0.507813 1.074219,-0.507812 1.972656,-1.367187 0.859375,-0.859375 1.347656,-1.953125 0.507813,-1.074219 0.507813,-2.167969 v -2.011719 q 0,-1.09375 -0.410156,-2.050781 -0.429688,-0.9375 -1.035157,-1.640625 -0.644531,-0.703125 -1.25,-1.132812 -0.625,-0.449219 -1.132812,-0.703125 z" />
    <path
       id="path852"
       style="font-style:normal;font-variant:normal;font-weight:normal;font-stretch:normal;font-family:PoliceSNCF;stroke-width:2.5"
       d="m 39.294922,55 q 1.09375,0 2.167969,-0.507813 1.074218,-0.507812 1.972656,-1.367187 0.859375,-0.859375 1.347656,-1.953125 0.507813,-1.074219 0.507813,-2.167969 v -8.007812 q 0,-1.09375 -0.507813,-2.167969 Q 44.275391,37.753906 43.435547,36.855469 42.556641,35.996094 41.462891,35.507812 40.388672,35 39.294922,35 q -1.09375,0 -2.1875,0.507812 -1.074219,0.507813 -1.933594,1.347657 -0.878906,0.878906 -1.386719,1.972656 -0.507812,1.074219 -0.488281,2.167969 v 8.007812 q 0,1.09375 0.488281,2.167969 0.507813,1.074219 1.386719,1.953125 0.859375,0.878906 1.933594,1.367187 Q 38.201172,55 39.294922,55 Z m 0,-3.59375 q -0.449219,0 -0.859375,-0.214844 -0.449219,-0.195312 -0.78125,-0.546875 -0.351563,-0.332031 -0.566406,-0.78125 -0.195313,-0.429687 -0.195313,-0.859375 v -8.007812 q 0,-0.449219 0.195313,-0.878907 0.195312,-0.429687 0.566406,-0.78125 0.332031,-0.332031 0.78125,-0.527343 0.429687,-0.195313 0.859375,-0.214844 0.449219,0 0.878906,0.214844 0.429688,0.195312 0.78125,0.527343 0.332031,0.351563 0.527344,0.78125 0.195312,0.449219 0.214844,0.878907 v 8.007812 q 0,0.449219 -0.214844,0.859375 -0.195313,0.449219 -0.527344,0.78125 -0.351562,0.351563 -0.78125,0.546875 -0.429687,0.214844 -0.878906,0.214844 z" />
  </g>
</svg>
