<?xml version="1.0" encoding="UTF-8" standalone="no"?>
<svg
   xmlns:dc="http://purl.org/dc/elements/1.1/"
   xmlns:cc="http://creativecommons.org/ns#"
   xmlns:rdf="http://www.w3.org/1999/02/22-rdf-syntax-ns#"
   xmlns:svg="http://www.w3.org/2000/svg"
   xmlns="http://www.w3.org/2000/svg"
   height="64"
   width="64"
   version="1.1"
   id="svg2">
  <metadata
     id="metadata8">
    <rdf:RDF>
      <cc:Work
         rdf:about="">
        <dc:format>image/svg+xml</dc:format>
        <dc:type
           rdf:resource="http://purl.org/dc/dcmitype/StillImage" />
        <dc:title></dc:title>
      </cc:Work>
    </rdf:RDF>
  </metadata>
  <defs
     id="defs6" />
  <rect
     y="0"
     x="0"
     height="64"
     width="64"
     id="rect832"
     style="fill:#ffffff;fill-opacity:0;stroke-width:6.4;stroke-linecap:round;stroke-linejoin:round;paint-order:markers stroke fill;stop-color:#000000" />
  <path
     id="path839"
     d="m 0.98438,23.034384 h 62.03124 c 0,0 0,9.692419 0,14.538631 0,33.923473 -62.03124,33.923473 -62.03124,0 0,-4.846212 0,-14.538631 0,-14.538631 z"
     style="font-style:normal;font-variant:normal;font-weight:normal;font-stretch:normal;font-size:30px;line-height:1.25;font-family:Roboto;font-variant-ligatures:normal;font-variant-caps:normal;font-variant-numeric:normal;font-feature-settings:normal;text-align:start;letter-spacing:0px;word-spacing:0px;writing-mode:lr-tb;text-anchor:start;fill:#ffffff;fill-opacity:1;stroke:#000000;stroke-width:1.96876;stroke-linecap:butt;stroke-linejoin:miter;stroke-miterlimit:4;stroke-dasharray:none;stroke-opacity:1" />
  <g
     style="font-style:normal;font-variant:normal;font-weight:normal;font-stretch:normal;font-size:20px;line-height:1.25;font-family:Roboto;font-variant-ligatures:normal;font-variant-caps:normal;font-variant-numeric:normal;font-feature-settings:normal;text-align:start;letter-spacing:0px;word-spacing:0px;writing-mode:lr-tb;text-anchor:start;fill:#000000;fill-opacity:1;stroke:none;stroke-width:2.5"
     id="text848"
     aria-label="200">
    <path
       id="path868"
       style="font-style:normal;font-variant:normal;font-weight:normal;font-stretch:normal;font-family:PoliceSNCF;stroke-width:2.5"
       d="M 18.172236,41.003906 11.414424,48.40625 V 52 h 11.992187 v -3.59375 h -7.324218 l 3.554687,-4.003906 q 0.253906,-0.273438 0.820313,-0.878907 0.722656,-0.761718 1.152343,-1.25 0.449219,-0.527343 0.859375,-1.171875 0.429688,-0.664062 0.683594,-1.464843 0.253906,-0.78125 0.253906,-1.640625 0,-1.09375 -0.507812,-2.167969 Q 22.390986,34.753906 21.551143,33.855469 20.672236,32.996094 19.578486,32.507812 18.504268,32 17.410518,32 q -1.09375,0 -2.1875,0.507812 -1.074219,0.507813 -1.933594,1.347657 -0.878906,0.878906 -1.386719,1.972656 -0.507812,1.074219 -0.488281,2.167969 h 3.59375 q 0,-0.449219 0.195312,-0.878907 0.195313,-0.429687 0.566407,-0.78125 0.332031,-0.332031 0.78125,-0.527343 0.429687,-0.195313 0.859375,-0.214844 0.449218,0 0.878906,0.214844 0.429687,0.195312 0.78125,0.527343 0.332031,0.351563 0.527344,0.78125 0.195312,0.449219 0.214843,0.878907 0,0.429687 -0.175781,0.859375 -0.175781,0.449218 -0.410156,0.820312 -0.253906,0.390625 -0.507813,0.703125 -0.292968,0.351563 -0.546875,0.625 z" />
    <path
       id="path870"
       style="font-style:normal;font-variant:normal;font-weight:normal;font-stretch:normal;font-family:PoliceSNCF;stroke-width:2.5"
       d="m 32.000361,52 q 1.09375,0 2.167969,-0.507813 1.074219,-0.507812 1.972656,-1.367187 0.859375,-0.859375 1.347657,-1.953125 0.507812,-1.074219 0.507812,-2.167969 v -8.007812 q 0,-1.09375 -0.507812,-2.167969 Q 36.98083,34.753906 36.140986,33.855469 35.26208,32.996094 34.16833,32.507812 33.094111,32 32.000361,32 q -1.09375,0 -2.1875,0.507812 -1.074218,0.507813 -1.933593,1.347657 -0.878907,0.878906 -1.386719,1.972656 -0.507813,1.074219 -0.488281,2.167969 v 8.007812 q 0,1.09375 0.488281,2.167969 0.507812,1.074219 1.386719,1.953125 0.859375,0.878906 1.933593,1.367187 Q 30.906611,52 32.000361,52 Z m 0,-3.59375 q -0.449218,0 -0.859375,-0.214844 -0.449218,-0.195312 -0.78125,-0.546875 -0.351562,-0.332031 -0.566406,-0.78125 -0.195312,-0.429687 -0.195312,-0.859375 v -8.007812 q 0,-0.449219 0.195312,-0.878907 0.195313,-0.429687 0.566406,-0.78125 0.332032,-0.332031 0.78125,-0.527343 0.429688,-0.195313 0.859375,-0.214844 0.449219,0 0.878907,0.214844 0.429687,0.195312 0.78125,0.527343 0.332031,0.351563 0.527343,0.78125 0.195313,0.449219 0.214844,0.878907 v 8.007812 q 0,0.449219 -0.214844,0.859375 -0.195312,0.449219 -0.527343,0.78125 -0.351563,0.351563 -0.78125,0.546875 -0.429688,0.214844 -0.878907,0.214844 z" />
    <path
       id="path872"
       style="font-style:normal;font-variant:normal;font-weight:normal;font-stretch:normal;font-family:PoliceSNCF;stroke-width:2.5"
       d="m 46.590205,52 q 1.09375,0 2.167969,-0.507813 1.074219,-0.507812 1.972656,-1.367187 0.859375,-0.859375 1.347656,-1.953125 0.507813,-1.074219 0.507813,-2.167969 v -8.007812 q 0,-1.09375 -0.507813,-2.167969 Q 51.570674,34.753906 50.73083,33.855469 49.851924,32.996094 48.758174,32.507812 47.683955,32 46.590205,32 q -1.09375,0 -2.1875,0.507812 -1.074219,0.507813 -1.933594,1.347657 -0.878906,0.878906 -1.386718,1.972656 -0.507813,1.074219 -0.488282,2.167969 v 8.007812 q 0,1.09375 0.488282,2.167969 0.507812,1.074219 1.386718,1.953125 0.859375,0.878906 1.933594,1.367187 Q 45.496455,52 46.590205,52 Z m 0,-3.59375 q -0.449219,0 -0.859375,-0.214844 -0.449219,-0.195312 -0.78125,-0.546875 -0.351562,-0.332031 -0.566406,-0.78125 -0.195313,-0.429687 -0.195313,-0.859375 v -8.007812 q 0,-0.449219 0.195313,-0.878907 0.195312,-0.429687 0.566406,-0.78125 0.332031,-0.332031 0.78125,-0.527343 0.429688,-0.195313 0.859375,-0.214844 0.449219,0 0.878906,0.214844 0.429688,0.195312 0.78125,0.527343 0.332032,0.351563 0.527344,0.78125 0.195313,0.449219 0.214844,0.878907 v 8.007812 q 0,0.449219 -0.214844,0.859375 -0.195312,0.449219 -0.527344,0.78125 -0.351562,0.351563 -0.78125,0.546875 -0.429687,0.214844 -0.878906,0.214844 z" />
  </g>
</svg>
