<?xml version="1.0" encoding="UTF-8" standalone="no"?>
<svg
   xmlns:dc="http://purl.org/dc/elements/1.1/"
   xmlns:cc="http://creativecommons.org/ns#"
   xmlns:rdf="http://www.w3.org/1999/02/22-rdf-syntax-ns#"
   xmlns:svg="http://www.w3.org/2000/svg"
   xmlns="http://www.w3.org/2000/svg"
   height="64"
   width="64"
   version="1.1"
   id="svg2">
  <metadata
     id="metadata8">
    <rdf:RDF>
      <cc:Work
         rdf:about="">
        <dc:format>image/svg+xml</dc:format>
        <dc:type
           rdf:resource="http://purl.org/dc/dcmitype/StillImage" />
        <dc:title></dc:title>
      </cc:Work>
    </rdf:RDF>
  </metadata>
  <defs
     id="defs6" />
  <rect
     y="0"
     x="0"
     height="64"
     width="64"
     id="rect832"
     style="fill:#ffffff;fill-opacity:0;stroke-width:6.4;stroke-linecap:round;stroke-linejoin:round;paint-order:markers stroke fill;stop-color:#000000" />
  <path
     id="path839"
     d="m 0.98438,1 h 62.03124 l 0,36.573015 c 0,33.923473 -62.03124,33.923473 -62.03124,0 z"
     style="font-style:normal;font-variant:normal;font-weight:normal;font-stretch:normal;font-size:30px;line-height:1.25;font-family:Roboto;font-variant-ligatures:normal;font-variant-caps:normal;font-variant-numeric:normal;font-feature-settings:normal;text-align:start;letter-spacing:0px;word-spacing:0px;writing-mode:lr-tb;text-anchor:start;fill:#ffffff;fill-opacity:1;stroke:#000000;stroke-width:1.96876;stroke-linecap:butt;stroke-linejoin:miter;stroke-miterlimit:4;stroke-dasharray:none;stroke-opacity:1" />
  <g
     style="font-style:normal;font-variant:normal;font-weight:normal;font-stretch:normal;font-size:20px;line-height:1.45;font-family:Roboto;font-variant-ligatures:normal;font-variant-caps:normal;font-variant-numeric:normal;font-feature-settings:normal;text-align:center;letter-spacing:0px;word-spacing:0px;writing-mode:lr-tb;text-anchor:middle;fill:#000000;fill-opacity:1;stroke:none;stroke-width:2.5"
     id="text848"
     aria-label="150
155">
    <path
       id="path1487"
       style="font-style:normal;font-variant:normal;font-weight:normal;font-stretch:normal;font-family:PoliceSNCF;text-align:center;text-anchor:middle;stroke-width:2.5"
       d="m 15.251953,27.445206 h 3.613281 V 7.4452057 h -3.613281 z" />
    <path
       id="path1489"
       style="font-style:normal;font-variant:normal;font-weight:normal;font-stretch:normal;font-family:PoliceSNCF;text-align:center;text-anchor:middle;stroke-width:2.5"
       d="m 28.162109,13.441299 q -0.683593,0 -0.9375,0.03906 -0.253906,0.03906 -0.46875,0.136719 v -2.578125 h 6.40625 V 7.4452057 h -10 v 8.9648433 l 3.59375,1.171875 q 0.01953,-0.175781 0.3125,-0.351562 0.292969,-0.175781 1.09375,-0.175781 0.449219,0 0.878907,0.195312 0.429687,0.195313 0.78125,0.527344 0.332031,0.351562 0.527343,0.78125 0.195313,0.449219 0.214844,0.878906 v 2.011719 q 0,0.449219 -0.214844,0.859375 -0.195312,0.449219 -0.527343,0.78125 -0.351563,0.351562 -0.78125,0.546875 -0.449219,0.195312 -0.878907,0.214844 -0.449218,0 -0.859375,-0.214844 -0.449218,-0.195313 -0.78125,-0.546875 -0.351562,-0.332031 -0.566406,-0.78125 -0.195312,-0.429688 -0.195312,-0.859375 h -3.59375 q 0,1.09375 0.488281,2.167969 0.507812,1.074218 1.386719,1.953125 0.859375,0.878906 1.933593,1.367187 1.074219,0.507813 2.1875,0.507813 1.09375,0 2.167969,-0.507813 1.074219,-0.507812 1.972656,-1.367187 0.859375,-0.859375 1.347657,-1.953125 0.507812,-1.074219 0.507812,-2.167969 v -2.011719 q 0,-1.09375 -0.507812,-2.167969 -0.507813,-1.074218 -1.347657,-1.972656 -0.878906,-0.859375 -1.972656,-1.347656 -1.074219,-0.507813 -2.167969,-0.507813 z" />
    <path
       id="path1491"
       style="font-style:normal;font-variant:normal;font-weight:normal;font-stretch:normal;font-family:PoliceSNCF;text-align:center;text-anchor:middle;stroke-width:2.5"
       d="m 42.751953,27.445206 q 1.09375,0 2.167969,-0.507813 1.074219,-0.507812 1.972656,-1.367187 0.859375,-0.859375 1.347656,-1.953125 0.507813,-1.074219 0.507813,-2.167969 v -8.007813 q 0,-1.09375 -0.507813,-2.167968 -0.507812,-1.074219 -1.347656,-1.9726566 -0.878906,-0.859375 -1.972656,-1.3476562 -1.074219,-0.5078125 -2.167969,-0.5078125 -1.09375,0 -2.1875,0.5078125 -1.074219,0.5078125 -1.933594,1.3476562 -0.878906,0.8789066 -1.386718,1.9726566 -0.507813,1.074218 -0.488282,2.167968 v 8.007813 q 0,1.09375 0.488282,2.167969 0.507812,1.074218 1.386718,1.953125 0.859375,0.878906 1.933594,1.367187 1.09375,0.507813 2.1875,0.507813 z m 0,-3.59375 q -0.449219,0 -0.859375,-0.214844 -0.449219,-0.195313 -0.78125,-0.546875 -0.351562,-0.332031 -0.566406,-0.78125 -0.195313,-0.429688 -0.195313,-0.859375 v -8.007813 q 0,-0.449218 0.195313,-0.878906 0.195312,-0.429687 0.566406,-0.78125 0.332031,-0.332031 0.78125,-0.527344 0.429688,-0.195312 0.859375,-0.214843 0.449219,0 0.878906,0.214843 0.429688,0.195313 0.78125,0.527344 0.332032,0.351563 0.527344,0.78125 0.195313,0.449219 0.214844,0.878906 v 8.007813 q 0,0.449219 -0.214844,0.859375 -0.195312,0.449219 -0.527344,0.78125 -0.351562,0.351562 -0.78125,0.546875 -0.429687,0.214844 -0.878906,0.214844 z" />
    <path
       id="path1493"
       style="font-style:normal;font-variant:normal;font-weight:normal;font-stretch:normal;font-family:PoliceSNCF;text-align:center;text-anchor:middle;stroke-width:2.5"
       d="m 15.251953,56.554796 h 3.613281 v -20 h -3.613281 z" />
    <path
       id="path1495"
       style="font-style:normal;font-variant:normal;font-weight:normal;font-stretch:normal;font-family:PoliceSNCF;text-align:center;text-anchor:middle;stroke-width:2.5"
       d="m 28.162109,42.550889 q -0.683593,0 -0.9375,0.03906 -0.253906,0.03906 -0.46875,0.136719 v -2.578125 h 6.40625 v -3.59375 h -10 v 8.964843 l 3.59375,1.171875 q 0.01953,-0.175781 0.3125,-0.351562 0.292969,-0.175781 1.09375,-0.175781 0.449219,0 0.878907,0.195312 0.429687,0.195313 0.78125,0.527344 0.332031,0.351562 0.527343,0.78125 0.195313,0.449219 0.214844,0.878906 v 2.011719 q 0,0.449219 -0.214844,0.859375 -0.195312,0.449219 -0.527343,0.78125 -0.351563,0.351562 -0.78125,0.546875 -0.449219,0.195312 -0.878907,0.214844 -0.449218,0 -0.859375,-0.214844 -0.449218,-0.195313 -0.78125,-0.546875 -0.351562,-0.332031 -0.566406,-0.78125 -0.195312,-0.429688 -0.195312,-0.859375 h -3.59375 q 0,1.09375 0.488281,2.167969 0.507812,1.074218 1.386719,1.953125 0.859375,0.878906 1.933593,1.367187 1.074219,0.507813 2.1875,0.507813 1.09375,0 2.167969,-0.507813 1.074219,-0.507812 1.972656,-1.367187 0.859375,-0.859375 1.347657,-1.953125 0.507812,-1.074219 0.507812,-2.167969 v -2.011719 q 0,-1.09375 -0.507812,-2.167969 -0.507813,-1.074218 -1.347657,-1.972656 -0.878906,-0.859375 -1.972656,-1.347656 -1.074219,-0.507813 -2.167969,-0.507813 z" />
    <path
       id="path1497"
       style="font-style:normal;font-variant:normal;font-weight:normal;font-stretch:normal;font-family:PoliceSNCF;text-align:center;text-anchor:middle;stroke-width:2.5"
       d="m 42.751953,42.550889 q -0.683594,0 -0.9375,0.03906 -0.253906,0.03906 -0.46875,0.136719 v -2.578125 h 6.40625 v -3.59375 h -10 v 8.964843 l 3.59375,1.171875 q 0.01953,-0.175781 0.3125,-0.351562 0.292969,-0.175781 1.09375,-0.175781 0.449219,0 0.878906,0.195312 0.429688,0.195313 0.78125,0.527344 0.332032,0.351562 0.527344,0.78125 0.195313,0.449219 0.214844,0.878906 v 2.011719 q 0,0.449219 -0.214844,0.859375 -0.195312,0.449219 -0.527344,0.78125 -0.351562,0.351562 -0.78125,0.546875 -0.449218,0.195312 -0.878906,0.214844 -0.449219,0 -0.859375,-0.214844 -0.449219,-0.195313 -0.78125,-0.546875 -0.351562,-0.332031 -0.566406,-0.78125 -0.195313,-0.429688 -0.195313,-0.859375 h -3.59375 q 0,1.09375 0.488282,2.167969 0.507812,1.074218 1.386718,1.953125 0.859375,0.878906 1.933594,1.367187 1.074219,0.507813 2.1875,0.507813 1.09375,0 2.167969,-0.507813 1.074219,-0.507812 1.972656,-1.367187 0.859375,-0.859375 1.347656,-1.953125 0.507813,-1.074219 0.507813,-2.167969 v -2.011719 q 0,-1.09375 -0.507813,-2.167969 -0.507812,-1.074218 -1.347656,-1.972656 -0.878906,-0.859375 -1.972656,-1.347656 -1.074219,-0.507813 -2.167969,-0.507813 z" />
  </g>
  <path
     id="path1392"
     d="M 13.166865,32 H 50"
     style="fill:none;stroke:#000000;stroke-width:2;stroke-linecap:butt;stroke-linejoin:miter;stroke-miterlimit:4;stroke-dasharray:none;stroke-opacity:1" />
</svg>
