<?xml version="1.0" encoding="UTF-8" standalone="no"?>
<svg
   xmlns:dc="http://purl.org/dc/elements/1.1/"
   xmlns:cc="http://creativecommons.org/ns#"
   xmlns:rdf="http://www.w3.org/1999/02/22-rdf-syntax-ns#"
   xmlns:svg="http://www.w3.org/2000/svg"
   xmlns="http://www.w3.org/2000/svg"
   id="svg2"
   version="1.1"
   width="64"
   height="64">
  <metadata
     id="metadata8">
    <rdf:RDF>
      <cc:Work
         rdf:about="">
        <dc:format>image/svg+xml</dc:format>
        <dc:type
           rdf:resource="http://purl.org/dc/dcmitype/StillImage" />
        <dc:title></dc:title>
      </cc:Work>
    </rdf:RDF>
  </metadata>
  <defs
     id="defs6" />
  <rect
     style="fill:#ffffff;fill-opacity:0;stroke-width:6.4;stroke-linecap:round;stroke-linejoin:round;paint-order:markers stroke fill;stop-color:#000000"
     id="rect832"
     width="64"
     height="64"
     x="0"
     y="0" />
  <g
     id="g3769"
     transform="translate(-107.73191,6.841282)">
    <g
       style="font-style:normal;font-variant:normal;font-weight:normal;font-stretch:normal;font-size:30px;line-height:1.25;font-family:Roboto;font-variant-ligatures:normal;font-variant-caps:normal;font-variant-numeric:normal;font-feature-settings:normal;text-align:start;letter-spacing:0px;word-spacing:0px;writing-mode:lr-tb;text-anchor:start;fill:#000000;fill-opacity:1;stroke:none;stroke-width:3.75"
       id="text841"
       aria-label="60">
      <path
         style="fill:#ffffff;fill-opacity:1;stroke:#000000;stroke-width:1.96876;stroke-linecap:butt;stroke-linejoin:miter;stroke-miterlimit:4;stroke-dasharray:none;stroke-opacity:1"
         d="m 108.71629,56.174338 h 62.03124 c 0,0 0,-9.69238 0,-14.538571 0,-33.9233346 -62.03124,-33.9233346 -62.03124,0 0,4.846191 0,14.538571 0,14.538571 z"
         id="path839" />
      <g
         id="g843"
         transform="translate(2.4370664,3.1358417)">
        <path
           d="m 130.85355,29.7366 h 4.73168 q 0,-1.440078 -0.66862,-2.854441 -0.6686,-1.414362 -1.77437,-2.597284 -1.1572,-1.131491 -2.59729,-1.774383 -1.41436,-0.668607 -2.85444,-0.668607 -1.44008,0 -2.88016,0.668607 -1.41436,0.668608 -2.54585,1.774383 -1.15721,1.157206 -1.82581,2.597284 -0.66861,1.414363 -0.64289,2.854441 v 10.543432 q 0,1.440079 0.64289,2.854441 0.6686,1.414363 1.82581,2.571569 1.13149,1.157205 2.54585,1.800098 1.41438,0.668607 2.88016,0.668607 1.44008,0 2.85444,-0.668607 1.41436,-0.668609 2.59729,-1.800098 1.13148,-1.131491 1.77437,-2.571569 0.66862,-1.414362 0.66862,-2.854441 0,-1.440079 -0.66862,-2.880157 -0.6686,-1.414362 -1.77437,-2.57157 -1.1572,-1.131489 -2.59729,-1.800097 -1.41436,-0.668608 -2.85444,-0.642893 -1.20863,0 -2.03154,0.282874 -0.82289,0.308587 -1.13149,0.514313 V 29.7366 q 0,-0.59146 0.25716,-1.157206 0.25716,-0.565745 0.74576,-1.028627 0.43716,-0.437166 1.02862,-0.694324 0.56575,-0.257157 1.13149,-0.282871 0.59147,0 1.15721,0.282871 0.56574,0.257158 1.02863,0.694324 0.43716,0.462882 0.69431,1.028627 0.28289,0.565746 0.28289,1.157206 z m 0,10.543432 q 0,0.59146 -0.28289,1.131489 -0.25715,0.591462 -0.69431,1.028628 -0.46289,0.462882 -1.02863,0.720039 -0.59147,0.257158 -1.15721,0.282874 -0.59146,0 -1.13149,-0.282874 -0.59146,-0.257157 -1.02862,-0.720039 -0.46289,-0.437166 -0.74576,-1.028628 -0.25716,-0.565744 -0.25716,-1.131489 0,-0.59146 0.25716,-1.157206 0.25716,-0.565745 0.74576,-1.028627 0.43716,-0.437167 1.02862,-0.72004 0.56575,-0.257157 1.13149,-0.257157 0.59147,0 1.15721,0.257157 0.56574,0.257157 1.02863,0.72004 0.43716,0.462882 0.69431,1.028627 0.28289,0.565746 0.28289,1.157206 z"
           style="font-style:normal;font-variant:normal;font-weight:normal;font-stretch:normal;font-family:PoliceSNCF;stroke-width:3.29161"
           id="path1037" />
        <path
           d="m 146.90014,48.174747 q 1.44007,0 2.85443,-0.668607 1.41437,-0.668609 2.59729,-1.800098 1.13149,-1.131491 1.77438,-2.571569 0.6686,-1.414362 0.6686,-2.854441 V 29.7366 q 0,-1.440078 -0.6686,-2.854441 -0.66861,-1.414362 -1.77438,-2.597284 -1.15721,-1.131491 -2.59729,-1.774383 -1.41436,-0.668607 -2.85443,-0.668607 -1.44009,0 -2.88016,0.668607 -1.41437,0.668608 -2.54587,1.774383 -1.15719,1.157206 -1.8258,2.597284 -0.66861,1.414363 -0.6429,2.854441 v 10.543432 q 0,1.440079 0.6429,2.854441 0.66861,1.414363 1.8258,2.571569 1.1315,1.157205 2.54587,1.800098 1.44007,0.668607 2.88016,0.668607 z m 0,-4.731685 q -0.59147,0 -1.13151,-0.282874 -0.59146,-0.257157 -1.02861,-0.720039 -0.4629,-0.437166 -0.74576,-1.028628 -0.25715,-0.565744 -0.25715,-1.131489 V 29.7366 q 0,-0.59146 0.25715,-1.157206 0.25716,-0.565745 0.74576,-1.028627 0.43715,-0.437166 1.02861,-0.694324 0.56576,-0.257157 1.13151,-0.282871 0.59145,0 1.15719,0.282871 0.56575,0.257158 1.02863,0.694324 0.43717,0.462882 0.69433,1.028627 0.25715,0.591462 0.28287,1.157206 v 10.543432 q 0,0.59146 -0.28287,1.131489 -0.25716,0.591462 -0.69433,1.028628 -0.46288,0.462882 -1.02863,0.720039 -0.56574,0.282874 -1.15719,0.282874 z"
           style="font-style:normal;font-variant:normal;font-weight:normal;font-stretch:normal;font-family:PoliceSNCF;stroke-width:3.29161"
           id="path1039" />
      </g>
    </g>
  </g>
</svg>
