<?xml version="1.0" encoding="UTF-8"?>
<svg width="42px" height="42px" viewBox="0 0 42 42" version="1.1" xmlns="http://www.w3.org/2000/svg" xmlns:xlink="http://www.w3.org/1999/xlink">
    <title>Assets/Itinerary/Destination</title>
    <defs>
        <linearGradient x1="50%" y1="0%" x2="50%" y2="100%" id="linearGradient-1">
            <stop stop-color="#000000" stop-opacity="0" offset="0%"></stop>
            <stop stop-color="#000000" stop-opacity="0.530976836" offset="100%"></stop>
        </linearGradient>
    </defs>
    <g id="Assets/Itinerary/Destination" stroke="none" stroke-width="1" fill="none" fill-rule="evenodd">
        <rect id="Footprint" x="0" y="0" width="42" height="42"></rect>
        <circle id="Oval" fill="#FFFFFF" cx="21" cy="33" r="3"></circle>
        <path d="M28,6 C29.6853709,6 30.8101826,6.53990431 31.9330945,7.10308244 C32.8046513,7.54019751 33.6738547,8 35,8 C37.585094,8 39.5730252,7.45785596 40.830422,6.15470989 L41.0070378,20.5059959 C39.4201671,21.5277506 37.4496183,22 35,22 C33.295603,22 32.1628338,21.4557459 31.0364745,20.8908388 C30.1695507,20.4560473 29.3085503,20 28,20 C26.6570846,20 25.9851408,20.2252837 25.3132483,20.4490658 C24.4838404,20.7253104 23.6545428,21 22,21 L19,21 L19,7 L22,7 C23.3393547,7 24.0100548,6.77509675 24.6812555,6.55154504 L24.8370776,6.49979808 C25.6182404,6.24180788 26.4453378,6 28,6 Z" id="halo" stroke="#FFFFFF" stroke-width="2"></path>
        <path d="M24.963961,20.0284271 L26.963961,20.0284271 L26.963961,35.0284271 C26.963961,35.5807119 26.5162458,36.0284271 25.963961,36.0284271 C25.4116763,36.0284271 24.963961,35.5807119 24.963961,35.0284271 L24.963961,20.0284271 L24.963961,20.0284271 Z" id="Rectangle" fill="url(#linearGradient-1)" transform="translate(25.964, 28.0284) rotate(45) translate(-25.964, -28.0284)"></path>
        <path d="M21.75,19.25 L21.75,33 C21.75,33.2071068 21.6660534,33.3946068 21.5303301,33.5303301 C21.3946068,33.6660534 21.2071068,33.75 21,33.75 C20.7928932,33.75 20.6053932,33.6660534 20.4696699,33.5303301 C20.3339466,33.3946068 20.25,33.2071068 20.25,33 L20.25,19.25 L21.75,19.25 Z" id="Rectangle" stroke="#000000" stroke-width="0.5" fill="#D3D1CF"></path>
        <path d="M22,20 L22,22 L21.9167766,21.999916 C21.7624576,21.1170085 21.4100508,20.5 21,20.5 C20.5899492,20.5 20.2375424,21.1170085 20.0832234,21.999916 L20,22 L20,20 L22,20 Z" id="Shadow" fill-opacity="0.5" fill="#000000"></path>
        <path d="M24.0021187,15.7953497 L24.0021187,19.7953497 C23.4895702,19.9153699 22.871317,20 22,20 L20,20 L20,16 L22,16 C22.871317,16 23.4895702,15.9153699 24.0021187,15.7953497 Z M28,15 C29.6446686,15 30.680903,15.6010966 31.7798409,16.1442201 L32.0006634,16.2518765 L32.0006634,20.2518765 C30.8163634,19.6839144 29.7543132,19 28,19 L28,15 Z M32.0006634,12.2518765 C32.8416004,12.6551699 33.7441758,13 35,13 C35.3438281,13 35.6774899,12.9903069 36.0009853,12.9709208 L36.0009853,16.9709208 C35.6774899,16.9903069 35.3438281,17 35,17 C33.7441758,17 32.8416004,16.6551699 32.0006634,16.2518765 L32.0006634,12.2518765 Z M28,11 L28,15 C25.8731259,15 25.2516621,15.5026215 24.0028031,15.7951894 L24.0028031,11.7951894 C25.2516621,11.5026215 25.8731259,11 28,11 Z M28,7 C29.7543132,7 30.8163634,7.6839144 32.0006634,8.2518765 L32.0006634,12.2518765 C30.8163634,11.6839144 29.7543132,11 28,11 L28,7 Z M40,16 L40,20 C38.9076649,20.552917 37.5748461,20.8765461 36.0015438,20.9708873 L36.0015438,16.9708873 C37.5748461,16.8765461 38.9076649,16.552917 40,16 Z M24.0021187,7.79534967 L24.0021187,11.7953497 C23.4895702,11.9153699 22.871317,12 22,12 L20,12 L20,8 L22,8 C22.871317,8 23.4895702,7.91536993 24.0021187,7.79534967 Z M40,8 L40,12 C38.9076649,12.552917 37.5748461,12.8765461 36.0015438,12.9708873 L36.0015438,8.9708873 C37.5748461,8.87654613 38.9076649,8.55291703 40,8 Z" id="Dark" fill="#1844EF"></path>
        <path d="M32.0006634,16.2518765 C32.8416004,16.6551699 33.7441758,17 35,17 C35.3438281,17 35.6774899,16.9903069 36.0009853,16.9709208 L36.0009853,20.9709208 C35.6774899,20.9903069 35.3438281,21 35,21 C33.7441758,21 32.8416004,20.6551699 32.0006634,20.2518765 L32.0006634,16.2518765 Z M28,15 L28,19 C25.8731259,19 25.2516621,19.5026215 24.0028031,19.7951894 L24.0028031,15.7951894 C25.2516621,15.5026215 25.8731259,15 28,15 Z M28,11 C29.7543132,11 30.8163634,11.6839144 32.0006634,12.2518765 L32.0006634,16.2518765 C30.8163634,15.6839144 29.7543132,15 28,15 L28,11 Z M32.0006634,8.2518765 C32.8416004,8.65516987 33.7441758,9 35,9 C35.3438281,9 35.6774899,8.99030693 36.0009853,8.97092078 L36.0009853,12.9709208 C35.6774899,12.9903069 35.3438281,13 35,13 C33.7441758,13 32.8416004,12.6551699 32.0006634,12.2518765 L32.0006634,8.2518765 Z M28,7 L28,11 C25.8731259,11 25.2516621,11.5026215 24.0028031,11.7951894 L24.0028031,7.79518937 C25.2516621,7.50262148 25.8731259,7 28,7 Z M24.0021187,11.7953497 L24.0021187,15.7953497 C23.4895702,15.9153699 22.871317,16 22,16 L20,16 L20,12 L22,12 C22.871317,12 23.4895702,11.9153699 24.0021187,11.7953497 Z M40,12 L40,16 C38.9076649,16.552917 37.5748461,16.8765461 36.0015438,16.9708873 L36.0015438,12.9708873 C37.5748461,12.8765461 38.9076649,12.552917 40,12 Z" id="Light" fill="#3C8AFF"></path>
        <path d="M28,7.25 C29.449858,7.25 30.4097876,7.73749365 31.372707,8.22043014 C32.4035154,8.73741522 33.4374474,9.25 35,9.25 C36.8815623,9.25 38.4642813,8.9627201 39.75,8.39478924 L39.75,19.8444739 C38.4847151,20.4507724 36.9006548,20.75 35,20.75 C33.5320103,20.75 32.5639697,20.2585281 31.596862,19.7734911 C30.5699456,19.2584579 29.5440632,18.75 28,18.75 C26.4599653,18.75 25.6889243,19.0064337 24.9182528,19.2631153 L24.6243354,19.3598759 C23.9800802,19.5670495 23.2632102,19.75 22,19.75 L20.25,19.75 L20.25,8.25 L22,8.25 C23.5363472,8.25 24.3061708,7.99398028 25.076251,7.73749552 C25.8074109,7.49397367 26.538813,7.25 28,7.25 Z" id="Border" stroke="#000000" stroke-width="0.5"></path>
    </g>
</svg>