<?xml version="1.0" encoding="UTF-8"?>
<svg width="22px" height="29px" viewBox="0 0 22 29" version="1.1" xmlns="http://www.w3.org/2000/svg" xmlns:xlink="http://www.w3.org/1999/xlink">
    <title>Assets/Itinerary/Destination</title>
    <defs>
        <linearGradient x1="50%" y1="0%" x2="50%" y2="100%" id="linearGradient-1">
            <stop stop-color="#000000" stop-opacity="0" offset="0%"></stop>
            <stop stop-color="#000000" stop-opacity="0.530976836" offset="100%"></stop>
        </linearGradient>
    </defs>
    <g id="Assets/Itinerary/Destination" stroke="none" stroke-width="1" fill="none" fill-rule="evenodd">
        <circle id="Oval" fill="#FFFFFF" cx="3" cy="26" r="3"></circle>
        <path d="M10,-1 C11.6853709,-1 12.8101826,-0.460095689 13.9330945,0.103082445 C14.8046513,0.540197505 15.6738547,1 17,1 C19.6752693,1 21.6853681,0.389904896 23,-0.939252533 L23,13.5866964 C21.487251,14.5120153 19.4919451,15 17,15 C15.295603,15 14.1628338,14.4557459 13.0364745,13.8908388 C12.1695507,13.4560473 11.3085503,13 10,13 C8.65708463,13 7.98514082,13.2252837 7.31324833,13.4490658 C6.48384041,13.7253104 5.65454278,14 4,14 L1,14 L1,-0 L4,-2.22044605e-16 C5.3393547,-2.22044605e-16 6.01005483,-0.224903251 6.68125552,-0.448454962 L6.83707758,-0.500201916 C7.61824037,-0.758192124 8.44533782,-1 10,-1 Z" id="halo" stroke="#FFFFFF" stroke-width="2"></path>
        <path d="M6.96396103,13.0284271 L8.96396103,13.0284271 L8.96396103,28.0284271 C8.96396103,28.5807119 8.51624578,29.0284271 7.96396103,29.0284271 C7.41167628,29.0284271 6.96396103,28.5807119 6.96396103,28.0284271 L6.96396103,13.0284271 L6.96396103,13.0284271 Z" id="Rectangle" fill="url(#linearGradient-1)" transform="translate(7.964, 21.0284) rotate(45) translate(-7.964, -21.0284)"></path>
        <path d="M3.75,12.25 L3.75,26 C3.75,26.2071068 3.66605339,26.3946068 3.53033009,26.5303301 C3.39460678,26.6660534 3.20710678,26.75 3,26.75 C2.79289322,26.75 2.60539322,26.6660534 2.46966991,26.5303301 C2.33394661,26.3946068 2.25,26.2071068 2.25,26 L2.25,12.25 L3.75,12.25 Z" id="Rectangle" stroke="#000000" stroke-width="0.5" fill="#D3D1CF"></path>
        <path d="M4,13 L4,15 L3.91677659,14.999916 C3.76245759,14.1170085 3.41005081,13.5 3,13.5 C2.58994919,13.5 2.23754241,14.1170085 2.08322341,14.999916 L2,15 L2,13 L4,13 Z" id="Shadow" fill-opacity="0.5" fill="#000000"></path>
        <path d="M6.0021187,8.79534967 L6.0021187,12.7953497 C5.48957021,12.9153699 4.87131698,13 4,13 L2,13 L2,9 L4,9 C4.87131698,9 5.48957021,8.91536993 6.0021187,8.79534967 Z M10,8 C11.6446686,8 12.680903,8.60109664 13.7798409,9.14422007 L14.0006634,9.2518765 L14.0006634,13.2518765 C12.8163634,12.6839144 11.7543132,12 10,12 L10,8 Z M14.0006634,5.2518765 C14.8416004,5.65516987 15.7441758,6 17,6 C17.3438281,6 17.6774899,5.99030693 18.0009853,5.97092078 L18.0009853,9.97092078 C17.6774899,9.99030693 17.3438281,10 17,10 C15.7441758,10 14.8416004,9.65516987 14.0006634,9.2518765 L14.0006634,5.2518765 Z M10,4 L10,8 C7.87312594,8 7.25166209,8.50262148 6.0028031,8.79518937 L6.0028031,4.79518937 C7.25166209,4.50262148 7.87312594,4 10,4 Z M10,0 C11.7543132,0 12.8163634,0.683914405 14.0006634,1.2518765 L14.0006634,5.2518765 C12.8163634,4.6839144 11.7543132,4 10,4 L10,0 Z M22,9 L22,13 C20.9076649,13.552917 19.5748461,13.8765461 18.0015438,13.9708873 L18.0015438,9.9708873 C19.5748461,9.87654613 20.9076649,9.55291703 22,9 Z M6.0021187,0.79534967 L6.0021187,4.79534967 C5.48957021,4.91536993 4.87131698,5 4,5 L2,5 L2,1 L4,1 C4.87131698,1 5.48957021,0.915369927 6.0021187,0.79534967 Z M22,1 L22,5 C20.9076649,5.55291703 19.5748461,5.87654613 18.0015438,5.9708873 L18.0015438,1.9708873 C19.5748461,1.87654613 20.9076649,1.55291703 22,1 Z" id="Dark" fill="#1844EF"></path>
        <path d="M14.0006634,9.2518765 C14.8416004,9.65516987 15.7441758,10 17,10 C17.3438281,10 17.6774899,9.99030693 18.0009853,9.97092078 L18.0009853,13.9709208 C17.6774899,13.9903069 17.3438281,14 17,14 C15.7441758,14 14.8416004,13.6551699 14.0006634,13.2518765 L14.0006634,9.2518765 Z M10,8 L10,12 C7.87312594,12 7.25166209,12.5026215 6.0028031,12.7951894 L6.0028031,8.79518937 C7.25166209,8.50262148 7.87312594,8 10,8 Z M10,4 C11.7543132,4 12.8163634,4.6839144 14.0006634,5.2518765 L14.0006634,9.2518765 C12.8163634,8.6839144 11.7543132,8 10,8 L10,4 Z M14.0006634,1.2518765 C14.8416004,1.65516987 15.7441758,2 17,2 C17.3438281,2 17.6774899,1.99030693 18.0009853,1.97092078 L18.0009853,5.97092078 C17.6774899,5.99030693 17.3438281,6 17,6 C15.7441758,6 14.8416004,5.65516987 14.0006634,5.2518765 L14.0006634,1.2518765 Z M10,0 L10,4 C7.87312594,4 7.25166209,4.50262148 6.0028031,4.79518937 L6.0028031,0.795189373 C7.25166209,0.502621476 7.87312594,0 10,0 Z M6.0021187,4.79534967 L6.0021187,8.79534967 C5.48957021,8.91536993 4.87131698,9 4,9 L2,9 L2,5 L4,5 C4.87131698,5 5.48957021,4.91536993 6.0021187,4.79534967 Z M22,5 L22,9 C20.9076649,9.55291703 19.5748461,9.87654613 18.0015438,9.9708873 L18.0015438,5.9708873 C19.5748461,5.87654613 20.9076649,5.55291703 22,5 Z" id="Light" fill="#3C8AFF"></path>
        <path d="M10,0.25 C11.449858,0.25 12.4097876,0.737493652 13.372707,1.22043014 C14.4035154,1.73741522 15.4374474,2.25 17,2.25 C18.8815623,2.25 20.4642813,1.9627201 21.75,1.39478924 L21.75,12.8444739 C20.4847151,13.4507724 18.9006548,13.75 17,13.75 C15.5320103,13.75 14.5639697,13.2585281 13.596862,12.7734911 C12.5699456,12.2584579 11.5440632,11.75 10,11.75 C8.45996528,11.75 7.68892427,12.0064337 6.91825282,12.2631153 L6.62433536,12.3598759 C5.98008018,12.5670495 5.2632102,12.75 4,12.75 L2.25,12.75 L2.25,1.25 L4,1.25 C5.53634725,1.25 6.30617082,0.993980281 7.07625103,0.737495521 C7.80741089,0.493973665 8.53881302,0.25 10,0.25 Z" id="Border" stroke="#000000" stroke-width="0.5"></path>
    </g>
</svg>