<?xml version="1.0" encoding="UTF-8"?>
<svg width="22.3279221px" height="34px" viewBox="0 0 22.3279221 34" version="1.1" xmlns="http://www.w3.org/2000/svg" xmlns:xlink="http://www.w3.org/1999/xlink">
    <title>Assets/Itinerary/Intermediate point</title>
    <defs>
        <linearGradient x1="50%" y1="0%" x2="50%" y2="100%" id="linearGradient-1">
            <stop stop-color="#000000" stop-opacity="0" offset="0%"></stop>
            <stop stop-color="#000000" stop-opacity="0.530976836" offset="100%"></stop>
        </linearGradient>
        <rect id="path-2" x="0" y="0" width="22" height="22" rx="9"></rect>
    </defs>
    <g id="Assets/Itinerary/Intermediate-point" stroke="none" stroke-width="1" fill="none" fill-rule="evenodd">
        <circle id="Oval" fill="#FFFFFF" cx="11" cy="31" r="3"></circle>
        <path d="M14.963961,18.0284271 L16.963961,18.0284271 L16.963961,33.0284271 C16.963961,33.5807119 16.5162458,34.0284271 15.963961,34.0284271 C15.4116763,34.0284271 14.963961,33.5807119 14.963961,33.0284271 L14.963961,18.0284271 L14.963961,18.0284271 Z" id="Rectangle" fill="url(#linearGradient-1)" transform="translate(15.964, 26.0284) rotate(45) translate(-15.964, -26.0284)"></path>
        <rect id="halo" stroke-opacity="0.75" stroke="#FFFFFF" stroke-width="2" x="-1" y="-1" width="24" height="24" rx="9"></rect>
        <path d="M11.75,17.25 L11.75,31 C11.75,31.2071068 11.6660534,31.3946068 11.5303301,31.5303301 C11.3946068,31.6660534 11.2071068,31.75 11,31.75 C10.7928932,31.75 10.6053932,31.6660534 10.4696699,31.5303301 C10.3339466,31.3946068 10.25,31.2071068 10.25,31 L10.25,17.25 L11.75,17.25 Z" id="Rectangle" stroke="#000000" stroke-width="0.5" fill="#D3D1CF"></path>
        <path d="M12,22 L12,24 L11.9167766,23.999916 C11.7624576,23.1170085 11.4100508,22.5 11,22.5 C10.5899492,22.5 10.2375424,23.1170085 10.0832234,23.999916 L10,24 L10,22 L12,22 Z" id="Shadow" fill-opacity="0.5" fill="#000000"></path>
        <g id="Rectangle" stroke-linejoin="square">
            <rect stroke="#3C8AFF" stroke-width="3.5" fill="#FFFFFF" fill-rule="evenodd" x="1.75" y="1.75" width="18.5" height="18.5" rx="9"></rect>
            <rect stroke="#000000" stroke-width="0.5" x="0.25" y="0.25" width="21.5" height="21.5" rx="9"></rect>
        </g>
    </g>
     <text x="50%" y="50%" text-anchor="middle"></text>
</svg>