<?xml version="1.0" encoding="UTF-8"?>
<svg width="42px" height="42px" viewBox="0 0 42 42" version="1.1" xmlns="http://www.w3.org/2000/svg" xmlns:xlink="http://www.w3.org/1999/xlink">
    <title>Assets/Itinerary/Intermediate point</title>
    <defs>
        <linearGradient x1="50%" y1="0%" x2="50%" y2="100%" id="linearGradient-1">
            <stop stop-color="#000000" stop-opacity="0" offset="0%"></stop>
            <stop stop-color="#000000" stop-opacity="0.530976836" offset="100%"></stop>
        </linearGradient>
        <rect id="path-2" x="10" y="2" width="22" height="22" rx="9"></rect>
    </defs>
    <g id="Assets/Itinerary/Intermediate-point" stroke="none" stroke-width="1" fill="none" fill-rule="evenodd">
        <rect id="Footprint" x="0" y="0" width="42" height="42"></rect>
        <circle id="Oval" fill="#FFFFFF" cx="21" cy="33" r="3"></circle>
        <path d="M24.6104076,20.8819805 L26.6104076,20.8819805 L26.6104076,34.8819805 C26.6104076,35.4342653 26.1626924,35.8819805 25.6104076,35.8819805 C25.0581229,35.8819805 24.6104076,35.4342653 24.6104076,34.8819805 L24.6104076,20.8819805 L24.6104076,20.8819805 Z" id="Rectangle" fill="url(#linearGradient-1)" transform="translate(25.6104, 28.382) rotate(45) translate(-25.6104, -28.382)"></path>
        <rect id="halo" stroke-opacity="0.75" stroke="#FFFFFF" stroke-width="2" x="9" y="1" width="24" height="24" rx="9"></rect>
        <path d="M21.75,19.25 L21.75,33 C21.75,33.2071068 21.6660534,33.3946068 21.5303301,33.5303301 C21.3946068,33.6660534 21.2071068,33.75 21,33.75 C20.7928932,33.75 20.6053932,33.6660534 20.4696699,33.5303301 C20.3339466,33.3946068 20.25,33.2071068 20.25,33 L20.25,19.25 L21.75,19.25 Z" id="Rectangle" stroke="#000000" stroke-width="0.5" fill="#D3D1CF"></path>
        <path d="M22,24 L22,26 L21.9167766,25.999916 C21.7624576,25.1170085 21.4100508,24.5 21,24.5 C20.5899492,24.5 20.2375424,25.1170085 20.0832234,25.999916 L20,26 L20,24 L22,24 Z" id="Shadow" fill-opacity="0.5" fill="#000000"></path>
        <g id="Rectangle" stroke-linejoin="square">
            <rect stroke="#3C8AFF" stroke-width="3.5" fill="#FFFFFF" fill-rule="evenodd" x="11.75" y="3.75" width="18.5" height="18.5" rx="9"></rect>
            <rect stroke="#000000" stroke-width="0.5" x="10.25" y="2.25" width="21.5" height="21.5" rx="9"></rect>
        </g>
    </g>
</svg>