<svg xmlns="http://www.w3.org/2000/svg" xml:space="preserve" width="512" height="512" style="enable-background:new 0 0 512 512" viewBox="0 0 511 512"><path fill="#A88E74" d="m275.11 317.457 42.847-42.848 185.668 185.672c11.832 11.828 11.832 31.012 0 42.844s-31.016 11.832-42.848 0zm0 0" data-original="#a88e74"/><path fill="#A8A8A8" d="m282.25 324.602 42.848-42.848 35.707 35.707-42.848 42.844zm0 0" data-original="#a8a8a8"/><path fill="#EBEBEB" d="M364.066 181.781c0 100.399-81.386 181.785-181.785 181.785C81.887 363.566.5 282.18.5 181.781.5 81.387 81.887 0 182.281 0 282.68 0 364.066 81.387 364.066 181.781zm0 0" data-original="#ebebeb"/><path fill="#F9F9F9" d="M40.926 195.8a10.1 10.1 0 0 1-10.098-9.827c-.18-7.239.16-14.48 1.008-21.672C41.48 81.21 116.648 21.66 199.742 31.285c5.524.793 9.36 5.91 8.567 11.43a10.1 10.1 0 0 1-10.887 8.629C125.398 42.98 60.23 94.586 51.863 166.609v.004a134.298 134.298 0 0 0-.836 18.797c.145 5.574-4.254 10.211-9.828 10.36zm0 0" data-original="#f9f9f9"/><path fill="#8ACED8" d="M74.969 240.418c-5.578-.008-10.094-4.535-10.086-10.11a10.114 10.114 0 0 1 2.09-6.14l35.922-46.676a10.096 10.096 0 0 1 12.27-2.98l80.034 37.367 53.313-58.867a9.987 9.987 0 0 1 4.836-2.969l52.515-14.25c5.387-1.461 10.938 1.719 12.399 7.105 1.46 5.383-1.719 10.934-7.106 12.395l-49.636 13.46-56.32 62.212a10.102 10.102 0 0 1-11.759 2.363l-79.457-37.144-30.976 40.246a10.094 10.094 0 0 1-8.04 3.988zm0 0" data-original="#8aced8"/><path fill="#EA6B65" d="M217.883 224.23c0 11.153-9.043 20.196-20.2 20.196s-20.199-9.043-20.199-20.196c0-11.156 9.043-20.199 20.2-20.199s20.199 9.043 20.199 20.2zm0 0" data-original="#ea6b65"/><g fill="#EA9D2D"><path d="M131.09 183.66c0 11.156-9.043 20.2-20.195 20.2-11.157 0-20.2-9.044-20.2-20.2 0-11.152 9.043-20.195 20.2-20.195 11.152 0 20.195 9.043 20.195 20.195zM276.195 159.836c0 11.156-9.043 20.2-20.199 20.2s-20.2-9.044-20.2-20.2c0-11.152 9.044-20.195 20.2-20.195s20.2 9.043 20.2 20.195zm0 0" data-original="#ea9d2d"/></g></svg>