<svg xmlns="http://www.w3.org/2000/svg" xml:space="preserve" id="svg13" width="512" height="512" x="0" y="0" version="1.1"><style id="style1" type="text/css">.st1{display:inline;fill:none;stroke:#1d1d1b;stroke-width:20;stroke-linecap:round;stroke-miterlimit:10}.st2{fill:#c7b2de}.st3{fill:#786abf}.st4{fill:#fff}</style><g id="Calque_3" transform="matrix(1.17972 0 0 1.17972 -397.567 -336.044)"><g id="g7"><g id="g4"><path id="path4" d="M471 630.7c-5.5 0-10-4.5-10-10v-262c0-5.5 4.5-10 10-10s10 4.5 10 10v262c0 5.5-4.5 10-10 10z" class="st2"/></g><g id="g5"><path id="path5" d="M605 710.7c-5.5 0-10-4.5-10-10V509c0-5.5 4.5-10 10-10s10 4.5 10 10v191.7c0 5.5-4.5 10-10 10z" class="st2"/></g><g id="g6"><path id="path6" d="M337 714.5v-323l133.9-43.2 137 40.9c5.3 1.6 8.3 7.2 6.7 12.4-1.6 5.3-7.2 8.3-12.4 6.7l-131-39.1L357 406v281l113.9-36.7 134 40L723 653.4V379.9c0-5.5 4.5-10 10-10s10 4.5 10 10v288.2l-137.9 43.1-134-40z" class="st3"/></g></g><g id="g13"><g id="g8"><path id="path7" d="M733.5 389.9c-2.6 0-5.1-1-7.1-2.9-3.9-3.9-3.9-10.2 0-14.1l16.3-16.2-39.3-39.3c-3.9 3.8-10.2 3.8-14-.1-3.9-3.9-3.9-10.2 0-14.1l14-14 67.6 67.6-30.5 30.4c-1.9 1.7-4.5 2.7-7 2.7z" class="st3"/></g><g id="g9"><path id="path8" d="M704.7 418.5c-2.6 0-5.1-1-7.1-2.9-3.9-3.9-3.9-10.2 0-14.1l10.8-10.7c3.9-3.9 10.2-3.9 14.1 0 3.9 3.9 3.9 10.2 0 14.1l-10.8 10.7c-1.9 1.9-4.4 2.9-7 2.9z" class="st2"/></g><g id="g10"><path id="path9" d="m524.7 533.3 9-74.5 91.3-91.3c3.9-3.9 10.2-3.9 14.1 0 3.9 3.9 3.9 10.2 0 14.1L552.7 468l-5.1 42.5 45.6-5.2 85.7-85.2c3.9-3.9 10.2-3.9 14.1 0 3.9 3.9 3.9 10.2 0 14.1l-90.6 90.1z" class="st4"/></g><g id="g11"><path id="path10" d="M650.4 366.2c-2.6 0-5.1-1-7.1-2.9-3.9-3.9-3.9-10.2 0-14.1l25.1-25.1c3.9-3.9 10.2-3.9 14.1 0 3.9 3.9 3.9 10.2 0 14.1l-25.1 25.1c-1.9 1.9-4.4 2.9-7 2.9z" class="st2"/></g><g id="g12"><path id="path11" d="M597.7 524.8c-2.5 0-4.9-.9-6.9-2.7L566 498.7c-4-3.8-4.2-10.1-.4-14.1 3.8-4 10.1-4.2 14.1-.4l24.8 23.4c4 3.8 4.2 10.1.4 14.1-1.8 2.1-4.5 3.1-7.2 3.1z" class="st4"/></g></g></g></svg>