<svg xmlns="http://www.w3.org/2000/svg" xml:space="preserve" width="512" height="512" style="enable-background:new 0 0 512 512" viewBox="0 0 60 60"><path fill="#DCE6EA" d="m56.3 11.64.19-.05A2 2 0 0 1 59 13.52v39a2 2 0 0 1-1.49 1.94L40.5 58.931a1.993 1.993 0 0 1-1 .01l-19-4.75a1.993 1.993 0 0 0-1 .01L3.51 58.4A2 2 0 0 1 1 56.471v-39a2 2 0 0 1 1.49-1.94L19.5 11.07a1.993 1.993 0 0 1 1-.01l16.4 4.1z" data-original="#dce6ea"/><path fill="#3E7CD6" d="m53.75 16.44-13.71 3.63-.04-.01-19.55-4.89a1.726 1.726 0 0 0-.45-.05 1.652 1.652 0 0 0-.38.05L5.75 18.81a1.014 1.014 0 0 0-.75.97v32.8a1.006 1.006 0 0 0 1.25.97l12.23-3.22a6.042 6.042 0 0 1 1.52-.2h.01a6.018 6.018 0 0 1 1.46.18l18.26 4.56a1.241 1.241 0 0 0 .27.03.833.833 0 0 0 .22-.03l14.03-3.69a1.014 1.014 0 0 0 .75-.97v-32.8a1.006 1.006 0 0 0-1.25-.97z" data-original="#3e7cd6"/><path fill="#4194F7" d="M40 20.06V54.9a1.241 1.241 0 0 1-.27-.03l-18.26-4.56a6.018 6.018 0 0 0-1.46-.18H20V15.12a1.726 1.726 0 0 1 .45.05z" data-original="#4194f7"/><path fill="#7F4133" d="m36.343 31.6-.031.031a5.209 5.209 0 0 1-2.279 1.329l-7.221 1.991a1.434 1.434 0 0 1-1.76-1.76l1.99-7.221a5.221 5.221 0 0 1 1.33-2.279l.031-.031L34 26z" data-original="#7f4133"/><path fill="#EDAD3B" d="m51.191 15.012.041 1.696-14.889 14.889-7.94-7.94L43.292 8.768l1.675.135z" data-original="#edad3b"/><path fill="#E24747" d="m47 6.557.261-1.76 2.979-2.979a2.818 2.818 0 0 1 3.971 0l3.969 3.969a2.818 2.818 0 0 1 0 3.971l-2.98 2.979-1.76.244z" data-original="#e24747"/><path fill="#C7D8DD" d="m43.286 8.773 3.97-3.97 7.941 7.94-3.97 3.97z" data-original="#c7d8dd"/><path fill="#CC9236" d="m31.658 26.924 14.89-14.89 1.414 1.414-14.89 14.89z" data-original="#cc9236"/></svg>