<svg xmlns="http://www.w3.org/2000/svg" xml:space="preserve" id="svg10" width="512" height="512" x="0" y="0" version="1.1"><style id="style1" type="text/css">.st1{display:inline;fill:none;stroke:#1d1d1b;stroke-width:20;stroke-linecap:round;stroke-miterlimit:10}.st3{fill:#786abf}</style><g id="Calque_3" transform="translate(-378.128 -378.128) scale(1.17431)"><g id="g4"><path id="path4" d="M758 713H418v-46.5c0-5.5 4.5-10 10-10s10 4.5 10 10V693h300V511h-38c-5.5 0-10-4.5-10-10s4.5-10 10-10h58z" style="fill:#c7b2de"/></g><g id="g8"><g id="g5"><path id="path5" d="M399.1 447c-.5 0-1 0-1.5-.1-.9-.1-1.8-.2-2.7-.1-5.5.4-10.3-3.7-10.7-9.3-.4-5.5 3.7-10.3 9.3-10.7 2.4-.2 4.8-.1 7.2.3 5.5.8 9.2 6 8.4 11.4-.9 5-5.1 8.5-10 8.5z" class="st3"/></g><g id="g6"><path id="path6" d="M485.9 529.2h-.6c-4.1-.3-8.3-1-12.5-2.2-5.3-1.6-8.3-7.1-6.7-12.4 1.6-5.3 7.1-8.3 12.4-6.7 2.7.8 5.4 1.3 8 1.5 5.5.3 9.7 5.1 9.4 10.6-.3 5.1-4.7 9.2-10 9.2zm28.4-10.7c-2.7 0-5.3-1-7.3-3.1-3.8-4-3.6-10.3.4-14.1 2.3-2.1 4.4-4.6 6.4-6.9 3.6-4.2 9.9-4.7 14.1-1.1 4.2 3.6 4.7 9.9 1.1 14.1-2.2 2.6-4.9 5.6-7.8 8.4-1.9 1.8-4.4 2.7-6.9 2.7zm-64.4-8.2c-2.7 0-5.5-1.1-7.4-3.3-2.5-2.8-4.9-5.8-7.2-9.1-3.2-4.5-2.1-10.8 2.4-13.9 4.5-3.2 10.8-2.1 13.9 2.4 1.9 2.6 3.8 5.1 5.8 7.2 3.7 4.1 3.4 10.4-.7 14.1-2.1 1.7-4.5 2.6-6.8 2.6zm94.6-20.3c-3.6 0-7-1.9-8.8-5.3-2.6-4.9-.8-10.9 4.1-13.5 3.6-1.9 7.3-3.5 11.2-4.8 5.3-1.7 10.9 1.2 12.6 6.4 1.7 5.2-1.2 10.9-6.4 12.6-2.8.9-5.4 2-8 3.4-1.5.8-3.1 1.2-4.7 1.2zm-116.3-15.3c-3.7 0-7.2-2-9-5.5-1.2-2.4-2.8-5.5-4.6-8.4-2.9-4.7-1.5-10.9 3.2-13.8 4.7-2.9 10.9-1.5 13.8 3.2 2.2 3.6 4.1 7.2 5.4 10 2.5 4.9.4 10.9-4.5 13.4-1.3.8-2.8 1.1-4.3 1.1z" class="st3"/></g><g id="g7"><path id="path7" d="M589.9 485.7c-1 0-2.1-.2-3.1-.5-1.3-.4-2.6-.8-3.9-1.1-5.4-1.2-8.8-6.6-7.5-12 1.2-5.4 6.6-8.8 12-7.5 1.9.4 3.9 1 5.7 1.6 5.2 1.7 8.1 7.4 6.4 12.6-1.5 4.2-5.4 6.9-9.6 6.9z" class="st3"/></g></g><g id="g9"><path id="path8" d="M710 651H370v-49c0-5.5 4.5-10 10-10s10 4.5 10 10v29h300V449h-38c-5.5 0-10-4.5-10-10s4.5-10 10-10h58z" class="st3"/></g><g id="g10"><path id="path9" d="M662 589H322V367h340Zm-320-20h300V387H342Z" style="fill:#fff"/></g></g></svg>