<svg xmlns="http://www.w3.org/2000/svg" fill="none" viewBox="0 0 240 320">
  <g clip-path="url(#a)">
    <path stroke="#231f20" stroke-linecap="round" stroke-linejoin="round" stroke-width=".8" d="M0 228.44q3.51-3.61 7.32-6.86c10.3-8.78 22.04-15.34 33.4-21.7a380 380 0 0 0 18.06-10.55c15.7-9.97 27.1-20.74 34.86-32.9 7.14-11.21 12.02-24.91 14.53-40.74a143 143 0 0 0-5.13-66.47C96.92 30.48 86.9 13.6 73.88 0"/>
    <path stroke="#231f20" stroke-linecap="round" stroke-linejoin="round" stroke-width=".8" d="M78.26 0a132.5 132.5 0 0 1 27.82 48.23c7.05 21.6 8.86 45.09 5.25 67.95-2.57 16.27-7.62 30.38-15 41.96-8 12.57-19.73 23.65-35.83 33.88a381 381 0 0 1-18.22 10.65C31.06 208.94 19.46 215.44 9.4 224a105 105 0 0 0-9.4 9.1"/>
    <path stroke="#231f20" stroke-linecap="round" stroke-linejoin="round" stroke-width=".8" d="M240 38.12c-33.74 6.18-68.47 21.2-92.12 40.84-19.86 16.48-34.8 36.98-41 56.25"/>
    <path stroke="#231f20" stroke-linecap="round" stroke-linejoin="round" stroke-width=".8" d="M103.83 134.23c6.38-19.83 21.69-40.87 42-57.73 24.21-20.1 59.7-35.42 94.17-41.64M64.89 320c-9.39-30.43-11.94-64.14-6.07-93.52 4.76-23.8 14.82-46.05 26.9-59.55"/>
    <path stroke="#231f20" stroke-linecap="round" stroke-linejoin="round" stroke-width=".8" d="M88.1 169.06c-11.72 13.1-21.5 34.79-26.14 58.04-5.83 29.18-3.2 62.73 6.28 92.9"/>
    <path stroke="#231f20" stroke-miterlimit="10" stroke-width=".2" d="M33.68 0c7.9 12.26 16.24 24.28 23.04 37.17a182 182 0 0 1 14.9 37.99c5.48 20.44 6.98 43.52-4 61.62-7.87 12.97-21.3 21.76-35.47 27.23-10.38 4-21.25 6.43-32.15 8.7"/>
    <path stroke="#231f20" stroke-miterlimit="10" stroke-width=".2" d="M0 3.61c23.76 32.72 49 58.14 53.1 95.74.92 8.34.21 16.43-4.22 24.11-3.8 6.6-11.12 10.22-18.36 12.57-9.95 3.21-20.2 5.16-30.52 6.92"/>
    <path stroke="#231f20" stroke-miterlimit="10" stroke-width=".2" d="M0 46.74c13.73 14.92 25.66 31.4 30.57 44.3 2.5 6.56 3.04 14.5-1.1 20.18-3.42 4.7-9.39 6.92-15.18 7.49-4.75.46-9.52-.01-14.29-.27M0 242.5c7.23-1.14 14.47-1.45 21.34.84 6.16 2.06 11.7 6.32 14.73 12.07 5.6 10.61 1.97 23.45 1.35 35.44a68 68 0 0 0 5 29.15M0 274.54c5.44.28 10.16 4.46 12.65 9.36 5.5 10.84 2.13 24.14 3.6 36.1M150.84 320c-5.89-6.8-11.38-13.93-15.86-21.72-6.88-11.96-11.3-25.7-10.26-39.47 1.03-13.76 8.1-27.43 19.99-34.42 6.6-3.89 14.23-5.55 21.55-7.83 10.36-3.23 20.47-7.88 28.46-15.21 7.58-6.95 13.08-16.11 21.49-22.01 6.94-4.86 15.27-7.08 23.79-7.94M202.26 242.65c3.44-.63 6.78-1.5 9.77-3.25 5.7-3.35 9.24-9.42 14.3-13.68 3.97-3.36 8.66-5.44 13.67-6.8"/>
    <path stroke="#231f20" stroke-miterlimit="10" stroke-width=".2" d="m175.69 273.66-.34-1.64c-1.63-9.08 1.18-19.54 8.95-24.5q1.28-.8 2.64-1.4 1.47-.65 3.02-1.12M206.92 320c-7-7.31-13.36-15.25-19.3-23.45-4.26-5.86-8.39-12.04-10.76-18.82M213.82 273.3c2.6-4.07 6.72-6.97 11.08-9.08a62 62 0 0 1 15.1-4.8M240 304.07a98 98 0 0 1-19.27-9.14c-3.26-2.01-6.54-4.36-8.23-7.8a13 13 0 0 1-.96-8.07M148.65 0c1.61 5.62 4.4 11 8.73 14.9 7.21 6.48 17.54 8.02 27.23 8.26 18.63.47 37.02-2.75 55.39-6.3"/>
    <path stroke="#231f20" stroke-miterlimit="10" stroke-width=".2" d="M180.86 0c.82 2.2 2.08 4.19 3.84 5.74 2.76 2.42 6.44 3.53 10.05 4.17 8.83 1.57 17.9.75 26.8-.34A520 520 0 0 0 240 6.95M115.9 66.91l5.14-1.18-4.26-18.47-5.14 1.19z"/>
    <path stroke="#231f20" stroke-linecap="round" stroke-linejoin="round" stroke-width=".4" d="M80.54 180.26a5 5 0 1 0 0-10.02 5 5 0 0 0 0 10.02M108.94 129.04a5 5 0 1 0 0-10.01 5 5 0 0 0 0 10.01"/>
    <path stroke="#231f20" stroke-miterlimit="10" stroke-width=".2" d="m130.81 68.58-11.22 2.6 1.27 5.5 11.22-2.59z"/>
    <path stroke="#231f20" stroke-linecap="round" stroke-linejoin="round" stroke-width=".4" d="m113.9 70.61-7.92 1.2a2 2 0 1 0 .6 3.95l7.91-1.2a2 2 0 1 0-.6-3.95"/>
    <path stroke="#231f20" stroke-miterlimit="10" stroke-width=".4" d="M240 92.86a46 46 0 0 0-19.52 14.03 36 36 0 0 1-3.66 3.92c-2.17 1.9-5.02 3.45-8.96 4.87a61 61 0 0 1-24.72 3.44c-2.96-.16-6.01-.34-8.94.65a24 24 0 0 0-4.04 1.94c-1.7.96-3.32 1.87-5.08 2.09a6.7 6.7 0 0 1-6.24-2.8c-1.3-1.9-1.53-4.7-.6-7.72l.01-.04.08-.28a155 155 0 0 0 2.65-11.72 76 76 0 0 0 1.6-11.54c.28-6.52-1.52-12.84-3.74-19"/>
    <path stroke="#231f20" stroke-miterlimit="10" stroke-width=".4" d="M127.36 320c-1.67-3.5-2.94-7.35-4.24-11.3-1.31-4-2.67-8.13-4.51-11.94a92 92 0 0 0-3.93-7.03c-1.76-2.94-3.57-5.98-4.85-9.17-4.1-10.21-2.76-21.71-1.47-32.84.35-2.97.7-6.05.96-9.06.45-5.53.54-11.16.62-16.6.08-4.8.16-9.78.5-14.65.85-12.46 3.33-21.8 7.8-29.4 1.66-2.81 3.68-5.5 5.63-8.1 3.05-4.07 6.2-8.27 8.15-13.11l.42-1.08c.28-.73.54-1.42.86-2.08 1.22-2.56 3.22-4.63 5.34-6.82l1.14-1.18a79 79 0 0 0 16.07-25.3q.38 1.1 1.02 2.03a9.2 9.2 0 0 0 8.51 3.81c2.22-.28 4.12-1.35 5.96-2.38 1.23-.69 2.39-1.34 3.62-1.76 2.5-.84 5.19-.68 8.04-.52l1.51.08a63 63 0 0 0 24.15-3.66c2.67-.96 6.58-2.56 9.73-5.33 1.46-1.28 2.7-2.75 3.91-4.17q.75-.9 1.52-1.76a43 43 0 0 1 16.16-11.25"/>
    <path stroke="#231f20" stroke-miterlimit="10" stroke-width=".4" d="M156.8 72.13c2.09 5.83 3.64 11.53 3.4 17.48-.16 3.89-.9 7.8-1.56 11.18-.76 3.81-1.55 7.75-2.61 11.53a76 76 0 0 1-18 31.68l-1.1 1.16c-2.17 2.23-4.4 4.54-5.8 7.44a31 31 0 0 0-.93 2.28l-.4 1.03c-1.84 4.55-4.76 8.44-7.84 12.56-2 2.66-4.06 5.4-5.78 8.33-4.67 7.93-7.26 17.6-8.14 30.46-.34 4.92-.42 9.93-.5 14.77-.08 5.4-.16 10.99-.61 16.44a271 271 0 0 1-.95 8.98c-1.32 11.42-2.7 23.23 1.62 34 1.35 3.37 3.22 6.5 5.03 9.51 1.32 2.22 2.69 4.51 3.82 6.84 1.77 3.66 3.1 7.72 4.4 11.64 1.17 3.55 2.35 7.16 3.89 10.56M121.48 0a69 69 0 0 0 15.9 26.93q1.07 1.12 2.17 2.21c3.8 3.82 7.73 7.76 8.69 12.79.18.92.26 1.86.34 2.85l.05.56c.65 7.18 3.3 14.04 5.87 20.68l1.15 3"/>
    <path stroke="#231f20" stroke-miterlimit="10" stroke-width=".4" d="m157.7 67.62-.96-2.46c-2.5-6.49-5.1-13.2-5.71-20.04l-.05-.55a30 30 0 0 0-.38-3.1c-1.1-5.74-5.3-9.95-9.35-14.02q-1.09-1.08-2.14-2.18A67 67 0 0 1 124 0"/>
    <path stroke="#231f20" stroke-miterlimit="10" stroke-width=".2" d="m169.75 67.73-4.19 1.53 1.53 4.2 4.19-1.54zM179.44 71.8l-5.14-7.1-2.27 1.64 5.14 7.1zM176.09 135.22l2.37-7.3-4.73-1.53-2.37 7.28z"/>
    <path stroke="#231f20" stroke-linecap="round" stroke-linejoin="round" stroke-width=".4" d="M84.7 32.37a1.58 1.58 0 1 0 0-3.15 1.58 1.58 0 0 0 0 3.15M86.7 36.48a1.58 1.58 0 1 0 0-3.16 1.58 1.58 0 0 0 0 3.16M88.71 40.58a1.58 1.58 0 1 0 0-3.15 1.58 1.58 0 0 0 0 3.15"/>
    <path stroke="#231f20" stroke-linecap="round" stroke-linejoin="round" stroke-width=".4" d="M88.72 43.8a4.8 4.8 0 0 1-4.31-2.7l-4.01-8.2a4.8 4.8 0 0 1 8.61-4.2l4.01 8.2a4.8 4.8 0 0 1-4.3 6.9"/>
    <path stroke="#231f20" stroke-linecap="round" stroke-linejoin="round" stroke-width=".4" d="M87.94 29.2a3.6 3.6 0 1 0-6.46 3.16l4 8.21a3.6 3.6 0 1 0 6.46-3.15zM90.81 43.31l2.48 5.08 8.09-3.95M32.52 195.12a1.58 1.58 0 1 0 0-3.15 1.58 1.58 0 0 0 0 3.15M28.66 197.57a1.58 1.58 0 1 0 0-3.15 1.58 1.58 0 0 0 0 3.15M24.8 200.02a1.58 1.58 0 1 0 0-3.16 1.58 1.58 0 0 0 0 3.16"/>
    <path stroke="#231f20" stroke-linecap="round" stroke-linejoin="round" stroke-width=".4" d="M24.8 203.23a4.8 4.8 0 0 1-2.57-8.84l7.72-4.89a4.77 4.77 0 0 1 6.61 1.48 4.8 4.8 0 0 1-1.48 6.62l-7.72 4.89c-.77.49-1.66.74-2.56.74"/>
    <path stroke="#231f20" stroke-linecap="round" stroke-linejoin="round" stroke-width=".4" d="M34.44 196.59a3.6 3.6 0 0 0-3.84-6.07l-7.72 4.9a3.6 3.6 0 0 0 3.84 6.06zM20.75 201l-4.77 3.03 4.82 7.6M48.07 231.58a1.58 1.58 0 1 0 0-3.15 1.58 1.58 0 0 0 0 3.15M47.77 236.14a1.58 1.58 0 1 0 0-3.15 1.58 1.58 0 0 0 0 3.15M47.47 240.7a1.58 1.58 0 1 0 0-3.15 1.58 1.58 0 0 0 0 3.15"/>
    <path stroke="#231f20" stroke-linecap="round" stroke-linejoin="round" stroke-width=".4" d="m47.48 243.92-.32-.01a4.77 4.77 0 0 1-4.47-5.1l.6-9.11a4.8 4.8 0 0 1 9.56.62l-.6 9.12a4.8 4.8 0 0 1-4.77 4.48z"/>
    <path stroke="#231f20" stroke-linecap="round" stroke-linejoin="round" stroke-width=".4" d="M51.65 230.24a3.6 3.6 0 1 0-7.17-.46l-.59 9.12a3.6 3.6 0 0 0 7.17.47zM47.16 243.92l-.36 5.62 8.98.59M207.27 35.77a1.58 1.58 0 1 0 0-3.15 1.58 1.58 0 0 0 0 3.15M202.95 37.26a1.58 1.58 0 1 0 0-3.16 1.58 1.58 0 0 0 0 3.16M198.63 38.75a1.58 1.58 0 1 0 0-3.15 1.58 1.58 0 0 0 0 3.15"/>
    <path stroke="#231f20" stroke-linecap="round" stroke-linejoin="round" stroke-width=".4" d="M198.63 41.96a4.8 4.8 0 0 1-1.57-9.32l8.65-2.98q.76-.26 1.56-.26a4.79 4.79 0 0 1 1.55 9.32l-8.64 2.98q-.76.27-1.56.26z"/>
    <path stroke="#231f20" stroke-linecap="round" stroke-linejoin="round" stroke-width=".4" d="M208.45 37.59a3.6 3.6 0 0 0-2.34-6.8l-8.64 2.98a3.6 3.6 0 0 0 2.34 6.8zM194.04 38.75l-5.28 1.82 2.93 8.51"/>
    <path stroke="#231f20" stroke-linejoin="round" stroke-width=".2" d="M196 276v-24.02l3.24 20.76zM196 276v-24.02l-3.26 20.76zM196 276h24l-20.76 3.24z"/>
    <path stroke="#231f20" stroke-linejoin="round" stroke-width=".2" d="M196 276h24l-20.76-3.26zM196 276v24l-3.26-20.76zM196 276v24l3.24-20.76zM196 276h-24.02l20.76-3.26zM196 276h-24.02l20.76 3.24zM209.7 262.28l-6.8 11.03-3.66-.57z"/>
    <path stroke="#231f20" stroke-linejoin="round" stroke-width=".2" d="m209.7 262.28-11.03 6.8.57 3.66zM209.7 289.7l-11.03-6.8.57-3.66z"/>
    <path stroke="#231f20" stroke-linejoin="round" stroke-width=".2" d="m209.7 289.7-6.8-11.03-3.66.57zM182.28 289.7l6.8-11.03 3.66.57z"/>
    <path stroke="#231f20" stroke-linejoin="round" stroke-width=".2" d="m182.28 289.7 11.03-6.8-.57-3.66zM182.28 262.28l11.03 6.8-.57 3.66z"/>
    <path stroke="#231f20" stroke-linejoin="round" stroke-width=".2" d="m182.28 262.28 6.8 11.03 3.66-.57zM196 274.48l3.04-3.05M196 272.98l2.84-2.85M196 271.47l2.63-2.65M196 269.96l2.43-2.44M196 268.45l2.22-2.23M196 266.94l2.02-2.03M196 265.43l1.82-1.82M196 263.92l1.61-1.62M196 262.42l1.4-1.42M196 260.9l1.2-1.2M196 259.4l1-1M196 257.9l.8-.8M196 256.38l.59-.6M196 254.88l.38-.4M196 253.37l.18-.19M196.74 276.74l.76-.75M197.5 277.5l1.5-1.5M200.47 279.05l3.06-3.06M202.26 278.77l2.78-2.78M204.05 278.5l2.5-2.5M205.84 278.21l2.22-2.22M207.62 277.93l1.94-1.94M209.41 277.65l1.66-1.66M211.19 277.38l1.39-1.39M212.99 277.09l1.1-1.1M214.78 276.8l.82-.8M216.57 276.53l.53-.54M218.36 276.25l.25-.26M191.43 279.04l3.05-3.05M190.13 278.84l2.85-2.85M188.82 278.63l2.65-2.64M187.52 278.43l2.44-2.44M186.22 278.22l2.23-2.23M184.91 278.02l2.03-2.03M183.61 277.82l1.82-1.83M182.3 277.6l1.62-1.6M181 277.4l1.42-1.4M179.7 277.2l1.2-1.2M178.4 277l1-1M177.1 276.8l.8-.8M175.79 276.59l.6-.6M174.48 276.38l.4-.39M173.18 276.18l.19-.19M183.14 288.84h.53M184.2 287.78h1.2M185.27 286.71h1.86M186.34 285.64h2.52M187.4 284.58h3.2M188.47 283.51h3.85M189.54 282.44h3.7M190.6 281.38h2.47M191.67 280.31h1.23M208.84 288.84h-.53M207.78 287.78h-1.2M206.71 286.71h-1.86M205.64 285.64h-2.52M204.58 284.58h-3.2M203.51 283.51h-3.85M202.44 282.44h-3.7M201.38 281.38h-2.47M200.31 280.31h-1.23M196 298.61l.25-.25M196 297.1l.53-.53M196 295.6l.8-.82M196 294.09l1.09-1.1M196 292.58l1.37-1.38M196 291.07l1.65-1.66M196 289.56l1.93-1.94M196 288.06l2.21-2.22M196 286.55l2.5-2.5M196 285.04l2.77-2.78M196 283.53l3.05-3.06M196 282.02l6.02-6.03M196 280.52l4.52-4.53M196 279l1.5-1.5M196 277.5l.74-.76M199.74 272.24h3.82M200.81 271.17h3.41M201.88 270.1h3M202.94 269.04h2.6M204 267.97h2.2M205.08 266.9h1.77M206.14 265.84h1.37M207.2 264.77h.96M208.28 263.7h.54M192.24 272.24h-3.82M191.17 271.17h-3.41M190.1 270.1h-3M189.04 269.04h-2.6M187.97 267.97h-2.18M186.9 266.9h-1.77M185.84 265.84h-1.36M184.77 264.77h-.95M183.7 263.7h-.54"/>
    <path fill="#231f20" d="M191.45 247.76h.9v-7.24h-.9v-.85h3.46l3.66 6.37h.08v-5.52h-.9v-.85h2.78v.85h-.88v8.09h-1.87l-4.36-7.44h-.07v6.6h.9v.84h-2.8z"/>
    <path stroke="#231f20" stroke-miterlimit="10" stroke-width=".2" d="M119.65 175.78q2.25-.38 4.52-.5c12.52-.63 24.77 4.06 37.3 4.26a52.7 52.7 0 0 0 32.46-10.64c8.06-6.14 14.26-14.54 22.66-20.2 6.94-4.67 15.09-7.24 23.41-8.38M101.05 320c-4.71-4.7-8.81-9.88-11.8-15.84-4.57-9.1-6.21-19.4-6.66-29.57s.21-20.35-.03-30.53c-.3-12.56-1.96-25.44 1.66-37.46 4.44-14.74 17.3-26.47 32.17-30.15M143.08 141.94a40 40 0 0 0 3.48 5.02c2.71 3.33 6.1 6.26 10.18 7.62 3.71 1.23 7.74 1.09 11.6.54 26.17-3.76 46.66-25.03 71.66-33.04M137.05 88.82c-.65 7.45-1.35 14.9-1.28 22.39.1 9.75 1.68 19.82 6.05 28.43M132.56 21.32c2.81 17.25 5.88 34.47 5.48 51.9q-.14 5.37-.58 10.73M129.47 0c.61 5.33 1.39 10.65 2.23 15.96M98.86 38.33q-.1 2.82-.25 5.63c-1.33 23.77-5.92 47.23-7.93 70.95-1.07 12.61-1.55 25.82-7.76 36.86-5.04 8.95-13.4 15.56-22.21 20.84-16.42 9.86-34.82 15.81-52.57 22.99q-4.09 1.65-8.14 3.42M95.92 0c2.1 10 2.98 20.31 3.04 30.62"/>
  </g>
  <defs>
    <clipPath id="a">
      <path fill="#fff" d="M0 0h240v320H0z"/>
    </clipPath>
  </defs>
</svg>
