<svg xmlns="http://www.w3.org/2000/svg" xml:space="preserve" width="512" height="512" style="enable-background:new 0 0 512 512" viewBox="0 0 682.667 682.667"><defs><clipPath id="a" clipPathUnits="userSpaceOnUse"><path d="M0 512h512V0H0Z" data-original="#000000" style="fill:#000"/></clipPath></defs><g clip-path="url(#a)" transform="matrix(1.33333 0 0 -1.33333 0 682.667)"><path fill="#F3F3F3" d="M0 0h-441.943a4.123 4.123 0 0 0-4.123 4.123v290.814H0a4.122 4.122 0 0 0 4.123-4.123V4.123A4.123 4.123 0 0 0 0 0" data-original="#f3f3f3" style="fill-opacity:1;fill-rule:nonzero;stroke:none;fill:#f3f0f0" transform="translate(507.877 25)"/><path fill="#E4E4E4" d="M0 0v-294.937h26.784a4.122 4.122 0 0 1 4.121 4.125V-4.125A4.122 4.122 0 0 1 26.784 0Z" data-original="#e4e4e4" style="fill-opacity:1;fill-rule:nonzero;stroke:none;fill:#e5e0e0" transform="translate(481.095 319.938)"/><path fill="#D67B42" d="M0 0v228.939h384.255a4.122 4.122 0 0 0 4.123-4.123V0a4.122 4.122 0 0 0-4.123-4.123H4.123A4.123 4.123 0 0 0 0 0" data-original="#d67b42" style="fill-opacity:1;fill-rule:nonzero;stroke:none;fill:#c56e48" transform="translate(92.716 60.06)"/><path fill="#D2D2D2" d="M0 0h-441.943a4.123 4.123 0 0 0-4.123 4.123v290.814H0a4.122 4.122 0 0 0 4.123-4.123V4.123A4.123 4.123 0 0 0 0 0" data-original="#d2d2d2" style="fill-opacity:1;fill-rule:nonzero;stroke:none;fill:#d5cccc" transform="translate(476.972 108.531)"/><path fill="#BBB" d="M0 0v-294.937h26.784a4.122 4.122 0 0 1 4.121 4.125V-4.125A4.122 4.122 0 0 1 26.784 0Z" data-original="#bbbbbb" style="fill-opacity:1;fill-rule:nonzero;stroke:none;fill:#c0b3b3" transform="translate(450.19 403.469)"/><path fill="#29CEF6" d="M0 0v228.939h384.255a4.122 4.122 0 0 0 4.123-4.123V0a4.122 4.122 0 0 0-4.123-4.123H4.123A4.123 4.123 0 0 0 0 0" data-original="#29cef6" style="fill-opacity:1;fill-rule:nonzero;stroke:none;fill:#2bcfe8" transform="translate(61.811 143.592)"/><path fill="#F3F3F3" d="M0 0h-441.943a4.122 4.122 0 0 0-4.123 4.123v286.691a4.122 4.122 0 0 0 4.123 4.123H0a4.122 4.122 0 0 0 4.123-4.123V4.123A4.123 4.123 0 0 0 0 0" data-original="#f3f3f3" style="fill-opacity:1;fill-rule:nonzero;stroke:none;fill:#f3f0f0" transform="translate(446.066 192.063)"/><path fill="#E4E4E4" d="M0 0v-294.937h26.784a4.122 4.122 0 0 1 4.121 4.125V-4.125A4.123 4.123 0 0 1 26.784 0Z" data-original="#e4e4e4" style="fill-opacity:1;fill-rule:nonzero;stroke:none;fill:#e5e0e0" transform="translate(419.284 487)"/><path fill="#29CEF6" d="M0 0v224.816a4.122 4.122 0 0 0 4.123 4.123h380.133a4.123 4.123 0 0 0 4.123-4.123V0a4.124 4.124 0 0 0-4.123-4.123H4.123A4.123 4.123 0 0 0 0 0" data-original="#29cef6" style="fill-opacity:1;fill-rule:nonzero;stroke:none;fill:#2bcfe8" transform="translate(30.905 227.123)"/><path fill="#6DE470" d="M0 0c-6.15-20.264-21.5-38.569-26.651-59.658-2.977-12.179-2.482-25.111-6.469-37.001-12.455-37.032-61.533-46.314-84.166-13.468-7.273 11.065-9.302 24.925-16.514 36.022-10.528 16.221-30.823 24.688-39.538 41.951-4.976 9.848-5.388 21.161-3.379 32.154z" data-original="#6de470" style="fill-opacity:1;fill-rule:nonzero;stroke:none;fill:#6fd66f" transform="translate(275.872 456.063)"/><path fill="#45D987" d="M0 0c-6.15-20.264-21.5-38.569-26.651-59.658-2.977-12.179-2.483-25.111-6.469-37.001-5.274-15.68-17.113-26.383-30.731-31.021 23.656-8.376 52.499 3.855 61.636 31.021 3.987 11.89 3.492 24.822 6.469 37.001C9.405-38.569 24.755-20.264 30.905 0Z" data-original="#45d987" style="fill-opacity:1;fill-rule:nonzero;stroke:none;fill:#48cb7c" transform="translate(244.967 456.063)"/><path fill="#D67B42" d="M0 0c2.247-2.435 4.314-5.031 6.021-7.944 5.178-8.819 6.635-19.835 11.857-28.629 16.25-26.105 51.487-18.729 60.429 10.704C80.823-17.562 80.855-8.617 82.277 0z" data-original="#d67b42" style="fill-opacity:1;fill-rule:nonzero;stroke:none;fill:#c56e48" transform="translate(136.527 456.063)"/><path fill="#6DE470" d="M0 0v-139.724a4.124 4.124 0 0 0-4.121-4.125h-380.137a4.123 4.123 0 0 0-4.121 4.125v154.46c20.666-3.299 36.85-19.191 48.006-39.321 9.87-17.799 16.453-37.414 27.847-54.275 11.393-16.871 29.422-31.257 49.757-30.731 21.902.567 39.961 17.81 61.461 22.048 21.953 4.321 43.885-5.352 65.612-10.735 21.726-5.394 48.779-4.579 61.461 13.87 11.321 16.479 5.892 39.466 13.814 57.822C-50.948-4.642-23.228 5.438-.006.006L0 0" data-original="#6de470" style="fill-opacity:1;fill-rule:nonzero;stroke:none;fill:#6fd66f" transform="translate(419.284 366.85)"/><path fill="#45D987" d="M0 0c9.869-17.799 16.452-37.414 27.846-54.275C39.24-71.146 57.268-85.532 77.604-85.006c5.072.131 9.937 1.164 14.688 2.715C78.729-77.397 67-66.49 58.751-54.275 47.357-37.414 40.774-17.799 30.905 0 19.749 20.13 3.564 36.021-17.101 39.321V22.91C-10.504 16.493-4.788 8.639 0 0" data-original="#45d987" style="fill-opacity:1;fill-rule:nonzero;stroke:none;fill:#48cb7c" transform="translate(48.006 342.264)"/><path fill="#45D987" d="M0 0c-10.072 2.356-20.99 1.789-30.9-1.394V-139.73a4.122 4.122 0 0 0-4.121-4.125h30.906a4.123 4.123 0 0 1 4.121 4.125V-.006L0 0" data-original="#45d987" style="fill-opacity:1;fill-rule:nonzero;stroke:none;fill:#48cb7c" transform="translate(419.278 366.856)"/><path fill="#FFD54F" d="M0 0v-55.203c-13.949-7.548-30.411-9.312-46.102-12.334-59.328-10.467-43.36-44.261-68.794-49.654-6.872-.681-13.445 3.991-16.813 10.024-3.379 6.032-4.11 13.179-4.183 20.088-.226 21.337 5.223 42.715 15.66 61.329 5.789 10.323 12.938 19.79 19.078 29.875h97.033A4.124 4.124 0 0 0 0 0" data-original="#ffd54f" style="fill-opacity:1;fill-rule:nonzero;stroke:none;fill:#f2c751" transform="translate(419.284 451.938)"/><path fill="#FFC328" d="M0 0h-30.905a4.123 4.123 0 0 0 4.12-4.125v-28.527c0-17.688-12.609-32.823-29.975-36.09-5.378-1.012-10.797-1.893-16.126-2.92-42.831-7.556-46.42-27.27-54.674-39.678 3.377-6.01 9.932-10.655 16.785-9.976 25.434 5.393 9.466 39.187 68.795 49.654 15.69 3.022 32.152 4.786 46.101 12.334v55.203A4.124 4.124 0 0 1 0 0" data-original="#ffc328" style="fill-opacity:1;fill-rule:nonzero;stroke:none;fill:#f0b62b" transform="translate(415.163 456.063)"/><path fill="#F3F3F3" d="M0 0a7.5 7.5 0 1 1-13.544-6.446c2.499-5.251 5.438-10.022 8.734-14.181a7.487 7.487 0 0 1 5.883-2.842 7.5 7.5 0 0 1 5.872 12.16C4.351-8.036 2.014-4.231 0 0" data-original="#f3f3f3" style="fill-opacity:1;fill-rule:nonzero;stroke:none;fill:#f3f0f0" transform="translate(135.284 328.283)"/><path fill="#F3F3F3" d="M0 0a399.122 399.122 0 0 1-8.362 12.818A7.498 7.498 0 0 1-18.78 14.81a7.5 7.5 0 0 1-1.992-10.418 383.654 383.654 0 0 0 8.046-12.333 7.495 7.495 0 0 1 10.334-2.392A7.5 7.5 0 0 1 0 0" data-original="#f3f3f3" style="fill-opacity:1;fill-rule:nonzero;stroke:none;fill:#f3f0f0" transform="translate(120.459 355.349)"/><path fill="#F3F3F3" d="M0 0a7.5 7.5 0 0 1-11.533-9.591c.037-.044 3.746-4.513 9.16-11.564a7.487 7.487 0 0 1 5.954-2.933c1.594 0 3.2.506 4.562 1.552A7.499 7.499 0 0 1 9.524-12.02C3.917-4.716.158-.189 0 0" data-original="#f3f3f3" style="fill-opacity:1;fill-rule:nonzero;stroke:none;fill:#f3f0f0" transform="translate(84.7 404.868)"/><path fill="#F3F3F3" d="M0 0c-4.522.105-8.817.767-12.767 1.967a7.5 7.5 0 0 1-4.361-14.351c5.251-1.596 10.896-2.475 16.778-2.612.06-.002.119-.002.179-.002A7.5 7.5 0 0 1 0 0" data-original="#f3f3f3" style="fill-opacity:1;fill-rule:nonzero;stroke:none;fill:#f3f0f0" transform="translate(175.57 300.725)"/><path fill="#F3F3F3" d="M0 0a164.825 164.825 0 0 1-15.136 4.253 7.5 7.5 0 1 1-3.363-14.618 149.82 149.82 0 0 0 13.753-3.864 7.483 7.483 0 0 1 2.374-.388A7.5 7.5 0 0 1 0 0" data-original="#f3f3f3" style="fill-opacity:1;fill-rule:nonzero;stroke:none;fill:#f3f0f0" transform="translate(309.174 311.418)"/><path fill="#F3F3F3" d="M0 0c-.936-.392-1.872-.799-2.805-1.221A123.467 123.467 0 0 0-13.44-5.472a7.502 7.502 0 0 1 2.443-14.593c.81 0 1.635.132 2.444.411A139.008 139.008 0 0 1 3.38-14.887c.802.364 1.605.713 2.408 1.049A7.5 7.5 0 0 1 0 0" data-original="#f3f3f3" style="fill-opacity:1;fill-rule:nonzero;stroke:none;fill:#f3f0f0" transform="translate(215.79 310.918)"/><path fill="#F3F3F3" d="M0 0c-5.317.08-10.738-.166-15.911-.734a7.5 7.5 0 0 1 1.64-14.911c4.553.501 9.338.719 14.039.647l.118-.001A7.5 7.5 0 0 1 0 0" data-original="#f3f3f3" style="fill-opacity:1;fill-rule:nonzero;stroke:none;fill:#f3f0f0" transform="translate(262.748 319.57)"/></g></svg>