<svg xmlns="http://www.w3.org/2000/svg" xml:space="preserve" width="512" height="512" style="enable-background:new 0 0 512 512"><path fill="#5A5A5A" d="M61 15v96H31V15c0-8.28 6.72-15 15-15s15 6.72 15 15z" data-original="#5a5a5a" style="fill:#615050"/><path fill="#444" d="M481 15v96h-30V15c0-8.28 6.72-15 15-15s15 6.72 15 15z" data-original="#444444" style="fill:#493c3c"/><path fill="#E7E7E7" d="M497 106H15c-8.284 0-15 6.716-15 15v376c0 8.284 6.716 15 15 15h482c8.284 0 15-6.716 15-15V121c0-8.284-6.716-15-15-15z" data-original="#e7e7e7" style="fill:#e8e3e3"/><path fill="#D3D3D8" d="M512 121v376c0 8.28-6.72 15-15 15H256V106h241c8.28 0 15 6.72 15 15z" data-original="#d3d3d8" style="fill:#d7cece"/><circle cx="256" cy="121" r="90" fill="#6AA8FF" data-original="#6aa8ff" style="fill:#70aee7"/><path fill="#0095FF" d="M346 121c0 49.63-40.37 90-90 90V31c49.63 0 90 40.37 90 90z" data-original="#0095ff" style="fill:#1aa1d3"/><circle cx="256" cy="121" r="60" fill="#E7E7E7" data-original="#e7e7e7" style="fill:#e8e3e3"/><path fill="#D3D3D8" d="M316 121c0 33.08-26.92 60-60 60V61c33.08 0 60 26.92 60 60z" data-original="#d3d3d8" style="fill:#d7cece"/><path fill="#444" d="M273.708 85.583c-7.409-3.705-16.42-.701-20.125 6.708L246.729 106H236c-8.284 0-15 6.716-15 15s6.716 15 15 15h20c5.682 0 10.875-3.21 13.417-8.292l11-22c3.704-7.41.701-16.419-6.709-20.125z" data-original="#444444" style="fill:#493c3c"/><path fill="#282828" d="m280.42 105.71-11 22A15.008 15.008 0 0 1 256 136V88.79c4.43-4.76 11.61-6.26 17.71-3.21 7.41 3.71 10.41 12.72 6.71 20.13zM389.251 241h-90c-8.284 0-15 6.716-15 15s6.716 15 15 15h90c8.284 0 15-6.716 15-15s-6.716-15-15-15zM389.251 301h-90c-8.284 0-15 6.716-15 15s6.716 15 15 15h90c8.284 0 15-6.716 15-15s-6.716-15-15-15zM389.251 361h-90c-8.284 0-15 6.716-15 15s6.716 15 15 15h90c8.284 0 15-6.716 15-15s-6.716-15-15-15zM389.251 421h-90c-8.284 0-15 6.716-15 15s6.716 15 15 15h90c8.284 0 15-6.716 15-15s-6.716-15-15-15zM434.251 271h30c8.284 0 15-6.716 15-15s-6.716-15-15-15h-30c-8.284 0-15 6.716-15 15s6.716 15 15 15zM464.251 301h-30c-8.284 0-15 6.716-15 15s6.716 15 15 15h30c8.284 0 15-6.716 15-15s-6.716-15-15-15zM464.251 361h-30c-8.284 0-15 6.716-15 15s6.716 15 15 15h30c8.284 0 15-6.716 15-15s-6.716-15-15-15zM464.251 421h-30c-8.284 0-15 6.716-15 15s6.716 15 15 15h30c8.284 0 15-6.716 15-15s-6.716-15-15-15z" data-original="#282828" style="fill:#2a2323"/><path fill="#FF193D" d="M207.02 286.03v90l-15 15 15 15v30c0 8.29-6.71 15-15 15h-135c-8.28 0-15-6.71-15-15v-30l15-14.53-15-15.47v-90c0-24.81 20.19-45 45-45h75c24.82 0 45 20.19 45 45z" data-original="#ff193d" style="fill:#dc2b5d"/><path fill="#6AA8FF" d="M177.02 286.03v57.77l-52.5-7.8-52.5 7.8v-57.77c0-8.27 6.73-15 15-15h75c8.27 0 15 6.73 15 15z" data-original="#6aa8ff" style="fill:#70aee7"/><g fill="#FFD400" style="fill:#d3a11a"><path d="M102.02 391.03c0 8.29-6.71 15-15 15h-45v-30h45c8.29 0 15 6.72 15 15zM207.02 376.03v30h-45c-8.28 0-15-6.71-15-15 0-8.28 6.72-15 15-15z" data-original="#ffd400" style="fill:#d3a11a"/></g></svg>