<svg xmlns="http://www.w3.org/2000/svg" xml:space="preserve" id="svg15" width="512" height="512" x="0" y="0" version="1.1"><style id="style1" type="text/css">.st1{display:inline;fill:none;stroke:#1d1d1b;stroke-width:20;stroke-linecap:round;stroke-miterlimit:10}.st2{fill:#1d1d1b}.st3{fill:#786abf}.st4{fill:#c7b2de}</style><g id="Calque_3" transform="translate(-263.995 -245.944) scale(.98103)"><g id="g4"><path id="path4" d="M619.6 392.7H333c-5.5 0-10-4.5-10-10s4.5-10 10-10h286.6c5.5 0 10 4.5 10 10s-4.5 10-10 10z" class="st2"/></g><g id="g5"><path id="path5" d="M488.6 656.7H323v-111c0-5.5 4.5-10 10-10s10 4.5 10 10v91h145.6c5.5 0 10 4.5 10 10s-4.4 10-10 10z" class="st2"/></g><g id="g6"><path id="path6" d="M723 656.7H542.1c-5.5 0-10-4.5-10-10s4.5-10 10-10H703V476.1c0-5.5 4.5-10 10-10s10 4.5 10 10z" class="st2"/></g><g id="g7"><path id="path7" d="M712.6 718.7H335.4c-16.2 0-31.3-9.4-38.3-24l-28-58h239.6c5.5 0 10 4.5 10 10s-4.5 10-10 10H300.9l14.2 29.2c3.7 7.7 11.7 12.8 20.3 12.8h377.1c8.6 0 16.6-5 20.3-12.8l14.2-29.2H542.1c-5.5 0-10-4.5-10-10s4.5-10 10-10h236.8l-28 58c-7.1 14.6-22.1 24-38.3 24z" class="st2"/></g><g id="g8"><path id="path8" d="M699.8 487.2c-50.3 0-91.3-40.9-91.3-91.3s40.9-91.3 91.3-91.3 91.2 41 91.2 91.4c0 50.4-40.9 91.2-91.2 91.2zm0-162.5c-39.3 0-71.3 32-71.3 71.3s32 71.3 71.3 71.3 71.3-32 71.3-71.3-32.1-71.3-71.3-71.3z" class="st3"/></g><g id="g9"><path id="path9" d="M445.1 555.7h-166v-126h166zm-146-20h126v-86h-126z" class="st3"/></g><g id="g10"><path id="path10" d="M564 611.2c-35.6 0-64.5-28.9-64.5-64.5s28.9-64.5 64.5-64.5 64.5 28.9 64.5 64.5-28.9 64.5-64.5 64.5zm0-109c-24.5 0-44.5 20-44.5 44.5s20 44.5 44.5 44.5 44.5-20 44.5-44.5-20-44.5-44.5-44.5z" class="st4"/></g><g id="g11"><path id="path11" d="M333.5 476.2c-5.5 0-10-4.5-10-10v-50.7c0-5.5 4.5-10 10-10s10 4.5 10 10v50.7c0 5.5-4.5 10-10 10z" class="st3"/></g><g id="g12"><path id="path12" d="M390.8 476.2c-5.5 0-10-4.5-10-10v-50.7c0-5.5 4.5-10 10-10s10 4.5 10 10v50.7c0 5.5-4.5 10-10 10z" class="st3"/></g><g id="g13"><path id="path13" d="m559.2 577.9-23.7-23.7c-3.9-3.9-3.9-10.2 0-14.1 3.9-3.9 10.2-3.9 14.1 0l8.1 8.1 20-24.2c3.5-4.3 9.8-4.9 14.1-1.4 4.3 3.5 4.9 9.8 1.4 14.1z" class="st4"/></g><g id="g14"><path id="path14" d="M717 417h-48.3c-5.5 0-10-4.5-10-10s4.5-10 10-10H697v-47.3c0-5.5 4.5-10 10-10s10 4.5 10 10z" class="st3"/></g><g id="g15"><path id="path15" d="M406.1 505.5h-10c-5.5 0-10-4.5-10-10s4.5-10 10-10h10c5.5 0 10 4.5 10 10s-4.4 10-10 10zm-40 0h-10c-5.5 0-10-4.5-10-10s4.5-10 10-10h10c5.5 0 10 4.5 10 10s-4.4 10-10 10zm-40 0h-10c-5.5 0-10-4.5-10-10s4.5-10 10-10h10c5.5 0 10 4.5 10 10s-4.4 10-10 10z" class="st3"/></g></g></svg>