<svg xmlns="http://www.w3.org/2000/svg" xml:space="preserve" width="512" height="512" style="enable-background:new 0 0 512 512" viewBox="0 0 464 463"><path fill="#ACABB1" d="M432 384.129H0v32c.027 8.824 7.176 15.973 16 16h432c8.824-.027 15.973-7.176 16-16v-32zm0 0" data-original="#acabb1" style="fill:#b4a5a5"/><path fill="#78B9EB" d="M400 80.129H64c-17.672 0-32 14.324-32 32v272h400v-272c0-17.676-14.328-32-32-32zm0 0" data-original="#78b9eb" style="fill:#78b7df"/><path fill="#FFA733" d="M464 88.129c0 48.598-39.398 88-88 88s-88-39.402-88-88c0-2.723.16-5.363.398-8 4.465-46.688 44.758-81.672 91.606-79.54C426.855 2.728 463.8 41.228 464 88.13zm0 0" data-original="#ffa733" style="fill:#666"/><path fill="#FF5023" d="M389.84 80.129c-4.027-6.945-12.582-9.832-19.992-6.742-7.41 3.086-11.387 11.187-9.293 18.941 2.09 7.75 9.605 12.75 17.562 11.688 7.957-1.063 13.899-7.86 13.883-15.887a15.978 15.978 0 0 0-2.16-8zm0 0" data-original="#ff5023" style="fill:#ffe680"/><path fill="#FFA733" d="M32 168.129H0v88a8 8 0 0 0 8 8h144a8 8 0 0 0 8-8v-88zm0 0" data-original="#ffa733" style="fill:#ffb380"/><path fill="#FF5023" d="M152 136.129H8a8 8 0 0 0-8 8v24h160v-24a8 8 0 0 0-8-8zm0 0" data-original="#ff5023" style="fill:#f13e26"/><path fill="#FFD422" d="M328 264.129c0 30.926-25.07 56-56 56s-56-25.074-56-56c0-30.93 25.07-56 56-56s56 25.07 56 56zm0 0" data-original="#ffd422" style="fill:#71c837"/><path fill="#898890" d="M272 384.129v16a8 8 0 0 1-8 8h-64a8 8 0 0 1-8-8v-16zm0 0" data-original="#898890" style="fill:#958080"/><path fill="#FF6243" d="M368 32.129h16v40h-16zm-40 48h32v16h-32zm0 0" data-original="#ff6243" style="fill:#fd5"/><path fill="#FF9811" d="M104 120.129h16v32h-16zm-64 0h16v32H40zm0 0" data-original="#ff9811" style="fill:#f07715"/><path fill="#CC7400" d="M24 192.129h16v16H24zm32 0h16v16H56zm32 0h16v16H88zm32 0h16v16h-16zm-96 32h16v16H24zm32 0h16v16H56zm32 0h16v16H88zm32 0h16v16h-16zm0 0" data-original="#cc7400" style="fill:#ba5b07"/><path fill="#1E81CE" d="M72 344.129h320v16H72zm0 0" data-original="#1e81ce" style="fill:#2681bb"/><path fill="#ED1C24" d="M264 288.129a8.017 8.017 0 0 1-5.656-2.344l-16-16 11.312-11.312L264 268.816l26.344-26.343 11.312 11.312-32 32A8.017 8.017 0 0 1 264 288.13zm0 0" data-original="#ed1c24" style="fill:#fff"/><path fill="#FFA733" d="M152 328.129H88a8 8 0 0 1-8-8v-32h16v24h56zm16-16h16v16h-16zm32 0h16v16h-16zm176-40h-24v-16h16v-56h16v64a8 8 0 0 1-8 8zm0 0" data-original="#ffa733" style="fill:#666"/><path fill="#1E81CE" d="M200 152.129h16v16h-16zm32 0h16v16h-16zm32 0h16v16h-16zm0 0" data-original="#1e81ce" style="fill:#2681bb"/><path fill="#ED1C24" d="M376 112.129c-13.254 0-24-10.746-24-24 0-13.258 10.746-24 24-24s24 10.742 24 24c0 13.254-10.746 24-24 24zm0-32a8 8 0 1 0 0 16 8 8 0 0 0 0-16zm0 0" data-original="#ed1c24" style="fill:#fc0"/></svg>