<svg xmlns="http://www.w3.org/2000/svg" xml:space="preserve" id="svg22" width="512" height="512" x="0" y="0" version="1.1"><style id="style1" type="text/css">.st1{display:inline;fill:none;stroke:#1d1d1b;stroke-width:20;stroke-linecap:round;stroke-miterlimit:10}.st2{fill:#c7b2de}.st3{fill:#786abf}.st4{fill:#fff}</style><g id="Calque_3" transform="matrix(1.13224 0 0 1.13224 -351.562 -334.295)"><g id="g16"><g id="g4"><path id="path4" d="M366.4 682.7c-23.9 0-43.4-19.5-43.4-43.4 0-5.5 4.5-10 10-10s10 4.5 10 10c0 12.9 10.5 23.4 23.4 23.4 12.9 0 23.4-10.5 23.4-23.4 0-5.5 4.5-10 10-10s10 4.5 10 10c-.1 24-19.5 43.4-43.4 43.4z" class="st2"/></g><g id="g5"><path id="path5" d="M453.7 682.7c-23.9 0-43.4-19.5-43.4-43.4 0-5.5 4.5-10 10-10s10 4.5 10 10c0 12.9 10.5 23.4 23.4 23.4 12.9 0 23.4-10.5 23.4-23.4 0-5.5 4.5-10 10-10s10 4.5 10 10c-.1 24-19.5 43.4-43.4 43.4z" class="st2"/></g><g id="g6"><path id="path6" d="M565.5 682.7c-23.9 0-43.4-19.5-43.4-43.4 0-5.5 4.5-10 10-10s10 4.5 10 10c0 12.9 10.5 23.4 23.4 23.4 12.9 0 23.4-10.5 23.4-23.4 0-5.5 4.5-10 10-10s10 4.5 10 10c0 24-19.5 43.4-43.4 43.4z" class="st2"/></g><g id="g7"><path id="path7" d="M652.9 682.7c-23.9 0-43.4-19.5-43.4-43.4 0-5.5 4.5-10 10-10s10 4.5 10 10c0 12.9 10.5 23.4 23.4 23.4 12.9 0 23.4-10.5 23.4-23.4 0-5.5 4.5-10 10-10s10 4.5 10 10c-.1 24-19.5 43.4-43.4 43.4z" class="st2"/></g><g id="g8"><path id="path8" d="M532.2 560H320.5c-5.5 0-10-4.5-10-10s4.5-10 10-10h211.7c5.5 0 10 4.5 10 10s-4.5 10-10 10z" class="st3"/></g><g id="g9"><path id="path9" d="M679.5 649.4h-359c-5.5 0-10-4.5-10-10s4.5-10 10-10h359c17.3 0 30.2-5 38.2-14.8 13.4-16.3 11.3-42.7 10.2-51.3l-3.3-3.3h-99.3c-5.5 0-10-4.5-10-10s4.5-10 10-10h107.6l13.6 13.6.6 3c.4 1.8 8.4 43.5-13.9 70.7-12.1 14.6-30.1 22.1-53.7 22.1z" class="st3"/></g><g id="g10"><path id="path10" d="M622.6 453.8c-2.6 0-5.1-1-7.1-2.9l-7.2-7.2H320.5c-5.5 0-10-4.5-10-10s4.5-10 10-10h296.1l13.1 13.1c3.9 3.9 3.9 10.2 0 14.1-2 2-4.6 2.9-7.1 2.9z" class="st4"/></g><g id="g11"><path id="path11" d="M495.2 528h-69v-67.7h69c5.5 0 10 4.5 10 10s-4.5 10-10 10h-49V508h49c5.5 0 10 4.5 10 10s-4.5 10-10 10z" class="st2"/></g><g id="g12"><path id="path12" d="M529.6 528c-5.5 0-10-4.5-10-10v-57.7h59.6c5.5 0 10 4.5 10 10s-4.5 10-10 10h-39.6V518c0 5.6-4.5 10-10 10z" class="st2"/></g><g id="g13"><path id="path13" d="M720.9 528h-63.5c-5.5 0-10-4.5-10-10s4.5-10 10-10h15.2l-2.5-2.5c-3.9-3.9-3.9-10.2 0-14.1 3.9-3.9 10.2-3.9 14.1 0z" class="st2"/></g><g id="g14"><path id="path14" d="M403.7 528h-66.2v-67.7h66.2c5.5 0 10 4.5 10 10s-4.5 10-10 10h-46.2V508h46.2c5.5 0 10 4.5 10 10s-4.5 10-10 10z" class="st2"/></g><g id="g15"><path id="path15" d="M737.1 596.9h-36.8c-5.5 0-10-4.5-10-10s4.5-10 10-10h36.8c5.5 0 10 4.5 10 10s-4.5 10-10 10z" class="st3"/></g></g><g id="g22"><g id="g17"><path id="path16" d="M725.2 460.7c-2.6 0-5.1-1-7.1-2.9-3.9-3.9-3.9-10.2 0-14.1l16.3-16.2-39.3-39.3c-3.9 3.8-10.2 3.8-14-.1-3.9-3.9-3.9-10.2 0-14.1l14-14 67.6 67.6-30.5 30.4c-1.9 1.7-4.5 2.7-7 2.7z" class="st3"/></g><g id="g18"><path id="path17" d="M696.4 489.3c-2.6 0-5.1-1-7.1-2.9-3.9-3.9-3.9-10.2 0-14.1l10.8-10.7c3.9-3.9 10.2-3.9 14.1 0 3.9 3.9 3.9 10.2 0 14.1l-10.8 10.7c-1.9 1.9-4.4 2.9-7 2.9z" class="st2"/></g><g id="g19"><path id="path18" d="m516.4 604.1 9-74.5 91.3-91.3c3.9-3.9 10.2-3.9 14.1 0 3.9 3.9 3.9 10.2 0 14.1l-86.4 86.4-5.1 42.5 45.6-5.2 85.7-85.2c3.9-3.9 10.2-3.9 14.1 0 3.9 3.9 3.9 10.2 0 14.1L594 595.2Z" class="st4"/></g><g id="g20"><path id="path19" d="M642.1 437c-2.6 0-5.1-1-7.1-2.9-3.9-3.9-3.9-10.2 0-14.1l25.1-25.1c3.9-3.9 10.2-3.9 14.1 0 3.9 3.9 3.9 10.2 0 14.1l-25.1 25.1c-1.8 1.9-4.4 2.9-7 2.9z" class="st2"/></g><g id="g21"><path id="path20" d="M589.5 595.7c-2.5 0-4.9-.9-6.9-2.7l-24.8-23.4c-4-3.8-4.2-10.1-.4-14.1 3.8-4 10.1-4.2 14.1-.4l24.8 23.4c4 3.8 4.2 10.1.4 14.1-1.9 2-4.6 3.1-7.2 3.1z" class="st4"/></g></g></g></svg>