<svg xmlns="http://www.w3.org/2000/svg" xml:space="preserve" id="svg15" width="512" height="512" x="0" y="0" version="1.1"><style id="style1" type="text/css">.st1{display:inline;fill:none;stroke:#1d1d1b;stroke-width:20;stroke-linecap:round;stroke-miterlimit:10}.st2{fill:#786abf}.st3{fill:#fff}</style><g id="Calque_3" transform="matrix(1.12527 0 0 1.12527 -357.275 -334.665)"><g id="g4"><path id="path4" d="M750.3 717.8c-3 0-5.9-1.3-7.9-3.8l-57.9-74h-60.3l-92.6-93.9c-3.9-3.9-3.8-10.3.1-14.1 3.9-3.9 10.3-3.8 14.1.1l86.7 88h61.6l63.9 81.6c3.4 4.3 2.6 10.6-1.7 14-1.6 1.4-3.8 2.1-6 2.1z" class="st2"/></g><g id="g5"><path id="path5" d="M710.9 366.5c-1.8 0-3.7-.5-5.4-1.6-4.6-3-6-9.2-3-13.8l17.1-26.7c3-4.6 9.2-6 13.8-3 4.6 3 6 9.2 3 13.8l-17.1 26.7c-1.9 3-5.2 4.6-8.4 4.6z" class="st3"/></g><g id="g6"><path id="path6" d="M348.1 717.8c-1.8 0-3.6-.5-5.2-1.5-4.7-2.9-6.2-9-3.3-13.7l55.4-91.1h70.1L512 529h31.6c5.5 0 10 4.5 10 10s-4.5 10-10 10h-20l-46.9 82.5h-70.5L356.7 713c-1.9 3.1-5.2 4.8-8.6 4.8z" class="st3"/></g><g id="g7"><path id="path7" d="M762.5 549.1h-70L665 519.3c-3.7-4.1-3.5-10.4.6-14.1 4.1-3.8 10.4-3.5 14.1.6l21.5 23.3h61.3c5.5 0 10 4.5 10 10s-4.5 10-10 10z" class="st2"/></g><g id="g8"><path id="path8" d="M655.3 504.1c-2.7 0-5.4-1.1-7.3-3.2l-18.6-20.1c-3.7-4.1-3.5-10.4.6-14.1 4.1-3.8 10.4-3.5 14.1.6l18.6 20.1c3.7 4.1 3.5 10.4-.6 14.1-1.9 1.7-4.4 2.6-6.8 2.6z" class="st2"/></g><g id="g9"><path id="path9" d="M618.1 463.8c-2.7 0-5.4-1.1-7.3-3.2l-10.1-10.9H477.5c-5.5 0-10-4.5-10-10s4.5-10 10-10h131.9l16 17.3c3.7 4.1 3.5 10.4-.6 14.1-1.9 1.8-4.3 2.7-6.7 2.7z" class="st2"/></g><g id="g10"><path id="path10" d="M455.6 439.8c-2.8 0-5.5-1.1-7.5-3.4l-55.7-62.7h-64.9c-5.5 0-10-4.5-10-10s4.5-10 10-10h73.9l61.7 69.4c3.7 4.1 3.3 10.4-.8 14.1-2 1.7-4.4 2.6-6.7 2.6z" class="st2"/></g><g id="g11"><path id="path11" d="M485 549.1h-43.7l-95.3-103c-3.8-4.1-3.5-10.4.5-14.1 4.1-3.8 10.4-3.5 14.1.5l89.3 96.5h35c5.5 0 10 4.5 10 10s-4.4 10.1-9.9 10.1z" class="st2"/></g><g id="g12"><path id="path12" d="M736.9 428.1c-.6 0-1.3-.1-2-.2-.6-.1-1.3-.3-1.9-.6-.6-.3-1.2-.6-1.7-.9-.5-.4-1.1-.8-1.5-1.2-.4-.4-.9-1-1.3-1.5s-.7-1.1-.9-1.7c-.3-.6-.4-1.2-.6-1.9-.2-.7-.2-1.3-.2-2 0-.6.1-1.3.2-2 .1-.6.3-1.3.6-1.9.3-.6.6-1.2.9-1.7.4-.5.8-1.1 1.3-1.5.5-.4 1-.9 1.5-1.3s1.1-.7 1.7-.9c.6-.3 1.2-.4 1.9-.6 1.3-.3 2.6-.3 3.9 0 .6.1 1.3.3 1.9.6.6.3 1.2.6 1.7.9.6.4 1.1.8 1.5 1.3.4.5.9 1 1.2 1.5.4.5.7 1.1.9 1.7.3.6.4 1.2.6 1.9.1.7.2 1.3.2 2s-.1 1.3-.2 2-.3 1.3-.6 1.9c-.3.6-.6 1.2-.9 1.7-.4.6-.8 1.1-1.2 1.5-.4.4-1 .9-1.5 1.2-.5.4-1.1.7-1.7.9-.6.3-1.2.4-1.9.6-.6.1-1.2.2-1.9.2z" style="fill:#c7b2de"/></g><g id="g13"><path id="path13" d="M530.8 625.8c-1.7 0-3.4-.4-5-1.3-4.8-2.8-6.4-8.9-3.7-13.7l20.7-35.8h74.7l94.8-138.6c3.1-4.6 9.3-5.7 13.9-2.6s5.7 9.3 2.6 13.9L628.1 595h-73.7l-14.9 25.8c-1.9 3.2-5.2 5-8.7 5z" class="st3"/></g><g id="g14"><path id="path14" d="M400.6 730c-1.8 0-3.6-.5-5.3-1.5-4.7-2.9-6.1-9.1-3.2-13.8l39.5-63.8h67.3l7.6-13.1c2.8-4.8 8.9-6.4 13.7-3.7 4.8 2.8 6.4 8.9 3.7 13.7l-13.4 23.1h-67.7l-33.6 54.3c-2 3.1-5.2 4.8-8.6 4.8z" class="st3"/></g><g id="g15"><path id="path15" d="M599.2 549.1h-55.6c-5.5 0-10-4.5-10-10s4.5-10 10-10h44.7l96.3-150.2c3-4.6 9.2-6 13.8-3 4.6 3 6 9.2 3 13.8z" class="st3"/></g></g></svg>