<svg xmlns="http://www.w3.org/2000/svg" xml:space="preserve" width="512" height="512" style="enable-background:new 0 0 512 512" viewBox="0 0 21.021 21.016"><g transform="matrix(1.10859 0 0 1.25343 -1.14 -1.982)"><rect width="18.952" height="16.768" x="1.034" y="1.579" ry="1.299" style="fill:#e6e6e6;stroke-width:.139274;stroke-linejoin:round"/><path fill="#59c5ef" d="M15.58 11.985H12.1a.327.327 0 0 0-.274.142l-2.563 3.677H5.986a.333.333 0 0 0-.275.144L4.024 18.35h.739L6.16 16.5h3.28a.333.333 0 0 0 .274-.14l2.56-3.679c.02-.032 3.873.093 3.685-.101l4.025-6.074V5.52Z" data-original="#59c5ef" style="fill:#7459ef;fill-opacity:1;stroke-width:1.05"/><path fill="#59c5ef" d="M7.366 10.822h3.48a.325.325 0 0 1 .274.145l2.564 3.741h3.277c.11 0 .213.053.275.144l1.486 3.498h-.74l-1.196-2.935h-3.28a.331.331 0 0 1-.274-.144l-2.56-3.741c-.02-.032-3.874.096-3.686-.102L1.034 5.057V4.054Z" data-original="#59c5ef" style="fill:#f87670;fill-opacity:1;stroke-width:1.0589"/><path fill="#79ccb8" d="m17.516 8.782-3.578-2.327a.357.357 0 0 0-.21-.06H7.396L4.114 3.218a.345.345 0 0 0-.258-.103l-2.827.009v.598l2.674-.009 3.285 3.182A.382.382 0 0 0 7.246 7h6.37l3.583 2.323a.418.418 0 0 0 .209.06h2.583v-.602Z" data-original="#79ccb8" style="stroke-width:.97953"/><path fill="#59c5ef" d="M13.563 10.601h-3.48a.327.327 0 0 0-.275.142l-2.563 3.67H3.968a.333.333 0 0 0-.275.141L2.258 18.35h.616l1.268-3.244h3.28c.108.002.21-.05.275-.14l2.56-3.67c.021-.032 3.873.093 3.685-.101l6.043-6.264v-.985Z" data-original="#59c5ef" style="stroke-width:1.04869"/></g></svg>