<svg xmlns="http://www.w3.org/2000/svg" xml:space="preserve" width="512" height="512" style="enable-background:new 0 0 512 512" viewBox="0 0 21.021 21.016"><defs><clipPath id="a" clipPathUnits="userSpaceOnUse"><path d="M0-.002h21.021v21.021H0z" style="fill:#999;fill-opacity:1;stroke-width:.0622164;stroke-linecap:round;stroke-linejoin:round;stroke-opacity:.377442;paint-order:markers stroke fill;stop-color:#000"/></clipPath></defs><g clip-path="url(#a)"><path fill="#e2e2e2" d="M0 0h21.021v21.016H0Z" data-original="#e2e2e2"/><path fill="#59c5ef" d="M16.134 13.041h-3.86a.366.426 0 0 0-.304.178l-2.843 4.61H5.492a.373.434 0 0 0-.305.179l-2.955 4.787.614.52 2.84-4.614h3.638a.373.434 0 0 0 .304-.176l2.84-4.611c.023-.04 4.296.116 4.087-.127l6.703-7.872V4.678Z" data-original="#59c5ef" style="fill:#7459ef;fill-opacity:1;stroke-width:1.23807"/><path fill="#59c5ef" d="M7.023 11.584h3.86a.366.434 0 0 1 .304.181l2.844 4.69h3.634a.373.442 0 0 1 .305.18l2.955 4.869-.614.528-2.84-4.692h-3.638a.373.442 0 0 1-.304-.179l-2.84-4.69c-.022-.04-4.296.12-4.087-.128L-.101 4.337V3.08z" data-original="#59c5ef" style="fill:#f87670;fill-opacity:1;stroke-width:1.24856"/><path fill="#79ccb8" d="m18.281 9.026-3.968-2.917a.36.354 0 0 0-.233-.076H7.056l-3.64-3.979a.36.356 0 0 0-.286-.13H.012v.749H2.96l3.644 3.989a.397.391 0 0 0 .286.132h7.065l3.974 2.912a.42.414 0 0 0 .232.074h2.865v-.754Z" data-original="#79ccb8" style="stroke-width:1.15497"/><path fill="#59c5ef" d="M13.897 11.307h-3.861a.366.425 0 0 0-.304.178l-2.843 4.599H3.254a.373.433 0 0 0-.305.177l-2.955 4.775.614.519 2.84-4.602h3.638a.373.433 0 0 0 .304-.176l2.84-4.599c.023-.04 4.296.116 4.087-.127L21.02 4.2V2.965Z" data-original="#59c5ef" style="stroke-width:1.23652"/></g></svg>