<svg height="512" viewBox="0 0 58 58" width="512" xmlns="http://www.w3.org/2000/svg"><g id="Page-1" fill="none" fill-rule="evenodd"><g id="015---Train-Times" fill-rule="nonzero"><path id="Shape" d="m8 19c-.55228475 0-1-.4477153-1-1v-13c0-.55228475.44771525-1 1-1s1 .44771525 1 1v13c0 .5522847-.44771525 1-1 1z" fill="#95a5a5"/><path id="Shape" d="m50 19c-.5522847 0-1-.4477153-1-1v-13c0-.55228475.4477153-1 1-1s1 .44771525 1 1v13c0 .5522847-.4477153 1-1 1z" fill="#95a5a5"/><path id="Shape" d="m43.957 18h10.043c2.209139 0 4 1.790861 4 4v32c0 2.209139-1.790861 4-4 4h-50c-2.209139 0-4-1.790861-4-4v-32c0-2.209139 1.790861-4 4-4h10.043c.5316563-.0053579.9661646-.4258073.989-.957.4976663-7.34795899 6.6032072-13.05396829 13.968-13.05396829s13.4703337 5.7060093 13.968 13.05396829c.0228354.5311927.4573437.9516421.989.957z" fill="#f29c1f"/><rect id="Rectangle-path" fill="#464f5d" height="20" rx="1" width="48" x="5" y="33"/><path id="Shape" d="m39 18c.0001033 4.5707577-3.0989261 8.5598407-7.5278052 9.689821s-9.0602339-.8867793-11.2499536-4.8988801-1.3804098-8.9982601 1.9658824-12.1118037c3.3462922-3.11354361 8.3777659-3.56191709 12.2218764-1.0891372 2.8585269 1.8423134 4.5869591 5.0092228 4.59 8.41z" fill="#ecf0f1"/><path id="Shape" d="m36 15c-.0000827 3.6585465-1.9980599 7.0250083-5.2094833 8.7776411-3.2114235 1.7526328-7.1235965 1.6116325-10.2005167-.3676411-2.5451344-3.9572455-1.9874078-9.1534614 1.3395654-12.4804346 3.3269732-3.32697318 8.5231891-3.88469984 12.4804346-1.3395654 1.0420074 1.6116339 1.5943103 3.4908531 1.59 5.41z" fill="#fff"/><g fill="#e57e25"><path id="Shape" d="m4 26c-.55228475 0-1-.4477153-1-1v-3c0-.5522847.44771525-1 1-1h6c.5522847 0 1 .4477153 1 1s-.4477153 1-1 1h-5v2c0 .5522847-.44771525 1-1 1z"/><path id="Shape" d="m54 26c-.5522847 0-1-.4477153-1-1v-2h-5c-.5522847 0-1-.4477153-1-1s.4477153-1 1-1h6c.5522847 0 1 .4477153 1 1v3c0 .5522847-.4477153 1-1 1z"/><path id="Shape" d="m29 29c-6.0751322 0-11-4.9248678-11-11s4.9248678-11 11-11 11 4.9248678 11 11c-.0071635 6.0721626-4.9278374 10.9928365-11 11zm0-20c-4.9705627 0-9 4.0294373-9 9s4.0294373 9 9 9 9-4.0294373 9-9c-.006061-4.9680501-4.0319499-8.99393904-9-9z"/></g><path id="Shape" d="m32 21c-.1971916-.000153-.3899366-.0586028-.554-.168l-3-2c-.2784504-.1852954-.4458272-.4975318-.446-.832v-5c0-.5522847.4477153-1 1-1s1 .4477153 1 1v4.465l2.555 1.7c.3695261.2435001.5350608.7009224.4069451 1.124512-.1281157.4235897-.5194099.7125977-.9619451.710488z" fill="#606060"/><path id="Shape" d="m52 32h-46c-1.1045695 0-2 .8954305-2 2v18c0 1.1045695.8954305 2 2 2h46c1.1045695 0 2-.8954305 2-2v-18c0-1.1045695-.8954305-2-2-2zm-24 7v3h-14v-3zm7 0v3h-5v-3zm17 0v3h-15v-3zm-40 3h-6v-3h6zm-6 2h6v3h-6zm8 0h14v3h-14zm14 5v3h-14v-3zm2 0h5v3h-5zm0-2v-3h5v3zm7-3h15v3h-15zm-31-10h46v3h-46zm0 15h6v3h-6zm31 3v-3h15v3z" fill="#f9eab0"/><path id="Shape" d="m17 29h-9c-.55228475 0-1-.4477153-1-1s.44771525-1 1-1h9c.5522847 0 1 .4477153 1 1s-.4477153 1-1 1z" fill="#d25627"/><path id="Shape" d="m50 29h-9c-.5522847 0-1-.4477153-1-1s.4477153-1 1-1h9c.5522847 0 1 .4477153 1 1s-.4477153 1-1 1z" fill="#d25627"/><rect id="Rectangle-path" fill="#bdc3c7" height="5" rx="2" width="8" x="4"/><rect id="Rectangle-path" fill="#bdc3c7" height="5" rx="2" width="8" x="46"/></g></g></svg>