<svg xmlns="http://www.w3.org/2000/svg" xml:space="preserve" id="svg36" width="648.396" height="136.981" x="0" y="0" version="1.1"><defs id="defs1"><clipPath id="clipPath352" clipPathUnits="userSpaceOnUse"><path id="path352" d="M0 2660.42h1920V0H0Z" transform="translate(-1347.309 -923.346)"/></clipPath><filter id="filter2" width="1.06" height="1.06" x="-.03" y="-.03" style="color-interpolation-filters:sRGB"><feGaussianBlur id="feGaussianBlur2" stdDeviation="1.593"/></filter></defs><style id="style1" type="text/css">.st2{fill:#786abf}.st3{fill:#3d3935}</style><g id="g1" transform="translate(3.824)"><rect id="rect2" width="128" height="128" x="0" y="5.157" ry="16.444" style="opacity:.187133;fill:#000;stroke-width:1.78921;filter:url(#filter2)"/><path id="path351" d="M0 0h78.915l19.771-26.296 3.25-19.276v-45.82l-47.735-34.352H-.169l-23.64 28.814v52.564z" clip-path="url(#clipPath352)" style="fill:#fff;fill-opacity:1;fill-rule:nonzero;stroke:none" transform="matrix(1.01793 0 0 -1.01794 24.236 0)"/><g id="g36" transform="translate(-40.398 -34.818) scale(1.11595)"><g id="g29"><path id="path23" d="M74.7 114.6c-1.9 8.2-2.9 17-2.9 26.5v4.8h16.6c-2.8-13.2-7.8-23.4-13.7-31.3Z" class="st2"/><path id="path24" d="M36.2 88.7v19.9c3.1 1.2 6.3 2.7 9.5 4.6 8.5 5.2 15 12.6 19.4 21.8v-31c-3.4-3-6.9-5.5-10.3-7.5-6.5-3.8-12.9-6.2-18.6-7.8Z" class="st2"/><path id="path25" d="M71.8 101c4.3-11.2 10.6-21 19-29.3V31.2h-19z" class="st2"/><path id="path26" d="M77 106.5c5.3 6.2 10.1 13.8 13.7 23.3V81.7c-5.9 7.2-10.5 15.5-13.7 24.8Z" class="st2"/><path id="path27" d="M136.9 31.2H97.5v34.5c11.8-9.4 24.7-14.5 35.6-17.3 1.8-.5 3.7.6 4.1 2.4.5 1.8-.6 3.6-2.4 4.1-11.4 2.9-25.3 8.6-37.2 19.7v31.8c2.9-6.3 6.7-11.7 11.4-16.4 9.4-9.3 21-14.1 30.5-16.6 1.8-.5 3.7.6 4.1 2.4.5 1.8-.6 3.6-2.4 4.1-4.7 1.2-10.1 3.1-15.3 6-19 10.3-28.2 28.4-28.2 55.2v4.8H137c7.8 0 14.1-6.3 14.1-14.1V45.2c-.1-7.7-6.4-14-14.2-14z" class="st2"/><path id="path28" d="M58.2 90.7c2.2 1.3 4.5 2.8 6.8 4.6V31.2H50.3c-7.8 0-14.1 6.3-14.1 14.1v36.4c6.6 1.6 14.3 4.4 22 9z" class="st2"/><path id="path29" d="M41.6 118.6c-1.8-1.1-3.6-2-5.4-2.8v15.9c0 7.8 6.3 14.1 14.1 14.1h11.6c-3.6-12.1-10.4-21.3-20.3-27.2Z" class="st2"/></g><g id="g30"><path id="path30" d="M237.9 140.2c-30.8 0-53.7-21.2-53.7-52.5 0-31.7 22.9-51.6 53.7-51.6 31 0 53.9 20 53.9 51.6-.1 31.3-22.9 52.5-53.9 52.5zm0-82.6c-16.7 0-28.2 12.8-28.2 30.1 0 17.9 11.6 30.7 28.2 30.7s28.3-12.8 28.3-30.7c0-17.3-11.6-30.1-28.3-30.1z" class="st3"/></g><g id="g32"><g id="g31"><path id="path31" d="M370.6 64.4c-4-5.2-11.4-8.5-17.6-8.5-6.2 0-13.8 2.1-13.8 9.9 0 6.6 5.9 8.7 15.2 11.6 13.4 4.3 30.7 10 30.7 29.7 0 22.7-18.3 32.9-37.8 32.9-14.1 0-28.3-5.2-37-14.2l15.6-15.9c4.7 6 13.5 10.5 21.3 10.5 7.3 0 13.7-2.8 13.7-10.7 0-7.5-7.5-9.9-20.5-14.1-12.6-4-25.3-10.5-25.3-28.3 0-21.9 19.8-31 38.2-31 11.2 0 23.7 4.2 32.4 12.1z" class="st3"/></g></g><g id="g34"><g id="g33"><path id="path32" d="M469.3 137.5 448 98.3h-8.1v39.2h-23.4V38.7h37.7c19 0 37.8 7.3 37.8 29.9 0 13.3-7.8 22.7-20.5 26.6l25.8 42.3zM452.4 58h-12.7v23H451c7.7 0 17.3-2 17.3-12 .1-9.2-8.7-11-15.9-11z" class="st3"/></g></g><g id="g35"><path id="path34" d="M558.4 137.5h-36.8V38.7h35.7c28 0 56.5 11.7 56.5 49.1 0 34.8-28.2 49.7-55.4 49.7zm-1.7-78.4h-11.9v57.8h11.3c17 0 32.8-7 32.8-29 0-22.2-15.7-28.8-32.2-28.8z" class="st3"/></g></g></g></svg>