<?xml version="1.0" encoding="utf-8"?><svg version="1.1" xmlns="http://www.w3.org/2000/svg" xmlns:xlink="http://www.w3.org/1999/xlink" x="0px" y="0px"     width="4cm" height="4cm"     viewBox="100 100 879 880" xml:space="preserve"><style type="text/css"> .st0{fill:#AA026D;} .st1{fill:#71196F;} .st2{display:none;} .st3{display:inline;fill:none;stroke:#010202;stroke-width:0.7992;stroke-miterlimit:10;}</style>    <g id="Calque_1"><g><path class="st0" d="M663.5,812c-2.8,0-5-2.2-5-5v-88c0-204.3-95.3-327.7-275.6-357c-2.7-0.4-4.6-3-4.1-5.7s3-4.6,5.7-4.1 c93.4,15.2,165.3,55.4,213.6,119.6c46.7,62.1,70.4,145.3,70.4,247.3v88C668.5,809.8,666.3,812,663.5,812z"/></g>        <g><path class="st0" d="M572.5,812c-2.8,0-5-2.2-5-5v-87.1c0-160.8-77.9-254.5-225.3-271.1c-2.7-0.3-4.7-2.8-4.4-5.5 c0.3-2.7,2.8-4.7,5.5-4.4c76.9,8.6,136.2,38,176.1,87.5c38.5,47.7,58.1,112.8,58.1,193.5V807C577.5,809.8,575.3,812,572.5,812z"/></g>        <g><path class="st1" d="M490.8,812c-2.8,0-5-2.2-5-5v-70.5c0-124.2-60.3-196.3-174.4-208.6c-2.7-0.3-4.7-2.8-4.4-5.5s2.8-4.7,5.5-4.4 c60.2,6.5,106.6,29.3,137.9,67.8c30.2,37.2,45.5,87.9,45.5,150.8V807C495.8,809.8,493.5,812,490.8,812z"/></g>        <g><path class="st1" d="M399.7,812c-2.8,0-5-2.2-5-5v-41.1c0-84.8-40.3-135.1-116.4-145.5c-2.7-0.4-4.7-2.9-4.3-5.6 c0.4-2.7,2.9-4.7,5.6-4.3c41.1,5.6,72.7,22.3,94.1,49.7c20.6,26.4,31,61.9,31,105.7V807C404.7,809.8,402.5,812,399.7,812z"/></g>        <g><path class="st1" d="M399.7,812c-2.8,0-5-2.2-5-5v-88c0-101.9,23.7-185.1,70.4-247.3c48.3-64.2,120.2-104.5,213.6-119.6 c2.7-0.4,5.3,1.4,5.7,4.1c0.4,2.7-1.4,5.3-4.1,5.7c-180.3,29.3-275.6,152.8-275.6,357v88C404.7,809.8,402.5,812,399.7,812z"/></g>        <g><path class="st1" d="M490.8,812c-2.8,0-5-2.2-5-5v-87.1c0-80.7,19.5-145.8,58.1-193.5c39.9-49.4,99.2-78.9,176.1-87.5 c2.8-0.3,5.2,1.7,5.5,4.4c0.3,2.7-1.7,5.2-4.4,5.5c-147.4,16.5-225.3,110.2-225.3,271.1V807C495.8,809.8,493.5,812,490.8,812z"/></g>        <g><path class="st0" d="M572.5,812c-2.8,0-5-2.2-5-5v-70.5c0-62.9,15.3-113.6,45.5-150.8c31.3-38.5,77.7-61.3,137.9-67.8 c2.7-0.3,5.2,1.7,5.5,4.4c0.3,2.7-1.7,5.2-4.4,5.5c-114.1,12.3-174.4,84.4-174.4,208.6V807C577.5,809.8,575.3,812,572.5,812z"/></g>        <g><path class="st0" d="M663.5,812c-2.8,0-5-2.2-5-5v-41.1c0-43.8,10.4-79.3,31-105.7c21.3-27.4,53-44.1,94.1-49.7 c2.7-0.4,5.3,1.5,5.6,4.3c0.4,2.7-1.5,5.3-4.3,5.6c-76.2,10.4-116.4,60.7-116.4,145.5V807C668.5,809.8,666.3,812,663.5,812z"/></g>        <g><path class="st1" d="M400,793.5c-1.4,0-2.5-1.1-2.5-2.5V271c0-1.4,1.1-2.5,2.5-2.5s2.5,1.1,2.5,2.5v520 C402.5,792.4,401.4,793.5,400,793.5z"/></g>        <g><path class="st1" d="M491,793.5c-1.4,0-2.5-1.1-2.5-2.5V151c0-1.4,1.1-2.5,2.5-2.5s2.5,1.1,2.5,2.5v640 C493.5,792.4,492.4,793.5,491,793.5z"/></g>        <g><path class="st0" d="M573,793.5c-1.4,0-2.5-1.1-2.5-2.5V151c0-1.4,1.1-2.5,2.5-2.5s2.5,1.1,2.5,2.5v640 C575.5,792.4,574.4,793.5,573,793.5z"/></g>        <g><path class="st0" d="M664,793.5c-1.4,0-2.5-1.1-2.5-2.5V271c0-1.4,1.1-2.5,2.5-2.5s2.5,1.1,2.5,2.5v520 C666.5,792.4,665.4,793.5,664,793.5z"/></g>        <g><path class="st1" d="M399.6,841.8c26.4-0.5,45,17.2,45,44.3c0,26.4-18.6,44.1-45,44.6c-26,0-44.7-17.7-44.7-44.1 C354.9,859.5,373.5,841.8,399.6,841.8z M399.7,917.1c17.6,0,29.2-13.4,29.2-31.4c0-16.8-11.6-30.2-29.2-30.2 c-17.4,0-29,13.4-29,30.2C370.7,903.7,382.2,917.1,399.7,917.1z"/></g>        <g><path class="st1" d="M511.9,862.1c-3.2-4.5-9-6.7-14.8-6.7c-6.9,0-13.9,3.1-13.9,10.9c0,17,40.1,7.3,40.1,37.4 c0,18.2-14.3,27-30.9,27c-10.5,0-20.8-3.2-27.7-11.5l11.4-11c3.7,5.6,10,8.8,16.7,8.8c6.9,0,14.8-3.8,14.8-11.6 c0-18.5-40.1-7.9-40.1-38.1c0-17.4,15.5-25.6,31.2-25.6c8.8,0,17.7,2.5,24.3,8.7L511.9,862.1z"/></g>        <g><path class="st0" d="M555.9,844h29.8c21.6,0,27.1,13,27.1,23.7c0,10.8-8,20.9-20.8,22.3l24,38.6h-14.3l-21.5-37.3h-12.8v37.3 h-11.5V844z M567.3,881.2h15.1c9.1,0,18.2-2.2,18.2-13.6c0-11.5-9.1-13.6-18.2-13.6h-15.1V881.2z"/></g>        <g><path class="st0" d="M643.9,844h29.5c35.7,0,44.5,26.6,44.5,42.3c0,21.6-16.1,42.3-46.4,42.3h-27.6V844z M655.4,917.8h14.5 c19.4,0,35.8-10.6,35.8-31.5c0-10.8-5.6-31.5-33.1-31.5h-17.2V917.8z"/></g></g>    <g id="Calque_2" class="st2"><line class="st3" x1="498.9" y1="3271" x2="1051.9" y2="2240"/>        <line class="st3" x1="404.6" y1="3271" x2="957.6" y2="2240"/>        <line class="st3" x1="310.3" y1="3271" x2="863.3" y2="2240"/>        <line class="st3" x1="215.9" y1="3271" x2="769" y2="2240"/>        <line class="st3" x1="121.6" y1="3271" x2="674.7" y2="2240"/>        <line class="st3" x1="27.3" y1="3271" x2="580.4" y2="2240"/>        <line class="st3" x1="970.4" y1="3271" x2="1523.5" y2="2240"/>        <line class="st3" x1="876.1" y1="3271" x2="1429.2" y2="2240"/>        <line class="st3" x1="781.8" y1="3271" x2="1334.9" y2="2240"/>        <line class="st3" x1="687.5" y1="3271" x2="1240.6" y2="2240"/>        <line class="st3" x1="593.2" y1="3271" x2="1146.2" y2="2240"/>        <line class="st3" x1="1253.3" y1="3271" x2="1806.4" y2="2240"/>        <line class="st3" x1="1159" y1="3271" x2="1712.1" y2="2240"/>        <line class="st3" x1="1064.7" y1="3271" x2="1617.8" y2="2240"/>        <line class="st3" x1="492.5" y1="2331.1" x2="1461.9" y2="2331.1"/>        <line class="st3" x1="492.9" y1="2415" x2="1462.3" y2="2415"/>        <line class="st3" x1="493.3" y1="2498.9" x2="1462.7" y2="2498.9"/>        <line class="st3" x1="493.7" y1="2582.9" x2="1463.1" y2="2582.9"/>        <line class="st3" x1="494.1" y1="2666.8" x2="1463.5" y2="2666.8"/>        <line class="st3" x1="494.5" y1="2750.7" x2="1463.9" y2="2750.7"/>        <line class="st3" x1="494.9" y1="2834.6" x2="1464.3" y2="2834.6"/>        <line class="st3" x1="495.3" y1="2918.5" x2="1464.7" y2="2918.5"/>        <line class="st3" x1="495.7" y1="3002.5" x2="1465.1" y2="3002.5"/>        <line class="st3" x1="496.1" y1="3086.4" x2="1465.5" y2="3086.4"/></g>    <g id="Calque_3"></g>    <g id="Calque_4"></g></svg>