<svg xmlns="http://www.w3.org/2000/svg" width="32" height="32" viewBox="0 0 8.467 8.467"><path style="fill:#d7d7d7;fill-opacity:1;stroke:none;stroke-width:.264999;stroke-miterlimit:4;stroke-dasharray:none;stroke-opacity:1" d="M.529 5.292h7.408v2.646H.529z" transform="translate(0 -1.058)"/><path style="fill:none;stroke:#000;stroke-width:.264583px;stroke-linecap:butt;stroke-linejoin:miter;stroke-opacity:1" d="M.53 2.646h7.407M1.058 5.292H.53v2.646h7.409V5.292h-.53V2.646h-6.35z" transform="translate(0 -1.058)"/><g aria-label="POSTE 1" style="font-style:normal;font-weight:400;font-size:1.00194px;line-height:1.25;font-family:sans-serif;letter-spacing:0;word-spacing:0;fill:#0088ce;fill-opacity:1;stroke:none;stroke-width:.0250486"><path d="M2.61 5.625q.138 0 .201.06.064.059.064.163 0 .062-.026.117-.026.054-.087.087-.06.033-.164.033h-.065v.255H2.38v-.715zm-.008.124h-.07v.212h.05q.065 0 .102-.025.038-.026.038-.083 0-.104-.12-.104zM3.66 5.981q0 .112-.037.195-.036.082-.112.128-.075.046-.192.046-.116 0-.192-.046-.075-.046-.113-.13-.036-.083-.036-.194 0-.11.036-.193.038-.082.113-.127.076-.046.193-.046.116 0 .191.046.076.045.112.128.037.082.037.193zm-.522 0q0 .113.043.178.043.064.138.064.097 0 .14-.064.041-.065.041-.178 0-.113-.042-.177-.042-.064-.138-.064t-.14.064q-.042.064-.042.177zM4.23 6.142q0 .095-.07.152-.067.056-.194.056-.113 0-.202-.043v-.141q.051.022.105.04.055.019.11.019t.078-.021q.025-.022.025-.055 0-.027-.02-.046-.018-.02-.049-.036-.03-.017-.07-.036-.026-.012-.055-.028-.029-.017-.056-.04-.026-.026-.043-.06-.017-.036-.017-.085 0-.096.065-.15.065-.053.177-.053.057 0 .107.013.05.013.106.037l-.05.118q-.048-.02-.087-.031-.04-.011-.08-.011-.044 0-.067.02-.023.02-.023.052 0 .038.034.06t.101.054q.056.026.094.054.039.028.06.066.02.038.02.095zM4.636 6.34h-.152v-.59H4.29v-.125h.54v.126h-.194zM5.352 6.34H4.94v-.715h.412v.124h-.26v.157h.242v.124h-.243v.185h.261zM6.085 6.34h-.15v-.482l.003-.074-.022.022-.03.027-.082.066-.073-.091.23-.183h.124z" style="font-style:normal;font-variant:normal;font-weight:700;font-stretch:normal;font-family:'Noto Sans';-inkscape-font-specification:'Noto Sans';fill:#0088ce;fill-opacity:1;stroke-width:.0250486" transform="translate(0 -1.058)"/></g><path style="fill:none;stroke:#000;stroke-width:.264583px;stroke-linecap:butt;stroke-linejoin:miter;stroke-opacity:1" d="M1.058 5.292h6.35" transform="translate(0 -1.058)"/><path d="m3.81 3.937.847-.847H6.35M2.963 3.937l.847.847h2.54" style="fill:none;stroke:#4d4d4f;stroke-width:.169333;stroke-linecap:butt;stroke-linejoin:miter;stroke-miterlimit:4;stroke-dasharray:none;stroke-opacity:1" transform="translate(0 -1.058)"/><path d="M2.117 3.937H6.35" style="fill:none;stroke:#0088ce;stroke-width:.169333;stroke-linecap:butt;stroke-linejoin:miter;stroke-miterlimit:4;stroke-dasharray:none;stroke-opacity:1" transform="translate(0 -1.058)"/></svg>