<svg xmlns="http://www.w3.org/2000/svg" width="32" height="32" viewBox="0 0 8.467 8.467"><path d="M3.387 4.233 5.08 2.54h3.387M1.693 4.233l1.694 1.694h5.08" style="fill:none;stroke:#4d4d4f;stroke-width:.338666;stroke-linecap:butt;stroke-linejoin:miter;stroke-miterlimit:4;stroke-dasharray:none;stroke-opacity:1"/><path d="M0 4.233h8.467" style="fill:none;stroke:#0088ce;stroke-width:.338666;stroke-linecap:butt;stroke-linejoin:miter;stroke-miterlimit:4;stroke-dasharray:none;stroke-opacity:1"/><g aria-label="V2" style="font-style:normal;font-weight:400;font-size:1.03581px;line-height:1.25;font-family:sans-serif;letter-spacing:0;word-spacing:0;fill:#0088ce;fill-opacity:1;stroke:none;stroke-width:1.28;stroke-miterlimit:4;stroke-dasharray:none"><path d="M.871 3.101h.196l.2.557.2-.557h.196l-.28.755h-.232zM1.966 3.713H2.3v.143h-.55v-.143l.277-.243q.036-.034.054-.065.018-.032.018-.067 0-.053-.036-.085-.035-.033-.095-.033-.045 0-.1.02-.053.02-.115.058v-.166q.066-.022.13-.033.064-.012.126-.012.135 0 .21.06.076.06.076.167 0 .061-.032.115-.032.053-.134.142z" style="font-weight:700;fill:#0088ce;fill-opacity:1;stroke-width:1.28;stroke-miterlimit:4;stroke-dasharray:none"/></g></svg>