<?xml version="1.0" encoding="UTF-8"?>
<!-- Created with Inkscape (http://www.inkscape.org/) -->
<svg width="294.73" height="294.73" version="1.1" viewBox="0 0 294.73 294.73" xmlns="http://www.w3.org/2000/svg">
 <g transform="matrix(1.3333 0 0 -1.3333 1.9665 294.73)">
  <rect transform="scale(1,-1)" x="-1.4749" y="-221.05" width="221.05" height="221.05" fill="#fff" stroke-linejoin="bevel" stroke-opacity=".63452" stroke-width=".28346"/>
  <g transform="scale(.1)">
   <path d="m172.15 2025.4h1831.5v-1244.1h-1831.5v1244.1" fill="#fff"/>
   <path d="m207.37 1991.3h1761.1v-1174.1h-1761.1v1174.1" fill="#254aa5"/>
   <g fill="#f2ef12">
    <path d="m1050.4 1735.5 37.16 27.12 37.17-27.12-14.14 43.86 37.73 27.11h-46.52l-14.24 44.39-14.24-44.43-46.49 0.04 37.71-27.11-14.14-43.86"/>
    <path d="m858.07 1683.8 37.164 27.12 37.133-27.12-14.117 43.86 37.719 27.12h-46.524l-14.238 44.44-14.238-44.49-46.496 0.05 37.719-27.12-14.122-43.86"/>
    <path d="m754.52 1658.2-14.239-44.48-46.5 0.05 37.723-27.12-14.145-43.86 37.161 27.12 37.164-27.12-14.141 43.86 37.715 27.12h-46.5l-14.238 44.43"/>
    <path d="m702.9 1377.8 37.133-27.12-14.113 43.86 37.719 27.11h-46.5l-14.239 44.44-14.238-44.54-46.523 0.1 37.746-27.11-14.149-43.86 37.164 27.12"/>
    <path d="m768.75 1229-14.238 44.44-14.239-44.49-46.5 0.05 37.723-27.12-14.145-43.86 37.161 27.17 37.164-27.17-14.141 43.86 37.715 27.12h-46.5"/>
    <path d="m909.73 1088.1-14.238 44.39-14.219-44.44-46.523 0.05 37.723-27.12-14.118-43.86 37.164 27.12 37.133-27.12-14.117 43.86 37.719 27.12h-46.524"/>
    <path d="m1101.8 1037-14.24 44.44-14.22-44.48-46.52 0.04 37.72-27.11-14.12-43.86 37.16 27.121 37.14-27.121-14.14 43.86 37.74 27.11h-46.52"/>
    <path d="m1293.9 1088.1-14.21 44.39-14.27-44.44-46.47 0.05 37.69-27.12-14.12-43.86 37.17 27.12 37.16-27.12-14.17 43.86 37.74 27.12h-46.52"/>
    <path d="m1434.9 1229-14.26 44.44-14.26-44.49-46.48 0.05 37.75-27.12-14.17-43.86 37.16 27.17 37.16-27.17-14.17 43.86 37.75 27.12h-46.48"/>
    <path d="m1532.4 1422.2h-46.52l-14.26 44.43-14.22-44.48-46.52 0.05 37.74-27.12-14.12-43.86 37.12 27.17 37.16-27.17-14.12 43.86 37.74 27.12"/>
    <path d="m1383.5 1543.4 37.16 27.12 37.16-27.12-14.17 43.86 37.75 27.07h-46.48l-14.26 44.43-14.26-44.48-46.48 0.05 37.75-27.07-14.17-43.86"/>
    <path d="m1280.2 1799.2-14.2-44.49-46.53 0.1 37.7-27.17-14.12-43.85 37.2 27.16 37.11-27.16-14.11 43.85 37.75 27.17h-46.58l-14.22 44.39"/>
   </g>
   <g fill="#254aa5">
    <path d="m500.79 537.25 29.43-9.34c-4.512-16.41-12.016-28.59-22.508-36.551-10.496-7.968-23.805-11.949-39.938-11.949-19.96 0-36.367 6.82-49.218 20.449-12.852 13.653-19.278 32.289-19.278 55.942 0 25.019 6.457 44.449 19.379 58.289 12.918 13.851 29.907 20.769 50.961 20.769 18.391 0 33.324-5.437 44.813-16.308 6.836-6.422 11.961-15.653 15.379-27.68l-30.043-7.18c-1.778 7.789-5.485 13.95-11.129 18.457-5.633 4.512-12.489 6.774-20.559 6.774-11.14 0-20.183-4-27.117-12.012-6.941-7.98-10.41-20.941-10.41-38.851 0-19.008 3.418-32.539 10.254-40.61 6.836-8.07 15.722-12.097 26.66-12.097 8.066 0 15.004 2.558 20.816 7.699 5.809 5.109 9.981 13.179 12.508 24.199"/>
    <path d="m578.93 536.43c0-10.809 2.562-19.09 7.687-24.828 5.129-5.743 11.453-8.614 18.973-8.614 7.519 0 13.82 2.871 18.914 8.614 5.094 5.738 7.645 14.078 7.645 25.019 0 10.668-2.551 18.867-7.645 24.609-5.094 5.739-11.395 8.61-18.914 8.61-7.52 0-13.844-2.871-18.973-8.61-5.125-5.742-7.687-14.011-7.687-24.8zm-29.531 1.531c0 9.57 2.359 18.828 7.074 27.777 4.719 8.961 11.394 15.801 20.043 20.512 8.648 4.73 18.304 7.082 28.972 7.082 16.473 0 29.973-5.352 40.5-16.043 10.528-10.707 15.793-24.219 15.793-40.559 0-16.48-5.316-30.128-15.949-40.968-10.629-10.832-24.008-16.25-40.14-16.25-9.981 0-19.5 2.258-28.559 6.769-9.059 4.508-15.941 11.117-20.66 19.84-4.715 8.711-7.074 19.328-7.074 31.84"/>
    <path d="m681.06 522.07v28.809h56.601v-28.809h-56.601"/>
    <path d="m741.65 590.87h15.996v8.199c0 9.16 0.981 16 2.922 20.512 1.953 4.508 5.535 8.18 10.774 11.027 5.222 2.832 11.84 4.25 19.844 4.25 8.203 0 16.23-1.23 24.089-3.687l-3.894-20.102c-4.582 1.09-8.996 1.641-13.227 1.641-4.176 0-7.168-0.973-8.972-2.922-1.817-1.949-2.719-5.687-2.719-11.238v-7.68h21.539v-22.672h-21.539v-86.23h-28.817v86.23h-15.996v22.672"/>
    <path d="m895.88 481.97v16.312c-3.969-5.82-9.184-10.402-15.637-13.75-6.465-3.34-13.281-5.019-20.461-5.019-7.312 0-13.875 1.609-19.683 4.828-5.813 3.199-10.024 7.711-12.61 13.531-2.605 5.801-3.906 13.84-3.906 24.09v68.91h28.82v-50.039c0-15.312 0.528-24.703 1.59-28.141 1.055-3.461 2.989-6.203 5.789-8.211 2.805-2.019 6.36-3.019 10.664-3.019 4.922 0 9.329 1.34 13.235 4.051 3.887 2.687 6.562 6.039 7.988 10.047 1.445 3.992 2.156 13.793 2.156 29.371v45.941h28.821v-108.9h-26.766"/>
    <path d="m1051.5 481.97h-28.81v55.582c0 11.758-0.62 19.359-1.85 22.808-1.23 3.461-3.23 6.129-5.99 8.063-2.78 1.898-6.11 2.867-10 2.867-4.991 0-9.475-1.379-13.429-4.098-3.976-2.75-6.691-6.371-8.156-10.882-1.472-4.508-2.207-12.848-2.207-25.02v-49.32h-28.816v108.9h26.765v-16c9.5 12.309 21.463 18.461 35.893 18.461 6.35 0 12.16-1.141 17.43-3.441 5.26-2.282 9.25-5.211 11.94-8.762 2.71-3.559 4.58-7.59 5.65-12.109 1.05-4.508 1.58-10.961 1.58-19.372v-67.679"/>
    <path d="m1103.7 538.78c0-11.621 1.6-20.031 4.81-25.23 4.65-7.512 11.15-11.27 19.49-11.27 6.63 0 12.26 2.821 16.91 8.449 4.65 5.649 6.97 14.059 6.97 25.29 0 12.5-2.24 21.511-6.75 27.011-4.52 5.508-10.3 8.258-17.34 8.258-6.83 0-12.56-2.73-17.18-8.16-4.61-5.43-6.91-13.547-6.91-24.348zm76.89-56.812h-26.75v16c-4.45-6.219-9.69-10.848-15.75-13.899-6.04-3.031-12.14-4.558-18.3-4.558-12.51 0-23.22 5.039-32.14 15.129-8.92 10.078-13.38 24.148-13.38 42.199 0 18.449 4.34 32.48 13.03 42.09 8.67 9.601 19.64 14.402 32.9 14.402 12.17 0 22.7-5.062 31.59-15.184v54.141h28.8v-150.32"/>
    <path d="m1273.7 545.75c-0.21 8.34-2.35 14.68-6.46 19.031-4.1 4.328-9.1 6.508-14.98 6.508-6.29 0-11.48-2.301-15.58-6.879s-6.12-10.801-6.05-18.66zm-1.64-29.121 28.71-4.809c-3.69-10.539-9.52-18.55-17.48-24.058-7.97-5.492-17.93-8.25-29.89-8.25-18.94 0-32.95 6.179-42.04 18.558-7.18 9.91-10.78 22.418-10.78 37.539 0 18.039 4.73 32.172 14.16 42.391 9.44 10.219 21.36 15.332 35.79 15.332 16.2 0 28.98-5.352 38.35-16.043 9.36-10.707 13.83-27.09 13.42-49.168h-72.18c0.21-8.551 2.52-15.199 6.97-19.949 4.44-4.75 9.98-7.133 16.62-7.133 4.51 0 8.3 1.242 11.38 3.699 3.07 2.461 5.4 6.422 6.97 11.891"/>
    <path d="m1348.8 538.78c0-11.621 1.6-20.031 4.81-25.23 4.65-7.512 11.15-11.27 19.49-11.27 6.63 0 12.26 2.821 16.91 8.449 4.65 5.649 6.97 14.059 6.97 25.29 0 12.5-2.24 21.511-6.76 27.011-4.51 5.508-10.29 8.258-17.33 8.258-6.84 0-12.56-2.73-17.18-8.16-4.61-5.43-6.91-13.547-6.91-24.348zm76.89-56.812h-26.76v16c-4.44-6.219-9.68-10.848-15.74-13.899-6.04-3.031-12.15-4.558-18.3-4.558-12.51 0-23.22 5.039-32.15 15.129-8.91 10.078-13.38 24.148-13.38 42.199 0 18.449 4.34 32.48 13.03 42.09 8.67 9.601 19.65 14.402 32.91 14.402 12.17 0 22.7-5.062 31.58-15.184v54.141h28.81v-150.32"/>
    <path d="m1539.8 538.78c0-11.281 1.78-19.621 5.34-25.019 4.99-7.66 11.62-11.481 19.89-11.481 6.36 0 11.78 2.707 16.25 8.149 4.48 5.429 6.72 13.992 6.72 25.679 0 12.442-2.26 21.422-6.77 26.922-4.51 5.508-10.29 8.258-17.33 8.258-6.91 0-12.65-2.687-17.23-8.059-4.58-5.359-6.87-13.511-6.87-24.449zm-28.6-56.812v150.32h28.81v-54.141c8.89 10.122 19.41 15.184 31.58 15.184 13.26 0 24.23-4.801 32.91-14.402 8.68-9.61 13.03-23.399 13.03-41.379 0-18.59-4.43-32.922-13.28-42.961-8.85-10.059-19.6-15.078-32.25-15.078-6.22 0-12.35 1.547-18.41 4.668-6.04 3.109-11.26 7.699-15.63 13.789v-16h-26.76"/>
    <path d="m1627.1 590.87h30.65l26.06-77.32 25.43 77.32h29.83l-38.45-104.8-6.87-18.961c-2.53-6.371-4.94-11.211-7.23-14.57-2.29-3.34-4.92-6.07-7.9-8.148-2.97-2.09-6.63-3.711-10.96-4.871-4.35-1.161-9.25-1.75-14.72-1.75-5.54 0-10.97 0.589-16.3 1.75l-2.57 22.562c4.51-0.891 8.58-1.344 12.2-1.344 6.7 0 11.66 1.973 14.87 5.903 3.22 3.937 5.68 8.949 7.39 15.019l-41.43 109.21"/>
    <path d="m162.56 338.87v-22.973h-19.688v-43.886c0-8.891 0.188-14.063 0.566-15.543 0.372-1.457 1.231-2.68 2.559-3.629 1.34-0.969 2.961-1.442 4.871-1.442 2.668 0 6.531 0.922 11.59 2.774l2.461-22.352c-6.699-2.871-14.289-4.308-22.766-4.308-5.195 0-9.879 0.867-14.047 2.617-4.168 1.742-7.226 3.992-9.179 6.762-1.946 2.769-3.297 6.519-4.047 11.23-0.617 3.34-0.922 10.109-0.922 20.309v47.468h-13.231v22.973h13.231v21.629l28.914 16.809v-38.438h19.688"/>
    <path d="m211.27 380.29v-55.258c9.296 10.86 20.406 16.297 33.324 16.297 6.633 0 12.613-1.226 17.945-3.687s9.344-5.61 12.047-9.442c2.699-3.828 4.543-8.058 5.535-12.711 0.992-4.648 1.488-11.867 1.488-21.629v-63.89h-28.812v57.519c0 11.422-0.547 18.672-1.641 21.742-1.093 3.079-3.027 5.532-5.793 7.329-2.769 1.82-6.238 2.73-10.41 2.73-4.781 0-9.055-1.168-12.816-3.5-3.758-2.32-6.508-5.82-8.254-10.508-1.738-4.672-2.613-11.601-2.613-20.761v-54.551h-28.817v150.32h28.817"/>
    <path d="m375.54 293.75c-0.203 8.34-2.355 14.68-6.461 19.02-4.097 4.339-9.09 6.519-14.969 6.519-6.289 0-11.484-2.301-15.585-6.879-4.102-4.578-6.118-10.801-6.051-18.66zm-1.64-29.121 28.71-4.82c-3.691-10.528-9.519-18.539-17.48-24.047-7.969-5.5-17.93-8.25-29.891-8.25-18.937 0-32.949 6.179-42.043 18.547-7.175 9.921-10.765 22.429-10.765 37.543 0 18.046 4.719 32.179 14.148 42.398 9.438 10.219 21.364 15.328 35.789 15.328 16.2 0 28.985-5.348 38.348-16.047 9.367-10.699 13.844-27.09 13.434-49.172h-72.188c0.203-8.539 2.527-15.187 6.973-19.937 4.441-4.75 9.98-7.133 16.613-7.133 4.512 0 8.305 1.231 11.379 3.691 3.078 2.469 5.402 6.43 6.973 11.899"/>
    <path d="m486.18 229.97v150.32h111.46v-25.43h-81.11v-33.328h75.469v-25.32h-75.469v-40.91h83.981v-25.332h-114.33"/>
    <path d="m697.72 229.97v16.312c-3.965-5.82-9.18-10.402-15.637-13.75-6.465-3.34-13.281-5.019-20.457-5.019-7.316 0-13.879 1.609-19.687 4.82-5.813 3.207-10.016 7.719-12.614 13.539-2.597 5.801-3.894 13.84-3.894 24.09v68.91h28.812v-50.043c0-15.308 0.528-24.699 1.59-28.148 1.055-3.45 2.988-6.192 5.793-8.2 2.801-2.019 6.356-3.031 10.664-3.031 4.922 0 9.328 1.352 13.227 4.063 3.894 2.687 6.562 6.039 8 10.039 1.433 4 2.152 13.789 2.152 29.379v45.941h28.813v-108.9h-26.762"/>
    <path d="m781.9 229.97h-28.812v108.9h26.762v-15.48c4.582 7.3 8.703 12.129 12.351 14.449 3.664 2.332 7.817 3.488 12.461 3.488 6.567 0 12.883-1.816 18.977-5.437l-8.926-25.121c-4.856 3.152-9.363 4.718-13.535 4.718-4.031 0-7.449-1.117-10.254-3.328-2.805-2.23-5.012-6.238-6.609-12.051-1.614-5.808-2.415-17.98-2.415-36.507v-33.633"/>
    <path d="m858.91 284.42c0-10.813 2.57-19.082 7.688-24.82 5.132-5.743 11.453-8.614 18.972-8.614 7.52 0 13.828 2.871 18.914 8.614 5.102 5.738 7.641 14.078 7.641 25.019 0 10.66-2.539 18.867-7.641 24.609-5.086 5.739-11.394 8.61-18.914 8.61-7.519 0-13.84-2.871-18.972-8.61-5.118-5.742-7.688-14.019-7.688-24.808zm-29.531 1.539c0 9.57 2.351 18.828 7.082 27.777 4.707 8.961 11.394 15.801 20.039 20.512 8.648 4.719 18.301 7.078 28.965 7.078 16.473 0 29.976-5.348 40.508-16.047 10.527-10.699 15.789-24.222 15.789-40.551 0-16.48-5.313-30.128-15.946-40.968-10.625-10.832-24.015-16.25-40.136-16.25-9.992 0-19.504 2.258-28.567 6.769-9.05 4.508-15.945 11.117-20.652 19.84-4.731 8.711-7.082 19.328-7.082 31.84"/>
    <path d="m992 286.26c0-12.242 2.434-21.274 7.285-27.121 4.849-5.84 10.759-8.762 17.739-8.762 6.69 0 12.27 2.68 16.71 8.051 4.45 5.359 6.66 14.16 6.66 26.402 0 11.406-2.28 19.887-6.86 25.43-4.58 5.527-10.25 8.297-17.02 8.297-7.04 0-12.89-2.707-17.541-8.149-4.649-5.43-6.973-13.488-6.973-24.148zm-28.496 52.609h26.855v-16c3.497 5.469 8.204 9.91 14.165 13.328 5.93 3.422 12.53 5.129 19.78 5.129 12.65 0 23.38-4.957 32.2-14.867 8.82-9.922 13.23-23.731 13.23-41.43 0-18.179-4.45-32.32-13.34-42.39-8.89-10.09-19.65-15.129-32.29-15.129-6.02 0-11.47 1.199-16.36 3.59-4.88 2.386-10.029 6.488-15.431 12.308v-54.871h-28.809v150.33"/>
    <path d="m1157.3 293.75c-0.2 8.34-2.35 14.68-6.45 19.02-4.1 4.339-9.1 6.519-14.98 6.519-6.29 0-11.49-2.301-15.59-6.879s-6.11-10.801-6.04-18.66zm-1.64-29.121 28.71-4.82c-3.69-10.528-9.52-18.539-17.48-24.047-7.96-5.5-17.93-8.25-29.89-8.25-18.93 0-32.95 6.179-42.04 18.547-7.17 9.921-10.77 22.429-10.77 37.543 0 18.046 4.73 32.179 14.16 42.398s21.36 15.328 35.78 15.328c16.2 0 28.98-5.348 38.35-16.047s13.84-27.09 13.43-49.172h-72.19c0.22-8.539 2.53-15.187 6.97-19.937 4.45-4.75 9.98-7.133 16.62-7.133 4.52 0 8.3 1.231 11.38 3.691 3.08 2.469 5.4 6.43 6.97 11.899"/>
    <path d="m1269.5 282.27c-3.69-1.231-9.53-2.711-17.53-4.411-8-1.718-13.23-3.39-15.69-5.027-3.76-2.66-5.64-6.043-5.64-10.141 0-4.05 1.51-7.531 4.52-10.472 3-2.938 6.83-4.41 11.48-4.41 5.2 0 10.15 1.711 14.87 5.132 3.48 2.598 5.78 5.77 6.87 9.528 0.75 2.461 1.12 7.152 1.12 14.051zm-38.55 23.371-26.15 4.718c2.94 10.532 8 18.321 15.18 23.379 7.18 5.063 17.84 7.59 31.99 7.59 12.85 0 22.42-1.527 28.71-4.558 6.29-3.051 10.72-6.911 13.28-11.59 2.56-4.68 3.84-13.282 3.84-25.801l-0.3-33.629c0-9.57 0.46-16.621 1.39-21.168 0.91-4.543 2.64-9.41 5.17-14.613h-28.5c-0.76 1.91-1.68 4.75-2.78 8.519-0.48 1.703-0.82 2.832-1.01 3.383-4.92-4.789-10.2-8.383-15.8-10.769-5.61-2.391-11.59-3.59-17.94-3.59-11.21 0-20.05 3.039-26.51 9.117-6.46 6.082-9.69 13.781-9.69 23.082 0 6.148 1.47 11.641 4.41 16.449 2.94 4.828 7.06 8.52 12.35 11.078 5.31 2.563 12.94 4.801 22.92 6.723 13.47 2.519 22.8 4.879 27.99 7.07v2.867c0 5.543-1.37 9.493-4.1 11.84-2.73 2.371-7.89 3.551-15.48 3.551-5.13 0-9.13-1.019-12-3.027-2.87-2.024-5.2-5.563-6.97-10.621"/>
    <path d="m1425.2 229.97h-28.8v55.582c0 11.75-0.62 19.359-1.85 22.808-1.23 3.461-3.23 6.129-6 8.063-2.77 1.898-6.1 2.867-10 2.867-4.99 0-9.47-1.379-13.42-4.098-3.98-2.75-6.69-6.371-8.16-10.882-1.47-4.52-2.21-12.848-2.21-25.02v-49.32h-28.81v108.9h26.76v-16c9.51 12.309 21.47 18.457 35.89 18.457 6.36 0 12.17-1.137 17.43-3.437 5.27-2.282 9.25-5.211 11.95-8.762 2.7-3.559 4.58-7.598 5.64-12.109 1.06-4.508 1.58-10.969 1.58-19.372v-67.679"/>
    <path d="m1512.8 380.29h30.35v-81.41c0-12.918 0.37-21.301 1.13-25.117 1.3-6.153 4.39-11.09 9.27-14.821 4.9-3.73 11.58-5.589 20.05-5.589 8.62 0 15.11 1.757 19.49 5.277 4.37 3.519 7 7.84 7.9 12.973 0.87 5.128 1.32 13.636 1.32 25.539v83.148h30.36v-78.949c0-18.051-0.83-30.801-2.47-38.238-1.64-7.473-4.66-13.75-9.07-18.872-4.41-5.14-10.3-9.218-17.68-12.261-7.39-3.039-17.03-4.559-28.93-4.559-14.35 0-25.23 1.649-32.66 4.969-7.41 3.312-13.28 7.621-17.57 12.922-4.32 5.301-7.15 10.847-8.52 16.66-1.98 8.617-2.97 21.328-2.97 38.148v80.18"/>
    <path d="m1763.5 229.97h-28.81v55.582c0 11.75-0.62 19.359-1.85 22.808-1.23 3.461-3.23 6.129-6 8.063-2.77 1.898-6.1 2.867-10 2.867-4.99 0-9.47-1.379-13.42-4.098-3.98-2.75-6.69-6.371-8.16-10.882-1.47-4.52-2.2-12.848-2.2-25.02v-49.32h-28.82v108.9h26.76v-16c9.51 12.309 21.47 18.457 35.89 18.457 6.36 0 12.17-1.137 17.44-3.437 5.26-2.282 9.24-5.211 11.94-8.762 2.7-3.559 4.58-7.598 5.64-12.109 1.06-4.508 1.59-10.969 1.59-19.372v-67.679"/>
    <path d="m1792.7 229.97v108.9h28.81v-108.9zm0 123.66v26.66h28.81v-26.66h-28.81"/>
    <path d="m1873.9 284.42c0-10.813 2.57-19.082 7.69-24.82 5.14-5.743 11.46-8.614 18.97-8.614 7.52 0 13.83 2.871 18.92 8.614 5.1 5.738 7.64 14.078 7.64 25.019 0 10.66-2.54 18.867-7.64 24.609-5.09 5.739-11.4 8.61-18.92 8.61-7.51 0-13.83-2.871-18.97-8.61-5.12-5.742-7.69-14.019-7.69-24.808zm-29.53 1.539c0 9.57 2.36 18.828 7.08 27.777 4.71 8.961 11.4 15.801 20.04 20.512 8.65 4.719 18.3 7.078 28.97 7.078 16.47 0 29.98-5.348 40.51-16.047 10.52-10.699 15.79-24.222 15.79-40.551 0-16.48-5.32-30.128-15.95-40.968-10.63-10.832-24.01-16.25-40.14-16.25-9.99 0-19.5 2.258-28.56 6.769-9.05 4.508-15.95 11.117-20.66 19.84-4.72 8.711-7.08 19.328-7.08 31.84"/>
    <path d="m2078.4 229.97h-28.81v55.582c0 11.75-0.62 19.359-1.85 22.808-1.23 3.461-3.23 6.129-5.99 8.063-2.78 1.898-6.11 2.867-10 2.867-4.99 0-9.48-1.379-13.43-4.098-3.97-2.75-6.69-6.371-8.15-10.882-1.48-4.52-2.21-12.848-2.21-25.02v-49.32h-28.82v108.9h26.77v-16c9.5 12.309 21.46 18.457 35.89 18.457 6.35 0 12.16-1.137 17.43-3.437 5.26-2.282 9.25-5.211 11.94-8.762 2.71-3.559 4.58-7.598 5.65-12.109 1.05-4.508 1.58-10.969 1.58-19.372v-67.679"/>
   </g>
  </g>
 </g>
</svg>
