<?xml version="1.0" encoding="UTF-8" standalone="no"?>
<svg
   version="1.1"
   id="Calque_1"
   x="0px"
   y="0px"
   viewBox="0 0 500.37796 500.37796"
   xml:space="preserve"
   sodipodi:docname="sncf-reseau.svg"
   width="500.37796"
   height="500.37796"
   inkscape:version="1.2.2 (b0a8486541, 2022-12-01)"
   xmlns:inkscape="http://www.inkscape.org/namespaces/inkscape"
   xmlns:sodipodi="http://sodipodi.sourceforge.net/DTD/sodipodi-0.dtd"
   xmlns:xlink="http://www.w3.org/1999/xlink"
   xmlns="http://www.w3.org/2000/svg"
   xmlns:svg="http://www.w3.org/2000/svg"><defs
   id="defs40" /><sodipodi:namedview
   id="namedview38"
   pagecolor="#ffffff"
   bordercolor="#666666"
   borderopacity="1.0"
   inkscape:showpageshadow="2"
   inkscape:pageopacity="0.0"
   inkscape:pagecheckerboard="0"
   inkscape:deskcolor="#d1d1d1"
   showgrid="false"
   inkscape:zoom="0.35355339"
   inkscape:cx="1175.2115"
   inkscape:cy="-134.35029"
   inkscape:window-width="1920"
   inkscape:window-height="1050"
   inkscape:window-x="0"
   inkscape:window-y="0"
   inkscape:window-maximized="1"
   inkscape:current-layer="Calque_1" />
<rect
   style="opacity:1;fill:#ffffff;stroke:none;stroke-width:0.377953;stroke-linejoin:bevel;stroke-opacity:0.634523"
   id="rect407"
   width="500.37796"
   height="500.37793"
   x="-3.3147938e-09"
   y="-3.1283753e-09" /><g
   id="g19"
   transform="translate(28.188976,89.188976)">
	<defs
   id="defs3">
		<path
   id="BG"
   d="M 12.2,3.7 C 7.2,3.9 4,6.2 4,11.1 v 0 219.6 c 0,3.8 2.7,7.3 7,7.3 v 0 h 391.9 c 3.5,0 6.3,-0.3 8,-5 v 0 c 0,0 39.7,-124.3 40.4,-126.6 v 0 c 1.5,-4.7 0.5,-7.1 -3.5,-9.6 v 0 C 320.2,15 129.3,3.2 42.6,3.2 v 0 C 30.2,3.2 19.9,3.4 12.2,3.7" />
	</defs>
	<clipPath
   id="BG_1_">
		<use
   xlink:href="#BG"
   style="overflow:visible"
   id="use5" />
	</clipPath>
	<linearGradient
   id="SVGID_1_"
   gradientUnits="userSpaceOnUse"
   x1="4"
   y1="120.5"
   x2="452"
   y2="120.5">
		<stop
   offset="0"
   style="stop-color:#7C2270"
   id="stop8" />
		<stop
   offset="0.2472"
   style="stop-color:#AA147E"
   id="stop10" />
		<stop
   offset="0.8146"
   style="stop-color:#E41D25"
   id="stop12" />
		<stop
   offset="1"
   style="stop-color:#E41D25"
   id="stop14" />
	</linearGradient>
	<rect
   x="4"
   y="3"
   style="fill:url(#SVGID_1_)"
   width="448"
   height="235"
   clip-path="url(#BG_1_)"
   id="rect17" />
</g>
<path
   id="SNCF"
   style="fill:#ffffff"
   d="m 281.88898,265.88898 c -5.5,-6.4 -7.7,-14.6 -6.3,-23.8 3.2,-21.9 24.6,-35.8 53.1,-35.8 6,0 12.2,0.4 17.8,1.1 l 5.6,-16.5 c -6.9,-1.1 -15.2,-1.5 -23.4,-1.5 -25.3,0 -47.3,8.7 -61.6,24.1 -0.4,0.5 -0.9,0.5 -1.2,0.5 -0.4,0 -0.7,-0.1 -0.6,-0.5 l 7.1,-22.4 h -20.9 l -22.9,71.7 c -7.3,-21.2 -22.3,-49 -40.6,-71.7 h -22.4 l -16.6,52.1 c 8.4,6.3 11.1,10.8 13.3,17.2 0.1,0.4 0.4,0.5 0.8,0.5 0.4,0 0.6,-0.1 0.7,-0.5 0.2,-0.5 14.6,-45.4 14.6,-45.4 14.8,21.1 29.4,48.9 37.3,78.3 h 24.1 l 11.9,-37.2 c 0.1,-0.4 0.4,-0.5 0.8,-0.5 0.4,0 0.7,0.1 0.7,0.5 3.6,23.3 26.8,39 59.7,39 21.3,0 40.5,-5.6 45.3,-8.1 l 12.5,-39.3 h 47.9 l 4.9,-15.2 h -47.9 l 8.3,-25.8 h 57.1 l 5,-15.8 h -80.2 l -27.2,85.1 c -5.8,1.5 -12.9,2.2 -20.4,2.2 -16.1,0 -29,-3.8 -36.3,-12.3 m -135.1,-59.2 4.8,-15 c -6.8,-1.3 -11.7,-1.9 -19.9,-2.1 -26.3,-0.6 -50.000004,6.6 -56.100004,22 -7.2,18.2 13.3,28.4 31.100004,36.9 14.1,6.7 25.3,13.1 21.4,21.4 -3.1,6.5 -13,9.5 -27.6,9.2 -12.600004,-0.3 -28.300004,-3.9 -40.700004,-10.1 l -7.4,15.9 c 9.1,4.2 27.9,10 43.9,10.3 30.100004,0.7 49.500004,-6.9 57.300004,-23.2 9.2,-19.4 -13.7,-30 -32,-38.8 -14.4,-6.9 -24.200004,-10.6 -21.800004,-17.6 2.800004,-8.3 17.300004,-11.4 30.400004,-11.1 6.5,0.1 11.2,0.9 16.6,2.2" />
<g
   id="Réseau"
   transform="translate(28.188976,89.188976)">
	<g
   id="g34">
		<path
   style="fill:#7c2270"
   d="m 27.1,273 h 15.4 c 8.2,0 15.1,2.8 15.1,12.1 0,5.6 -3,9.9 -8.6,10.9 l 10.1,16.9 H 48.6 l -8.3,-16 H 36 v 16 H 27.2 V 273 Z m 8.8,16.5 h 5.2 c 3.2,0 7.4,-0.1 7.4,-4.5 0,-4 -3.6,-4.6 -6.8,-4.6 h -5.8 c 0,0 0,9.1 0,9.1 z"
   id="path22" />
		<path
   style="fill:#7c2270"
   d="m 93,273 h 27.1 v 8.1 h -18.3 v 7.4 h 17.3 v 8.1 h -17.3 v 8.1 h 19.3 v 8.1 H 93 Z m 13.4,-11 h 11.5 l -9.8,8.1 h -7.4 z"
   id="path24" />
		<path
   style="fill:#7c2270"
   d="m 176.9,282.7 c -1.4,-1.8 -4.2,-2.6 -6.4,-2.6 -2.5,0 -5.9,1.1 -5.9,4.1 0,7.3 18.4,2.6 18.4,16.6 0,8.9 -7.2,13.1 -15.4,13.1 -5.1,0 -9.6,-1.5 -13.4,-5 l 6.3,-6.9 c 1.8,2.4 4.7,3.8 7.7,3.8 2.9,0 6.1,-1.4 6.1,-4.2 0,-7.3 -18.7,-3.4 -18.7,-16.7 0,-8.5 7.4,-13 15.2,-13 4.5,0 8.9,1.2 12.2,4.2 z"
   id="path26" />
		<path
   style="fill:#7c2270"
   d="M 218.9,273 H 246 v 8.1 h -18.3 v 7.4 H 245 v 8.1 h -17.3 v 8.1 H 247 v 8.1 h -28.1 z"
   id="path28" />
		<path
   style="fill:#7c2270"
   d="m 296.3,273 h 7.3 l 17.4,39.9 h -10 l -3.4,-8.5 h -15.5 l -3.3,8.5 H 279 Z m 3.4,11.6 -4.8,12.4 h 9.8 z"
   id="path30" />
		<path
   style="fill:#7c2270"
   d="m 387.6,297.5 c 0,9.4 -5.8,16.4 -16.8,16.4 -11.1,0 -16.9,-7 -16.9,-16.4 V 273 h 8.8 v 24.2 c 0,4.9 3.4,8.6 8.1,8.6 4.6,0 8,-3.7 8,-8.6 V 273 h 8.8 z"
   id="path32" />
	</g>
</g>
</svg>
