<svg xmlns="http://www.w3.org/2000/svg" xml:space="preserve" width="512" height="512" style="enable-background:new 0 0 512 512" viewBox="0 0 55 58"><g fill="none"><path fill="#35495E" d="M44.9 47.68a5.476 5.476 0 0 0 2.31-1.12c2.2-1.91 3.07-5.24.63-7.75-2.15-2.22-5.75-3.73-6.1-9.51-.02-4.43 3.48-8.67 8.54-9.9a3.68 3.68 0 1 1 1.44 7.2 3.978 3.978 0 0 0-3.47 2.87c-.17 1.5 1.23 2.74 1.59 3.19.65.73 4.48 3.8 4.74 8.3a10.6 10.6 0 0 1-9.74 10.94z" data-original="#35495e"/><path fill="#3F5C6C" d="M45 50c0 8-7 8-11 8h-3a2 2 0 0 1-2-2v-1a1.231 1.231 0 0 1-.02.2A2.941 2.941 0 0 1 27 57.82c-.32.121-.658.182-1 .18h-2a1 1 0 0 1-1-1v-6.61a2.025 2.025 0 0 0-1.26-1.86 14.119 14.119 0 0 1-1.74-.86V55a3 3 0 0 1-3 3h-2.01a1.007 1.007 0 0 1-1-.99C13.85 48.55 12 42.81 12 38v-5.99l17.19-1.2c.45 2.48 1.92 4.09 6.81 6.19 6.63 2.84 9 6 9 13z" data-original="#3f5c6c"/><path fill="#547580" d="M33.123 8.67C33.475 2.625 30 0 30 0a10.441 10.441 0 0 0-5.249 4.329 1.908 1.908 0 0 1-1.933.923 24.854 24.854 0 0 0-7.636 0 1.908 1.908 0 0 1-1.933-.923A10.441 10.441 0 0 0 8 0S4.525 2.625 4.877 8.67a1.938 1.938 0 0 1-.665 1.53A11.929 11.929 0 0 0 0 18.979C0 26.722 8.507 33 19 33s19-6.278 19-14.021a11.929 11.929 0 0 0-4.212-8.78 1.938 1.938 0 0 1-.665-1.529z" data-original="#547580"/><path fill="#35495E" d="M17.98 45.17h-.01v-.02a1 1 0 0 0-2 .02c0 .26.1 2.52 3.49 4.53.08.05.3.19.54.32v-2.35c-1.81-1.21-2.01-2.32-2.02-2.5zM31 52a5.785 5.785 0 0 0-2 .374V50a1 1 0 0 0-2 0v7.82A2.968 2.968 0 0 0 29 55c0-.944 1.983-1 2-1a1 1 0 0 0 0-2z" data-original="#35495e"/><ellipse cx="10" cy="19" fill="#F3D55B" data-original="#f3d55b" rx="4" ry="5"/><ellipse cx="28" cy="19" fill="#F3D55B" data-original="#f3d55b" rx="4" ry="5"/><path fill="#35495E" d="M21.447 27.105c-1.172-.585-1.409-1.087-1.447-1.189V24a1 1 0 0 0-2 0v1.916c-.038.1-.275.6-1.447 1.189a1 1 0 1 0 .894 1.79A6.561 6.561 0 0 0 19 27.852c.465.422.988.775 1.553 1.048a1 1 0 1 0 .894-1.79z" data-original="#35495e"/><path fill="#FB7B76" d="M19 25a1 1 0 0 1-.447-.105l-2-1a1 1 0 1 1 .894-1.79l1.553.777 1.553-.777a1 1 0 0 1 .894 1.79l-2 1A1 1 0 0 1 19 25z" data-original="#fb7b76"/><ellipse cx="10" cy="20" fill="#35495E" data-original="#35495e" rx="2" ry="3"/><ellipse cx="28" cy="20" fill="#35495E" data-original="#35495e" rx="2" ry="3"/><g fill="#FFF"><circle cx="11" cy="18" r="1" data-original="#ffffff"/><circle cx="29" cy="18" r="1" data-original="#ffffff"/></g></g></svg>