<svg xmlns="http://www.w3.org/2000/svg" xml:space="preserve" width="512" height="512" style="enable-background:new 0 0 512 512"><path fill="#E9A777" d="m274.499 418.999-2.167 25.5-4.133 29c-4.84 3.78-20.9 15.34-44.5 15.5-24.22.17-40.73-11.78-45.5-15.5l-9.867-26.42 3.667-30.913 12.75-31.667 37.25-14.333 37.5 9.833z" data-original="#e9a777"/><g fill="#E9A777"><path d="m81.653 447.078-.007-.03a.325.325 0 0 0 .007.03z" data-original="#e9a777"/><path d="m61.488 468.689 12.22-5.44c6.19-2.75 9.53-9.52 7.96-16.11l-.01-.042-.004-.018.002.008a.868.868 0 0 1-.009-.039l-25.868-108.34c-5.92-24.81 13.15-48.15 38.06-47.97 2.692.024 3.799.247 15.92 1.31l28.64 165.45-20.75 29.25 3.94 16.75h-52.7c-5.03 0-9.57-2.04-12.86-5.33-9.031-9.029-6.169-24.285 5.459-29.479z" data-original="#e9a777"/></g><path fill="#E48A49" d="M467.969 223.939c-.57-6.05-8.93-7.19-11.14-1.52-19.92 51.12-76.42 64.71-104.27 68.32l35.2 59.96c78.41-18.93 83.89-87.56 80.21-126.76z" data-original="#e48a49"/><g fill="#E9A777"><path d="m364.744 447.078.007-.03a.325.325 0 0 1-.007.03z" data-original="#e9a777"/><path d="m384.909 468.689-12.22-5.44c-6.19-2.75-9.53-9.52-7.96-16.11l.01-.042.004-.018-.002.008a.868.868 0 0 0 .009-.039l25.868-108.34c5.92-24.81-13.15-48.15-38.06-47.97-2.692.024-3.799.247-15.92 1.31l-28.64 165.45 20.75 29.25-3.94 16.75h52.7c5.03 0 9.57-2.04 12.86-5.33 9.031-9.029 6.169-24.285-5.459-29.479z" data-original="#e9a777"/></g><path fill="#EFC5A3" d="m331.449 468.999-11.36-4.54c-7.51-3.01-10.61-12.01-6.47-18.96 12.39-20.86 29.7-58.35 29.58-107.5-.075-31.434-9.104-60.886-24.13-87.78l-100.07 44.87-91.71-44.79c-15.233 27.283-24.016 56.699-24.09 87.7-.12 49.15 17.19 86.64 29.58 107.5 4.14 6.95 1.04 15.95-6.47 18.96l-11.36 4.54c-11.935 4.774-15.068 20.202-6.01 29.26 3.24 3.24 7.71 5.24 12.65 5.24h29.61c14.91 0 27-12.09 27-27v-55.5c0-24.85 20.15-45 45-45 24.841 0 45 20.137 45 45v55.5c0 14.91 12.09 27 27 27h29.61c4.94 0 9.41-2 12.65-5.24 9.055-9.055 5.93-24.484-6.01-29.26z" data-original="#efc5a3"/><path fill="#718097" d="m298.199 218.499-.46-.08-74.54 45.14-74.54-45.14-.46.08c-4.28 6.08-12.58 16.9-20.91 31.8 16.46 35.664 52.782 61.35 95.91 61.35 42.46 0 79.14-25.2 95.87-61.43-8.32-14.86-16.6-25.65-20.87-31.72z" data-original="#718097"/><path fill="#EFC5A3" d="m312.332 48.499-24.593-24.66c-41.4-12.425-86.007-12.951-129.1-.07l-31.35 30.73-7.16 71.24 6.07 24.78a44.704 44.704 0 0 0 9.6 18.62c.388.642 11.85 11.564 11.85 30.37v6.59c0 41.661 33.761 75.55 75.55 75.55 37.53 0 68.67-27.36 74.54-63.23 1.404-8.405.906-14.118 1.01-18.6a44.752 44.752 0 0 1 11.25-29.67c4.8-5.42 8.21-11.93 9.95-18.97l6.29-25.54z" data-original="#efc5a3"/><path fill="#718097" d="m211.859 219.879-16.37-25.73c-5.69-8.94.73-20.65 11.34-20.65h32.74c10.6 0 17.03 11.71 11.34 20.65l-16.37 25.73c-5.272 8.287-17.4 8.3-22.68 0z" data-original="#718097"/><path fill="#E9A777" d="M156.879 36.909c-26.881 50.871-45.05 106.019-53.64 162.69-1.557 10.211-10.604 17.913-21.38 17.21a20.249 20.249 0 0 1-18.35-15.5l-17.93-75.17c-9.73-40.8 11.07-82.73 49.44-99.67l37.02-16.34c8.32-3.67 18.07-.97 23.32 6.45l.24.34c4.119 5.805 4.684 13.543 1.28 19.99z" data-original="#e9a777"/><path fill="#718097" d="M193.752 123.824c-2.531-6.226-8.909-10.326-15.729-10.326-6.791 0-12.818 4.044-15.378 10.329a7.497 7.497 0 0 1-9.774 4.118 7.498 7.498 0 0 1-4.118-9.774c4.874-11.972 16.346-19.673 29.269-19.673 13.122 0 24.775 7.746 29.625 19.676a7.498 7.498 0 0 1-4.122 9.772c-3.842 1.566-8.217-.294-9.773-4.122zm96.95 4.677a7.5 7.5 0 0 1-6.95-4.677c-2.531-6.226-8.909-10.326-15.729-10.326-6.791 0-12.818 4.044-15.378 10.329a7.496 7.496 0 0 1-9.774 4.118 7.498 7.498 0 0 1-4.118-9.774c4.715-11.58 15.846-19.672 29.499-19.672 13.035.094 24.573 7.816 29.395 19.675 2.015 4.955-1.663 10.327-6.945 10.327z" data-original="#718097"/><path fill="#E9A777" d="m290.789 16.919.25-.34c5.24-7.42 15-10.12 23.32-6.45l37.02 16.34c38.37 16.94 59.17 58.87 49.44 99.67l-17.93 75.17c-2.179 9.128-10.337 15.55-19.73 15.55-9.94 0-18.48-7.29-20-17.26a513.601 513.601 0 0 0-53.64-162.69 19.133 19.133 0 0 1 1.27-19.99z" data-original="#e9a777"/></svg>