<svg xmlns="http://www.w3.org/2000/svg" width="1600" height="1600" viewBox="0 0 1200 1200"><path d="M1148.5 600c0-14.617-82.789-9.527-90.023-23.039-6.898-13.344 60.371-56.062 56.676-69.613-3.77-13.633-83.531-16.43-84.191-31.332-.574-15.07 75.648-49.246 69.324-62.137-6.254-12.938-81.254 24.48-92.41 14.293-11.172-10.234 39.758-70.645 32.773-82.836-6.984-12.191-85.008 2.016-88.141-12.77-3.277-14.867 66.457-61.273 58.402-73.066-8.219-11.867-75.66 37.043-88.379 29.039-12.742-7.969 24.875-78.277 15.035-88.379-9.781-10.188-80.746 26.41-88.715 13.754-8.23-12.887 37.859-81.852 25.285-89.125-12.562-7.262-49.355 67.031-64.645 66.492-14.867-.574-18.73-80.328-32.438-83.82-13.645-3.36-55.621 64.355-68.914 57.289-13.309-7.02-4.523-89.902-18.973-91.008-14.051-1.066-19.645 82.598-34.094 87.156-14.375 4.559-40.969-70.117-55.285-70.117-14.207 0-40.883 74.676-55.117 70.117-14.531-4.559-19.934-88.223-34.066-87.156-14.387 1.105-5.832 83.988-19.094 91.008-13.367 7.066-55.262-60.66-68.855-57.254-13.859 3.492-17.664 83.242-32.461 83.82-15.406.527-52.105-73.766-64.691-66.492-12.492 7.262 33.516 76.262 25.273 89.16-7.969 12.648-78.852-23.988-88.547-13.836-9.875 10.105 27.73 80.41 15.035 88.379-12.719 8.004-80.219-40.906-88.32-29.039-8.195 11.785 61.523 58.199 58.332 73.066-3.227 14.785-81.109.527-88.176 12.77-7.02 12.156 43.922 72.648 32.652 82.871-11.195 10.152-86.102-27.191-92.34-14.281-6.254 12.938 69.926 46.98 69.324 62.09-.492 14.914-80.258 17.617-84.047 31.297-3.793 13.559 63.504 56.352 56.566 69.695C134.22 590.437 51.47 585.383 51.47 600c0 14.664 82.836 9.527 89.82 22.992 6.926 13.355-60.371 56.113-56.566 69.66 3.805 13.691 83.484 16.512 84.047 31.262.504 15.238-75.637 49.309-69.371 62.137 6.29 12.984 81.156-24.395 92.352-14.258 11.27 10.262-39.684 70.68-32.676 82.871 7.078 12.277 84.926-2.016 88.199 12.816 3.227 14.855-66.492 61.234-58.344 73.02 8.113 11.953 75.59-36.961 88.32-29.004 12.77 7.969-24.898 78.254-15.023 88.344 9.926 10.234 80.699-26.449 88.668-13.883 8.258 12.898-37.766 81.984-25.223 89.172 12.59 7.262 49.367-67.152 64.668-66.492 14.867.574 18.707 80.41 32.531 83.82 13.598 3.527 55.523-64.199 68.832-57.133 13.223 6.898 4.57 89.855 19.031 90.926 14.027 1.031 19.57-82.5 34.105-87.109 14.316-4.559 40.957 70.152 55.199 70.152 14.23 0 40.836-74.785 55.223-70.152 14.449 4.61 19.871 88.094 34.094 87.109 14.449-1.152 5.82-84.07 19.055-91.008 13.297-7.106 55.273 60.574 68.832 57.168 13.789-3.527 17.578-83.207 32.438-83.773 15.445-.492 52.164 73.754 64.727 66.492 12.492-7.117-33.504-76.262-25.367-89.172 8.04-12.562 78.84 24.121 88.777 13.883 9.77-10.066-27.758-80.375-15.109-88.344 12.73-7.957 80.172 40.957 88.379 29.09 8.05-11.785-61.609-58.246-58.402-73.105 3.29-14.832 81.238-.625 88.297-12.852 6.898-12.203-44.027-72.574-32.699-82.836 11.09-10.066 85.922 27.395 92.172 14.328 6.313-12.938-69.898-46.98-69.254-62.219.492-14.785 80.328-17.578 84.191-31.262 3.707-13.547-63.574-56.184-56.676-69.613 6.992-13.367 89.781-8.363 89.781-23.027zm-713.24 17.746c-61.645 0-111.59-49.98-111.59-111.59 0-61.645 49.945-111.62 111.59-111.62 61.656 0 111.61 49.98 111.61 111.62-.004 61.602-49.957 111.59-111.61 111.59zm324.63 0c-61.598 0-111.54-49.98-111.54-111.59 0-61.645 49.945-111.62 111.54-111.62 61.691 0 111.64 49.98 111.64 111.62 0 61.602-49.941 111.59-111.64 111.59z"/><path d="M435.28 464.1c-23.184 0-42.012 18.852-42.012 42.059 0 23.16 18.828 42.012 42.012 42.012 23.207 0 42.035-18.852 42.035-42.012 0-23.207-18.828-42.059-42.035-42.059zM759.91 464.1c-23.16 0-41.965 18.852-41.965 42.059 0 23.16 18.805 42.012 41.965 42.012 23.258 0 42.059-18.852 42.059-42.012.004-23.207-18.801-42.059-42.059-42.059z"/></svg>