<svg xmlns="http://www.w3.org/2000/svg" xml:space="preserve" width="512" height="512" style="enable-background:new 0 0 512 512"><path fill="#FFC9C9" d="M280 216s-32-16-48-16c-20.1 0-51.9 8.147-72 8-18.11-.132-53.889-8-72-8-16 0-48 16-48 16V88s32-16 48-16c18.111 0 53.89 7.868 72 8 20.1.147 51.9-8 72-8 16 0 48 16 48 16z" data-original="#ffc9c9"/><path fill="#ED8989" d="M280 127.1V144h-.01a8.021 8.021 0 0 1-3.57-.84C267.98 138.94 243.55 128 232 128c-9.32 0-22.03 1.98-34.32 3.89-13.24 2.06-26.91 4.18-37.74 4.11-9.49-.07-22.66-2.01-36.59-4.06C110.19 130 96.58 128 88 128c-11.55 0-35.98 10.94-44.42 15.16A8.063 8.063 0 0 1 40 144v-16.9c9.35-4.43 33.39-15.1 48-15.1 9.76 0 23.95 2.09 37.68 4.11 12.78 1.88 25.99 3.83 34.38 3.89 9.5.09 22.55-1.96 35.16-3.92 12.89-2.01 26.23-4.08 36.78-4.08 14.61 0 38.65 10.67 48 15.1z" data-original="#ed8989"/><path fill="#ED6F6D" d="M280 159.1V176h-.01a8.021 8.021 0 0 1-3.57-.84C267.98 170.94 243.55 160 232 160c-9.32 0-22.03 1.98-34.32 3.89-13.24 2.06-26.91 4.2-37.74 4.11-9.49-.07-22.66-2.01-36.59-4.06C110.19 162 96.58 160 88 160c-11.55 0-35.98 10.94-44.42 15.16A8.063 8.063 0 0 1 40 176v-16.9c9.35-4.43 33.39-15.1 48-15.1 9.76 0 23.95 2.09 37.68 4.11 12.78 1.88 25.99 3.83 34.38 3.89 9.5.09 22.55-1.96 35.16-3.92 12.89-2.01 26.23-4.08 36.78-4.08 14.61 0 38.65 10.67 48 15.1zM488 288c0 56-46.979 88-125.277 88-114.723 0-140.936 0-203.574-16C138.173 354.642 120 342.091 120 320v-32l368-56z" data-original="#ed6f6d"/><path fill="#FF9494" d="M378.383 120q-1.455 0-2.9.039C276.308 121.7 260.635 208.231 229.617 232c-22.585 17.307-62.638 16-70.468 16C137.528 248 120 265.909 120 288s18.173 34.642 39.149 40c62.638 16 109.617 16 203.574 16C441.021 344 488 293.856 488 232s-49.077-112-109.617-112z" data-original="#ff9494"/><circle cx="392" cy="232" r="48" fill="#FFC9C9" data-original="#ffc9c9"/><path fill="#ED8989" d="M43.945 400 28.4 420.686a16.754 16.754 0 0 0 0 22.628 14.369 14.369 0 0 0 21.233 0L73.972 416H120v-32H73.972L49.63 356.686a14.369 14.369 0 0 0-21.233 0 16.754 16.754 0 0 0 0 22.628z" data-original="#ed8989"/><path fill="#FFC9C9" d="M280 488a88 88 0 0 0 0-176c-56 0-104 48-144 48a40 40 0 0 0 0 80c40 0 88 48 144 48z" data-original="#ffc9c9"/></svg>