<svg xmlns="http://www.w3.org/2000/svg" xml:space="preserve" width="512" height="512" style="enable-background:new 0 0 512 512" viewBox="0 0 64 64"><g data-name="24-red panda"><g fill="#E9EDF5"><ellipse cx="27" cy="13.5" data-original="#e9edf5" rx="2" ry="1.5"/><path d="M32 23a1.036 1.036 0 0 0 .8-.36l1-1.2a.842.842 0 0 0-.19-1.25C37.41 21.44 41 25.29 41 28c0 5-5.4 5-9 5s-9 0-9-5c0-2.71 3.59-6.56 7.39-7.81a.842.842 0 0 0-.19 1.25l1 1.2a1.036 1.036 0 0 0 .8.36z" data-original="#e9edf5"/><ellipse cx="37" cy="13.5" data-original="#e9edf5" rx="2" ry="1.5"/><path d="M44.97 19c2.02 0 3.03.91 3.03 3.64 0 3.51-2.95 6.36-5.04 6.36A5.834 5.834 0 0 0 44 25a2.48 2.48 0 0 0-1.11-1.94 1.152 1.152 0 0 1-.43-.4 2.239 2.239 0 0 1-.34-2.07Q42.66 19 44.97 19zm-23.09 1.59a2.239 2.239 0 0 1-.34 2.07 1.152 1.152 0 0 1-.43.4A2.48 2.48 0 0 0 20 25a5.834 5.834 0 0 0 1.04 4C18.95 29 16 26.15 16 22.64c0-2.73 1.01-3.64 3.03-3.64q2.31 0 2.85 1.59zM11 1c3 3 6 8 6 10-1.04 1.33-2.1 2.69-3.14 3.85C11 11.66 11 1 11 1zm42 0s0 10.66-2.86 13.85C49.1 13.69 48.04 12.33 47 11c0-2 3-7 6-10z" data-original="#e9edf5"/></g><path fill="#EB7C63" d="M50.14 14.85C51.77 16.66 53.4 18 55 18c0 0-2 3-4 3a4.38 4.38 0 0 0 3 1s-.73 8.04-12.81 10.37A37.615 37.615 0 0 1 34 33h-2c3.6 0 9 0 9-5 0-2.71-3.59-6.56-7.39-7.81A1.007 1.007 0 0 0 33 20h-2a1.007 1.007 0 0 0-.61.19C26.59 21.44 23 25.29 23 28c0 5 5.4 5 9 5h-2a38.977 38.977 0 0 1-6.16-.45C10.77 30.49 10 22 10 22a4.38 4.38 0 0 0 3-1c-2 0-4-3-4-3 1.6 0 3.23-1.34 4.86-3.15 1.04-1.16 2.1-2.52 3.14-3.85 0-1 5-8 7-8a20.316 20.316 0 0 1 7-1h2a20.316 20.316 0 0 1 7 1c2 0 7 7 7 8 1.04 1.33 2.1 2.69 3.14 3.85zM48 22.64c0-2.73-1.01-3.64-3.03-3.64q-2.31 0-2.85 1.59a2.239 2.239 0 0 0 .34 2.07 1.152 1.152 0 0 0 .43.4A2.48 2.48 0 0 1 44 25a5.834 5.834 0 0 1-1.04 4c2.09 0 5.04-2.85 5.04-6.36zm-9-9.14c0-.83-.9-1.5-2-1.5s-2 .67-2 1.5.9 1.5 2 1.5 2-.67 2-1.5zm-10 0c0-.83-.9-1.5-2-1.5s-2 .67-2 1.5.9 1.5 2 1.5 2-.67 2-1.5zm-7.46 9.16a2.239 2.239 0 0 0 .34-2.07Q21.34 19 19.03 19c-2.02 0-3.03.91-3.03 3.64 0 3.51 2.95 6.36 5.04 6.36A5.834 5.834 0 0 1 20 25a2.48 2.48 0 0 1 1.11-1.94 1.152 1.152 0 0 0 .43-.4z" data-original="#eb7c63"/><path fill="#414952" d="M50 1h3c-3 3-6 8-6 10 0-1-5-8-7-8 0 0 2-2 10-2z" data-original="#414952"/><path fill="#EB7C63" d="M37.11 45.89a20.268 20.268 0 0 0-5.5-3.88 27.166 27.166 0 0 0-5.8-2.04 34.386 34.386 0 0 0-5.11-.81A5.258 5.258 0 0 1 22 39l1.84-6.45A38.977 38.977 0 0 0 30 33h4a37.615 37.615 0 0 0 7.19-.63l8.18 16.13C50.43 50.13 51 51.04 51 53v2c0 3.31-2.73 5.77-5.99 7.02L45 62c-3.87 0-8-5-8-16z" data-original="#eb7c63"/><path fill="#333940" d="m45 62 .01.02A13.944 13.944 0 0 1 40 63h-3c-3.87 0-8-4.26-8-12a14.768 14.768 0 0 1 2.61-8.99 20.268 20.268 0 0 1 5.5 3.88L37 46c0 11 4.13 16 8 16z" data-original="#333940"/><path fill="#EB6647" d="M37 63h-8c-3.87 0-8-4.26-8-12 0-5.59 2.16-9.36 4.81-11.03a27.166 27.166 0 0 1 5.8 2.04A14.768 14.768 0 0 0 29 51c0 7.74 4.13 12 8 12z" data-original="#eb6647"/><path fill="#333940" d="M29 63h-7c-3.87 0-8-4.26-8-12 0-6.88 3.26-11.01 6.7-11.84a34.386 34.386 0 0 1 5.11.81C23.16 41.64 21 45.41 21 51c0 7.74 4.13 12 8 12z" data-original="#333940"/><path fill="#414952" d="M14 1c8 0 10 2 10 2-2 0-7 7-7 8 0-2-3-7-6-10z" data-original="#414952"/><path fill="#EB6647" d="M22 63h-8c-.12 0-.24 0-.36-.01C9.88 62.73 6 58.5 6 51c0-5.72 2.26-9.54 5-11.15l-.01-.02A21.5 21.5 0 0 1 17 39c1.29 0 2.53.05 3.7.16-3.44.83-6.7 4.96-6.7 11.84 0 7.74 4.13 12 8 12z" data-original="#eb6647"/><path fill="#333940" d="m10.99 39.83.01.02C8.26 41.46 6 45.28 6 51c0 7.5 3.88 11.73 7.64 11.99C6.62 62.89 1 59.69 1 51c0-5.32 4.13-9.48 9.99-11.17zM33 20a.9.9 0 0 1 .8 1.439l-1 1.2a1.062 1.062 0 0 1-1.6 0l-1-1.2A.9.9 0 0 1 31 20zm5 18a2 2 0 0 0-2-2h-.438a2 2 0 0 0-1.941 1.515l-1.229 4.919a19.883 19.883 0 0 1 4.718 3.456 11.478 11.478 0 0 1 .89.97z" data-original="#333940"/><path fill="#EB6647" d="M35.562 36H36a2 2 0 0 1 2 2v8.86a12.6 12.6 0 0 1 2.8 5.364A4.93 4.93 0 0 0 44.283 56c1.662.439 3.928.342 6.717-1.347V53c0-1.96-.57-2.87-1.63-4.5l-8.18-16.13A37.615 37.615 0 0 1 34 33h-4a38.977 38.977 0 0 1-6.16-.45L22 39a5.258 5.258 0 0 0-1.3.16 34.386 34.386 0 0 1 5.11.81 27.166 27.166 0 0 1 5.8 2.04c.273.135.521.283.782.424l1.229-4.919A2 2 0 0 1 35.562 36z" data-original="#eb6647"/><path fill="#CDD2E1" d="M32 31c-3.3 0-8.107-.012-8.881-3.87A3.749 3.749 0 0 0 23 28c0 5 5.4 5 9 5s9 0 9-5a3.749 3.749 0 0 0-.119-.87C40.107 30.988 35.3 31 32 31zM49.764 8.45a28 28 0 0 1 3.158-5.058C53 1.963 53 1 53 1c-3 3-6 8-6 10 1.04 1.33 2.1 2.69 3.14 3.85a5.768 5.768 0 0 0 .86-1.339 54.646 54.646 0 0 1-.729-.9 3.99 3.99 0 0 1-.507-4.161zm-35.528 0a28 28 0 0 0-3.158-5.058C11 1.963 11 1 11 1c3 3 6 8 6 10-1.04 1.33-2.1 2.69-3.14 3.85a5.768 5.768 0 0 1-.86-1.339c.243-.295.486-.592.729-.9a3.99 3.99 0 0 0 .507-4.161z" data-original="#cdd2e1"/><path fill="#414952" d="M51.227 3A24.414 24.414 0 0 1 53 1h-3c-8 0-10 2-10 2a3.466 3.466 0 0 1 1.865 1.049A25.1 25.1 0 0 1 50 3zM14 1h-3a24.414 24.414 0 0 1 1.773 2H14a25.1 25.1 0 0 1 8.135 1.049A3.466 3.466 0 0 1 24 3s-2-2-10-2zm22 35h-.438a2 2 0 0 0-1.726 1H34a2 2 0 0 1 2 2v5.871c.393.332.767.671 1.11 1.019a11.478 11.478 0 0 1 .89.97V38a2 2 0 0 0-2-2z" data-original="#414952"/><path fill="#E05332" d="M33.562 37a2 2 0 0 0-1.941 1.515v.005a1.16 1.16 0 0 1-1.562.8 27.91 27.91 0 0 0-4.248-1.35 32.817 32.817 0 0 0-3.346-.6L22 39a5.258 5.258 0 0 0-1.3.16 34.386 34.386 0 0 1 5.11.81 27.166 27.166 0 0 1 5.8 2.04c.273.135.521.283.782.424l1.229-4.919a2.009 2.009 0 0 1 .215-.515zm11.721 17a4.93 4.93 0 0 1-3.483-3.776A12.6 12.6 0 0 0 39 44.86a11.478 11.478 0 0 0-.89-.97c-.034-.035-.075-.067-.11-.1v3.07a12.6 12.6 0 0 1 2.8 5.364A4.93 4.93 0 0 0 44.283 56c1.662.439 3.928.342 6.717-1.347V53.2a8.033 8.033 0 0 1-5.717.8z" data-original="#e05332"/><path fill="#414952" d="M31.61 47.01a20.268 20.268 0 0 1 5.5 3.88c.088.085.16.179.244.266A35.911 35.911 0 0 1 37 46l.11-.11a20.268 20.268 0 0 0-5.5-3.88 12.329 12.329 0 0 0-1.977 4.146c.688.267 1.355.544 1.977.854z" data-original="#414952"/><path fill="#EB937F" d="M22.277 44.352a32.962 32.962 0 0 1 3.533.618 28.239 28.239 0 0 1 3.823 1.186 12.329 12.329 0 0 1 1.977-4.146 27.166 27.166 0 0 0-5.8-2.04 9.635 9.635 0 0 0-3.533 4.382z" data-original="#eb937f"/><path fill="#414952" d="M15.4 44.056A23.367 23.367 0 0 1 17 44c1.29 0 2.53.05 3.7.16.546.048 1.056.125 1.577.192a9.635 9.635 0 0 1 3.533-4.382 34.386 34.386 0 0 0-5.11-.81 8.351 8.351 0 0 0-5.3 4.896z" data-original="#414952"/><path fill="#EB937F" d="M6.454 46.859a17.281 17.281 0 0 1 4.536-2.029 20.944 20.944 0 0 1 4.407-.774 8.351 8.351 0 0 1 5.3-4.9A41.08 41.08 0 0 0 17 39a21.5 21.5 0 0 0-6.01.83l.01.02c-2.012 1.182-3.756 3.566-4.546 7.009z" data-original="#eb937f"/><path fill="#414952" d="M6.454 46.859c.79-3.443 2.534-5.827 4.546-7.009l-.01-.02C5.13 41.52 1 45.68 1 51a16.853 16.853 0 0 0 .237 2.869 11.323 11.323 0 0 1 5.217-7.01z" data-original="#414952"/><path fill="#CF4D2D" d="m41.95 33.868-.76-1.5A37.615 37.615 0 0 1 34 33h-4a38.977 38.977 0 0 1-6.16-.45l-.424 1.487A32.577 32.577 0 0 0 32.5 35c4.167 0 7.753-.462 9.45-1.132z" data-original="#cf4d2d"/><path fill="#EB937F" d="m49.37 48.5-7.42-14.632a12.408 12.408 0 0 1-2.189.569l7.587 14.331a8 8 0 0 1 .852 2.612l.359 2.514a2.017 2.017 0 0 1-1.812 2.28A6.847 6.847 0 0 1 44.283 56a4.93 4.93 0 0 1-3.483-3.776A12.6 12.6 0 0 0 38 46.86a11.478 11.478 0 0 0-.89-.97L37 46a35.911 35.911 0 0 0 .354 5.156c.224.232.45.465.646.7 1.5 1.766 1.746 2.886 3 4.14a7.638 7.638 0 0 0 5 2 12.573 12.573 0 0 0 4.711-1.19A5.805 5.805 0 0 0 51 55v-2c0-1.96-.57-2.87-1.63-4.5z" data-original="#eb937f"/><path fill="#784132" d="M23 28c0-2.71 3.59-6.56 7.39-7.81-.009.007-.014.017-.023.024A1.031 1.031 0 0 1 31 20h-.333a1.692 1.692 0 0 0-.845.214c.012-.007.019-.017.031-.024-4.531 1.118-8.827 4.313-9.687 6.915A10.612 10.612 0 0 0 21.04 29a2.955 2.955 0 0 1-.964-.184C20.832 33 27.478 33 32 33c-3.6 0-9 0-9-5zm20.834-.895c-.86-2.6-5.156-5.8-9.687-6.915.012.007.019.017.031.024a1.692 1.692 0 0 0-.845-.214H33a1.031 1.031 0 0 1 .633.214c-.009-.007-.014-.017-.023-.024C37.41 21.44 41 25.29 41 28c0 5-5.4 5-9 5 4.522 0 11.168 0 11.924-4.184a2.955 2.955 0 0 1-.964.184 10.612 10.612 0 0 0 .874-1.895z" data-original="#784132"/><path fill="#EB937F" d="M55 18c-1.6 0-3.23-1.34-4.86-3.15-1.04-1.16-2.1-2.52-3.14-3.85 0-1-5-8-7-8a20.316 20.316 0 0 0-7-1h-2a20.316 20.316 0 0 0-7 1c-2 0-7 7-7 8-1.04 1.33-2.1 2.69-3.14 3.85C12.23 16.66 10.6 18 9 18c0 0 2 3 4 3a4.38 4.38 0 0 1-3 1s.77 8.49 13.84 10.55A38.977 38.977 0 0 0 30 33h.435a24.846 24.846 0 0 1-4.821-.435c-10.229-1.994-10.831-8.21-10.831-8.21a3.364 3.364 0 0 0 1.385-.289 6.5 6.5 0 0 1-.154-1.151A16.242 16.242 0 0 1 13 19.484c1.252 0 3.528-2.3 4.8-4.049.814-1.122 1.644-2.438 2.458-3.725 0-.968 3.913-7.742 5.478-7.742A13.134 13.134 0 0 1 31.217 3h1.566a13.134 13.134 0 0 1 5.478.968c1.565 0 5.478 6.774 5.478 7.742.814 1.287 1.644 2.6 2.458 3.725 1.275 1.752 2.551 4.049 3.8 4.049a8.658 8.658 0 0 1-2.034 2.485c.016.215.034.427.034.671 0 .162-.013.322-.025.481a3.347 3.347 0 0 0 1.242.234s-.571 6.78-10.025 9.035a23.988 23.988 0 0 1-5.627.61H34a37.615 37.615 0 0 0 7.19-.63C53.27 30.04 54 22 54 22a4.38 4.38 0 0 1-3-1c2 0 4-3 4-3z" data-original="#eb937f"/><path fill="#333940" d="M39.612 16.419a1.379 1.379 0 0 0-.989-.419H38.6a2.633 2.633 0 0 0-1.762.848A2.6 2.6 0 0 0 36 18.623a1.354 1.354 0 0 0 .385.958 1.379 1.379 0 0 0 .989.416h.026a2.616 2.616 0 0 0 1.748-.834l.014-.014A2.6 2.6 0 0 0 40 17.377a1.354 1.354 0 0 0-.388-.958zM25.4 16h-.025a1.354 1.354 0 0 0-.958.385 1.379 1.379 0 0 0-.416.989 2.6 2.6 0 0 0 .833 1.773l.014.014A2.616 2.616 0 0 0 26.6 20h.025a1.354 1.354 0 0 0 .958-.385 1.379 1.379 0 0 0 .417-.992A2.922 2.922 0 0 0 25.4 16zm10.155 10.168L33 24.465V22.4l-.2.24a1.062 1.062 0 0 1-1.6 0l-.2-.24v2.069l-2.555 1.7a1 1 0 0 0 1.11 1.664L32 26.2l2.445 1.63a1 1 0 1 0 1.11-1.664z" data-original="#333940"/><path fill="#333940" d="M33 20a.9.9 0 0 1 .8 1.439l-1 1.2a1.062 1.062 0 0 1-1.6 0l-1-1.2A.9.9 0 0 1 31 20z" data-original="#333940"/><path fill="#23272B" d="m33.8 20.439-1 1.2a1.062 1.062 0 0 1-1.6 0l-1-1.2c-.009-.011-.013-.024-.021-.035a.816.816 0 0 0 .021 1.035l1 1.2a1.062 1.062 0 0 0 1.6 0l1-1.2a.816.816 0 0 0 .021-1.035c-.008.011-.012.024-.021.035z" data-original="#23272b"/><ellipse cx="32.311" cy="21.102" fill="#F6FAFD" data-original="#f6fafd" rx=".413" ry=".574" transform="rotate(-45 32.327 21.113)"/><ellipse cx="23.258" cy="43.814" fill="#F6FAFD" data-original="#f6fafd" rx=".825" ry="1.148" transform="rotate(-45 23.269 43.836)"/><ellipse cx="48.004" cy="3.314" fill="#F6FAFD" data-original="#f6fafd" rx=".413" ry=".574" transform="rotate(-45 48.027 3.317)"/><ellipse cx="28.26" cy="44.8" fill="#F6FAFD" data-original="#f6fafd" rx="1.642" ry="2.286" transform="rotate(-45 28.274 44.822)"/></g></svg>