<svg xmlns="http://www.w3.org/2000/svg" xml:space="preserve" width="512" height="512" style="enable-background:new 0 0 512 512"><defs><clipPath id="a"><path d="M6.398.031h20.704V.13H6.398ZM3.5.13h27.2V.23H3.5ZM2.602.23h31v.098h-31Zm-.403.098h33.903V.43H2.199ZM1.9.43H38.3V.53H1.898ZM1.601.53H40.3V.63H1.6ZM1.398.63H42.2V.73H1.4ZM1.301.73h42.597v.098H1.301Zm-.2.098h44.5V.93h-44.5ZM1 .93h46.102v.101H1Zm-.2.101h47.802v.098H.8Zm0 .098H50v.101H.8Zm-.1.101h50.8v.098H.7Zm-.098.098h52.097v.102H.602ZM.5 1.43H54v.101H.5Zm-.102.101H55.2v.098H.4Zm0 .098H56.5v.101H.398Zm-.097.101h57.3v.098H.302Zm0 .098h58.398v.102H.301Zm-.102.102h59.602v.101H.199Zm0 .101h60.7v.098H.198Zm-.097.098H62v.101H.102Zm0 .101H63v.098H.102Zm0 .098H64v.102H.102Zm0 .102h64.796v.101H.102ZM0 2.53h65.898v.098H0Zm0 .098h66.898v.101H0Zm0 .101h67.8v.098H0Zm0 .098h68.7v.102H0Zm0 .102h69.602v.101H0Zm0 .101h70.5v.098H0Zm0 .098h71.3v.101H0Zm0 .101h72.2v.098H0Zm0 .098h73.102v.102H0Zm0 .102h73.898v.101H0Zm0 .101h74.7v.098H0Zm0 .098h75.398v.101H0Zm0 .101h76.2v.098H0Zm0 .098h77v.102H0Zm0 .102h77.8v.101H0Zm0 .101h78.602v.098H0Zm0 .098h79.3v.101H0Zm0 .101h80v.098H0Zm0 .098h80.8v.102H0Zm0 .102h81.5v.101H0Zm0 .101h82.2v.098H0Zm0 .098h82.898v.101H0Zm0 .101h83.602v.098H0Zm0 .098h84.3v.102H0Zm0 .102h85v.101H0Zm0 .101h85.602v.098H0Zm0 .098h86.3v.101H0Zm0 .101h86.898v.098H0Zm0 .098h87.602v.102H0Zm0 .102h88.2v.101H0Zm0 .101h88.898v.098H0Zm0 .098h89.5v.101H0Zm0 .101h90.2v.098H0Zm0 .098h90.8v.102H0Zm0 .102h91.398v.101H0Zm0 .101h92v.098H0Zm0 .098h92.602v.101H0Zm0 .101h93.2v.098H0Zm0 .098h93.7v.102H0Zm0 .102h94.3v.101H0Zm0 .101h94.898v.098H0Zm0 .098h95.5v.101H0Zm0 .101h96.102v.098H0Zm0 .098h96.7v.102H0Zm0 .102h97.2v.101H0Zm0 .101h97.8v.098H0Zm0 .098h98.3v.101H0Zm0 .101h98.8v.098H0Zm0 .098h99.398v.102H0Zm0 .102h99.898v.101H0Zm0 .101h100.5v.098H0Zm0 .098h101v.101H0Zm0 .101h101.5v.098H0Zm0 .098h102.102v.102H0Zm0 .102h102.602v.101H0Zm0 .101h103.102v.098H0Zm0 .098h103.602v.101H0Zm0 .101h104.102v.098H0Zm0 .098h104.602v.102H0Zm0 .102h105.102v.101H0Zm0 .101h105.602v.098H0Zm0 .098h106.102v.101H0Zm0 .101h106.602v.098H0Zm0 .098h107.102v.102H0Zm0 .102h107.602v.101H0Zm0 .101h108.102v.098H0Zm0 .098h108.602v.101H0Zm0 .101h109v.098H0Zm0 .098h109.5v.102H0Zm0 .102h109.898v.101H0Zm0 .101h110.398v.098H0Zm0 .098h110.898v.101H0Zm0 .101h111.3v.098H0Zm0 .098h111.8v.102H0Zm0 .102h112.2v.101H0Zm0 .101h112.7v.098H0Zm0 .098h113.102v.101H0Zm0 .101h113.602v.098H0Zm0 .098h114v.102H0Zm0 .102h114.5v.101H0Zm0 .101h114.898v.098H0Zm0 .098h115.398v.101H0Zm0 .101h115.8v.098H0Zm0 .098h116.2v.102H0Zm0 .102h116.602v.101H0Zm0 .101h117v.098H0Zm0 .098h117.5v.101H0Zm0 .101h117.898v.098H0Zm0 .098h118.3v.102H0Zm0 .102h118.7v.101H0Zm0 .101h119.102v.098H0Zm0 .098h119.602v.101H0Zm0 .101h120v.098H0Zm0 .098h120.398v.102H0Zm0 .102h120.8v.101H0Zm0 .101h121.2v.098H0Zm0 .098h121.602v.101H0Zm0 .101h122v.098H0Zm0 .098h122.398v.102H0Zm0 .102h122.7v.101H0Zm0 .101h123.102v.098H0Zm0 .098h123.5v.101H0Zm0 .101h123.898v.098H0Zm0 .098h124.3v.102H0Zm0 .102h124.7v.101H0Zm0 .101h125.102v.098H0Zm0 .098h125.5v.101H0Zm0 .101h125.898v.098H0Zm0 .098h126.2v.102H0Zm0 .102h126.602v.101H0Zm0 .101h127v.098H0Zm0 .098h127.398v.101H0Zm0 .101h127.7v.098H0Zm0 .098h128.102v.102H0Zm0 .102h128.398v.101H0Zm0 .101h128.8v.098H0Zm0 .098h129.102v.101H0Zm0 .101h129.5v.098H0Zm0 .098h129.898v.102H0Zm0 .102h130.2v.101H0Zm0 .101h130.602v.098H0Zm0 .098h130.898v.101H0Zm0 .101h131.3v.098H0Zm0 .098h131.7v.102H0Zm0 .102h132v.101H0Zm0 .101h132.398v.098H0Zm0 .098h132.7v.101H0Zm0 .101h133.102v.098H0Zm0 .098h133.398v.102H0Zm0 .102h133.7v.101H0Zm0 .101h134.102v.098H0Zm0 .098h134.398v.101H0Zm0 .101h134.7v.098H0Zm0 .098h135.102v.102H0Zm0 .102h135.398v.101H0Zm0 .101h135.7v.098H0Zm0 .098h136.102v.101H0Zm0 .101h136.398v.098H0Zm0 .098h136.7v.102H0Zm0 .102h137v.101H0Zm0 .101h137.398v.098H0Zm0 .098h137.7v.101H0Zm0 .101h138v.098H0Zm0 .098h138.398v.102H0Zm0 .102h138.7v.101H0Zm0 .101h139v.098H0Zm0 .098h139.3v.101H0Zm0 .101h139.602v.098H0Zm0 .098h139.898v.102H0Zm0 .102h140.2v.101H0Zm0 .101h140.602v.098H0Zm0 .098h140.898v.101H0Zm0 .101h141.2v.098H0Zm0 .098h141.5v.102H0Zm0 .102h141.8v.101H0Zm0 .101h142.102v.098H0Zm0 .098h142.398v.101H0Zm0 .101h142.7v.098H0Zm0 .098h143v.102H0Zm0 .102h143.3v.101H0Zm0 .101h143.602v.098H0Zm0 .098h143.898v.101H0Zm0 .101h144.2v.098H0Zm0 .098h144.5v.102H0Zm0 .102h144.8v.101H0Zm0 .101h145.102v.098H0Zm0 .098h145.398v.101H0Zm0 .101h145.7v.098H0Zm0 .098h146v.102H0Zm0 .102h146.3v.101H0Zm0 .101h146.5v.098H0Zm0 .098h146.8v.101H0Zm0 .101h147.102v.098H0Zm0 .098h147.398v.102H0Zm0 .102h147.7v.101H0Zm0 .101h148v.098H0Zm0 .098h148.2v.101H0Zm0 .101h148.5v.098H0Zm0 .098h148.8v.102H0Zm0 .102h149.102v.101H0Zm0 .101h149.398v.098H0Zm0 .098h149.7v.101H0Zm0 .101h149.898v.098H0Zm0 .098h150.2v.102H0Zm0 .102h150.5v.101H0Zm0 .101h150.8v.098H0Zm0 .098h151.102v.101H0Zm0 .101h151.3v.098H0Zm0 .098h151.602v.102H0Zm0 .102h151.8v.101H0Zm0 .101h152.102v.098H0Zm0 .098h152.398v.101H0Zm0 .101h152.602v.098H0Zm0 .098h152.898v.102H0Zm0 .102h153.2v.101H0Zm0 .101h153.398v.098H0Zm0 .098h153.7v.101H0Zm0 .101h153.898v.098H0Zm0 .098h154.2v.102H0Zm0 .102h154.5v.101H0Zm0 .101h154.7v.098H0Zm0 .098h155v.101H0Zm0 .101h155.3v.098H0Zm0 .098h155.5v.102H0Zm0 .102h155.8v.101H0Zm0 .101h156v.098H0Zm0 .098h156.3v.101H0Zm0 .101h156.602v.098H0Zm0 .098h156.8v.102H0Zm0 .102h157.102v.101H0Zm0 .101h157.3v.098H0Zm0 .098h157.5v.101H0Zm0 .101h157.8v.098H0Zm0 .098h158v.102H0Zm0 .102h158.3v.101H0Zm0 .101h158.5v.098H0Zm0 .098h158.8v.101H0Zm0 .101h159v.098H0Zm0 .098h159.2v.102H0Zm0 .102h159.5v.101H0Zm0 .101h159.7v.098H0Zm0 .098h160v.101H0Zm0 .101h160.2v.098H0Zm0 .098h160.5v.102H0Zm0 .102h160.7v.101H0Zm0 .101h160.898v.098H0Zm0 .098h161.2v.101H0Zm0 .101h161.398v.098H0Zm0 .098h161.7v.102H0Zm0 .102h161.898v.101H0Zm0 .101h162.2v.098H0Zm0 .098h162.398v.101H0Zm0 .101h162.602v.098H0Zm0 .098h162.898v.102H0Zm0 .102h163.102v.101H0Zm0 .101h163.3v.098H0Zm0 .098h163.5v.101H0Zm0 .101h163.7v.098H0Zm0 .098h164v.102H0Zm0 .102h164.2v.101H0Zm0 .101h164.398v.098H0Zm0 .098h164.602v.101H0Zm0 .101h164.898v.098H0Zm0 .098h165.102v.102H0Zm0 .102h165.3v.101H0Zm0 .101h165.5v.098H0Zm0 .098h165.8v.101H0Zm0 .101h166v.098H0Zm0 .098h166.2v.102H0Zm0 .102h166.398v.101H0Zm0 .101h166.7v.098H0Zm0 .098h166.898v.101H0Zm0 .101h167.102v.098H0Zm0 .098h167.3v.102H0Zm0 .102h167.602v.101H0Zm0 .101h167.8v.098H0Zm0 .098h168v.101H0Zm0 .101h168.2v.098H0Zm0 .098h168.398v.102H0Zm0 .102h168.602v.101H0Zm0 .101h168.898v.098H0Zm0 .098h169.102v.101H0Zm0 .101h169.3v.098H0Zm0 .098h169.5v.102H0Zm0 .102h169.7v.101H0Zm0 .101h169.898v.098H0Zm0 .098h170.102v.101H0Zm0 .101h170.3v.098H0Zm0 .098h170.5v.102H0Zm0 .102h170.7v.101H0Zm0 .101h170.898v.098H0Zm0 .098h171.102v.101H0Zm0 .101h171.3v.098H0Zm0 .098h171.602v.102H0Zm0 .102h171.8v.101H0Zm0 .101h172v.098H0Zm0 .098h172.2v.101H0Zm0 .101h172.398v.098H0Zm0 .098h172.602v.102H0Zm0 .102h172.8v.101H0Zm0 .101h173v.098H0Zm0 .098h173.2v.101H0Zm0 .101h173.398v.098H0Zm0 .098h173.602v.102H0Zm0 .102h173.8v.101H0Zm0 .101h174v.098H0Zm0 .098h174.2v.101H0Zm0 .101h174.398v.098H0Zm0 .098h174.602v.102H0Zm0 .102h174.8v.101H0Zm0 .101h175v.098H0Zm0 .098h175.2v.101H0Zm0 .101h175.398v.098H0Zm0 .098h175.5v.102H0Zm0 .102h175.7v.101H0Zm0 .101h175.898v.098H0Zm0 .098h176.102v.101H0Zm0 .101h176.3v.098H0Zm0 .098h176.5v.102H0Zm0 .102h176.7v.101H0Zm0 .101h176.898v.098H0Zm0 .098h177.102v.101H0Zm0 .101h177.3v.098H0Zm0 .098h177.5v.102H0Zm0 .102h177.7v.101H0Zm0 .101h177.8v.098H0Zm0 .098h178v.101H0Zm0 .101h178.2v.098H0Zm0 .098h178.398v.102H0Zm0 .102h178.602v.101H0Zm0 .101h178.8v.098H0Zm0 .098h179v.101H0Zm0 .101h179.2v.098H0Zm0 .098h179.398v.102H0Zm0 .102h179.5v.101H0Zm0 .101h179.7v.098H0Zm0 .098h179.898v.101H0Zm0 .101h180.102v.098H0Zm0 .098h180.2v.102H0Zm0 .102h180.398v.101H0Zm0 .101h180.602v.098H0Zm0 .098h180.8v.101H0Zm0 .101h181v.098H0Zm0 .098h181.102v.102H0Zm0 .102h181.3v.101H0Zm0 .101h181.5v.098H0Zm0 .098h181.7v.101H0Zm0 .101h181.8v.098H0Zm0 .098h182v.102H0Zm0 .102h182.2v.101H0Zm0 .101h182.398v.098H0Zm0 .098h182.5v.101H0Zm0 .101h182.7v.098H0Zm0 .098h182.898v.102H0Zm0 .102h183.102v.101H0Zm0 .101h183.3v.098H0Zm0 .098h183.398v.101H0Zm0 .101h183.602v.098H0Zm0 .098h183.8v.102H0Zm0 .102h184v.101H0Zm0 .101h184.102v.098H0Zm0 .098h184.3v.101H0Zm0 .101h184.5v.098H0Zm0 .098h184.7v.102H0Zm0 .102h184.8v.101H0Zm0 .101h185v.098H0Zm0 .098h185.2v.101H0Zm0 .101h185.3v.098H0Zm0 .098h185.5v.102H0Zm0 .102h185.602v.101H0Zm0 .101h185.8v.098H0Zm0 .098h186v.101H0Zm0 .101h186.102v.098H0Zm0 .098h186.3v.102H0Zm0 .102h186.5v.101H0Zm0 .101h186.602v.098H0Zm0 .098h186.8v.101H0Zm0 .101h187v.098H0Zm0 .098h187.102v.102H0Zm0 .102h187.3v.101H0Zm0 .101h187.5v.098H0Zm0 .098h187.602v.101H0Zm0 .101h187.8v.098H0Zm0 .098h188v.102H0Zm0 .102h188.102v.101H0Zm0 .101h188.3v.098H0Zm0 .098h188.5v.101H0Zm0 .101h188.602v.098H0Zm0 .098h188.8v.102H0Zm0 .102h188.898v.101H0Zm0 .101h189.102v.098H0Zm0 .098h189.2v.101H0Zm0 .101h189.398v.098H0Zm0 .098h189.5v.102H0Zm0 .102h189.7v.101H0Zm0 .101h189.898v.098H0Zm0 .098h190v.101H0Zm0 .101h190.102v.098H0Zm0 .098h190.3v.102H0Zm0 .102h190.398v.101H0Zm0 .101h190.5v.098H0Zm0 .098h190.602v.101H0Zm0 .101h190.7v.098H0Zm0 .098h190.8v.102H0Zm0 .102h190.898v.101H0Zm0 .101h191v.2H0Zm0 .2h191.102v.097H0Zm0 .097h191.2v.203H0Zm0 .203h191.3v.297H0Zm0 .297h191.398v1.703H0Zm0 1.703h191.3v.399H0Zm0 .399h191.2v.3H0Zm0 .3h191.102v.301H0Zm0 .301h191v.399H0Zm0 .399h190.898v.3H0Zm0 .3h190.8v.301H0Zm0 .301h190.7v.297H0Zm0 .297h190.602v.3H0Zm0 .3h190.5v.302H0Zm0 .302h190.398v.3H0Zm0 .3h190.3v.399H0Zm0 .399h190.2v.3H0Zm0 .3h190.102v.301H0Zm0 .301h190v.301H0Zm0 .301h189.898v.297H0Zm0 .297h189.8v.3H0Zm0 .3h189.7v.302H0Zm0 .302h189.602v.398H0Zm0 .398h189.5v.3H0Zm0 .3h189.398v.302H0Zm0 .302h189.3v.3H0Zm0 .3h189.2v.301H0Zm0 .301h189.102v.297H0Zm0 .297h189v.3H0Zm0 .3h188.898v.302H0Zm0 .302h188.8v.398H0Zm0 .398h188.7v.3H0Zm0 .3h188.602v.302H0Zm0 .302h188.5v.3H0Zm0 .3h188.398v.301H0Zm0 .301h188.3v.297H0Zm0 .297h188.2v.3H0Zm0 .3h188.102v.403H0Zm0 .403h188v.297H0Zm0 .297h187.898v.3H0Zm0 .3h187.8v.302H0Zm0 .302h187.7v.3H0Zm0 .3h187.602v.301H0Zm0 .301h187.5v.297H0Zm0 .297h187.398v.3H0Zm0 .3h187.3v.403H0Zm0 .403h187.2v.297H0Zm0 .297h187.102v.3H0Zm0 .3h187v.302H0Zm0 .302h186.898v.3H0Zm0 .3h186.8v.301H0Zm0 .301h186.7v.297H0Zm0 .297h186.602v.402H0Zm0 .402h186.5v.301H0Zm0 .301h186.398v.297H0Zm0 .297h186.3v.3H0Zm0 .3h186.2v.302H0Zm0 .302h186.102v.3H0Zm0 .3h186v.301H0Zm0 .301h185.898v.297H0Zm0 .297h185.8v.402H0Zm0 .402h185.7v.301H0Zm0 .301h185.602v.297H0Zm0 .297h185.5v.3H0Zm0 .3h185.398v.302H0Zm0 .302h185.3v.3H0Zm0 .3h185.2v.301H0Zm0 .301h185.102v.297H0Zm0 .297h185v.402H0Zm0 .402h184.898v.301H0Zm0 .301h184.8v.297H0Zm0 .297h184.7v.3H0Zm0 .3h184.602v.302H0Zm0 .302h184.5v.3H0Zm0 .3h184.398v.301H0Zm0 .301h184.3v.399H0Zm0 .399h184.2v.3H0Zm0 .3h184.102v.301H0Zm0 .301h184v.297H0Zm0 .297h183.898v.3H0Zm0 .3h183.8v.302H0Zm0 .302h183.7v.3H0Zm0 .3h183.602v.301H0Zm0 .301h183.5v.399H0Zm0 .399h183.398v.3H0Zm0 .3h183.3v.301H0Zm0 .301h183.2v.297H0Zm0 .297h183.102v.3H0Zm0 .3h183v.302H0Zm0 .302h182.898v.3H0Zm0 .3h182.8v.301H0Zm0 .301h182.7v.399H0Zm0 .399h182.602v.3H0Zm0 .3h182.5v.301H0Zm0 .301h182.398v.297H0Zm0 .297h182.3v.3H0Zm0 .3h182.2v.302H0Zm0 .302h182.102v.3H0Zm0 .3h182v.301H0Zm0 .301h181.898v.399H0Zm0 .399h181.8v.3H0Zm0 .3h181.7v.301H0Zm0 .301h181.602v.297H0Zm0 .297h181.5v.3H0Zm0 .3h181.398v.302H0Zm0 .302h181.3v.3H0Zm0 .3h181.2v.399H0Zm0 .399h181.102v.3H0Zm0 .3h181v.301H0Zm0 .301h180.898v.301H0Zm0 .301h180.8v.297H0Zm0 .297h180.7v.3H0Zm0 .3h180.602v.302H0Zm0 .302h180.5v.3H0Zm0 .3h180.398v.399H0Zm0 .399h180.3v.3H0Zm0 .3h180.2v.301H0Zm0 .301h180.102v.301H0Zm0 .301h180v.297H0Zm0 .297h179.898v.3H0Zm0 .3h179.8v.302H0Zm0 .302h179.7v.3H0Zm0 .3h179.602v.399H0Zm0 .399h179.5v.3H0Zm0 .3h179.398v.301H0Zm0 .301h179.3v.301H0Zm0 .301h179.2v.297H0Zm0 .297h179.102v.3H0Zm0 .3h179v.302H0Zm0 .302h178.898v.398H0Zm0 .398h178.8v.3H0Zm0 .3h178.7v.302H0Zm0 .302h178.602v.3H0Zm0 .3h178.5v.301H0Zm0 .301h178.398v.297H0Zm0 .297h178.3v.3H0Zm0 .3h178.2v.302H0Zm0 .302h178.102v.398H0Zm0 .398h178v.3H0Zm0 .3h177.898v.302H0Zm0 .302h177.8v.3H0Zm0 .3h177.7v.301H0Zm0 .301h177.602v.297H0Zm0 .297h177.5v.3H0Zm0 .3h177.398v.302H0Zm0 .302h177.3v.398H0Zm0 .398h177.2v.3H0Zm0 .3h177.102v.302H0Zm0 .302h177v.3H0Zm0 .3h176.898v.301H0Zm0 .301h176.8v.297H0Zm0 .297h176.7v.3H0Zm0 .3h176.602v.302H0Zm0 .302h176.5v.398H0Zm0 .398h176.398v.3H0Zm0 .3h176.3v.302H0Zm0 .302h176.2v.3H0Zm0 .3h176.102v.301H0Zm0 .301h176v.297H0Zm0 .297h175.898v.3H0Zm0 .3h175.8v.403H0Zm0 .403h175.7v.297H0Zm0 .297h175.602v.3H0Zm0 .3h175.5v.302H0Zm0 .302h175.398v.3H0Zm0 .3h175.3v.301H0Zm0 .301h175.2v.297H0Zm0 .297h175.102v.3H0Zm0 .3h175v.403H0Zm0 .403h174.898v.297H0Zm0 .297h174.8v.3H0Zm0 .3h174.7v.302H0Zm0 .302h174.602v.3H0Zm0 .3h174.5v.301H0Zm0 .301h174.398v.297H0Zm0 .297h174.3v.3H0Zm0 .3h174.2v.403H0Zm0 .403h174.102v.297H0Zm0 .297h174v.203H0Zm.102.203H174v.098H.102Zm0 .098h173.796v.3H.102Zm.097.3h173.602v.2H.199Zm.102.2h173.398v.2H.301Zm.097.2h173.204v.202H.398Zm.102.202h173v.098H.5Zm.102.098h172.796v.2H.602Zm.097.2h172.602v.1H.699Zm.102.1h172.398v.102H.801Zm.097.102h172.204v.098H.898ZM1 99.63h172v.101H1Zm.102.101h171.796v.098H1.102Zm.199.098h171.5v.102H1.3Zm.097.102h171.204v.101H1.398Zm.204.101H172.5v.098H1.602Zm.296.098H172.2v.101H1.9Zm.301.101h169.602v.098H2.199Zm0 0"/></clipPath><clipPath id="b"><path d="M3.512.234C1.379.328 0 1.31 0 3.406v93.817c0 1.632 1.168 3.105 2.969 3.105H170.44c1.5 0 2.707-.133 3.414-2.121 0 0 16.973-53.113 17.266-54.066.629-2.016.227-3.032-1.488-4.121C135.086 5.078 53.527-.004 16.493-.004c-5.321 0-9.708.098-12.981.238Zm0 0"/></clipPath><linearGradient id="c" x1="0" x2="1.001" y1="0" y2="0" gradientTransform="translate(0 50.163) scale(191.158)" gradientUnits="userSpaceOnUse"><stop offset="0" stop-color="#7C2270"/><stop offset=".004" stop-color="#7C2270"/><stop offset=".008" stop-color="#7D2271"/><stop offset=".012" stop-color="#7E2171"/><stop offset=".016" stop-color="#7F2171"/><stop offset=".02" stop-color="#7F2171"/><stop offset=".023" stop-color="#802172"/><stop offset=".027" stop-color="#812172"/><stop offset=".031" stop-color="#812072"/><stop offset=".035" stop-color="#822072"/><stop offset=".039" stop-color="#832072"/><stop offset=".043" stop-color="#842073"/><stop offset=".047" stop-color="#842073"/><stop offset=".051" stop-color="#851F73"/><stop offset=".055" stop-color="#861F73"/><stop offset=".059" stop-color="#871F73"/><stop offset=".063" stop-color="#871F74"/><stop offset=".066" stop-color="#881F74"/><stop offset=".07" stop-color="#891E74"/><stop offset=".074" stop-color="#891E74"/><stop offset=".078" stop-color="#8A1E75"/><stop offset=".082" stop-color="#8B1E75"/><stop offset=".086" stop-color="#8C1E75"/><stop offset=".09" stop-color="#8C1D75"/><stop offset=".094" stop-color="#8D1D75"/><stop offset=".098" stop-color="#8E1D76"/><stop offset=".102" stop-color="#8E1D76"/><stop offset=".105" stop-color="#8F1D76"/><stop offset=".109" stop-color="#901C76"/><stop offset=".113" stop-color="#911C76"/><stop offset=".117" stop-color="#911C77"/><stop offset=".121" stop-color="#921C77"/><stop offset=".125" stop-color="#931B77"/><stop offset=".129" stop-color="#941B77"/><stop offset=".133" stop-color="#941B78"/><stop offset=".137" stop-color="#951B78"/><stop offset=".141" stop-color="#961B78"/><stop offset=".145" stop-color="#961A78"/><stop offset=".148" stop-color="#971A79"/><stop offset=".152" stop-color="#981A79"/><stop offset=".156" stop-color="#991A79"/><stop offset=".16" stop-color="#991979"/><stop offset=".164" stop-color="#9A197A"/><stop offset=".168" stop-color="#9B197A"/><stop offset=".172" stop-color="#9C197A"/><stop offset=".176" stop-color="#9D187A"/><stop offset=".18" stop-color="#9E187B"/><stop offset=".184" stop-color="#9E187B"/><stop offset=".188" stop-color="#9F187B"/><stop offset=".191" stop-color="#A0187B"/><stop offset=".195" stop-color="#A1177B"/><stop offset=".199" stop-color="#A1177C"/><stop offset=".203" stop-color="#A2177C"/><stop offset=".207" stop-color="#A3177C"/><stop offset=".211" stop-color="#A4167C"/><stop offset=".215" stop-color="#A4167C"/><stop offset=".219" stop-color="#A5167D"/><stop offset=".223" stop-color="#A6167D"/><stop offset=".227" stop-color="#A6157D"/><stop offset=".23" stop-color="#A7157D"/><stop offset=".234" stop-color="#A8157D"/><stop offset=".238" stop-color="#A9157E"/><stop offset=".242" stop-color="#A9157E"/><stop offset=".246" stop-color="#AA147E"/><stop offset=".25" stop-color="#AB147E"/><stop offset=".254" stop-color="#AB147D"/><stop offset=".258" stop-color="#AB147D"/><stop offset=".262" stop-color="#AC147C"/><stop offset=".266" stop-color="#AC157B"/><stop offset=".27" stop-color="#AC157B"/><stop offset=".273" stop-color="#AD157A"/><stop offset=".277" stop-color="#AD157A"/><stop offset=".281" stop-color="#AE1479"/><stop offset=".285" stop-color="#AE1579"/><stop offset=".289" stop-color="#AF1578"/><stop offset=".293" stop-color="#AF1577"/><stop offset=".297" stop-color="#AF1577"/><stop offset=".301" stop-color="#B01576"/><stop offset=".305" stop-color="#B01576"/><stop offset=".309" stop-color="#B01575"/><stop offset=".313" stop-color="#B11574"/><stop offset=".316" stop-color="#B11574"/><stop offset=".32" stop-color="#B11573"/><stop offset=".324" stop-color="#B21573"/><stop offset=".328" stop-color="#B31572"/><stop offset=".332" stop-color="#B31571"/><stop offset=".336" stop-color="#B31571"/><stop offset=".34" stop-color="#B41570"/><stop offset=".344" stop-color="#B41570"/><stop offset=".348" stop-color="#B4156F"/><stop offset=".352" stop-color="#B5156E"/><stop offset=".355" stop-color="#B5156E"/><stop offset=".359" stop-color="#B6156D"/><stop offset=".363" stop-color="#B6156D"/><stop offset=".367" stop-color="#B7156C"/><stop offset=".371" stop-color="#B7156B"/><stop offset=".375" stop-color="#B8156B"/><stop offset=".379" stop-color="#B8156A"/><stop offset=".383" stop-color="#B8156A"/><stop offset=".387" stop-color="#B91569"/><stop offset=".391" stop-color="#B91668"/><stop offset=".395" stop-color="#B91668"/><stop offset=".398" stop-color="#BA1667"/><stop offset=".402" stop-color="#BA1666"/><stop offset=".406" stop-color="#BB1666"/><stop offset=".41" stop-color="#BB1665"/><stop offset=".414" stop-color="#BC1665"/><stop offset=".418" stop-color="#BC1664"/><stop offset=".422" stop-color="#BC1664"/><stop offset=".426" stop-color="#BD1663"/><stop offset=".43" stop-color="#BD1662"/><stop offset=".434" stop-color="#BD1662"/><stop offset=".438" stop-color="#BE1661"/><stop offset=".441" stop-color="#BE1660"/><stop offset=".445" stop-color="#BE1660"/><stop offset=".449" stop-color="#BF165F"/><stop offset=".453" stop-color="#C0165F"/><stop offset=".457" stop-color="#C0165E"/><stop offset=".461" stop-color="#C0165E"/><stop offset=".465" stop-color="#C1165D"/><stop offset=".469" stop-color="#C1165C"/><stop offset=".473" stop-color="#C1175C"/><stop offset=".477" stop-color="#C2175B"/><stop offset=".48" stop-color="#C2175A"/><stop offset=".484" stop-color="#C3175A"/><stop offset=".488" stop-color="#C31759"/><stop offset=".492" stop-color="#C41758"/><stop offset=".496" stop-color="#C41758"/><stop offset=".5" stop-color="#C41757"/><stop offset=".504" stop-color="#C51757"/><stop offset=".508" stop-color="#C51756"/><stop offset=".512" stop-color="#C51756"/><stop offset=".516" stop-color="#C61755"/><stop offset=".52" stop-color="#C61754"/><stop offset=".523" stop-color="#C61754"/><stop offset=".527" stop-color="#C71753"/><stop offset=".531" stop-color="#C81752"/><stop offset=".535" stop-color="#C81752"/><stop offset=".539" stop-color="#C91751"/><stop offset=".543" stop-color="#C91851"/><stop offset=".547" stop-color="#C91850"/><stop offset=".551" stop-color="#C9184F"/><stop offset=".555" stop-color="#CA184F"/><stop offset=".559" stop-color="#CA184E"/><stop offset=".563" stop-color="#CA184D"/><stop offset=".566" stop-color="#CB184D"/><stop offset=".57" stop-color="#CB184C"/><stop offset=".574" stop-color="#CC184C"/><stop offset=".578" stop-color="#CC184B"/><stop offset=".582" stop-color="#CD184A"/><stop offset=".586" stop-color="#CD184A"/><stop offset=".59" stop-color="#CE1849"/><stop offset=".594" stop-color="#CE1849"/><stop offset=".598" stop-color="#CE1948"/><stop offset=".602" stop-color="#CE1947"/><stop offset=".605" stop-color="#CF1947"/><stop offset=".609" stop-color="#CF1946"/><stop offset=".613" stop-color="#D01945"/><stop offset=".617" stop-color="#D11945"/><stop offset=".621" stop-color="#D11944"/><stop offset=".625" stop-color="#D11943"/><stop offset=".629" stop-color="#D21943"/><stop offset=".633" stop-color="#D21942"/><stop offset=".637" stop-color="#D21942"/><stop offset=".641" stop-color="#D21941"/><stop offset=".645" stop-color="#D31941"/><stop offset=".648" stop-color="#D31A40"/><stop offset=".652" stop-color="#D41A3F"/><stop offset=".656" stop-color="#D41A3F"/><stop offset=".66" stop-color="#D51A3E"/><stop offset=".664" stop-color="#D51A3D"/><stop offset=".668" stop-color="#D51A3D"/><stop offset=".672" stop-color="#D61A3C"/><stop offset=".676" stop-color="#D61A3B"/><stop offset=".68" stop-color="#D61A3B"/><stop offset=".684" stop-color="#D71A3A"/><stop offset=".688" stop-color="#D71A3A"/><stop offset=".691" stop-color="#D71A39"/><stop offset=".695" stop-color="#D81B38"/><stop offset=".699" stop-color="#D81B38"/><stop offset=".703" stop-color="#D91B37"/><stop offset=".707" stop-color="#D91B36"/><stop offset=".711" stop-color="#DA1B36"/><stop offset=".715" stop-color="#DA1B35"/><stop offset=".719" stop-color="#DA1B34"/><stop offset=".723" stop-color="#DB1B34"/><stop offset=".727" stop-color="#DB1B33"/><stop offset=".73" stop-color="#DB1B33"/><stop offset=".734" stop-color="#DC1B32"/><stop offset=".738" stop-color="#DC1B31"/><stop offset=".742" stop-color="#DD1C31"/><stop offset=".746" stop-color="#DD1C30"/><stop offset=".75" stop-color="#DE1C2F"/><stop offset=".754" stop-color="#DE1C2F"/><stop offset=".758" stop-color="#DE1C2E"/><stop offset=".762" stop-color="#DF1C2D"/><stop offset=".766" stop-color="#DF1C2D"/><stop offset=".77" stop-color="#DF1C2C"/><stop offset=".773" stop-color="#E01C2C"/><stop offset=".777" stop-color="#E01C2B"/><stop offset=".781" stop-color="#E11C2A"/><stop offset=".785" stop-color="#E11D2A"/><stop offset=".789" stop-color="#E21D29"/><stop offset=".793" stop-color="#E21D28"/><stop offset=".797" stop-color="#E21D28"/><stop offset=".801" stop-color="#E31D27"/><stop offset=".805" stop-color="#E31D26"/><stop offset=".809" stop-color="#E31D26"/><stop offset=".813" stop-color="#E41D25"/><stop offset=".875" stop-color="#E41D25"/><stop offset="1" stop-color="#E41D25"/></linearGradient></defs><g clip-path="url(#a)" transform="matrix(2.67505 0 0 2.67505 0 121.767)"><g clip-path="url(#b)"><path fill="url(#c)" d="M0 .031v100.297h191.398V.031Zm0 0" style="fill:url(#c)"/></g></g><path fill="#fff" d="M102.038 282.782c-16.447-7.942-27.638-12.1-24.932-20.084 3.177-9.457 19.729-13.03 34.713-12.696 7.586.188 12.957 1.16 19.112 2.56l5.434-17.106c-7.816-1.442-13.386-2.163-22.728-2.403-30.052-.7-57.21 7.597-64.16 25.152-8.296 20.784 15.163 32.508 35.487 42.132 16.176 7.66 28.924 14.922 24.452 24.483-3.511 7.388-14.922 10.888-31.547 10.512-14.378-.324-32.33-4.483-46.469-11.588l-8.411 18.202c10.397 4.818 31.839 11.38 50.146 11.83 34.368.751 56.626-7.859 65.529-26.616 10.543-22.12-15.612-34.242-36.626-44.378"/><path fill="#fff" d="M148.664 314.026c.167.418.46.543.92.543.48 0 .678-.146.814-.543.188-.596 16.73-51.882 16.73-51.882 16.896 24.138 33.636 55.894 42.602 89.479h27.524l13.605-42.53c.136-.418.439-.512.878-.512.449 0 .804.136.836.512 4.158 26.678 30.7 44.64 68.297 44.64 24.347 0 46.301-6.384 51.777-9.32l14.232-44.891h54.765l5.549-17.398h-54.745l9.436-29.468h65.278l5.653-18.046h-91.631l-31.098 97.242c-6.604 1.672-14.765 2.477-23.27 2.477-18.37 0-33.083-4.358-41.411-14.065-6.239-7.315-8.726-16.73-7.19-27.263 3.679-25.047 28.088-40.857 60.743-40.857 6.844 0 13.929.408 20.272 1.223l6.447-18.903c-7.858-1.181-17.388-1.714-26.709-1.714-28.955 0-54.117 9.958-70.418 27.503-.491.554-1.035.522-1.348.522-.512 0-.836-.094-.7-.522l8.171-25.612h-23.908l-26.134 81.986c-8.307-24.18-25.424-56.04-46.364-81.986h-25.643L133.46 294.34c9.645 7.105 12.685 12.32 15.204 19.687"/></svg>