<svg xmlns="http://www.w3.org/2000/svg" xml:space="preserve" width="512" height="512" style="enable-background:new 0 0 512 512" viewBox="0 0 64 64"><path fill="#8F5D32" d="M17.507 15.983a7 7 0 1 1 6.688-10.245m15.61.001a7 7 0 1 1 6.692 10.244" data-original="#8f5d32"/><path fill="#E1AC79" d="M25 56a32.304 32.304 0 0 1-15.56 5.856L8 62c-3.314 0-6-4.253-6-9.5S4.686 43 8 43c2.637 0 4.877 2.694 5.682 6.439l4.5-1.502M39 56a32.304 32.304 0 0 0 15.56 5.856L56 62c3.314 0 6-4.253 6-9.5S59.314 43 56 43c-2.637 0-4.877 2.694-5.682 6.439l-4.514-1.502" data-original="#e1ac79"/><path fill="#BF8958" d="M39.585 31.134C43.336 34.392 46 39.805 46 45.5 46 54.613 39.18 57 32 57s-14-2.387-14-11.5c0-5.571 2.549-10.871 6.172-14.15" data-original="#bf8958"/><ellipse cx="32" cy="48" fill="#E1AC79" data-original="#e1ac79" rx="8" ry="5"/><path fill="#E1AC79" d="M47 20c0 8.284-6.716 13-15 13s-15-4.716-15-13S23.716 3 32 3s15 8.716 15 17z" data-original="#e1ac79"/><path fill="#8F5D32" d="m53.061 44.224.001-.008a22.98 22.98 0 0 0-7.985-11.823l-3.042-2.366c-.687.5-1.43.939-2.224 1.316C43.441 34.619 46 39.921 46 45.5c0 .876-.07 1.683-.191 2.439l4.509 1.5c.479-2.227 1.467-4.077 2.743-5.215zm-39.379 5.215 4.5-1.502.013.015A15.102 15.102 0 0 1 18 45.5c0-5.571 2.549-10.872 6.172-14.15h.034a13.951 13.951 0 0 1-2.24-1.323l-3.042 2.366a22.975 22.975 0 0 0-7.985 11.823v.008c1.275 1.138 2.264 2.988 2.743 5.215z" data-original="#8f5d32"/><path fill="#BF8958" d="M36.941 26.504c-1.185.79-2.547 1.245-3.941 1.397V25h-2v2.901c-1.394-.152-2.756-.607-3.941-1.397l-.504-.336-1.109 1.664.504.336C27.747 29.366 29.839 30 32 30s4.253-.634 6.051-1.832l.504-.336-1.109-1.664z" data-original="#bf8958"/><ellipse cx="26" cy="17" fill="#8F5D32" data-original="#8f5d32" rx="2" ry="3"/><ellipse cx="38" cy="17" fill="#8F5D32" data-original="#8f5d32" rx="2" ry="3"/><path fill="#BF8958" d="M2.421 49.021A14.404 14.404 0 0 0 2 52.5C2 57.747 4.686 62 8 62l1-.1V56c0-3.724-2.91-6.76-6.579-6.979zM55 56v5.9l1 .1c3.314 0 6-4.253 6-9.5 0-1.229-.152-2.4-.421-3.479C57.91 49.24 55 52.276 55 56z" data-original="#bf8958"/><ellipse cx="32" cy="23.5" fill="#8F5D32" data-original="#8f5d32" rx="4" ry="2.5"/></svg>