<svg xmlns="http://www.w3.org/2000/svg" xml:space="preserve" width="512" height="512" style="enable-background:new 0 0 512 512"><path fill="#EBB044" d="M93.313 397.481v86.91c0 11.284 9.148 20.432 20.432 20.432h42.743c9.85 0 17.78-8.217 17.312-18.17-.439-9.322-8.469-16.493-17.801-16.493h-10.133v-56.535m269.065 56.536h-10.133V333.747h-52.553v150.644c0 11.285 9.148 20.432 20.432 20.432h42.743c9.85 0 17.78-8.217 17.311-18.17-.438-9.321-8.468-16.492-17.8-16.492z" data-original="#ebb044"/><path fill="#E49542" d="M394.858 504.823h-22.181c-11.287 0-20.432-9.146-20.432-20.432V333.743h22.181v150.648c0 11.287 9.157 20.432 20.432 20.432zm-258.931.001h-22.181c-11.287 0-20.432-9.146-20.432-20.432V333.743h22.181v150.648c-.001 11.287 9.156 20.433 20.432 20.433z" data-original="#e49542"/><path fill="#EBB044" d="M141.133 38.403v31.38c0 7.322-1.103 14.478-3.259 21.264a68.33 68.33 0 0 1-6.94 15.324 70.781 70.781 0 0 1-10.467 13.303c-11.189 11.199-25.482 18.17-40.95 20.109-2.939.381-5.93.567-8.951.567-3.815 0-7.507.495-11.034 1.413-16.407 4.28-29.08 17.85-32.061 34.731a44.085 44.085 0 0 0-.66 7.611v47.601c0 22.47 16.819 41.187 39.135 43.518 7.363.773 12.705 7.363 11.931 14.726-.722 6.889-6.538 12.014-13.313 12.014-.464 0-.938-.021-1.413-.072C27.152 298.115 0 267.942 0 231.704v-47.601c0-2.568.134-5.115.413-7.611 2.691-25.017 18.521-46.157 40.424-56.377a69.543 69.543 0 0 1 17.005-5.424 69.964 69.964 0 0 1 12.725-1.155c11.694 0 22.676-4.548 30.937-12.818a9.48 9.48 0 0 0 .33-.34c4.218-4.3 7.445-9.322 9.549-14.788 1.939-4.971 2.939-10.323 2.939-15.809v-31.38c0-7.404 6.002-13.406 13.406-13.406s13.405 6.003 13.405 13.408z" data-original="#ebb044"/><path fill="#EBB044" d="M424.924 195.591v91.717c0 69.762-56.552 126.314-126.314 126.314H65.379v56.542h10.137c9.333 0 17.355 7.167 17.799 16.489.464 9.951-7.466 18.17-17.314 18.17H33.257c-11.281 0-20.429-9.147-20.429-20.428v-86.911l20.81-45.848V330.97c0-54.809 32.576-102.008 79.424-123.303a135.638 135.638 0 0 1 15.468-5.919 135.387 135.387 0 0 1 32.638-5.93c2.599-.155 5.218-.227 7.858-.227z" data-original="#ebb044"/><path fill="#E49542" d="M227.172 195.587c-74.769 0-135.383 60.624-135.383 135.394v7.472c0 8.392-3.563 16.39-9.802 22.002l-31.369 28.217a29.594 29.594 0 0 0-9.802 22.002v73.723c0 11.287 9.146 20.432 20.432 20.432H33.26c-11.284 0-20.432-9.148-20.432-20.432V397.49l20.814-45.852v-20.657c0-74.769 60.613-135.394 135.394-135.394z" data-original="#e49542"/><path fill="#E49542" d="M424.921 240.348v46.962c0 69.759-56.556 126.316-126.315 126.316H65.377c33.557 0 62.676-19.065 77.089-46.962h156.14c69.759 0 126.315-56.556 126.315-126.316z" data-original="#e49542"/><path fill="#EBB044" d="M271.738 333.747v150.644c0 11.285 9.148 20.432 20.432 20.432h42.743c9.85 0 17.78-8.217 17.311-18.17-.439-9.322-8.469-16.493-17.801-16.493H324.29V333.747" data-original="#ebb044"/><path fill="#E49542" d="M314.352 504.823h-22.181c-11.287 0-20.432-9.146-20.432-20.432V333.743h22.181v150.648c-.001 11.287 9.156 20.432 20.432 20.432zM487.693 17.867c14.261 14.261 14.261 37.381 0 51.642l-7.999 7.999-23.037 2.297-24.909 45.649-51.642-51.642 55.945-55.945c14.261-14.261 37.382-14.261 51.642 0z" data-original="#e49542"/><path fill="#F1D59D" d="M479.694 41.727c9.88 9.88 9.88 25.9 0 35.78l-38.762 38.762-35.78-35.78 38.762-38.762c9.88-9.88 25.899-9.88 35.78 0z" data-original="#f1d59d"/><path fill="#E49542" d="M225.343 17.866c-14.261 14.261-14.261 37.381 0 51.642l7.999 7.999 17.473 4.705 30.473 43.241 51.642-51.642-55.945-55.945c-14.26-14.261-37.381-14.261-51.642 0z" data-original="#e49542"/><path fill="#F1D59D" d="M233.343 41.727c-9.881 9.881-9.881 25.9 0 35.78l38.762 38.762 35.78-35.78-38.762-38.762c-9.88-9.881-25.9-9.881-35.78 0z" data-original="#f1d59d"/><path fill="#EBB044" d="M236.533 161.089v-22.06c0-66.265 53.719-119.984 119.984-119.984 66.265 0 119.984 53.719 119.984 119.984v22.06L356.517 225.77z" data-original="#ebb044"/><path fill="#E49542" d="m356.518 225.77-119.985-64.681v-22.061c0-65.967 53.253-119.514 119.111-119.975-36.749.835-66.399 54.234-66.399 119.975v22.061z" data-original="#e49542"/><path fill="#365E7D" d="M448.269 174.579a7.738 7.738 0 0 1-7.413-5.54c-5.953-20.096-12.572-28.318-12.637-28.395a7.735 7.735 0 0 1 11.831-9.966c.88 1.045 8.799 10.877 15.638 33.968a7.735 7.735 0 0 1-7.419 9.933zm-183.511 0a7.736 7.736 0 0 1-7.419-9.932c6.84-23.092 14.758-32.923 15.638-33.968a7.735 7.735 0 0 1 11.831 9.966c-.024.031-6.718 8.411-12.637 28.395a7.738 7.738 0 0 1-7.413 5.539z" data-original="#365e7d"/><path fill="#F1D59D" d="m298.48 173.715-61.951-12.626h.004-9.88c-10.762 0-19.487 8.725-19.487 19.487 0 10.762 8.725 19.487 19.487 19.487h-9.607c-10.762 0-19.487 8.725-19.487 19.487 0 10.762 8.725 19.487 19.487 19.487h9.607c-10.762 0-19.487 8.725-19.487 19.487 0 10.762 8.725 19.487 19.487 19.487h256.253c10.762 0 19.487-8.725 19.487-19.487 0-10.762-8.725-19.487-19.487-19.487h9.607c10.762 0 19.487-8.725 19.487-19.487 0-10.762-8.725-19.487-19.487-19.487h-9.607c10.762 0 19.487-8.725 19.487-19.487 0-10.762-8.725-19.487-19.487-19.487h-6.407l-61.951 12.626z" data-original="#f1d59d"/><path fill="#F1B986" d="M259.913 258.523c0 5.38 2.177 10.253 5.706 13.782 3.529 3.522 8.396 5.706 13.776 5.706h-52.74a19.445 19.445 0 0 1-13.782-5.706 19.428 19.428 0 0 1-5.706-13.782c0-10.759 8.723-19.488 19.488-19.488h-9.613c-5.38 0-10.247-2.184-13.776-5.706s-5.706-8.396-5.706-13.776c0-10.766 8.723-19.488 19.482-19.488h9.613c-5.386 0-10.253-2.177-13.782-5.706s-5.706-8.396-5.706-13.782c0-10.759 8.723-19.488 19.488-19.488h9.876l28.915 5.892a19.398 19.398 0 0 0-5.533 13.596c0 5.386 2.177 10.253 5.706 13.782s8.396 5.706 13.776 5.706h-9.607c-10.759 0-19.488 8.723-19.488 19.488 0 5.38 2.184 10.253 5.706 13.776a19.458 19.458 0 0 0 13.782 5.706h9.607c-10.759 0-19.482 8.729-19.482 19.488z" data-original="#f1b986"/><circle cx="356.515" cy="246.338" r="37.584" fill="#E278B1" data-original="#e278b1"/><path fill="#F9F6F9" d="M392.566 168.309c-14.442 0-27.364 6.473-36.049 16.668-8.684-10.194-21.607-16.668-36.049-16.668-26.149 0-47.347 21.198-47.347 47.347s21.198 47.347 47.347 47.347c14.442 0 27.364-6.474 36.049-16.668 8.685 10.194 21.607 16.668 36.049 16.668 26.149 0 47.347-21.198 47.347-47.347s-21.198-47.347-47.347-47.347z" data-original="#f9f6f9"/><path fill="#DDDAEC" d="M335.77 260.465a47.235 47.235 0 0 1-15.296 2.533c-26.155 0-47.352-21.197-47.352-47.342 0-26.155 21.197-47.352 47.352-47.352 5.351 0 10.495.894 15.287 2.533-18.625 6.372-32.016 24.034-32.016 44.819-.002 20.785 13.39 38.437 32.025 44.809z" data-original="#dddaec"/><path fill="#365E7D" d="M369.574 168.309H343.46c-9.517 0-17.232 7.715-17.232 17.232s7.715 17.232 17.232 17.232h26.115c9.517 0 17.232-7.715 17.232-17.232s-7.715-17.232-17.233-17.232z" data-original="#365e7d"/><path fill="#2B4D66" d="M353.629 197.725a17.22 17.22 0 0 0 12.184 5.046h-22.355c-4.762 0-9.062-1.934-12.184-5.046a17.178 17.178 0 0 1-5.046-12.184c0-9.523 7.717-17.24 17.231-17.24h22.355c-9.514 0-17.23 7.717-17.23 17.24a17.214 17.214 0 0 0 5.045 12.184z" data-original="#2b4d66"/><path fill="#A3B8BF" d="M412.91 215.13a7.734 7.734 0 0 1-7.734-7.734v-.643a7.734 7.734 0 1 1 15.468 0v.643a7.733 7.733 0 0 1-7.734 7.734zm0 25.725a7.734 7.734 0 0 1-7.734-7.734v-.643a7.734 7.734 0 1 1 15.468 0v.643a7.733 7.733 0 0 1-7.734 7.734zm-19.294-12.863a7.734 7.734 0 0 1-7.734-7.734v-.644a7.734 7.734 0 1 1 15.468 0v.644a7.733 7.733 0 0 1-7.734 7.734zm-93.492-13.365a7.734 7.734 0 0 1-7.734-7.734v-.669a7.734 7.734 0 1 1 15.468 0v.669a7.734 7.734 0 0 1-7.734 7.734zm0 26.756a7.734 7.734 0 0 1-7.734-7.734v-.669a7.734 7.734 0 1 1 15.468 0v.669a7.734 7.734 0 0 1-7.734 7.734zm20.067-13.378a7.734 7.734 0 0 1-7.734-7.734v-.669a7.734 7.734 0 1 1 15.468 0v.669a7.733 7.733 0 0 1-7.734 7.734z" data-original="#a3b8bf"/><path fill="#365E7D" d="M289.914 104.217a7.734 7.734 0 0 1-2.271-15.128c45.057-13.861 92.69-13.861 137.747 0a7.734 7.734 0 1 1-4.548 14.784c-42.083-12.946-86.569-12.946-128.652 0a7.718 7.718 0 0 1-2.276.344zm104.135-36.618a7.73 7.73 0 0 1-2.277-.344c-23.066-7.096-47.446-7.095-70.511 0a7.734 7.734 0 0 1-4.548-14.784c26.039-8.011 53.569-8.011 79.606 0a7.733 7.733 0 0 1 5.118 9.666 7.734 7.734 0 0 1-7.388 5.462z" data-original="#365e7d"/><path fill="#2B4D66" d="M321.399 146.428a7.734 7.734 0 0 1-7.734-7.734v-12.606a7.734 7.734 0 1 1 15.468 0v12.606a7.734 7.734 0 0 1-7.734 7.734zm70.237 0a7.734 7.734 0 0 1-7.734-7.734v-12.606a7.734 7.734 0 1 1 15.468 0v12.606a7.734 7.734 0 0 1-7.734 7.734z" data-original="#2b4d66"/><path fill="#365E7D" d="M128.531 201.748v74.34a7.737 7.737 0 0 1-7.734 7.734 7.73 7.73 0 0 1-7.734-7.734v-68.421a135.451 135.451 0 0 1 15.468-5.919zm48.107-6.157v60.378a7.724 7.724 0 0 1-7.734 7.734 7.73 7.73 0 0 1-7.734-7.734v-60.151c2.599-.155 5.218-.227 7.858-.227zm26.801 171.069v46.962h-15.468V366.66c0-4.269 3.465-7.734 7.734-7.734s7.734 3.465 7.734 7.734zm38.021 19.016v27.946h-15.468v-27.946a7.724 7.724 0 0 1 7.734-7.734 7.73 7.73 0 0 1 7.734 7.734zM114.321 44.095h26.812v16.407h-26.812zM27.472 176.493a44.085 44.085 0 0 0-.66 7.611v8.796H0v-8.796c0-2.568.134-5.115.413-7.611zM0 209.832h26.812v16.407H0zM137.874 91.046a68.33 68.33 0 0 1-6.94 15.324l-29.101-5.991c4.218-4.3 7.445-9.322 9.549-14.788zm-58.357 48.736c-2.939.381-5.93.567-8.951.567-3.815 0-7.507.495-11.034 1.413l-18.696-21.645a69.543 69.543 0 0 1 17.005-5.424z" data-original="#365e7d"/></svg>