<svg xmlns="http://www.w3.org/2000/svg" xml:space="preserve" width="512" height="512" style="enable-background:new 0 0 512 512"><path fill="#D6E0F4" d="M11.185 141.16h305.198a122.36 122.36 0 0 1 95.178 45.463l93.552 115.789A31.004 31.004 0 0 1 512 321.895c0 17.122-13.88 31.001-31.001 31.001H11.185C5.008 352.897 0 347.889 0 341.712V152.345c0-6.177 5.008-11.185 11.185-11.185z" data-original="#d6e0f4"/><path fill="#B8C9EA" d="m505.113 302.412-93.552-115.789a122.36 122.36 0 0 0-95.178-45.463h-35.578a122.36 122.36 0 0 1 95.178 45.463l93.552 115.789a31.004 31.004 0 0 1 6.887 19.483c0 17.122-13.88 31.001-31.001 31.001h35.578c17.121 0 31.001-13.88 31.001-31.001a31.004 31.004 0 0 0-6.887-19.483z" data-original="#b8c9ea"/><path fill="#E27F86" d="M411.561 186.623a122.36 122.36 0 0 0-95.178-45.463H11.185C5.008 141.16 0 146.168 0 152.345v18.766h292.256a40.894 40.894 0 0 1 31.932 15.342l61.638 76.297a35.623 35.623 0 0 0 27.71 13.236h70.226z" data-original="#e27f86"/><path fill="#6A61B2" d="M103.31 178.838v66.39h98.457v-66.39zm-15.452 66.389v-66.389H0v66.39h87.858z" data-original="#6a61b2"/><path fill="#B8C9EA" d="M191.168 184.829v121.918h93.694V184.829a5.99 5.99 0 0 0-5.991-5.991h-81.712a5.991 5.991 0 0 0-5.991 5.991z" data-original="#b8c9ea"/><path fill="#DF646E" d="m375.983 186.623 72.202 89.364h35.578l-72.202-89.364a122.36 122.36 0 0 0-95.178-45.463h-35.578a122.363 122.363 0 0 1 95.178 45.463z" data-original="#df646e"/><path fill="#514898" d="m123.877 312.422-19.618 40.474H365.43l-19.618-40.474a10.066 10.066 0 0 0-9.058-5.675H132.935a10.065 10.065 0 0 0-9.058 5.675z" data-original="#514898"/><path fill="#6A61B2" d="M220.422 208.998v24.409c0 6.528 5.292 11.82 11.82 11.82h11.547c6.528 0 11.82-5.292 11.82-11.82v-24.409c0-6.528-5.292-11.82-11.82-11.82h-11.547c-6.528 0-11.82 5.292-11.82 11.82zm191.139-22.375a122.336 122.336 0 0 0-14.984-15.509h-34.376c-3.873 0-6.018 4.489-3.584 7.502l44.559 55.151a30.847 30.847 0 0 0 23.994 11.461h31.741z" data-original="#6a61b2"/><path fill="#514898" d="M411.561 186.623a124.486 124.486 0 0 0-10.932-11.829l-.12-.115a123.535 123.535 0 0 0-3.932-3.565h-34.376c-.369 0-.717.052-1.053.128a122.307 122.307 0 0 1 14.835 15.381l47.123 58.325c1.34.178 2.695.28 4.064.28h31.741z" data-original="#514898"/><circle cx="284.775" cy="338.789" r="32.051" fill="#8A94DB" data-original="#8a94db" transform="rotate(-83.91 284.935 338.92)"/><path fill="#717ED4" d="M309.86 318.851c-.094 17.621-14.403 31.878-32.047 31.878-10.162 0-19.213-4.735-25.085-12.113 0 .058-.004.115-.004.173 0 17.701 14.35 32.051 32.051 32.051s32.051-14.35 32.051-32.051c0-7.539-2.61-14.465-6.966-19.938z" data-original="#717ed4"/><circle cx="184.914" cy="338.789" r="32.051" fill="#8A94DB" data-original="#8a94db" transform="translate(-4.983 2.768)"/><path fill="#717ED4" d="M209.999 318.851c-.094 17.621-14.403 31.878-32.047 31.878-10.162 0-19.213-4.735-25.085-12.113 0 .058-.004.115-.004.173 0 17.701 14.35 32.051 32.051 32.051s32.051-14.35 32.051-32.051c0-7.539-2.61-14.465-6.966-19.938z" data-original="#717ed4"/></svg>