<svg viewBox="0 0 10.583 10.583" height="40" width="40" xmlns:xlink="http://www.w3.org/1999/xlink" xmlns="http://www.w3.org/2000/svg"><defs><linearGradient id="a"><stop style="stop-color:#fff;stop-opacity:1" offset="0"/><stop style="stop-color:#fff;stop-opacity:0" offset="1"/></linearGradient><linearGradient xlink:href="#a" id="b" x1="5.362" y1="5.531" x2="8.158" y2="5.531" gradientUnits="userSpaceOnUse" gradientTransform="matrix(1.12085 0 0 1.03283 -1.119 -.19)"/></defs><g transform="translate(-1.698 -.328)"><circle style="fill:none;fill-opacity:1;stroke:#4d4d4d;stroke-width:.512386;stroke-opacity:1" cx="8.179" cy="5.595" r="3.581"/><path style="fill:none;stroke:#4d4d4d;stroke-width:.529167;stroke-linecap:round;stroke-linejoin:miter;stroke-miterlimit:4;stroke-dasharray:none;stroke-opacity:1" d="M8.184 3.1v2.646l1.588 1.323"/></g><path style="fill:url(#b);fill-opacity:1;stroke:none;stroke-width:.569353;stroke-linecap:round;stroke-miterlimit:4;stroke-dasharray:none;stroke-opacity:1" d="M3.33 1.671h4.696v7.703H3.33z" transform="translate(-.927 -.239)"/><path style="color:#000;fill:#4d4d4f;stroke-width:3.77953;-inkscape-stroke:none" d="M4.504 6.504V35.5h17.07v-.996h-6.072v-3.006h6.072v-.996h-6.072v-3.004h6.072v-.996h-6.072v-3.006h6.072V22.5h-6.072v-2.996h6.072v-1.006h-6.072v-2.996h6.072v-1.004h-6.072v-2.996h6.072v-1.006h-6.072V7.5h6.072v-.996zM5.5 7.5h4v2.996h-4zm4.996 0h4.002v2.996h-4.002zM5.5 11.502h4v2.996h-4zm4.996 0h4.002v2.996h-4.002zm-4.996 4h4v2.996h-4zm4.996 0h4.002v2.996h-4.002zM5.5 19.504h4V22.5h-4zm4.996 0h4.002V22.5h-4.002zM5.5 23.496h4v3.006h-4zm4.996 0h4.002v3.006h-4.002zM5.5 27.498h4v3.004h-4zm4.996 0h4.002v3.004h-4.002zm-4.996 4h4v3.006h-4zm4.996 0h4.002v3.006h-4.002z" transform="matrix(.26458 0 0 .26458 -.927 -.239)"/></svg>