<svg xmlns="http://www.w3.org/2000/svg" width="128" height="128"><path fill="none" d="M0 0h128v128H0z" style="fill:#fff;fill-opacity:0;stroke:none"/><path d="M77 46.719v64.57C77 118.31 71.309 124 64.289 124h-.578C56.69 124 51 118.309 51 111.29V46.718c0-7.02 5.691-12.711 12.71-12.711h.579c7.02 0 12.711 5.691 12.711 12.71zm0 0" style="fill:#000;fill-opacity:1;fill-rule:nonzero;stroke:#fff;stroke-width:3.99861;stroke-linecap:round;stroke-linejoin:round;stroke-miterlimit:4;stroke-opacity:1"/><path d="M64.008 52.004a4.995 4.995 0 0 1-4.996-4.996 4.993 4.993 0 0 1 4.996-4.996 4.995 4.995 0 1 1 0 9.992zM64.008 68.004a4.993 4.993 0 0 1-4.996-4.996 4.995 4.995 0 1 1 9.992 0 4.995 4.995 0 0 1-4.996 4.996zM64.008 84.008a4.995 4.995 0 0 1-4.996-4.996 4.993 4.993 0 0 1 4.996-4.996 4.995 4.995 0 1 1 0 9.992zM64.008 100.004a4.996 4.996 0 0 1-4.996-5 4.995 4.995 0 1 1 9.992 0c0 2.762-2.238 5-4.996 5zm0 0" style="fill:#333;fill-opacity:1;fill-rule:nonzero;stroke:none"/><path d="M64.008 116.004a4.995 4.995 0 1 1-.001-9.991 4.995 4.995 0 0 1 0 9.99zm0 0" style="fill:#ff0;fill-opacity:1;fill-rule:nonzero;stroke:none"/><g transform="matrix(7.36126 0 0 7.36126 47.118 1.408)"><path d="M5.65.529c-.932 0-1.682.75-1.682 1.681v.436h-1.72c-.952 0-1.72.884-1.72 1.983v10.055c0 1.1.768 1.984 1.72 1.984.954 0 1.721-.884 1.721-1.984V8.202h1.759c.93 0 1.68-.75 1.68-1.681V2.21c0-.931-.75-1.681-1.68-1.681z" style="fill:none;stroke:#000;stroke-width:1.058;stroke-linecap:round;stroke-linejoin:round;paint-order:markers stroke fill"/><path d="M5.649.529c-.931 0-1.681.75-1.681 1.681v.436h-1.72c-.953 0-1.72.884-1.72 1.983v10.055c0 1.1.767 1.984 1.72 1.984s1.72-.884 1.72-1.984V8.202h1.759c.931 0 1.681-.75 1.681-1.681V2.21c0-.931-.75-1.681-1.681-1.681z" style="fill:#000;fill-opacity:1;stroke:#fff;stroke-width:.529158;stroke-linecap:round;stroke-linejoin:round;stroke-dasharray:none;stroke-opacity:1;paint-order:markers stroke fill"/><circle cx="5.688" cy="2.249" r=".661" fill="#ff0" style="paint-order:markers stroke fill;fill:#333;fill-opacity:1"/><circle cx="2.249" cy="4.365" r=".661" fill="#ff0" style="fill:#333;fill-opacity:1;paint-order:markers stroke fill"/><circle cx="2.249" cy="6.482" r=".661" fill="#333" style="paint-order:markers stroke fill"/><circle cx="2.249" cy="8.598" r=".661" fill="#333" style="paint-order:markers stroke fill"/><circle cx="2.249" cy="10.715" r=".661" fill="#333" style="paint-order:markers stroke fill"/><circle cx="2.249" cy="12.832" r=".661" fill="#333" style="paint-order:markers stroke fill"/><circle cx="2.249" cy="14.948" r=".661" fill="#333" style="paint-order:markers stroke fill"/><circle cx="5.689" cy="4.365" r=".661" fill="#333" style="paint-order:markers stroke fill"/><circle cx="5.688" cy="6.482" r=".661" fill="#ff0" style="paint-order:markers stroke fill;fill:#333;fill-opacity:1"/></g><path d="m98.811 17.964-6.42 1.964L93.9 26.47l-4.912-4.577-4.91 4.577 1.508-6.542-6.42-1.964 6.42-1.965-1.509-6.541 4.911 4.577L93.9 9.458l-1.509 6.541zM98.811 49.124l-6.42 1.965L93.9 57.63l-4.912-4.577-4.91 4.577 1.508-6.541-6.42-1.965 6.42-1.964-1.509-6.542 4.911 4.577 4.912-4.577-1.509 6.542z" style="fill:#ff0;fill-opacity:1;stroke:none;stroke-width:1.03959;paint-order:markers stroke fill"/></svg>