<svg xmlns="http://www.w3.org/2000/svg" width="128" height="128"><path fill="none" d="M0 0h128v128H0z" style="fill:#fff;fill-opacity:0;stroke:none"/><path d="M18.444-247.404h8.468c.95 0 1.719.77 1.719 1.719v.002c0 .95-.77 1.719-1.719 1.719h-8.468c-.95 0-1.719-.77-1.719-1.719v-.002c0-.95.77-1.719 1.719-1.719Zm0 0" style="fill:none;stroke-width:1.058;stroke-linecap:round;stroke-linejoin:round;stroke:#000;stroke-opacity:1;stroke-miterlimit:4" transform="rotate(90 -850.332 -942.747) scale(7.55881)"/><path d="M18.407-247.404h8.542c.929 0 1.682.753 1.682 1.682v.076c0 .929-.753 1.682-1.682 1.682h-8.542a1.682 1.682 0 0 1-1.682-1.682v-.076c0-.929.753-1.682 1.682-1.682Zm0 0" style="fill-rule:nonzero;fill:#000;fill-opacity:1;stroke-width:.529;stroke-linecap:round;stroke-linejoin:round;stroke:#fff;stroke-opacity:1;stroke-miterlimit:4" transform="rotate(90 -850.332 -942.747) scale(7.55881)"/><path d="M64.008 52.004a4.995 4.995 0 0 1-4.996-4.996 4.993 4.993 0 0 1 4.996-4.996 4.995 4.995 0 1 1 0 9.992Zm0 0" style="stroke:none;fill-rule:nonzero;fill:red;fill-opacity:1"/><path d="M64.008 68.004a4.993 4.993 0 0 1-4.996-4.996 4.995 4.995 0 1 1 9.992 0 4.995 4.995 0 0 1-4.996 4.996ZM64.008 84.008a4.995 4.995 0 0 1-4.996-4.996 4.993 4.993 0 0 1 4.996-4.996 4.995 4.995 0 1 1 0 9.992Zm0 0" style="stroke:none;fill-rule:nonzero;fill:#333;fill-opacity:1"/><path d="M64.008 100.004a4.996 4.996 0 0 1-4.996-5 4.995 4.995 0 1 1 9.992 0c0 2.762-2.238 5-4.996 5Zm0 0" style="stroke:none;fill-rule:nonzero;fill:red;fill-opacity:1"/><path d="M64.008 116.004a4.995 4.995 0 1 1-.001-9.991 4.995 4.995 0 0 1 0 9.99Zm0 0" style="stroke:none;fill-rule:nonzero;fill:#333;fill-opacity:1"/></svg>