<svg xmlns="http://www.w3.org/2000/svg" width="128" height="128"><path fill="none" d="M0 0h128v128H0z" style="fill:#fff;fill-opacity:0;stroke:none"/><path d="M77 46.719v64.57C77 118.31 71.309 124 64.289 124h-.578C56.69 124 51 118.309 51 111.29V46.718c0-7.02 5.691-12.711 12.71-12.711h.579c7.02 0 12.711 5.691 12.711 12.71zm0 0" style="fill:#000;fill-opacity:1;fill-rule:nonzero;stroke:#fff;stroke-width:3.99861;stroke-linecap:round;stroke-linejoin:round;stroke-miterlimit:4;stroke-opacity:1" transform="translate(0 -.049)"/><path d="M64.008 52.004a4.995 4.995 0 0 1-4.996-4.996 4.993 4.993 0 0 1 4.996-4.996 4.995 4.995 0 1 1 0 9.992zM64.008 68.004a4.993 4.993 0 0 1-4.996-4.996 4.995 4.995 0 1 1 9.992 0 4.995 4.995 0 0 1-4.996 4.996zM64.008 84.008a4.995 4.995 0 0 1-4.996-4.996 4.993 4.993 0 0 1 4.996-4.996 4.995 4.995 0 1 1 0 9.992zM64.008 100.004a4.996 4.996 0 0 1-4.996-5 4.995 4.995 0 1 1 9.992 0c0 2.762-2.238 5-4.996 5zm0 0" style="fill:#333;fill-opacity:1;fill-rule:nonzero;stroke:none" transform="translate(0 -.049)"/><path d="M64.008 116.004a4.995 4.995 0 1 1-.001-9.991 4.995 4.995 0 0 1 0 9.99zm0 0" style="fill:#ff0;fill-opacity:1;fill-rule:nonzero;stroke:none" transform="translate(0 -.049)"/><g transform="translate(-42.498 -.049)"><rect width="56.972" height="25.542" x="93.458" y="20" fill="none" stroke="#000" stroke-linecap="round" stroke-linejoin="round" stroke-width="7.856" ry="12.481" style="paint-order:markers stroke fill"/><rect width="25.542" height="104.121" x="93.458" y="20" fill="none" stroke="#000" stroke-linecap="round" stroke-linejoin="round" stroke-width="7.856" ry="14.731" style="paint-order:markers stroke fill"/><path stroke="#fff" stroke-linecap="round" stroke-linejoin="round" stroke-width="3.928" d="M105.94 20a12.449 12.449 0 0 0-12.475 12.474v.594c0 .252.015.505.03.765-.015.297-.037.594-.037.906v74.643c0 8.168 5.702 14.731 12.771 14.731 7.076 0 12.771-6.57 12.771-14.73V45.526h18.956a12.44 12.44 0 0 0 12.474-12.474v-.579A12.444 12.444 0 0 0 137.956 20h-31.727z" style="paint-order:markers stroke fill"/><circle cx="137.666" cy="32.771" r="4.908" fill="#ff0" style="fill:#ff0;fill-opacity:1;stroke-width:7.42501;paint-order:markers stroke fill"/><circle cx="106.229" cy="32.771" r="4.908" fill="#ff0" style="fill:#ff0;fill-opacity:1;stroke-width:7.42501;paint-order:markers stroke fill"/><circle cx="106.229" cy="48.49" r="4.908" fill="#333" style="stroke-width:7.42501;paint-order:markers stroke fill"/><circle cx="106.229" cy="64.201" r="4.908" fill="#333" style="stroke-width:7.42501;paint-order:markers stroke fill"/><circle cx="106.229" cy="79.92" r="4.908" fill="#333" style="stroke-width:7.42501;paint-order:markers stroke fill"/><circle cx="106.229" cy="95.639" r="4.908" fill="#333" style="stroke-width:7.42501;paint-order:markers stroke fill"/><circle cx="106.229" cy="111.35" r="4.908" fill="#333" style="stroke-width:7.42501;paint-order:markers stroke fill"/></g></svg>