<?xml version="1.0" encoding="UTF-8" standalone="no"?>
<svg
   width="128"
   height="128"
   version="1.1"
   id="svg30"
   xmlns="http://www.w3.org/2000/svg"
   xmlns:svg="http://www.w3.org/2000/svg">
  <defs
     id="defs34" />
  <path
     d="M 92.695611,94.998531 A 28.695613,28.695613 0 0 1 63.999997,123.69561 28.695613,28.695613 0 0 1 35.304385,94.999998 28.695613,28.695613 0 0 1 63.999997,66.304385 28.695613,28.695613 0 0 1 92.695611,94.999998"
     style="vector-effect:none;fill:#000000;stroke:#000000;stroke-width:8.60877;stroke-linecap:round;stroke-linejoin:round;stroke-miterlimit:4;stroke-dasharray:none;stroke-opacity:1;paint-order:markers stroke fill;stop-color:#000000"
     id="path22" />
  <path
     d="M 92.695616,94.998531 A 28.695613,28.695613 0 0 1 64.000005,123.69561 28.695613,28.695613 0 0 1 35.304392,94.999998 28.695613,28.695613 0 0 1 64.000005,66.304385 28.695613,28.695613 0 0 1 92.695616,94.999998"
     style="vector-effect:none;fill:#000000;stroke:#ffffff;stroke-width:2.93336;stroke-linecap:round;stroke-miterlimit:4;stroke-dasharray:none;stroke-opacity:1;paint-order:markers stroke fill;stop-color:#000000"
     id="path24" />
  <circle
     cx="110.99908"
     cy="-64"
     r="5.2800007"
     style="fill:#ffff00;fill-opacity:1;stroke:none;stroke-width:8.448;stroke-linecap:round;stroke-linejoin:round;stroke-opacity:1;paint-order:markers stroke fill;stop-color:#000000"
     transform="rotate(90)"
     id="circle82-3" />
  <rect
     style="fill:none;fill-opacity:0"
     id="rect2145"
     width="128"
     height="128"
     x="0"
     y="0" />
</svg>
