<svg xmlns="http://www.w3.org/2000/svg" width="128" height="128"><path fill="none" d="M0 0h128v128H0z" style="fill:#fff;fill-opacity:0;stroke:none"/><path d="M-30.587 162.529h10.215a6.392 6.392 0 0 1 6.393 6.393v.214a6.392 6.392 0 0 1-6.393 6.393h-10.215a6.392 6.392 0 0 1-6.391-6.393v-.214a6.392 6.392 0 0 1 6.39-6.393Zm0 0" style="fill:none;stroke-width:4;stroke-linecap:round;stroke-linejoin:round;stroke:#000;stroke-opacity:1;stroke-miterlimit:4" transform="matrix(0 1.9999 -1.9999 0 402.042 151.957)"/><path d="M-30.587 162.529h10.215a6.392 6.392 0 0 1 6.393 6.393v.214a6.392 6.392 0 0 1-6.393 6.393h-10.215a6.392 6.392 0 0 1-6.391-6.393v-.214a6.392 6.392 0 0 1 6.39-6.393Zm0 0" style="fill-rule:nonzero;fill:#000;fill-opacity:1;stroke-width:2;stroke-linecap:round;stroke-linejoin:round;stroke:#fff;stroke-opacity:1;stroke-miterlimit:4" transform="matrix(0 1.9999 -1.9999 0 402.042 151.957)"/><path d="M64 96a4.999 4.999 0 1 1 0-9.996A4.999 4.999 0 1 1 64 96Zm0 0" style="stroke:none;fill-rule:nonzero;fill:#333;fill-opacity:1"/><path d="M64 116a5 5 0 1 1 0-10 5 5 0 0 1 0 10Zm0 0" style="stroke:none;fill-rule:nonzero;fill:#f0f;fill-opacity:1"/></svg>